<?xml version="1.0" encoding="UTF-8" standalone="no"?>
<!-- Created with Inkscape (http://www.inkscape.org/) -->

<svg
   width="107.55777mm"
   height="106.45559mm"
   viewBox="0 0 107.55777 106.45559"
   version="1.1"
   id="svg5"
   sodipodi:docname="fuentes-equivalentes.svg"
   inkscape:version="1.1 (c4e8f9ed74, 2021-05-24)"
   xmlns:inkscape="http://www.inkscape.org/namespaces/inkscape"
   xmlns:sodipodi="http://sodipodi.sourceforge.net/DTD/sodipodi-0.dtd"
   xmlns:xlink="http://www.w3.org/1999/xlink"
   xmlns="http://www.w3.org/2000/svg"
   xmlns:svg="http://www.w3.org/2000/svg">
  <sodipodi:namedview
     id="namedview7"
     pagecolor="#ffffff"
     bordercolor="#666666"
     borderopacity="1.0"
     inkscape:pageshadow="2"
     inkscape:pageopacity="0.0"
     inkscape:pagecheckerboard="0"
     inkscape:document-units="mm"
     showgrid="false"
     inkscape:zoom="0.89085297"
     inkscape:cx="254.81197"
     inkscape:cy="184.09323"
     inkscape:window-width="1366"
     inkscape:window-height="715"
     inkscape:window-x="0"
     inkscape:window-y="25"
     inkscape:window-maximized="1"
     inkscape:current-layer="layer1"
     fit-margin-top="0"
     fit-margin-left="0"
     fit-margin-right="0"
     fit-margin-bottom="0" />
  <defs
     id="defs2">
    <marker
       style="overflow:visible"
       id="DotM"
       refX="0"
       refY="0"
       orient="auto"
       inkscape:stockid="DotM"
       inkscape:isstock="true">
      <path
         transform="matrix(0.4,0,0,0.4,2.96,0.4)"
         style="fill:context-stroke;fill-rule:evenodd;stroke:context-stroke;stroke-width:1pt"
         d="m -2.5,-1 c 0,2.76 -2.24,5 -5,5 -2.76,0 -5,-2.24 -5,-5 0,-2.76 2.24,-5 5,-5 2.76,0 5,2.24 5,5 z"
         id="path3171" />
    </marker>
    <g
       id="g4092">
      <symbol
         overflow="visible"
         id="symbol5130">
        <path
           style="stroke:none"
           d=""
           id="path2437" />
      </symbol>
      <symbol
         overflow="visible"
         id="symbol9379">
        <path
           style="stroke:none"
           d="M 6.75,-1.609375 H 6.5 c -0.046875,0.25 -0.09375,0.484375 -0.1875,0.71875 -0.046875,0.15625 -0.078125,0.25 -0.65625,0.25 H 4.859375 C 5,-1.203125 5.296875,-1.6875 5.75,-2.34375 c 0.46875,-0.703125 0.875,-1.390625 0.875,-2.1875 0,-1.375 -1.34375,-2.5 -3.03125,-2.5 -1.703125,0 -3.03125,1.140625 -3.03125,2.5 0,0.796875 0.40625,1.484375 0.875,2.1875 0.4375,0.65625 0.75,1.140625 0.890625,1.703125 H 1.53125 C 0.953125,-0.640625 0.921875,-0.734375 0.875,-0.875 0.78125,-1.109375 0.734375,-1.359375 0.6875,-1.609375 h -0.25 L 0.765625,0 h 1.59375 c 0.21875,0 0.25,0 0.25,-0.203125 0,-0.703125 -0.3125,-1.578125 -0.53125,-2.21875 -0.21875,-0.578125 -0.5,-1.359375 -0.5,-2.109375 0,-1.59375 1.109375,-2.28125 2.015625,-2.28125 0.953125,0 2.015625,0.71875 2.015625,2.28125 0,0.75 -0.28125,1.5 -0.5625,2.3125 -0.15625,0.421875 -0.46875,1.328125 -0.46875,2.015625 C 4.578125,0 4.609375,0 4.828125,0 h 1.59375 z m 0,0"
           id="path6513" />
      </symbol>
    </g>
    <g
       id="g9203">
      <symbol
         overflow="visible"
         id="symbol8776">
        <path
           style="stroke:none"
           d=""
           id="path9798" />
      </symbol>
      <symbol
         overflow="visible"
         id="symbol3816">
        <path
           style="stroke:none"
           d="m 4.609375,-3.375 c -0.09375,-0.625 -0.5,-1.1875 -1.28125,-1.1875 -0.609375,0 -1.25,0.171875 -2.03125,0.9375 -0.828125,0.828125 -0.890625,1.765625 -0.890625,2.0625 0,0.625 0.4375,1.78125 1.828125,1.78125 2.375,0 3.40625,-3.34375 3.40625,-4.78125 0,-1.578125 -0.921875,-2.578125 -2.15625,-2.578125 -1.4375,0 -1.90625,1.296875 -1.90625,1.578125 0,0.140625 0.09375,0.34375 0.390625,0.34375 0.328125,0 0.53125,-0.296875 0.53125,-0.515625 0,-0.359375 -0.3125,-0.359375 -0.46875,-0.359375 0.4375,-0.734375 1.15625,-0.796875 1.4375,-0.796875 0.734375,0 1.421875,0.515625 1.421875,1.8125 0,0.390625 -0.0625,0.890625 -0.265625,1.703125 z m -2.34375,3.3125 c -1.09375,0 -1.09375,-1.03125 -1.09375,-1.125 0,-0.265625 0.25,-1.65625 0.65625,-2.265625 0.390625,-0.5625 0.890625,-0.890625 1.5,-0.890625 1.09375,0 1.109375,1.125 1.109375,1.328125 0,0.71875 -0.640625,2.953125 -2.171875,2.953125 z m 0,0"
           id="path2444" />
      </symbol>
      <symbol
         overflow="visible"
         id="symbol8989">
        <path
           style="stroke:none"
           d="m 6.4375,-6.921875 c 0,-0.03125 -0.03125,-0.109375 -0.125,-0.109375 -0.046875,0 -0.046875,0.015625 -0.171875,0.15625 L 5.65625,-6.3125 c -0.25,-0.46875 -0.765625,-0.71875 -1.421875,-0.71875 -1.265625,0 -2.453125,1.15625 -2.453125,2.359375 0,0.796875 0.515625,1.265625 1.03125,1.40625 l 1.0625,0.28125 c 0.375,0.09375 0.921875,0.25 0.921875,1.0625 0,0.890625 -0.8125,1.828125 -1.796875,1.828125 -0.640625,0 -1.75,-0.21875 -1.75,-1.453125 0,-0.234375 0.0625,-0.484375 0.0625,-0.53125 0.015625,-0.046875 0.015625,-0.0625 0.015625,-0.078125 0,-0.09375 -0.0625,-0.109375 -0.109375,-0.109375 -0.046875,0 -0.078125,0.015625 -0.109375,0.046875 -0.03125,0.03125 -0.59375,2.3125 -0.59375,2.34375 0,0.046875 0.046875,0.09375 0.109375,0.09375 0.046875,0 0.0625,-0.015625 0.1875,-0.15625 L 1.296875,-0.5 c 0.421875,0.578125 1.109375,0.71875 1.6875,0.71875 1.359375,0 2.53125,-1.328125 2.53125,-2.5625 0,-0.6875 -0.34375,-1.03125 -0.484375,-1.171875 C 4.796875,-3.734375 4.640625,-3.78125 3.765625,-4 3.53125,-4.0625 3.1875,-4.171875 3.09375,-4.1875 2.828125,-4.28125 2.484375,-4.5625 2.484375,-5.09375 c 0,-0.8125 0.796875,-1.65625 1.75,-1.65625 0.8125,0 1.421875,0.4375 1.421875,1.546875 0,0.3125 -0.03125,0.5 -0.03125,0.5625 0,0 0,0.09375 0.109375,0.09375 0.109375,0 0.125,-0.03125 0.15625,-0.203125 z m 0,0"
           id="path1282" />
      </symbol>
    </g>
    <g
       id="g5765">
      <symbol
         overflow="visible"
         id="symbol9365">
        <path
           style="stroke:none"
           d=""
           id="path7183" />
      </symbol>
      <symbol
         overflow="visible"
         id="symbol3235">
        <path
           style="stroke:none"
           d="m 6.4375,-6.921875 c 0,-0.03125 -0.03125,-0.109375 -0.125,-0.109375 -0.046875,0 -0.046875,0.015625 -0.171875,0.15625 L 5.65625,-6.3125 c -0.25,-0.46875 -0.765625,-0.71875 -1.421875,-0.71875 -1.265625,0 -2.453125,1.15625 -2.453125,2.359375 0,0.796875 0.515625,1.265625 1.03125,1.40625 l 1.0625,0.28125 c 0.375,0.09375 0.921875,0.25 0.921875,1.0625 0,0.890625 -0.8125,1.828125 -1.796875,1.828125 -0.640625,0 -1.75,-0.21875 -1.75,-1.453125 0,-0.234375 0.0625,-0.484375 0.0625,-0.53125 0.015625,-0.046875 0.015625,-0.0625 0.015625,-0.078125 0,-0.09375 -0.0625,-0.109375 -0.109375,-0.109375 -0.046875,0 -0.078125,0.015625 -0.109375,0.046875 -0.03125,0.03125 -0.59375,2.3125 -0.59375,2.34375 0,0.046875 0.046875,0.09375 0.109375,0.09375 0.046875,0 0.0625,-0.015625 0.1875,-0.15625 L 1.296875,-0.5 c 0.421875,0.578125 1.109375,0.71875 1.6875,0.71875 1.359375,0 2.53125,-1.328125 2.53125,-2.5625 0,-0.6875 -0.34375,-1.03125 -0.484375,-1.171875 C 4.796875,-3.734375 4.640625,-3.78125 3.765625,-4 3.53125,-4.0625 3.1875,-4.171875 3.09375,-4.1875 2.828125,-4.28125 2.484375,-4.5625 2.484375,-5.09375 c 0,-0.8125 0.796875,-1.65625 1.75,-1.65625 0.8125,0 1.421875,0.4375 1.421875,1.546875 0,0.3125 -0.03125,0.5 -0.03125,0.5625 0,0 0,0.09375 0.109375,0.09375 0.109375,0 0.125,-0.03125 0.15625,-0.203125 z m 0,0"
           id="path3692" />
      </symbol>
    </g>
    <g
       id="g4095">
      <symbol
         overflow="visible"
         id="symbol520">
        <path
           style="stroke:none"
           d=""
           id="path9390" />
      </symbol>
      <symbol
         overflow="visible"
         id="symbol8452">
        <path
           style="stroke:none"
           d="m 2.1875,-3.28125 c 0,-0.1875 0.015625,-0.203125 0.15625,-0.34375 0.390625,-0.40625 0.921875,-0.46875 1.140625,-0.46875 0.65625,0 1.21875,0.609375 1.21875,1.875 0,1.40625 -0.703125,1.921875 -1.34375,1.921875 -0.140625,0 -0.609375,0 -1.0625,-0.546875 C 2.1875,-0.96875 2.1875,-0.984375 2.1875,-1.171875 Z m 0,2.890625 c 0.4375,0.34375 0.875,0.453125 1.28125,0.453125 1.5,0 2.515625,-0.90625 2.515625,-2.28125 0,-1.328125 -0.90625,-2.265625 -2.34375,-2.265625 -0.75,0 -1.28125,0.3125 -1.5,0.484375 V -4.484375 L 0.375,-4.40625 v 0.46875 c 0.609375,0 0.6875,0 0.6875,0.375 V 1.46875 H 0.375 V 1.9375 C 0.640625,1.921875 1.25,1.90625 1.625,1.90625 c 0.390625,0 0.984375,0.015625 1.25,0.03125 V 1.46875 H 2.1875 Z m 0,0"
           id="path7944" />
      </symbol>
    </g>
    <g
       id="g5529">
      <symbol
         overflow="visible"
         id="symbol5367">
        <path
           style="stroke:none"
           d=""
           id="path6732" />
      </symbol>
      <symbol
         overflow="visible"
         id="symbol3244">
        <path
           style="stroke:none"
           d="m 0.328125,1.71875 c -0.03125,0.125 -0.03125,0.140625 -0.03125,0.171875 0,0.140625 0.109375,0.265625 0.28125,0.265625 0.203125,0 0.328125,-0.1875 0.34375,-0.21875 0.0625,-0.078125 0.375,-1.421875 0.640625,-2.5 0.203125,0.40625 0.515625,0.671875 0.984375,0.671875 C 3.71875,0.109375 5,-1.296875 5,-2.78125 c 0,-1.0625 -0.65625,-1.625 -1.375,-1.625 -0.96875,0 -2.015625,1 -2.3125,2.21875 z m 2.21875,-1.828125 C 1.84375,-0.109375 1.6875,-0.90625 1.6875,-1 c 0,-0.03125 0.046875,-0.234375 0.078125,-0.359375 0.28125,-1.125 0.375,-1.484375 0.59375,-1.875 0.4375,-0.734375 0.9375,-0.953125 1.234375,-0.953125 0.375,0 0.6875,0.296875 0.6875,0.984375 0,0.546875 -0.28125,1.65625 -0.546875,2.140625 -0.328125,0.640625 -0.8125,0.953125 -1.1875,0.953125 z m 0,0"
           id="path872" />
      </symbol>
    </g>
  </defs>
  <g
     inkscape:label="Layer 1"
     inkscape:groupmode="layer"
     id="layer1"
     transform="translate(-26.18987,-55.497703)">
    <path
       style="fill:#666666;stroke:none;stroke-width:0.264583px;stroke-linecap:butt;stroke-linejoin:miter;stroke-opacity:1"
       d="m 74.38346,107.73936 c -2.818322,-4.35092 -13.319061,-8.005354 -19.386881,-1.61351 -6.067822,6.39186 5.516068,10.63947 4.17924,18.30057 -1.318943,7.5586 1.029417,17.70008 8.333425,11.38548 7.304008,-6.31459 13.900874,-11.71073 21.061632,-8.20358 6.757658,3.30972 12.655354,-1.23622 8.478338,-5.80911 -4.177015,-4.57288 1.08428,-12.04752 -2.9984,-13.10409 -7.028364,-1.81887 -8.9245,7.02609 -14.200661,5.41785 -3.884873,-1.18416 -2.648371,-2.02268 -5.466693,-6.37361 z"
       id="path509"
       sodipodi:nodetypes="zsssssssz" />
    <path
       style="fill:none;stroke:#000000;stroke-width:0.352778;stroke-linecap:butt;stroke-linejoin:miter;stroke-miterlimit:4;stroke-dasharray:1.41111, 1.41111;stroke-dashoffset:0;stroke-opacity:1"
       d="m 75.445196,55.754666 c -5.498955,0.85144 -18.28265,2.07133 -23.443269,10.512877 -5.160618,8.44155 -11.423996,18.072127 -16.985921,22.474031 -5.561926,4.401908 -10.974496,21.994116 -7.612968,26.210036 3.361532,4.21593 14.635713,18.39468 11.525211,25.91452 -3.110503,7.51985 12.725976,24.02481 23.688656,20.39681 10.962677,-3.62801 18.834949,-22.29843 30.683149,-16.21532 11.848196,6.08311 32.122046,-0.38159 32.542076,-5.2741 0.42002,-4.8925 13.25646,-23.12449 4.92886,-28.23899 -8.32759,-5.1145 -25.90714,-11.38417 -25.29121,-18.096657 0.61593,-6.712487 4.46268,-14.532769 -0.19371,-19.496997 -4.78938,-5.10601 -16.704439,-5.635283 -18.808674,-9.624571 -1.770634,-3.356835 -5.533245,-9.413079 -11.0322,-8.561639 z"
       id="path1485"
       sodipodi:nodetypes="zsssssssssssz" />
    <circle
       style="fill:#000000;stroke:none;stroke-width:0.211667"
       id="path1798"
       cx="127.1151"
       cy="81.515251"
       r="2.0191612" />
    <g
       inkscape:label=""
       transform="translate(-30.773562,50.272093)"
       id="g1922"
       style="fill:#ffffff">
      <g
         id="g9298"
         style="fill:#ffffff">
        <g
           style="fill:#ffffff;fill-opacity:1"
           id="g5706">
          <use
             xlink:href="#symbol9379"
             x="91.925003"
             y="81.962997"
             id="use5908"
             width="100%"
             height="100%"
             style="fill:#ffffff" />
        </g>
      </g>
    </g>
    <g
       inkscape:label=""
       transform="translate(19.007321,59.590884)"
       id="g1995">
      <g
         id="g4693">
        <g
           style="fill:#000000;fill-opacity:1"
           id="g7">
          <use
             xlink:href="#symbol3816"
             x="91.925003"
             y="81.962997"
             id="use8406"
             width="100%"
             height="100%" />
        </g>
        <g
           style="fill:#000000;fill-opacity:1"
           id="g9630">
          <use
             xlink:href="#symbol8989"
             x="97.772049"
             y="81.962997"
             id="use9073"
             width="100%"
             height="100%" />
        </g>
      </g>
    </g>
    <g
       inkscape:label=""
       transform="translate(-57.436642,-11.424937)"
       id="g2094">
      <g
         id="g8472">
        <g
           style="fill:#000000;fill-opacity:1"
           id="g8194">
          <use
             xlink:href="#symbol3235"
             x="91.925003"
             y="81.962997"
             id="use2635"
             width="100%"
             height="100%" />
        </g>
      </g>
    </g>
    <g
       inkscape:label=""
       transform="translate(30.436988,7.9949287)"
       id="g2207">
      <g
         id="g5833">
        <g
           style="fill:#000000;fill-opacity:1"
           id="g9044">
          <use
             xlink:href="#symbol8452"
             x="91.925003"
             y="81.962997"
             id="use1365"
             width="100%"
             height="100%" />
        </g>
      </g>
    </g>
    <path
       style="fill:none;stroke:#666666;stroke-width:0.264583px;stroke-linecap:butt;stroke-linejoin:miter;stroke-opacity:1;marker-start:url(#DotM)"
       d="m 51.27692,78.301976 c 0,0 -3.990762,0.7582 -5.365296,-2.970964 -1.374537,-3.729165 -0.947202,-7.286683 -4.264606,-7.331675"
       id="path3105"
       sodipodi:nodetypes="csc" />
    <g
       inkscape:label=""
       transform="translate(-10.754172,25.647456)"
       id="g3828"
       style="fill:#000000">
      <g
         id="g1494"
         style="fill:#000000">
        <g
           style="fill:#000000;fill-opacity:1"
           id="g8089">
          <use
             xlink:href="#symbol3244"
             x="91.925003"
             y="81.962997"
             id="use112"
             width="100%"
             height="100%"
             style="fill:#000000" />
        </g>
      </g>
    </g>
    <path
       style="fill:none;stroke:#000000;stroke-width:0.264583px;stroke-linecap:butt;stroke-linejoin:miter;stroke-opacity:1;marker-start:url(#DotM)"
       d="m 71.32099,116.71582 c 0,0 3.990762,0.7582 5.365296,-2.97097 1.374537,-3.72916 0.947202,-7.28668 4.264606,-7.33167"
       id="path3911"
       sodipodi:nodetypes="csc" />
  </g>
</svg>
