<?xml version="1.0" encoding="UTF-8" standalone="no"?>
<!-- Created with Inkscape (http://www.inkscape.org/) -->

<svg
   inkscape:version="1.1 (c4e8f9ed74, 2021-05-24)"
   sodipodi:docname="spherical-coordinates.svg"
   id="svg5"
   version="1.1"
   viewBox="0 0 87.903313 48.811397"
   height="1.9217085in"
   width="3.4607601in"
   xmlns:inkscape="http://www.inkscape.org/namespaces/inkscape"
   xmlns:sodipodi="http://sodipodi.sourceforge.net/DTD/sodipodi-0.dtd"
   xmlns:xlink="http://www.w3.org/1999/xlink"
   xmlns="http://www.w3.org/2000/svg"
   xmlns:svg="http://www.w3.org/2000/svg">
  <sodipodi:namedview
     id="namedview7"
     pagecolor="#ffffff"
     bordercolor="#666666"
     borderopacity="1.0"
     inkscape:pageshadow="2"
     inkscape:pageopacity="0.0"
     inkscape:pagecheckerboard="0"
     inkscape:document-units="pt"
     showgrid="false"
     inkscape:snap-bbox="true"
     inkscape:snap-bbox-midpoints="false"
     inkscape:snap-object-midpoints="true"
     inkscape:snap-global="true"
     inkscape:zoom="4"
     inkscape:cx="70.5"
     inkscape:cy="103"
     inkscape:window-width="1920"
     inkscape:window-height="1027"
     inkscape:window-x="0"
     inkscape:window-y="25"
     inkscape:window-maximized="1"
     inkscape:current-layer="layer1"
     units="in"
     width="6.66in"
     fit-margin-top="0"
     fit-margin-left="0"
     fit-margin-right="0"
     fit-margin-bottom="0" />
  <defs
     id="defs2">
    <marker
       style="overflow:visible"
       id="marker54414"
       refX="0"
       refY="0"
       orient="auto"
       inkscape:stockid="StopM"
       inkscape:isstock="true">
      <path
         transform="scale(0.4)"
         style="fill:none;fill-opacity:0.75;fill-rule:evenodd;stroke:context-stroke;stroke-width:1pt"
         d="M 0,5.65 V -5.65"
         id="path54412" />
    </marker>
    <marker
       style="overflow:visible"
       id="StopM"
       refX="0"
       refY="0"
       orient="auto"
       inkscape:stockid="StopM"
       inkscape:isstock="true">
      <path
         transform="scale(0.4)"
         style="fill:none;fill-opacity:0.75;fill-rule:evenodd;stroke:context-stroke;stroke-width:1pt"
         d="M 0,5.65 V -5.65"
         id="path54316" />
    </marker>
    <marker
       style="overflow:visible"
       id="marker2028"
       refX="0"
       refY="0"
       orient="auto"
       inkscape:stockid="Arrow1Mend"
       inkscape:isstock="true">
      <path
         transform="matrix(-0.4,0,0,-0.4,-4,0)"
         style="fill:context-stroke;fill-rule:evenodd;stroke:context-stroke;stroke-width:1pt"
         d="M 0,0 5,-5 -12.5,0 5,5 Z"
         id="path2026" />
    </marker>
    <marker
       style="overflow:visible"
       id="Arrow1Mend"
       refX="0"
       refY="0"
       orient="auto"
       inkscape:stockid="Arrow1Mend"
       inkscape:isstock="true">
      <path
         transform="matrix(-0.4,0,0,-0.4,-4,0)"
         style="fill:context-stroke;fill-rule:evenodd;stroke:context-stroke;stroke-width:1pt"
         d="M 0,0 5,-5 -12.5,0 5,5 Z"
         id="path1767" />
    </marker>
    <g
       id="g3466">
      <symbol
         overflow="visible"
         id="symbol1551">
        <path
           style="stroke:none"
           d=""
           id="path8846" />
      </symbol>
      <symbol
         overflow="visible"
         id="symbol7307">
        <path
           style="stroke:none"
           d="m 0.875,-0.59375 c -0.03125,0.15625 -0.09375,0.390625 -0.09375,0.4375 0,0.171875 0.140625,0.265625 0.296875,0.265625 0.125,0 0.296875,-0.078125 0.375,-0.28125 0,-0.015625 0.125,-0.484375 0.1875,-0.734375 l 0.21875,-0.890625 C 1.90625,-2.03125 1.96875,-2.25 2.03125,-2.46875 c 0.03125,-0.171875 0.109375,-0.46875 0.125,-0.5 0.140625,-0.3125 0.671875,-1.21875 1.625,-1.21875 0.453125,0 0.53125,0.375 0.53125,0.703125 0,0.25 -0.0625,0.53125 -0.140625,0.828125 L 3.890625,-1.5 3.6875,-0.75 c -0.03125,0.203125 -0.125,0.546875 -0.125,0.59375 0,0.171875 0.140625,0.265625 0.28125,0.265625 0.3125,0 0.375,-0.25 0.453125,-0.5625 0.140625,-0.5625 0.515625,-2.015625 0.59375,-2.40625 0.03125,-0.125 0.5625,-1.328125 1.65625,-1.328125 0.421875,0 0.53125,0.34375 0.53125,0.703125 0,0.5625 -0.421875,1.703125 -0.625,2.234375 -0.078125,0.234375 -0.125,0.34375 -0.125,0.546875 0,0.46875 0.34375,0.8125 0.8125,0.8125 0.9375,0 1.3125,-1.453125 1.3125,-1.53125 0,-0.109375 -0.09375,-0.109375 -0.125,-0.109375 -0.09375,0 -0.09375,0.03125 -0.140625,0.1875 -0.15625,0.53125 -0.46875,1.234375 -1.015625,1.234375 -0.171875,0 -0.25,-0.09375 -0.25,-0.328125 0,-0.25 0.09375,-0.484375 0.1875,-0.703125 0.1875,-0.53125 0.609375,-1.625 0.609375,-2.203125 0,-0.640625 -0.40625,-1.0625 -1.15625,-1.0625 -0.734375,0 -1.25,0.4375 -1.625,0.96875 0,-0.125 -0.03125,-0.46875 -0.3125,-0.703125 -0.25,-0.21875 -0.5625,-0.265625 -0.8125,-0.265625 -0.90625,0 -1.390625,0.640625 -1.5625,0.875 -0.046875,-0.578125 -0.46875,-0.875 -0.921875,-0.875 -0.453125,0 -0.640625,0.390625 -0.734375,0.5625 -0.171875,0.359375 -0.296875,0.9375 -0.296875,0.96875 0,0.109375 0.09375,0.109375 0.109375,0.109375 0.109375,0 0.109375,-0.015625 0.171875,-0.234375 0.171875,-0.703125 0.375,-1.1875 0.734375,-1.1875 0.15625,0 0.296875,0.078125 0.296875,0.453125 0,0.21875 -0.03125,0.328125 -0.15625,0.84375 z m 0,0"
           id="path3050" />
      </symbol>
      <symbol
         overflow="visible"
         id="symbol7403">
        <path
           style="stroke:none"
           d=""
           id="path8989" />
      </symbol>
      <symbol
         overflow="visible"
         id="symbol8403">
        <path
           style="stroke:none"
           d="m 0.515625,0.84375 c -0.046875,0.203125 -0.0625,0.25 -0.328125,0.25 -0.09375,0 -0.1875,0 -0.1875,0.15625 0,0.078125 0.0625,0.109375 0.09375,0.109375 0.171875,0 0.40625,-0.03125 0.59375,-0.03125 0.234375,0 0.5,0.03125 0.734375,0.03125 0.0625,0 0.140625,-0.03125 0.140625,-0.15625 0,-0.109375 -0.09375,-0.109375 -0.1875,-0.109375 -0.15625,0 -0.34375,0 -0.34375,-0.078125 0,-0.03125 0.0625,-0.21875 0.078125,-0.3125 0.09375,-0.375 0.1875,-0.75 0.265625,-1.046875 0.078125,0.140625 0.296875,0.40625 0.71875,0.40625 0.84375,0 1.78125,-0.9375 1.78125,-1.96875 0,-0.8125 -0.5625,-1.171875 -1.03125,-1.171875 -0.4375,0 -0.8125,0.296875 -1,0.5 -0.109375,-0.40625 -0.5,-0.5 -0.71875,-0.5 -0.265625,0 -0.4375,0.1875 -0.546875,0.375 -0.140625,0.234375 -0.25,0.65625 -0.25,0.703125 0,0.078125 0.09375,0.078125 0.125,0.078125 0.09375,0 0.09375,-0.015625 0.140625,-0.203125 0.109375,-0.40625 0.25,-0.75 0.515625,-0.75 0.1875,0 0.234375,0.15625 0.234375,0.34375 0,0.078125 -0.015625,0.15625 -0.03125,0.203125 z M 1.84375,-2.234375 C 2.25,-2.78125 2.59375,-2.875 2.8125,-2.875 c 0.28125,0 0.515625,0.203125 0.515625,0.671875 0,0.28125 -0.15625,1 -0.359375,1.40625 -0.1875,0.34375 -0.515625,0.671875 -0.875,0.671875 -0.5,0 -0.625,-0.53125 -0.625,-0.609375 0,-0.03125 0.015625,-0.078125 0.015625,-0.109375 z m 0,0"
           id="path5018" />
      </symbol>
    </g>
    <g
       id="g7306">
      <symbol
         overflow="visible"
         id="symbol4748">
        <path
           style="stroke:none"
           d=""
           id="path6200" />
      </symbol>
      <symbol
         overflow="visible"
         id="symbol6086">
        <path
           style="stroke:none"
           d="m 2.1875,-3.28125 c 0,-0.1875 0.015625,-0.203125 0.15625,-0.34375 0.390625,-0.40625 0.921875,-0.46875 1.140625,-0.46875 0.65625,0 1.21875,0.609375 1.21875,1.875 0,1.40625 -0.703125,1.921875 -1.34375,1.921875 -0.140625,0 -0.609375,0 -1.0625,-0.546875 C 2.1875,-0.96875 2.1875,-0.984375 2.1875,-1.171875 Z m 0,2.890625 c 0.4375,0.34375 0.875,0.453125 1.28125,0.453125 1.5,0 2.515625,-0.90625 2.515625,-2.28125 0,-1.328125 -0.90625,-2.265625 -2.34375,-2.265625 -0.75,0 -1.28125,0.3125 -1.5,0.484375 V -4.484375 L 0.375,-4.40625 v 0.46875 c 0.609375,0 0.6875,0 0.6875,0.375 V 1.46875 H 0.375 V 1.9375 C 0.640625,1.921875 1.25,1.90625 1.625,1.90625 c 0.390625,0 0.984375,0.015625 1.25,0.03125 V 1.46875 H 2.1875 Z m 0,0"
           id="path5382" />
      </symbol>
    </g>
    <g
       id="g8698">
      <symbol
         overflow="visible"
         id="symbol764">
        <path
           style="stroke:none"
           d=""
           id="path3987" />
      </symbol>
      <symbol
         overflow="visible"
         id="symbol2597">
        <path
           style="stroke:none"
           d="m 4.234375,-1.421875 c 0,0.1875 0,0.21875 -0.15625,0.421875 -0.40625,0.59375 -0.90625,0.703125 -1.203125,0.703125 -0.625,0 -1.21875,-0.578125 -1.21875,-1.90625 0,-1.421875 0.734375,-1.890625 1.328125,-1.890625 0.765625,0 1.25,0.796875 1.25,1.296875 z m 0.125,-2.28125 c -0.34375,-0.484375 -0.90625,-0.78125 -1.5,-0.78125 -1.453125,0 -2.484375,0.890625 -2.484375,2.265625 0,1.40625 1.015625,2.28125 2.390625,2.28125 0.5,0 0.9375,-0.140625 1.40625,-0.546875 V 1.46875 h -0.6875 V 1.9375 c 0.28125,-0.015625 0.875,-0.03125 1.25,-0.03125 0.390625,0 0.984375,0.015625 1.25,0.03125 V 1.46875 h -0.6875 v -5.953125 h -0.40625 z m 0,0"
           id="path3128" />
      </symbol>
    </g>
    <g
       id="g2767">
      <symbol
         overflow="visible"
         id="symbol2756">
        <path
           style="stroke:none"
           d=""
           id="path2483" />
      </symbol>
      <symbol
         overflow="visible"
         id="symbol5714">
        <path
           style="stroke:none"
           d="m 2.03125,-3.359375 v -1.125 L 0.375,-4.40625 v 0.46875 c 0.609375,0 0.6875,0 0.6875,0.390625 V -0.46875 H 0.375 V 0 c 0.34375,-0.015625 0.796875,-0.03125 1.25,-0.03125 0.375,0 1.015625,0 1.375,0.03125 V -0.46875 H 2.140625 v -1.75 c 0,-0.6875 0.234375,-1.90625 1.234375,-1.90625 0,0.015625 -0.1875,0.171875 -0.1875,0.453125 0,0.40625 0.328125,0.609375 0.609375,0.609375 0.296875,0 0.609375,-0.203125 0.609375,-0.609375 0,-0.53125 -0.53125,-0.8125 -1.0625,-0.8125 -0.6875,0 -1.09375,0.5 -1.3125,1.125 z m 0,0"
           id="path7689" />
      </symbol>
    </g>
    <marker
       style="overflow:visible"
       id="Arrow1Mend-7"
       refX="0"
       refY="0"
       orient="auto"
       inkscape:stockid="Arrow1Mend"
       inkscape:isstock="true">
      <path
         transform="matrix(-0.4,0,0,-0.4,-4,0)"
         style="fill:context-stroke;fill-rule:evenodd;stroke:context-stroke;stroke-width:1pt"
         d="M 0,0 5,-5 -12.5,0 5,5 Z"
         id="path1767-5" />
    </marker>
    <marker
       style="overflow:visible"
       id="marker2028-3"
       refX="0"
       refY="0"
       orient="auto"
       inkscape:stockid="Arrow1Mend"
       inkscape:isstock="true">
      <path
         transform="matrix(-0.4,0,0,-0.4,-4,0)"
         style="fill:context-stroke;fill-rule:evenodd;stroke:context-stroke;stroke-width:1pt"
         d="M 0,0 5,-5 -12.5,0 5,5 Z"
         id="path2026-5" />
    </marker>
    <g
       id="g2328">
      <symbol
         overflow="visible"
         id="symbol4864">
        <path
           style="stroke:none"
           d=""
           id="path710" />
      </symbol>
      <symbol
         overflow="visible"
         id="symbol2187">
        <path
           style="stroke:none"
           d="m 3.78125,-0.546875 v 0.65625 L 5.25,0 v -0.3125 c -0.6875,0 -0.78125,-0.0625 -0.78125,-0.5625 V -6.921875 L 3.046875,-6.8125 V -6.5 c 0.6875,0 0.765625,0.0625 0.765625,0.5625 v 2.15625 c -0.28125,-0.359375 -0.71875,-0.625 -1.25,-0.625 -1.171875,0 -2.21875,0.984375 -2.21875,2.265625 0,1.265625 0.96875,2.25 2.109375,2.25 0.640625,0 1.078125,-0.34375 1.328125,-0.65625 z m 0,-2.671875 v 2.046875 c 0,0.171875 0,0.1875 -0.109375,0.359375 C 3.375,-0.328125 2.9375,-0.109375 2.5,-0.109375 2.046875,-0.109375 1.6875,-0.375 1.453125,-0.75 1.203125,-1.15625 1.171875,-1.71875 1.171875,-2.140625 1.171875,-2.5 1.1875,-3.09375 1.46875,-3.546875 1.6875,-3.859375 2.0625,-4.1875 2.609375,-4.1875 c 0.34375,0 0.765625,0.15625 1.0625,0.59375 0.109375,0.171875 0.109375,0.1875 0.109375,0.375 z m 0,0"
           id="path2456" />
      </symbol>
      <symbol
         overflow="visible"
         id="symbol9726">
        <path
           style="stroke:none"
           d=""
           id="path1990" />
      </symbol>
      <symbol
         overflow="visible"
         id="symbol8875">
        <path
           style="stroke:none"
           d="m 0.875,-0.59375 c -0.03125,0.15625 -0.09375,0.390625 -0.09375,0.4375 0,0.171875 0.140625,0.265625 0.296875,0.265625 0.125,0 0.296875,-0.078125 0.375,-0.28125 0,-0.015625 0.125,-0.484375 0.1875,-0.734375 l 0.21875,-0.890625 C 1.90625,-2.03125 1.96875,-2.25 2.03125,-2.46875 c 0.03125,-0.171875 0.109375,-0.46875 0.125,-0.5 0.140625,-0.3125 0.671875,-1.21875 1.625,-1.21875 0.453125,0 0.53125,0.375 0.53125,0.703125 0,0.25 -0.0625,0.53125 -0.140625,0.828125 L 3.890625,-1.5 3.6875,-0.75 c -0.03125,0.203125 -0.125,0.546875 -0.125,0.59375 0,0.171875 0.140625,0.265625 0.28125,0.265625 0.3125,0 0.375,-0.25 0.453125,-0.5625 0.140625,-0.5625 0.515625,-2.015625 0.59375,-2.40625 0.03125,-0.125 0.5625,-1.328125 1.65625,-1.328125 0.421875,0 0.53125,0.34375 0.53125,0.703125 0,0.5625 -0.421875,1.703125 -0.625,2.234375 -0.078125,0.234375 -0.125,0.34375 -0.125,0.546875 0,0.46875 0.34375,0.8125 0.8125,0.8125 0.9375,0 1.3125,-1.453125 1.3125,-1.53125 0,-0.109375 -0.09375,-0.109375 -0.125,-0.109375 -0.09375,0 -0.09375,0.03125 -0.140625,0.1875 -0.15625,0.53125 -0.46875,1.234375 -1.015625,1.234375 -0.171875,0 -0.25,-0.09375 -0.25,-0.328125 0,-0.25 0.09375,-0.484375 0.1875,-0.703125 0.1875,-0.53125 0.609375,-1.625 0.609375,-2.203125 0,-0.640625 -0.40625,-1.0625 -1.15625,-1.0625 -0.734375,0 -1.25,0.4375 -1.625,0.96875 0,-0.125 -0.03125,-0.46875 -0.3125,-0.703125 -0.25,-0.21875 -0.5625,-0.265625 -0.8125,-0.265625 -0.90625,0 -1.390625,0.640625 -1.5625,0.875 -0.046875,-0.578125 -0.46875,-0.875 -0.921875,-0.875 -0.453125,0 -0.640625,0.390625 -0.734375,0.5625 -0.171875,0.359375 -0.296875,0.9375 -0.296875,0.96875 0,0.109375 0.09375,0.109375 0.109375,0.109375 0.109375,0 0.109375,-0.015625 0.171875,-0.234375 0.171875,-0.703125 0.375,-1.1875 0.734375,-1.1875 0.15625,0 0.296875,0.078125 0.296875,0.453125 0,0.21875 -0.03125,0.328125 -0.15625,0.84375 z m 0,0"
           id="path4940" />
      </symbol>
    </g>
    <g
       id="g3524">
      <symbol
         overflow="visible"
         id="symbol754">
        <path
           style="stroke:none"
           d=""
           id="path5776" />
      </symbol>
      <symbol
         overflow="visible"
         id="symbol6569">
        <path
           style="stroke:none"
           d="m 5.515625,-6.78125 h -5.1875 v 0.3125 H 0.5625 c 0.765625,0 0.796875,0.109375 0.796875,0.46875 v 5.21875 c 0,0.359375 -0.03125,0.46875 -0.796875,0.46875 H 0.328125 V 0 c 0.34375,-0.03125 1.125,-0.03125 1.515625,-0.03125 0.40625,0 1.3125,0 1.671875,0.03125 V -0.3125 H 3.1875 C 2.25,-0.3125 2.25,-0.4375 2.25,-0.78125 v -5.296875 c 0,-0.328125 0.015625,-0.390625 0.484375,-0.390625 h 1.03125 c 1.421875,0 1.625,0.59375 1.78125,1.9375 h 0.25 z m 0,0"
           id="path4953" />
      </symbol>
    </g>
    <g
       id="g5896">
      <symbol
         overflow="visible"
         id="symbol9034">
        <path
           style="stroke:none"
           d=""
           id="path602" />
      </symbol>
      <symbol
         overflow="visible"
         id="symbol174">
        <path
           style="stroke:none"
           d="m 3.3125,-0.75 c 0.046875,0.390625 0.3125,0.8125 0.78125,0.8125 0.21875,0 0.828125,-0.140625 0.828125,-0.953125 v -0.5625 h -0.25 v 0.5625 c 0,0.578125 -0.25,0.640625 -0.359375,0.640625 -0.328125,0 -0.375,-0.453125 -0.375,-0.5 v -1.984375 c 0,-0.421875 0,-0.8125 -0.359375,-1.1875 C 3.1875,-4.3125 2.6875,-4.46875 2.21875,-4.46875 c -0.828125,0 -1.515625,0.46875 -1.515625,1.125 0,0.296875 0.203125,0.46875 0.46875,0.46875 0.28125,0 0.453125,-0.203125 0.453125,-0.453125 0,-0.125 -0.046875,-0.453125 -0.515625,-0.453125 C 1.390625,-4.140625 1.875,-4.25 2.1875,-4.25 c 0.5,0 1.0625,0.390625 1.0625,1.28125 v 0.359375 c -0.515625,0.03125 -1.203125,0.0625 -1.828125,0.359375 -0.75,0.34375 -1,0.859375 -1,1.296875 0,0.8125 0.96875,1.0625 1.59375,1.0625 0.65625,0 1.109375,-0.40625 1.296875,-0.859375 z M 3.25,-2.390625 v 1 c 0,0.9375 -0.71875,1.28125 -1.171875,1.28125 -0.484375,0 -0.890625,-0.34375 -0.890625,-0.84375 0,-0.546875 0.421875,-1.375 2.0625,-1.4375 z m 0,0"
           id="path1423" />
      </symbol>
    </g>
    <g
       id="g1191">
      <symbol
         overflow="visible"
         id="symbol883">
        <path
           style="stroke:none"
           d=""
           id="path6891" />
      </symbol>
      <symbol
         overflow="visible"
         id="symbol8936">
        <path
           style="stroke:none"
           d="m 1.71875,-3.765625 v -3.15625 L 0.28125,-6.8125 V -6.5 c 0.703125,0 0.78125,0.0625 0.78125,0.5625 V 0 h 0.25 c 0,-0.015625 0.078125,-0.15625 0.359375,-0.625 0.140625,0.234375 0.5625,0.734375 1.296875,0.734375 1.1875,0 2.21875,-0.984375 2.21875,-2.265625 0,-1.265625 -0.96875,-2.25 -2.109375,-2.25 -0.78125,0 -1.203125,0.46875 -1.359375,0.640625 z m 0.03125,2.625 V -3.1875 c 0,-0.1875 0,-0.203125 0.109375,-0.359375 C 2.25,-4.109375 2.796875,-4.1875 3.03125,-4.1875 c 0.453125,0 0.8125,0.265625 1.046875,0.640625 0.265625,0.40625 0.28125,0.96875 0.28125,1.390625 0,0.359375 -0.015625,0.953125 -0.296875,1.40625 -0.21875,0.3125 -0.59375,0.640625 -1.125,0.640625 -0.453125,0 -0.8125,-0.234375 -1.046875,-0.609375 C 1.75,-0.921875 1.75,-0.953125 1.75,-1.140625 Z m 0,0"
           id="path7489" />
      </symbol>
    </g>
    <g
       id="g2693">
      <symbol
         overflow="visible"
         id="symbol8893">
        <path
           style="stroke:none"
           d=""
           id="path5903" />
      </symbol>
      <symbol
         overflow="visible"
         id="symbol4129">
        <path
           style="stroke:none"
           d="m 1.71875,-3.765625 v -3.15625 L 0.28125,-6.8125 V -6.5 c 0.703125,0 0.78125,0.0625 0.78125,0.5625 V 0 h 0.25 c 0,-0.015625 0.078125,-0.15625 0.359375,-0.625 0.140625,0.234375 0.5625,0.734375 1.296875,0.734375 1.1875,0 2.21875,-0.984375 2.21875,-2.265625 0,-1.265625 -0.96875,-2.25 -2.109375,-2.25 -0.78125,0 -1.203125,0.46875 -1.359375,0.640625 z m 0.03125,2.625 V -3.1875 c 0,-0.1875 0,-0.203125 0.109375,-0.359375 C 2.25,-4.109375 2.796875,-4.1875 3.03125,-4.1875 c 0.453125,0 0.8125,0.265625 1.046875,0.640625 0.265625,0.40625 0.28125,0.96875 0.28125,1.390625 0,0.359375 -0.015625,0.953125 -0.296875,1.40625 -0.21875,0.3125 -0.59375,0.640625 -1.125,0.640625 -0.453125,0 -0.8125,-0.234375 -1.046875,-0.609375 C 1.75,-0.921875 1.75,-0.953125 1.75,-1.140625 Z m 0,0"
           id="path8053" />
      </symbol>
    </g>
    <g
       id="g1139">
      <symbol
         overflow="visible"
         id="symbol8342">
        <path
           style="stroke:none"
           d=""
           id="path1370" />
      </symbol>
      <symbol
         overflow="visible"
         id="symbol2431">
        <path
           style="stroke:none"
           d="m 3.3125,-0.75 c 0.046875,0.390625 0.3125,0.8125 0.78125,0.8125 0.21875,0 0.828125,-0.140625 0.828125,-0.953125 v -0.5625 h -0.25 v 0.5625 c 0,0.578125 -0.25,0.640625 -0.359375,0.640625 -0.328125,0 -0.375,-0.453125 -0.375,-0.5 v -1.984375 c 0,-0.421875 0,-0.8125 -0.359375,-1.1875 C 3.1875,-4.3125 2.6875,-4.46875 2.21875,-4.46875 c -0.828125,0 -1.515625,0.46875 -1.515625,1.125 0,0.296875 0.203125,0.46875 0.46875,0.46875 0.28125,0 0.453125,-0.203125 0.453125,-0.453125 0,-0.125 -0.046875,-0.453125 -0.515625,-0.453125 C 1.390625,-4.140625 1.875,-4.25 2.1875,-4.25 c 0.5,0 1.0625,0.390625 1.0625,1.28125 v 0.359375 c -0.515625,0.03125 -1.203125,0.0625 -1.828125,0.359375 -0.75,0.34375 -1,0.859375 -1,1.296875 0,0.8125 0.96875,1.0625 1.59375,1.0625 0.65625,0 1.109375,-0.40625 1.296875,-0.859375 z M 3.25,-2.390625 v 1 c 0,0.9375 -0.71875,1.28125 -1.171875,1.28125 -0.484375,0 -0.890625,-0.34375 -0.890625,-0.84375 0,-0.546875 0.421875,-1.375 2.0625,-1.4375 z m 0,0"
           id="path680" />
      </symbol>
    </g>
    <g
       id="g8037">
      <symbol
         overflow="visible"
         id="symbol8551">
        <path
           style="stroke:none"
           d=""
           id="path6752" />
      </symbol>
      <symbol
         overflow="visible"
         id="symbol5688">
        <path
           style="stroke:none"
           d="m 4.359375,-6.671875 c 0,-0.03125 0.03125,-0.140625 0.03125,-0.140625 0,-0.015625 0,-0.109375 -0.125,-0.109375 -0.09375,0 -0.109375,0.03125 -0.15625,0.203125 L 3.53125,-4.421875 c -1.578125,0.0625 -3.046875,1.375 -3.046875,2.734375 0,0.953125 0.703125,1.734375 1.921875,1.8125 C 2.328125,0.421875 2.25,0.75 2.171875,1.0625 c -0.125,0.46875 -0.21875,0.84375 -0.21875,0.875 0,0.09375 0.078125,0.109375 0.125,0.109375 C 2.125,2.046875 2.140625,2.03125 2.171875,2 2.1875,1.984375 2.25,1.75 2.28125,1.609375 L 2.65625,0.125 c 1.609375,-0.0625 3.0625,-1.40625 3.0625,-2.734375 0,-0.796875 -0.53125,-1.703125 -1.921875,-1.8125 z m -1.90625,6.578125 c -0.59375,-0.03125 -1.3125,-0.390625 -1.3125,-1.375 0,-1.203125 0.859375,-2.59375 2.34375,-2.734375 z m 1.28125,-4.109375 c 0.765625,0.046875 1.328125,0.5 1.328125,1.375 0,1.1875 -0.859375,2.609375 -2.34375,2.734375 z m 0,0"
           id="path7230" />
      </symbol>
    </g>
    <g
       id="g9167">
      <symbol
         overflow="visible"
         id="symbol4098">
        <path
           style="stroke:none"
           d=""
           id="path8711" />
      </symbol>
      <symbol
         overflow="visible"
         id="symbol1131">
        <path
           style="stroke:none"
           d="m 4.359375,-6.671875 c 0,-0.03125 0.03125,-0.140625 0.03125,-0.140625 0,-0.015625 0,-0.109375 -0.125,-0.109375 -0.09375,0 -0.109375,0.03125 -0.15625,0.203125 L 3.53125,-4.421875 c -1.578125,0.0625 -3.046875,1.375 -3.046875,2.734375 0,0.953125 0.703125,1.734375 1.921875,1.8125 C 2.328125,0.421875 2.25,0.75 2.171875,1.0625 c -0.125,0.46875 -0.21875,0.84375 -0.21875,0.875 0,0.09375 0.078125,0.109375 0.125,0.109375 C 2.125,2.046875 2.140625,2.03125 2.171875,2 2.1875,1.984375 2.25,1.75 2.28125,1.609375 L 2.65625,0.125 c 1.609375,-0.0625 3.0625,-1.40625 3.0625,-2.734375 0,-0.796875 -0.53125,-1.703125 -1.921875,-1.8125 z m -1.90625,6.578125 c -0.59375,-0.03125 -1.3125,-0.390625 -1.3125,-1.375 0,-1.203125 0.859375,-2.59375 2.34375,-2.734375 z m 1.28125,-4.109375 c 0.765625,0.046875 1.328125,0.5 1.328125,1.375 0,1.1875 -0.859375,2.609375 -2.34375,2.734375 z m 0,0"
           id="path4704" />
      </symbol>
      <symbol
         overflow="visible"
         id="symbol5090">
        <path
           style="stroke:none"
           d=""
           id="path480" />
      </symbol>
      <symbol
         overflow="visible"
         id="symbol4410">
        <path
           style="stroke:none"
           d="m 2.015625,-3.296875 c 0.0625,-0.109375 0.0625,-0.171875 0.0625,-0.21875 0,-0.21875 -0.1875,-0.375 -0.40625,-0.375 -0.265625,0 -0.34375,0.21875 -0.375,0.328125 L 0.375,-0.546875 c -0.015625,0.015625 -0.046875,0.09375 -0.046875,0.109375 0,0.078125 0.21875,0.15625 0.28125,0.15625 0.046875,0 0.046875,-0.015625 0.09375,-0.125 z m 0,0"
           id="path6429" />
      </symbol>
    </g>
    <g
       id="g5890">
      <symbol
         overflow="visible"
         id="symbol6235">
        <path
           style="stroke:none"
           d=""
           id="path79" />
      </symbol>
      <symbol
         overflow="visible"
         id="symbol3820">
        <path
           style="stroke:none"
           d="m 3.5625,-2.90625 c 0.40625,1.046875 0.890625,2.5625 1.046875,2.796875 0.15625,0.21875 0.25,0.21875 0.53125,0.21875 h 0.21875 c 0.09375,-0.015625 0.109375,-0.0625 0.109375,-0.09375 0,-0.03125 -0.03125,-0.0625 -0.0625,-0.09375 C 5.3125,-0.1875 5.25,-0.34375 5.1875,-0.53125 L 3.15625,-6.203125 c -0.21875,-0.578125 -0.75,-0.71875 -1.21875,-0.71875 -0.046875,0 -0.1875,0 -0.1875,0.109375 0,0.078125 0.078125,0.109375 0.09375,0.109375 C 2.171875,-6.65625 2.25,-6.59375 2.5,-5.90625 l 0.953125,2.703125 -2.75,2.734375 c -0.109375,0.125 -0.171875,0.171875 -0.171875,0.3125 0,0.171875 0.140625,0.28125 0.296875,0.28125 0.15625,0 0.25,-0.109375 0.328125,-0.203125 z m 0,0"
           id="path1898" />
      </symbol>
      <symbol
         overflow="visible"
         id="symbol5166">
        <path
           style="stroke:none"
           d=""
           id="path9576" />
      </symbol>
      <symbol
         overflow="visible"
         id="symbol6967">
        <path
           style="stroke:none"
           d="m 2.015625,-3.296875 c 0.0625,-0.109375 0.0625,-0.171875 0.0625,-0.21875 0,-0.21875 -0.1875,-0.375 -0.40625,-0.375 -0.265625,0 -0.34375,0.21875 -0.375,0.328125 L 0.375,-0.546875 c -0.015625,0.015625 -0.046875,0.09375 -0.046875,0.109375 0,0.078125 0.21875,0.15625 0.28125,0.15625 0.046875,0 0.046875,-0.015625 0.09375,-0.125 z m 0,0"
           id="path836" />
      </symbol>
    </g>
    <g
       id="g2244">
      <symbol
         overflow="visible"
         id="symbol7094">
        <path
           style="stroke:none"
           d=""
           id="path2325" />
      </symbol>
      <symbol
         overflow="visible"
         id="symbol1935">
        <path
           style="stroke:none"
           d="m 3.5625,-2.90625 c 0.40625,1.046875 0.890625,2.5625 1.046875,2.796875 0.15625,0.21875 0.25,0.21875 0.53125,0.21875 h 0.21875 c 0.09375,-0.015625 0.109375,-0.0625 0.109375,-0.09375 0,-0.03125 -0.03125,-0.0625 -0.0625,-0.09375 C 5.3125,-0.1875 5.25,-0.34375 5.1875,-0.53125 L 3.15625,-6.203125 c -0.21875,-0.578125 -0.75,-0.71875 -1.21875,-0.71875 -0.046875,0 -0.1875,0 -0.1875,0.109375 0,0.078125 0.078125,0.109375 0.09375,0.109375 C 2.171875,-6.65625 2.25,-6.59375 2.5,-5.90625 l 0.953125,2.703125 -2.75,2.734375 c -0.109375,0.125 -0.171875,0.171875 -0.171875,0.3125 0,0.171875 0.140625,0.28125 0.296875,0.28125 0.15625,0 0.25,-0.109375 0.328125,-0.203125 z m 0,0"
           id="path771" />
      </symbol>
    </g>
    <g
       id="g3759">
      <symbol
         overflow="visible"
         id="symbol5206">
        <path
           style="stroke:none"
           d=""
           id="path9936" />
      </symbol>
      <symbol
         overflow="visible"
         id="symbol3015">
        <path
           style="stroke:none"
           d="M 4.828125,-4.09375 4,-6.078125 c -0.03125,-0.078125 -0.046875,-0.125 -0.046875,-0.125 0,-0.0625 0.15625,-0.25 0.578125,-0.296875 0.109375,-0.015625 0.203125,-0.015625 0.203125,-0.1875 0,-0.125 -0.125,-0.125 -0.15625,-0.125 -0.40625,0 -0.828125,0.03125 -1.25,0.03125 -0.25,0 -0.859375,-0.03125 -1.109375,-0.03125 -0.0625,0 -0.1875,0 -0.1875,0.203125 C 2.03125,-6.5 2.140625,-6.5 2.265625,-6.5 c 0.59375,0 0.65625,0.09375 0.75,0.3125 l 1.171875,2.78125 -2.109375,2.265625 -0.125,0.109375 C 1.46875,-0.5 1,-0.34375 0.484375,-0.3125 c -0.125,0.015625 -0.21875,0.015625 -0.21875,0.203125 0,0.015625 0,0.109375 0.140625,0.109375 0.296875,0 0.625,-0.03125 0.921875,-0.03125 C 1.703125,-0.03125 2.09375,0 2.453125,0 2.515625,0 2.625,0 2.625,-0.203125 2.625,-0.296875 2.53125,-0.3125 2.515625,-0.3125 c -0.09375,0 -0.40625,-0.03125 -0.40625,-0.3125 0,-0.15625 0.15625,-0.3125 0.265625,-0.4375 L 3.40625,-2.140625 4.296875,-3.125 l 1,2.390625 c 0.046875,0.109375 0.0625,0.109375 0.0625,0.140625 0,0.078125 -0.203125,0.25 -0.578125,0.28125 C 4.671875,-0.296875 4.578125,-0.296875 4.578125,-0.125 4.578125,0 4.6875,0 4.71875,0 5,0 5.703125,-0.03125 5.984375,-0.03125 6.234375,-0.03125 6.84375,0 7.09375,0 c 0.0625,0 0.1875,0 0.1875,-0.1875 0,-0.125 -0.109375,-0.125 -0.1875,-0.125 -0.65625,0 -0.6875,-0.03125 -0.859375,-0.4375 C 5.859375,-1.671875 5.1875,-3.234375 4.953125,-3.828125 5.625,-4.53125 6.671875,-5.71875 7,-5.984375 7.28125,-6.234375 7.671875,-6.46875 8.265625,-6.5 c 0.125,-0.015625 0.21875,-0.015625 0.21875,-0.203125 0,0 0,-0.109375 -0.125,-0.109375 -0.296875,0 -0.640625,0.03125 -0.9375,0.03125 -0.375,0 -0.75,-0.03125 -1.109375,-0.03125 -0.0625,0 -0.1875,0 -0.1875,0.203125 0,0.0625 0.046875,0.09375 0.109375,0.109375 0.09375,0.015625 0.40625,0.03125 0.40625,0.3125 0,0.140625 -0.109375,0.265625 -0.1875,0.359375 z m 0,0"
           id="path8575" />
      </symbol>
    </g>
    <g
       id="g2012">
      <symbol
         overflow="visible"
         id="symbol9179">
        <path
           style="stroke:none"
           d=""
           id="path8593" />
      </symbol>
      <symbol
         overflow="visible"
         id="symbol1200">
        <path
           style="stroke:none"
           d="M 5.953125,-5.671875 6.09375,-5.8125 C 6.390625,-6.109375 6.71875,-6.453125 7.390625,-6.5 7.5,-6.515625 7.59375,-6.515625 7.59375,-6.6875 c 0,-0.078125 -0.046875,-0.125 -0.125,-0.125 -0.265625,0 -0.546875,0.03125 -0.8125,0.03125 -0.34375,0 -0.6875,-0.03125 -1,-0.03125 -0.0625,0 -0.1875,0 -0.1875,0.1875 0,0.109375 0.09375,0.125 0.140625,0.125 0.078125,0 0.359375,0.015625 0.359375,0.234375 0,0.171875 -0.234375,0.421875 -0.265625,0.46875 L 3.390625,-3.125 2.296875,-6.09375 C 2.234375,-6.234375 2.234375,-6.25 2.234375,-6.265625 2.234375,-6.5 2.71875,-6.5 2.828125,-6.5 c 0.125,0 0.234375,0 0.234375,-0.203125 0,-0.109375 -0.125,-0.109375 -0.15625,-0.109375 -0.28125,0 -0.96875,0.03125 -1.25,0.03125 -0.25,0 -0.875,-0.03125 -1.125,-0.03125 -0.046875,0 -0.1875,0 -0.1875,0.203125 C 0.34375,-6.5 0.453125,-6.5 0.578125,-6.5 c 0.59375,0 0.640625,0.09375 0.734375,0.34375 L 2.53125,-2.875 c 0.015625,0.03125 0.046875,0.140625 0.046875,0.15625 0,0.03125 -0.40625,1.640625 -0.453125,1.828125 C 2,-0.34375 1.984375,-0.3125 1.1875,-0.3125 c -0.1875,0 -0.265625,0 -0.265625,0.203125 C 0.921875,0 1.03125,0 1.0625,0 c 0.265625,0 0.96875,-0.03125 1.25,-0.03125 0.28125,0 1,0.03125 1.28125,0.03125 0.0625,0 0.1875,0 0.1875,-0.203125 C 3.78125,-0.3125 3.6875,-0.3125 3.5,-0.3125 c -0.015625,0 -0.203125,0 -0.375,-0.015625 C 2.90625,-0.34375 2.84375,-0.375 2.84375,-0.484375 c 0,-0.078125 0.09375,-0.421875 0.140625,-0.625 l 0.359375,-1.40625 c 0.046875,-0.203125 0.0625,-0.21875 0.140625,-0.3125 z m 0,0"
           id="path7215" />
      </symbol>
    </g>
    <g
       id="g9880">
      <symbol
         overflow="visible"
         id="symbol4967">
        <path
           style="stroke:none"
           d=""
           id="path5807" />
      </symbol>
      <symbol
         overflow="visible"
         id="symbol9850">
        <path
           style="stroke:none"
           d="m 7.171875,-6.5625 c 0.015625,-0.046875 0.03125,-0.09375 0.03125,-0.15625 0,-0.09375 -0.046875,-0.09375 -0.25,-0.09375 H 2.75 c -0.234375,0 -0.25,0.015625 -0.3125,0.203125 L 1.890625,-4.8125 c -0.015625,0.046875 -0.03125,0.125 -0.03125,0.140625 0,0 0,0.109375 0.125,0.109375 0.09375,0 0.109375,-0.078125 0.125,-0.109375 C 2.5,-5.84375 3.015625,-6.5 4.5625,-6.5 h 1.625 L 0.625,-0.265625 c 0,0 -0.046875,0.140625 -0.046875,0.171875 C 0.578125,0 0.640625,0 0.828125,0 H 5.15625 c 0.25,0 0.25,-0.015625 0.3125,-0.203125 L 6.1875,-2.40625 c 0,-0.03125 0.03125,-0.109375 0.03125,-0.140625 0,-0.0625 -0.03125,-0.109375 -0.125,-0.109375 -0.09375,0 -0.109375,0.03125 -0.171875,0.25 C 5.484375,-1.0625 5,-0.34375 3.3125,-0.34375 H 1.609375 Z m 0,0"
           id="path8503" />
      </symbol>
    </g>
    <g
       id="g5262">
      <symbol
         overflow="visible"
         id="symbol5924">
        <path
           style="stroke:none"
           d=""
           id="path3054" />
      </symbol>
      <symbol
         overflow="visible"
         id="symbol8629">
        <path
           style="stroke:none"
           d="M 3.328125,-3.015625 C 3.390625,-3.265625 3.625,-4.1875 4.3125,-4.1875 c 0.046875,0 0.296875,0 0.5,0.125 C 4.53125,-4 4.34375,-3.765625 4.34375,-3.515625 c 0,0.15625 0.109375,0.34375 0.375,0.34375 0.21875,0 0.53125,-0.171875 0.53125,-0.578125 0,-0.515625 -0.578125,-0.65625 -0.921875,-0.65625 -0.578125,0 -0.921875,0.53125 -1.046875,0.75 -0.25,-0.65625 -0.78125,-0.75 -1.078125,-0.75 -1.03125,0 -1.609375,1.28125 -1.609375,1.53125 0,0.109375 0.109375,0.109375 0.125,0.109375 0.078125,0 0.109375,-0.03125 0.125,-0.109375 0.34375,-1.0625 1,-1.3125 1.34375,-1.3125 0.1875,0 0.53125,0.09375 0.53125,0.671875 0,0.3125 -0.171875,0.96875 -0.53125,2.375 -0.15625,0.609375 -0.515625,1.03125 -0.953125,1.03125 -0.0625,0 -0.28125,0 -0.5,-0.125 0.25,-0.0625 0.46875,-0.265625 0.46875,-0.546875 0,-0.265625 -0.21875,-0.34375 -0.359375,-0.34375 -0.3125,0 -0.546875,0.25 -0.546875,0.578125 0,0.453125 0.484375,0.65625 0.921875,0.65625 0.671875,0 1.03125,-0.703125 1.046875,-0.75 0.125,0.359375 0.484375,0.75 1.078125,0.75 1.03125,0 1.59375,-1.28125 1.59375,-1.53125 0,-0.109375 -0.078125,-0.109375 -0.109375,-0.109375 -0.09375,0 -0.109375,0.046875 -0.140625,0.109375 -0.328125,1.078125 -1,1.3125 -1.3125,1.3125 -0.390625,0 -0.546875,-0.3125 -0.546875,-0.65625 0,-0.21875 0.046875,-0.4375 0.15625,-0.875 z m 0,0"
           id="path6074" />
      </symbol>
    </g>
    <g
       id="g9219">
      <symbol
         overflow="visible"
         id="symbol5888">
        <path
           style="stroke:none"
           d=""
           id="path2094" />
      </symbol>
      <symbol
         overflow="visible"
         id="symbol3209">
        <path
           style="stroke:none"
           d="m 4.84375,-3.796875 c 0.046875,-0.140625 0.046875,-0.15625 0.046875,-0.234375 0,-0.171875 -0.140625,-0.265625 -0.296875,-0.265625 -0.09375,0 -0.25,0.0625 -0.34375,0.203125 -0.015625,0.0625 -0.109375,0.359375 -0.140625,0.546875 -0.078125,0.25 -0.140625,0.53125 -0.203125,0.796875 l -0.453125,1.796875 c -0.03125,0.140625 -0.46875,0.84375 -1.125,0.84375 -0.5,0 -0.609375,-0.4375 -0.609375,-0.8125 C 1.71875,-1.375 1.890625,-2 2.21875,-2.875 2.375,-3.28125 2.421875,-3.390625 2.421875,-3.59375 c 0,-0.4375 -0.3125,-0.8125 -0.8125,-0.8125 -0.953125,0 -1.3125,1.453125 -1.3125,1.53125 0,0.109375 0.09375,0.109375 0.109375,0.109375 0.109375,0 0.109375,-0.03125 0.15625,-0.1875 0.28125,-0.9375 0.671875,-1.234375 1.015625,-1.234375 0.078125,0 0.25,0 0.25,0.3125 0,0.25 -0.109375,0.515625 -0.171875,0.703125 -0.40625,1.0625 -0.578125,1.625 -0.578125,2.09375 0,0.890625 0.625,1.1875 1.21875,1.1875 0.390625,0 0.71875,-0.171875 1,-0.453125 -0.125,0.515625 -0.25,1.015625 -0.640625,1.546875 -0.265625,0.328125 -0.640625,0.625 -1.09375,0.625 -0.140625,0 -0.59375,-0.03125 -0.765625,-0.421875 0.15625,0 0.296875,0 0.421875,-0.125 C 1.328125,1.203125 1.421875,1.0625 1.421875,0.875 1.421875,0.5625 1.15625,0.53125 1.0625,0.53125 0.828125,0.53125 0.5,0.6875 0.5,1.171875 c 0,0.5 0.4375,0.875 1.0625,0.875 1.015625,0 2.046875,-0.90625 2.328125,-2.03125 z m 0,0"
           id="path2571" />
      </symbol>
    </g>
    <g
       id="g3018">
      <symbol
         overflow="visible"
         id="symbol3723">
        <path
           style="stroke:none"
           d=""
           id="path2976" />
      </symbol>
      <symbol
         overflow="visible"
         id="symbol3546">
        <path
           style="stroke:none"
           d="m 1.328125,-0.828125 c 0.53125,-0.578125 0.828125,-0.828125 1.1875,-1.140625 0,0 0.609375,-0.53125 0.96875,-0.890625 C 4.4375,-3.78125 4.65625,-4.265625 4.65625,-4.3125 c 0,-0.09375 -0.09375,-0.09375 -0.109375,-0.09375 -0.078125,0 -0.09375,0.015625 -0.15625,0.109375 -0.296875,0.484375 -0.5,0.640625 -0.734375,0.640625 -0.25,0 -0.359375,-0.15625 -0.515625,-0.328125 -0.1875,-0.21875 -0.359375,-0.421875 -0.6875,-0.421875 -0.75,0 -1.203125,0.921875 -1.203125,1.140625 0,0.046875 0.03125,0.109375 0.109375,0.109375 0.09375,0 0.109375,-0.046875 0.140625,-0.109375 0.1875,-0.46875 0.765625,-0.46875 0.84375,-0.46875 0.203125,0 0.390625,0.0625 0.625,0.140625 0.40625,0.15625 0.515625,0.15625 0.765625,0.15625 -0.359375,0.421875 -1.1875,1.140625 -1.375,1.296875 l -0.90625,0.84375 C 0.78125,-0.625 0.421875,-0.0625 0.421875,0.015625 c 0,0.09375 0.109375,0.09375 0.125,0.09375 0.078125,0 0.09375,-0.015625 0.15625,-0.125 0.234375,-0.359375 0.53125,-0.625 0.859375,-0.625 0.21875,0 0.328125,0.09375 0.578125,0.375 0.15625,0.21875 0.34375,0.375 0.625,0.375 1,0 1.578125,-1.265625 1.578125,-1.53125 0,-0.046875 -0.046875,-0.109375 -0.125,-0.109375 -0.09375,0 -0.109375,0.0625 -0.140625,0.140625 C 3.84375,-0.75 3.203125,-0.5625 2.875,-0.5625 c -0.1875,0 -0.375,-0.0625 -0.578125,-0.125 -0.34375,-0.125 -0.5,-0.171875 -0.703125,-0.171875 -0.015625,0 -0.171875,0 -0.265625,0.03125 z m 0,0"
           id="path5865" />
      </symbol>
    </g>
    <g
       id="g3979">
      <symbol
         overflow="visible"
         id="symbol550">
        <path
           style="stroke:none"
           d=""
           id="path3476" />
      </symbol>
      <symbol
         overflow="visible"
         id="symbol5562">
        <path
           style="stroke:none"
           d="m 4.8125,-6.65625 c 0,-0.046875 0.015625,-0.109375 0.015625,-0.15625 0,-0.09375 -0.0625,-0.109375 -0.109375,-0.109375 -0.109375,0 -0.109375,0.03125 -0.15625,0.203125 L 2.90625,-0.125 c -0.75,-0.09375 -1.125,-0.46875 -1.125,-1.125 0,-0.203125 0,-0.453125 0.53125,-1.84375 0.046875,-0.125 0.109375,-0.296875 0.109375,-0.5 0,-0.4375 -0.3125,-0.8125 -0.8125,-0.8125 -0.953125,0 -1.3125,1.453125 -1.3125,1.53125 0,0.109375 0.09375,0.109375 0.109375,0.109375 0.109375,0 0.109375,-0.03125 0.15625,-0.1875 0.28125,-0.9375 0.671875,-1.234375 1.015625,-1.234375 0.078125,0 0.25,0 0.25,0.3125 0,0.265625 -0.109375,0.515625 -0.234375,0.859375 C 1.109375,-1.75 1.109375,-1.5 1.109375,-1.328125 1.109375,-0.375 1.890625,0.03125 2.84375,0.09375 2.765625,0.453125 2.765625,0.46875 2.625,1 2.609375,1.109375 2.40625,1.90625 2.40625,1.9375 c 0,0.015625 0,0.109375 0.109375,0.109375 0.03125,0 0.078125,0 0.09375,-0.046875 0.03125,-0.015625 0.09375,-0.265625 0.125,-0.40625 l 0.375,-1.484375 c 0.375,0 1.25,0 2.1875,-1.0625 0.40625,-0.46875 0.609375,-0.90625 0.71875,-1.203125 0.09375,-0.25 0.3125,-1.109375 0.3125,-1.546875 0,-0.5625 -0.265625,-0.703125 -0.4375,-0.703125 -0.25,0 -0.5,0.265625 -0.5,0.484375 0,0.125 0.0625,0.1875 0.15625,0.265625 0.109375,0.109375 0.359375,0.359375 0.359375,0.84375 0,0.640625 -0.515625,1.453125 -0.875,1.8125 -0.875,0.890625 -1.515625,0.890625 -1.875,0.890625 z m 0,0"
           id="path4899" />
      </symbol>
    </g>
    <g
       id="g641">
      <symbol
         overflow="visible"
         id="symbol3315">
        <path
           style="stroke:none"
           d=""
           id="path4822" />
      </symbol>
      <symbol
         overflow="visible"
         id="symbol2644">
        <path
           style="stroke:none"
           d="M 4.25,-6.015625 C 4.25,-6.359375 4.25,-6.5 5.203125,-6.5 H 5.53125 v -0.3125 c -0.359375,0.03125 -1.28125,0.03125 -1.6875,0.03125 -0.40625,0 -1.328125,0 -1.6875,-0.03125 V -6.5 h 0.328125 c 0.9375,0 0.9375,0.125 0.9375,0.484375 V -1.59375 C 2.125,-1.9375 2.078125,-3.484375 2.078125,-4.125 2.0625,-5.328125 1.625,-5.515625 1.1875,-5.515625 h -0.375 c -0.140625,0 -0.25,0 -0.25,0.109375 0,0.046875 0.03125,0.09375 0.09375,0.109375 0.328125,0.03125 0.578125,0.171875 0.59375,1.34375 0,0.234375 0.03125,1.015625 0.5,1.6875 0.390625,0.546875 1,0.828125 1.671875,0.921875 v 0.5625 c 0,0.328125 0,0.46875 -0.9375,0.46875 H 2.15625 V 0 c 0.359375,-0.03125 1.265625,-0.03125 1.6875,-0.03125 0.40625,0 1.328125,0 1.6875,0.03125 V -0.3125 H 5.203125 C 4.25,-0.3125 4.25,-0.4375 4.25,-0.78125 v -0.5625 C 4.96875,-1.4375 5.578125,-1.734375 5.96875,-2.25 6.484375,-2.953125 6.5,-3.75 6.5,-4.1875 c 0,-0.15625 0.015625,-1.046875 0.546875,-1.109375 0.0625,-0.015625 0.125,-0.03125 0.125,-0.109375 0,-0.109375 -0.078125,-0.109375 -0.234375,-0.109375 h -0.375 c -0.390625,0 -0.875,0.0625 -0.890625,1.515625 C 5.65625,-2.90625 5.328125,-1.859375 4.25,-1.59375 Z m 0,0"
           id="path9342" />
      </symbol>
    </g>
    <g
       id="g4738">
      <symbol
         overflow="visible"
         id="symbol1459">
        <path
           style="stroke:none"
           d=""
           id="path183" />
      </symbol>
      <symbol
         overflow="visible"
         id="symbol4817">
        <path
           style="stroke:none"
           d="m 2.1875,-3.28125 c 0,-0.1875 0.015625,-0.203125 0.15625,-0.34375 0.390625,-0.40625 0.921875,-0.46875 1.140625,-0.46875 0.65625,0 1.21875,0.609375 1.21875,1.875 0,1.40625 -0.703125,1.921875 -1.34375,1.921875 -0.140625,0 -0.609375,0 -1.0625,-0.546875 C 2.1875,-0.96875 2.1875,-0.984375 2.1875,-1.171875 Z m 0,2.890625 c 0.4375,0.34375 0.875,0.453125 1.28125,0.453125 1.5,0 2.515625,-0.90625 2.515625,-2.28125 0,-1.328125 -0.90625,-2.265625 -2.34375,-2.265625 -0.75,0 -1.28125,0.3125 -1.5,0.484375 V -4.484375 L 0.375,-4.40625 v 0.46875 c 0.609375,0 0.6875,0 0.6875,0.375 V 1.46875 H 0.375 V 1.9375 C 0.640625,1.921875 1.25,1.90625 1.625,1.90625 c 0.390625,0 0.984375,0.015625 1.25,0.03125 V 1.46875 H 2.1875 Z m 0,0"
           id="path9620" />
      </symbol>
      <symbol
         overflow="visible"
         id="symbol1013">
        <path
           style="stroke:none"
           d="m 4.234375,-1.421875 c 0,0.1875 0,0.21875 -0.15625,0.421875 -0.40625,0.59375 -0.90625,0.703125 -1.203125,0.703125 -0.625,0 -1.21875,-0.578125 -1.21875,-1.90625 0,-1.421875 0.734375,-1.890625 1.328125,-1.890625 0.765625,0 1.25,0.796875 1.25,1.296875 z m 0.125,-2.28125 c -0.34375,-0.484375 -0.90625,-0.78125 -1.5,-0.78125 -1.453125,0 -2.484375,0.890625 -2.484375,2.265625 0,1.40625 1.015625,2.28125 2.390625,2.28125 0.5,0 0.9375,-0.140625 1.40625,-0.546875 V 1.46875 h -0.6875 V 1.9375 c 0.28125,-0.015625 0.875,-0.03125 1.25,-0.03125 0.390625,0 0.984375,0.015625 1.25,0.03125 V 1.46875 h -0.6875 v -5.953125 h -0.40625 z m 0,0"
           id="path9457" />
      </symbol>
      <symbol
         overflow="visible"
         id="symbol1670">
        <path
           style="stroke:none"
           d=""
           id="path6503" />
      </symbol>
      <symbol
         overflow="visible"
         id="symbol8794">
        <path
           style="stroke:none"
           d="m 6.5625,-2.296875 c 0.171875,0 0.359375,0 0.359375,-0.203125 0,-0.1875 -0.1875,-0.1875 -0.359375,-0.1875 H 1.171875 c -0.171875,0 -0.34375,0 -0.34375,0.1875 0,0.203125 0.171875,0.203125 0.34375,0.203125 z m 0,0"
           id="path890" />
      </symbol>
    </g>
    <g
       id="g5143">
      <symbol
         overflow="visible"
         id="symbol8196">
        <path
           style="stroke:none"
           d=""
           id="path1809" />
      </symbol>
      <symbol
         overflow="visible"
         id="symbol5453">
        <path
           style="stroke:none"
           d="m 0.875,-0.59375 c -0.03125,0.15625 -0.09375,0.390625 -0.09375,0.4375 0,0.171875 0.140625,0.265625 0.296875,0.265625 0.125,0 0.296875,-0.078125 0.375,-0.28125 0,-0.015625 0.125,-0.484375 0.1875,-0.734375 l 0.21875,-0.890625 C 1.90625,-2.03125 1.96875,-2.25 2.03125,-2.46875 c 0.03125,-0.171875 0.109375,-0.46875 0.125,-0.5 0.140625,-0.3125 0.671875,-1.21875 1.625,-1.21875 0.453125,0 0.53125,0.375 0.53125,0.703125 0,0.25 -0.0625,0.53125 -0.140625,0.828125 L 3.890625,-1.5 3.6875,-0.75 c -0.03125,0.203125 -0.125,0.546875 -0.125,0.59375 0,0.171875 0.140625,0.265625 0.28125,0.265625 0.3125,0 0.375,-0.25 0.453125,-0.5625 0.140625,-0.5625 0.515625,-2.015625 0.59375,-2.40625 0.03125,-0.125 0.5625,-1.328125 1.65625,-1.328125 0.421875,0 0.53125,0.34375 0.53125,0.703125 0,0.5625 -0.421875,1.703125 -0.625,2.234375 -0.078125,0.234375 -0.125,0.34375 -0.125,0.546875 0,0.46875 0.34375,0.8125 0.8125,0.8125 0.9375,0 1.3125,-1.453125 1.3125,-1.53125 0,-0.109375 -0.09375,-0.109375 -0.125,-0.109375 -0.09375,0 -0.09375,0.03125 -0.140625,0.1875 -0.15625,0.53125 -0.46875,1.234375 -1.015625,1.234375 -0.171875,0 -0.25,-0.09375 -0.25,-0.328125 0,-0.25 0.09375,-0.484375 0.1875,-0.703125 0.1875,-0.53125 0.609375,-1.625 0.609375,-2.203125 0,-0.640625 -0.40625,-1.0625 -1.15625,-1.0625 -0.734375,0 -1.25,0.4375 -1.625,0.96875 0,-0.125 -0.03125,-0.46875 -0.3125,-0.703125 -0.25,-0.21875 -0.5625,-0.265625 -0.8125,-0.265625 -0.90625,0 -1.390625,0.640625 -1.5625,0.875 -0.046875,-0.578125 -0.46875,-0.875 -0.921875,-0.875 -0.453125,0 -0.640625,0.390625 -0.734375,0.5625 -0.171875,0.359375 -0.296875,0.9375 -0.296875,0.96875 0,0.109375 0.09375,0.109375 0.109375,0.109375 0.109375,0 0.109375,-0.015625 0.171875,-0.234375 0.171875,-0.703125 0.375,-1.1875 0.734375,-1.1875 0.15625,0 0.296875,0.078125 0.296875,0.453125 0,0.21875 -0.03125,0.328125 -0.15625,0.84375 z m 0,0"
           id="path7136" />
      </symbol>
    </g>
    <g
       id="g2509">
      <symbol
         overflow="visible"
         id="symbol1148">
        <path
           style="stroke:none"
           d=""
           id="path2228" />
      </symbol>
      <symbol
         overflow="visible"
         id="symbol8145">
        <path
           style="stroke:none"
           d="m 4.75,-2.359375 c 0,-1.5625 -0.921875,-2.046875 -1.65625,-2.046875 -1.375,0 -2.6875,1.421875 -2.6875,2.828125 0,0.9375 0.59375,1.6875 1.625,1.6875 0.625,0 1.34375,-0.234375 2.09375,-0.84375 0.125,0.53125 0.453125,0.84375 0.90625,0.84375 0.53125,0 0.84375,-0.546875 0.84375,-0.703125 0,-0.078125 -0.0625,-0.109375 -0.125,-0.109375 -0.0625,0 -0.09375,0.03125 -0.125,0.109375 -0.1875,0.484375 -0.546875,0.484375 -0.5625,0.484375 -0.3125,0 -0.3125,-0.78125 -0.3125,-1.015625 0,-0.203125 0,-0.234375 0.109375,-0.34375 C 5.796875,-2.65625 6,-3.8125 6,-3.8125 6,-3.84375 5.984375,-3.921875 5.875,-3.921875 c -0.09375,0 -0.09375,0.03125 -0.140625,0.21875 -0.1875,0.625 -0.515625,1.375 -0.984375,1.96875 z m -0.65625,1.375 c -0.890625,0.765625 -1.65625,0.875 -2.046875,0.875 -0.59375,0 -0.90625,-0.453125 -0.90625,-1.09375 0,-0.484375 0.265625,-1.5625 0.578125,-2.0625 C 2.1875,-4 2.734375,-4.1875 3.078125,-4.1875 c 0.984375,0 0.984375,1.3125 0.984375,2.078125 0,0.375 0,0.953125 0.03125,1.125 z m 0,0"
           id="path4241" />
      </symbol>
    </g>
    <marker
       style="overflow:visible"
       refX="0"
       refY="0"
       orient="auto"
       inkscape:stockid="marker20285089"
       inkscape:isstock="true"
       id="marker20285089">
      <path
         transform="matrix(-0.4,0,0,-0.4,-4,0)"
         style="fill:#000000;fill-rule:evenodd;stroke:#000000;stroke-width:1pt"
         d="M 0,0 5,-5 -12.5,0 5,5 Z"
         id="path21094" />
    </marker>
    <marker
       style="overflow:visible"
       refX="0"
       refY="0"
       orient="auto"
       inkscape:stockid="marker20287664"
       inkscape:isstock="true"
       id="marker20287664">
      <path
         transform="matrix(-0.4,0,0,-0.4,-4,0)"
         style="fill:#2ca02c;fill-rule:evenodd;stroke:#2ca02c;stroke-width:1pt"
         d="M 0,0 5,-5 -12.5,0 5,5 Z"
         id="path22148" />
    </marker>
    <marker
       style="overflow:visible"
       refX="0"
       refY="0"
       orient="auto"
       inkscape:stockid="marker20285664"
       inkscape:isstock="true"
       id="marker20285664">
      <path
         transform="matrix(-0.4,0,0,-0.4,-4,0)"
         style="fill:#000000;fill-rule:evenodd;stroke:#000000;stroke-width:1pt"
         d="M 0,0 5,-5 -12.5,0 5,5 Z"
         id="path22686" />
    </marker>
    <marker
       style="overflow:visible"
       refX="0"
       refY="0"
       orient="auto"
       inkscape:stockid="marker2028280"
       inkscape:isstock="true"
       id="marker2028280">
      <path
         transform="matrix(-0.4,0,0,-0.4,-4,0)"
         style="fill:#000000;fill-rule:evenodd;stroke:#000000;stroke-width:1pt"
         d="M 0,0 5,-5 -12.5,0 5,5 Z"
         id="path23228" />
    </marker>
    <marker
       style="overflow:visible"
       refX="0"
       refY="0"
       orient="auto"
       inkscape:stockid="marker202876643280"
       inkscape:isstock="true"
       id="marker202876643280">
      <path
         transform="matrix(-0.4,0,0,-0.4,-4,0)"
         style="fill:#8c564b;fill-rule:evenodd;stroke:#8c564b;stroke-width:1pt"
         d="M 0,0 5,-5 -12.5,0 5,5 Z"
         id="path26456" />
    </marker>
    <g
       id="g536">
      <symbol
         overflow="visible"
         id="symbol5156">
        <path
           style="stroke:none"
           d=""
           id="path7636" />
      </symbol>
      <symbol
         overflow="visible"
         id="symbol9427">
        <path
           style="stroke:none"
           d="m 1.328125,-0.828125 c 0.53125,-0.578125 0.828125,-0.828125 1.1875,-1.140625 0,0 0.609375,-0.53125 0.96875,-0.890625 C 4.4375,-3.78125 4.65625,-4.265625 4.65625,-4.3125 c 0,-0.09375 -0.09375,-0.09375 -0.109375,-0.09375 -0.078125,0 -0.09375,0.015625 -0.15625,0.109375 -0.296875,0.484375 -0.5,0.640625 -0.734375,0.640625 -0.25,0 -0.359375,-0.15625 -0.515625,-0.328125 -0.1875,-0.21875 -0.359375,-0.421875 -0.6875,-0.421875 -0.75,0 -1.203125,0.921875 -1.203125,1.140625 0,0.046875 0.03125,0.109375 0.109375,0.109375 0.09375,0 0.109375,-0.046875 0.140625,-0.109375 0.1875,-0.46875 0.765625,-0.46875 0.84375,-0.46875 0.203125,0 0.390625,0.0625 0.625,0.140625 0.40625,0.15625 0.515625,0.15625 0.765625,0.15625 -0.359375,0.421875 -1.1875,1.140625 -1.375,1.296875 l -0.90625,0.84375 C 0.78125,-0.625 0.421875,-0.0625 0.421875,0.015625 c 0,0.09375 0.109375,0.09375 0.125,0.09375 0.078125,0 0.09375,-0.015625 0.15625,-0.125 0.234375,-0.359375 0.53125,-0.625 0.859375,-0.625 0.21875,0 0.328125,0.09375 0.578125,0.375 0.15625,0.21875 0.34375,0.375 0.625,0.375 1,0 1.578125,-1.265625 1.578125,-1.53125 0,-0.046875 -0.046875,-0.109375 -0.125,-0.109375 -0.09375,0 -0.109375,0.0625 -0.140625,0.140625 C 3.84375,-0.75 3.203125,-0.5625 2.875,-0.5625 c -0.1875,0 -0.375,-0.0625 -0.578125,-0.125 -0.34375,-0.125 -0.5,-0.171875 -0.703125,-0.171875 -0.015625,0 -0.171875,0 -0.265625,0.03125 z m 0,0"
           id="path7703" />
      </symbol>
      <symbol
         overflow="visible"
         id="symbol6188">
        <path
           style="stroke:none"
           d=""
           id="path139" />
      </symbol>
      <symbol
         overflow="visible"
         id="symbol2106">
        <path
           style="stroke:none"
           d="m 6.5625,-2.296875 c 0.171875,0 0.359375,0 0.359375,-0.203125 0,-0.1875 -0.1875,-0.1875 -0.359375,-0.1875 H 1.171875 c -0.171875,0 -0.34375,0 -0.34375,0.1875 0,0.203125 0.171875,0.203125 0.34375,0.203125 z m 0,0"
           id="path8214" />
      </symbol>
      <symbol
         overflow="visible"
         id="symbol816">
        <path
           style="stroke:none"
           d=""
           id="path8226" />
      </symbol>
      <symbol
         overflow="visible"
         id="symbol1799">
        <path
           style="stroke:none"
           d="m 2.015625,-3.296875 c 0.0625,-0.109375 0.0625,-0.171875 0.0625,-0.21875 0,-0.21875 -0.1875,-0.375 -0.40625,-0.375 -0.265625,0 -0.34375,0.21875 -0.375,0.328125 L 0.375,-0.546875 c -0.015625,0.015625 -0.046875,0.09375 -0.046875,0.109375 0,0.078125 0.21875,0.15625 0.28125,0.15625 0.046875,0 0.046875,-0.015625 0.09375,-0.125 z m 0,0"
           id="path8248" />
      </symbol>
    </g>
    <g
       id="g2231">
      <symbol
         overflow="visible"
         id="symbol4296">
        <path
           style="stroke:none"
           d=""
           id="path9870" />
      </symbol>
      <symbol
         overflow="visible"
         id="symbol869">
        <path
           style="stroke:none"
           d="m 4.40625,-6.953125 c -0.0625,-0.140625 -0.09375,-0.1875 -0.265625,-0.1875 -0.15625,0 -0.1875,0.046875 -0.25,0.1875 l -3.375,6.75 C 0.46875,-0.109375 0.46875,-0.09375 0.46875,-0.078125 0.46875,0 0.53125,0 0.6875,0 h 6.921875 c 0.15625,0 0.21875,0 0.21875,-0.078125 0,-0.015625 0,-0.03125 -0.046875,-0.125 z m -0.578125,0.8125 2.6875,5.390625 h -5.375 z m 0,0"
           id="path4911" />
      </symbol>
      <symbol
         overflow="visible"
         id="symbol2">
        <path
           style="stroke:none"
           d=""
           id="path9449" />
      </symbol>
      <symbol
         overflow="visible"
         id="symbol633">
        <path
           style="stroke:none"
           d="m 1.328125,-0.828125 c 0.53125,-0.578125 0.828125,-0.828125 1.1875,-1.140625 0,0 0.609375,-0.53125 0.96875,-0.890625 C 4.4375,-3.78125 4.65625,-4.265625 4.65625,-4.3125 c 0,-0.09375 -0.09375,-0.09375 -0.109375,-0.09375 -0.078125,0 -0.09375,0.015625 -0.15625,0.109375 -0.296875,0.484375 -0.5,0.640625 -0.734375,0.640625 -0.25,0 -0.359375,-0.15625 -0.515625,-0.328125 -0.1875,-0.21875 -0.359375,-0.421875 -0.6875,-0.421875 -0.75,0 -1.203125,0.921875 -1.203125,1.140625 0,0.046875 0.03125,0.109375 0.109375,0.109375 0.09375,0 0.109375,-0.046875 0.140625,-0.109375 0.1875,-0.46875 0.765625,-0.46875 0.84375,-0.46875 0.203125,0 0.390625,0.0625 0.625,0.140625 0.40625,0.15625 0.515625,0.15625 0.765625,0.15625 -0.359375,0.421875 -1.1875,1.140625 -1.375,1.296875 l -0.90625,0.84375 C 0.78125,-0.625 0.421875,-0.0625 0.421875,0.015625 c 0,0.09375 0.109375,0.09375 0.125,0.09375 0.078125,0 0.09375,-0.015625 0.15625,-0.125 0.234375,-0.359375 0.53125,-0.625 0.859375,-0.625 0.21875,0 0.328125,0.09375 0.578125,0.375 0.15625,0.21875 0.34375,0.375 0.625,0.375 1,0 1.578125,-1.265625 1.578125,-1.53125 0,-0.046875 -0.046875,-0.109375 -0.125,-0.109375 -0.09375,0 -0.109375,0.0625 -0.140625,0.140625 C 3.84375,-0.75 3.203125,-0.5625 2.875,-0.5625 c -0.1875,0 -0.375,-0.0625 -0.578125,-0.125 -0.34375,-0.125 -0.5,-0.171875 -0.703125,-0.171875 -0.015625,0 -0.171875,0 -0.265625,0.03125 z m 0,0"
           id="path9771" />
      </symbol>
    </g>
    <g
       id="g2224">
      <symbol
         overflow="visible"
         id="symbol7537">
        <path
           style="stroke:none"
           d=""
           id="path8442" />
      </symbol>
      <symbol
         overflow="visible"
         id="symbol9893">
        <path
           style="stroke:none"
           d="m 4.40625,-6.953125 c -0.0625,-0.140625 -0.09375,-0.1875 -0.265625,-0.1875 -0.15625,0 -0.1875,0.046875 -0.25,0.1875 l -3.375,6.75 C 0.46875,-0.109375 0.46875,-0.09375 0.46875,-0.078125 0.46875,0 0.53125,0 0.6875,0 h 6.921875 c 0.15625,0 0.21875,0 0.21875,-0.078125 0,-0.015625 0,-0.03125 -0.046875,-0.125 z m -0.578125,0.8125 2.6875,5.390625 h -5.375 z m 0,0"
           id="path6738" />
      </symbol>
      <symbol
         overflow="visible"
         id="symbol2840">
        <path
           style="stroke:none"
           d=""
           id="path739" />
      </symbol>
      <symbol
         overflow="visible"
         id="symbol8655">
        <path
           style="stroke:none"
           d="M 3.328125,-3.015625 C 3.390625,-3.265625 3.625,-4.1875 4.3125,-4.1875 c 0.046875,0 0.296875,0 0.5,0.125 C 4.53125,-4 4.34375,-3.765625 4.34375,-3.515625 c 0,0.15625 0.109375,0.34375 0.375,0.34375 0.21875,0 0.53125,-0.171875 0.53125,-0.578125 0,-0.515625 -0.578125,-0.65625 -0.921875,-0.65625 -0.578125,0 -0.921875,0.53125 -1.046875,0.75 -0.25,-0.65625 -0.78125,-0.75 -1.078125,-0.75 -1.03125,0 -1.609375,1.28125 -1.609375,1.53125 0,0.109375 0.109375,0.109375 0.125,0.109375 0.078125,0 0.109375,-0.03125 0.125,-0.109375 0.34375,-1.0625 1,-1.3125 1.34375,-1.3125 0.1875,0 0.53125,0.09375 0.53125,0.671875 0,0.3125 -0.171875,0.96875 -0.53125,2.375 -0.15625,0.609375 -0.515625,1.03125 -0.953125,1.03125 -0.0625,0 -0.28125,0 -0.5,-0.125 0.25,-0.0625 0.46875,-0.265625 0.46875,-0.546875 0,-0.265625 -0.21875,-0.34375 -0.359375,-0.34375 -0.3125,0 -0.546875,0.25 -0.546875,0.578125 0,0.453125 0.484375,0.65625 0.921875,0.65625 0.671875,0 1.03125,-0.703125 1.046875,-0.75 0.125,0.359375 0.484375,0.75 1.078125,0.75 1.03125,0 1.59375,-1.28125 1.59375,-1.53125 0,-0.109375 -0.078125,-0.109375 -0.109375,-0.109375 -0.09375,0 -0.109375,0.046875 -0.140625,0.109375 -0.328125,1.078125 -1,1.3125 -1.3125,1.3125 -0.390625,0 -0.546875,-0.3125 -0.546875,-0.65625 0,-0.21875 0.046875,-0.4375 0.15625,-0.875 z m 0,0"
           id="path5667" />
      </symbol>
    </g>
    <g
       id="g9540">
      <symbol
         overflow="visible"
         id="symbol6708">
        <path
           style="stroke:none"
           d=""
           id="path3562" />
      </symbol>
      <symbol
         overflow="visible"
         id="symbol4289">
        <path
           style="stroke:none"
           d="m 4.40625,-6.953125 c -0.0625,-0.140625 -0.09375,-0.1875 -0.265625,-0.1875 -0.15625,0 -0.1875,0.046875 -0.25,0.1875 l -3.375,6.75 C 0.46875,-0.109375 0.46875,-0.09375 0.46875,-0.078125 0.46875,0 0.53125,0 0.6875,0 h 6.921875 c 0.15625,0 0.21875,0 0.21875,-0.078125 0,-0.015625 0,-0.03125 -0.046875,-0.125 z m -0.578125,0.8125 2.6875,5.390625 h -5.375 z m 0,0"
           id="path1561" />
      </symbol>
      <symbol
         overflow="visible"
         id="symbol1007">
        <path
           style="stroke:none"
           d=""
           id="path4373" />
      </symbol>
      <symbol
         overflow="visible"
         id="symbol953">
        <path
           style="stroke:none"
           d="m 4.84375,-3.796875 c 0.046875,-0.140625 0.046875,-0.15625 0.046875,-0.234375 0,-0.171875 -0.140625,-0.265625 -0.296875,-0.265625 -0.09375,0 -0.25,0.0625 -0.34375,0.203125 -0.015625,0.0625 -0.109375,0.359375 -0.140625,0.546875 -0.078125,0.25 -0.140625,0.53125 -0.203125,0.796875 l -0.453125,1.796875 c -0.03125,0.140625 -0.46875,0.84375 -1.125,0.84375 -0.5,0 -0.609375,-0.4375 -0.609375,-0.8125 C 1.71875,-1.375 1.890625,-2 2.21875,-2.875 2.375,-3.28125 2.421875,-3.390625 2.421875,-3.59375 c 0,-0.4375 -0.3125,-0.8125 -0.8125,-0.8125 -0.953125,0 -1.3125,1.453125 -1.3125,1.53125 0,0.109375 0.09375,0.109375 0.109375,0.109375 0.109375,0 0.109375,-0.03125 0.15625,-0.1875 0.28125,-0.9375 0.671875,-1.234375 1.015625,-1.234375 0.078125,0 0.25,0 0.25,0.3125 0,0.25 -0.109375,0.515625 -0.171875,0.703125 -0.40625,1.0625 -0.578125,1.625 -0.578125,2.09375 0,0.890625 0.625,1.1875 1.21875,1.1875 0.390625,0 0.71875,-0.171875 1,-0.453125 -0.125,0.515625 -0.25,1.015625 -0.640625,1.546875 -0.265625,0.328125 -0.640625,0.625 -1.09375,0.625 -0.140625,0 -0.59375,-0.03125 -0.765625,-0.421875 0.15625,0 0.296875,0 0.421875,-0.125 C 1.328125,1.203125 1.421875,1.0625 1.421875,0.875 1.421875,0.5625 1.15625,0.53125 1.0625,0.53125 0.828125,0.53125 0.5,0.6875 0.5,1.171875 c 0,0.5 0.4375,0.875 1.0625,0.875 1.015625,0 2.046875,-0.90625 2.328125,-2.03125 z m 0,0"
           id="path6290" />
      </symbol>
    </g>
    <marker
       style="overflow:visible"
       refX="0"
       refY="0"
       orient="auto"
       inkscape:stockid="marker2028970"
       inkscape:isstock="true"
       id="marker2028970">
      <path
         transform="matrix(-0.4,0,0,-0.4,-4,0)"
         style="fill:#1f77b4;fill-rule:evenodd;stroke:#1f77b4;stroke-width:1pt"
         d="M 0,0 5,-5 -12.5,0 5,5 Z"
         id="path63010" />
    </marker>
    <marker
       style="overflow:visible"
       refX="0"
       refY="0"
       orient="auto"
       inkscape:stockid="marker20287691"
       inkscape:isstock="true"
       id="marker20287691">
      <path
         transform="matrix(-0.4,0,0,-0.4,-4,0)"
         style="fill:#1f77b4;fill-rule:evenodd;stroke:#1f77b4;stroke-width:1pt"
         d="M 0,0 5,-5 -12.5,0 5,5 Z"
         id="path63774" />
    </marker>
    <marker
       style="overflow:visible"
       refX="0"
       refY="0"
       orient="auto"
       inkscape:stockid="marker20289267"
       inkscape:isstock="true"
       id="marker20289267">
      <path
         transform="matrix(-0.4,0,0,-0.4,-4,0)"
         style="fill:#1f77b4;fill-rule:evenodd;stroke:#1f77b4;stroke-width:1pt"
         d="M 0,0 5,-5 -12.5,0 5,5 Z"
         id="path64542" />
    </marker>
    <marker
       style="overflow:visible"
       refX="0"
       refY="0"
       orient="auto"
       inkscape:stockid="marker20286770"
       inkscape:isstock="true"
       id="marker20286770">
      <path
         transform="matrix(-0.4,0,0,-0.4,-4,0)"
         style="fill:#000000;fill-rule:evenodd;stroke:#000000;stroke-width:1pt"
         d="M 0,0 5,-5 -12.5,0 5,5 Z"
         id="path65314" />
    </marker>
    <marker
       style="overflow:visible"
       refX="0"
       refY="0"
       orient="auto"
       inkscape:stockid="marker20289707"
       inkscape:isstock="true"
       id="marker20289707">
      <path
         transform="matrix(-0.4,0,0,-0.4,-4,0)"
         style="fill:#8c564b;fill-rule:evenodd;stroke:#8c564b;stroke-width:1pt"
         d="M 0,0 5,-5 -12.5,0 5,5 Z"
         id="path66090" />
    </marker>
    <marker
       style="overflow:visible"
       refX="0"
       refY="0"
       orient="auto"
       inkscape:stockid="marker2028839"
       inkscape:isstock="true"
       id="marker2028839">
      <path
         transform="matrix(-0.4,0,0,-0.4,-4,0)"
         style="fill:#000000;fill-rule:evenodd;stroke:#000000;stroke-width:1pt"
         d="M 0,0 5,-5 -12.5,0 5,5 Z"
         id="path66870" />
    </marker>
    <marker
       style="overflow:visible"
       refX="0"
       refY="0"
       orient="auto"
       inkscape:stockid="marker20289936"
       inkscape:isstock="true"
       id="marker20289936">
      <path
         transform="matrix(-0.4,0,0,-0.4,-4,0)"
         style="fill:#1f77b4;fill-rule:evenodd;stroke:#1f77b4;stroke-width:1pt"
         d="M 0,0 5,-5 -12.5,0 5,5 Z"
         id="path68424" />
    </marker>
    <marker
       style="overflow:visible"
       refX="0"
       refY="0"
       orient="auto"
       inkscape:stockid="marker20288565"
       inkscape:isstock="true"
       id="marker20288565">
      <path
         transform="matrix(-0.4,0,0,-0.4,-4,0)"
         style="fill:#1f77b4;fill-rule:evenodd;stroke:#1f77b4;stroke-width:1pt"
         d="M 0,0 5,-5 -12.5,0 5,5 Z"
         id="path68427" />
    </marker>
    <marker
       style="overflow:visible"
       refX="0"
       refY="0"
       orient="auto"
       inkscape:stockid="marker20288911"
       inkscape:isstock="true"
       id="marker20288911">
      <path
         transform="matrix(-0.4,0,0,-0.4,-4,0)"
         style="fill:#1f77b4;fill-rule:evenodd;stroke:#1f77b4;stroke-width:1pt"
         d="M 0,0 5,-5 -12.5,0 5,5 Z"
         id="path68430" />
    </marker>
    <marker
       style="overflow:visible"
       refX="0"
       refY="0"
       orient="auto"
       inkscape:stockid="marker202856645659"
       inkscape:isstock="true"
       id="marker202856645659">
      <path
         transform="matrix(-0.4,0,0,-0.4,-4,0)"
         style="fill:#1f77b4;fill-rule:evenodd;stroke:#1f77b4;stroke-width:1pt"
         d="M 0,0 5,-5 -12.5,0 5,5 Z"
         id="path70427" />
    </marker>
  </defs>
  <g
     inkscape:label="Layer 1"
     inkscape:groupmode="layer"
     id="layer1"
     transform="translate(-97.049632,-14.623001)">
    <path
       style="fill:#ff7f0e;fill-opacity:0.7;stroke:none;stroke-width:0.141111;stroke-linecap:butt;stroke-linejoin:miter;stroke-miterlimit:4;stroke-dasharray:0.282222, 0.282222;stroke-dashoffset:0;stroke-opacity:1"
       d="m 122.31818,52.28009 c 3.25545,0.651765 9.51107,-0.59779 9.94758,-1.716122 l -6.37854,-1.539553 z"
       id="path22838"
       sodipodi:nodetypes="cccc" />
    <path
       style="fill:#ff7f0e;fill-opacity:0.7;stroke:none;stroke-width:0.141111;stroke-linecap:butt;stroke-linejoin:miter;stroke-miterlimit:4;stroke-dasharray:0.282222, 0.282222;stroke-dashoffset:0;stroke-opacity:1"
       d="m 117.81304,52.310104 c 1.06256,0.59855 1.78033,0.849685 3.24542,1.095931 l 4.82876,-4.38162 z"
       id="path18998"
       sodipodi:nodetypes="cccc" />
    <path
       style="fill:none;stroke:#000000;stroke-width:0.211667;stroke-linecap:round;stroke-linejoin:miter;stroke-miterlimit:4;stroke-dasharray:none;stroke-opacity:1;marker-end:url(#Arrow1Mend)"
       d="M 125.88723,49.024415 V 15.040129"
       id="path4839"
       sodipodi:nodetypes="cc" />
    <path
       style="fill:#2ca02c;fill-opacity:0.7;stroke:none;stroke-width:0.264582px;stroke-linecap:butt;stroke-linejoin:miter;stroke-opacity:1"
       d="m 125.88722,49.024415 2.72524,-5.069432 c -3.06956,-1.034068 -4.40816,-0.807378 -7.05805,0.727933 z"
       id="path32045"
       sodipodi:nodetypes="cccc" />
    <path
       style="fill:none;stroke:#000000;stroke-width:0.211667;stroke-linecap:round;stroke-linejoin:miter;stroke-miterlimit:4;stroke-dasharray:none;stroke-opacity:1;marker-end:url(#marker2028280);paint-order:stroke fill markers"
       d="m 125.8807,49.024415 h 34.36612"
       id="path4841"
       sodipodi:nodetypes="cc" />
    <path
       style="fill:#d62728;fill-opacity:0.7;stroke:none;stroke-width:0.141111;stroke-linecap:butt;stroke-linejoin:miter;stroke-miterlimit:4;stroke-dasharray:0.282222, 0.282222;stroke-dashoffset:0;stroke-opacity:1"
       d="m 122.41337,50.43895 c -0.69489,-1.65678 -0.69688,-2.826837 0.47171,-4.411884 l 3.00215,2.997349 z"
       id="path19685"
       sodipodi:nodetypes="cccc" />
    <path
       style="fill:none;stroke:#000000;stroke-width:0.211667;stroke-linecap:round;stroke-linejoin:miter;stroke-miterlimit:4;stroke-dasharray:none;stroke-opacity:1;marker-end:url(#Arrow1Mend)"
       d="M 125.85389,49.057821 110.75574,62.932784"
       id="path4843"
       sodipodi:nodetypes="cc" />
    <path
       style="fill:#d62728;fill-opacity:0.7;stroke:none;stroke-width:0.141111;stroke-linecap:butt;stroke-linejoin:miter;stroke-miterlimit:4;stroke-dasharray:0.282222, 0.282222;stroke-dashoffset:0;stroke-opacity:1"
       d="m 130.02582,50.025205 c 0.53134,-1.973355 -0.36025,-4.360229 -1.83328,-5.127567 l -2.30532,4.126777 z"
       id="path22418"
       sodipodi:nodetypes="cccc" />
    <path
       style="fill:none;stroke:#000000;stroke-width:0.246944;stroke-linecap:butt;stroke-linejoin:miter;stroke-miterlimit:4;stroke-dasharray:none;stroke-opacity:1;marker-end:url(#marker20285664)"
       d="M 125.88722,49.024415 111.73904,34.935031"
       id="path6077"
       sodipodi:nodetypes="cc" />
    <path
       style="fill:none;stroke:#000000;stroke-width:0.246944;stroke-linecap:round;stroke-linejoin:miter;stroke-miterlimit:4;stroke-dasharray:none;stroke-opacity:1;marker-end:url(#marker20285089)"
       d="M 125.97536,48.919036 136.32239,29.530513"
       id="path6326"
       sodipodi:nodetypes="cc" />
    <path
       id="path7219"
       style="fill:none;stroke:#000000;stroke-width:0.141111;stroke-linecap:round;stroke-linejoin:round;stroke-miterlimit:4;stroke-dasharray:none"
       d="m 97.120188,49.024415 c 0,-15.892074 12.879452,-28.775144 28.767052,-28.775142 15.88759,8e-6 28.76703,12.883076 28.76703,28.775142"
       sodipodi:nodetypes="csc" />
    <path
       id="path7323"
       style="fill:none;stroke:#000000;stroke-width:0.141111;stroke-linecap:round;stroke-linejoin:round;stroke-miterlimit:4;stroke-dasharray:none"
       d="m 97.138838,49.024415 c 0,6.014608 12.871092,10.890412 28.748382,10.890412 15.8773,3e-6 28.7484,-4.875802 28.7484,-10.890412"
       sodipodi:nodetypes="csc" />
    <path
       id="path8452"
       style="fill:none;stroke:#000000;stroke-width:0.141111;stroke-linecap:round;stroke-linejoin:round;stroke-miterlimit:4;stroke-dasharray:none"
       d="M 125.88722,20.249273 C 114.75951,22.980744 106.29411,39.89076 106.3298,56.983625"
       sodipodi:nodetypes="cc" />
    <path
       style="fill:none;stroke:#000000;stroke-width:0.105833;stroke-linecap:butt;stroke-linejoin:miter;stroke-miterlimit:4;stroke-dasharray:0.211667, 0.105833;stroke-dashoffset:0;stroke-opacity:1"
       d="m 114.73728,32.792472 0.2417,0.896543"
       id="path15801"
       sodipodi:nodetypes="cc" />
    <path
       style="fill:#8c564b;stroke:#8c564b;stroke-width:0.17639;stroke-linecap:butt;stroke-linejoin:miter;stroke-miterlimit:4;stroke-dasharray:0.35278, 0.35278;stroke-dashoffset:0;stroke-opacity:1;marker-end:url(#marker202876643280)"
       d="m 136.14749,28.54404 -24.54874,5.770249"
       id="path14497"
       sodipodi:nodetypes="cc" />
    <path
       style="fill:#9467bd;fill-opacity:0.7;stroke:none;stroke-width:0.246944;stroke-linecap:round;stroke-linejoin:miter;stroke-miterlimit:4;stroke-dasharray:none;stroke-opacity:1"
       d="m 114.56178,34.904722 c 0.25372,-0.737672 0.14861,-1.630279 -0.11578,-1.979474 l -3.15968,1.465817 z"
       id="path14789"
       sodipodi:nodetypes="cccc"
       inkscape:transform-center-x="-1.6474329"
       inkscape:transform-center-y="-0.30283713" />
    <path
       style="fill:none;stroke:#000000;stroke-width:0.105833;stroke-linecap:butt;stroke-linejoin:miter;stroke-miterlimit:4;stroke-dasharray:0.211667, 0.211667;stroke-dashoffset:0.148167;stroke-opacity:1"
       d="m 111.28537,34.377254 3.45191,-1.584782"
       id="path15916"
       sodipodi:nodetypes="cc" />
    <path
       style="fill:none;stroke:#1f77b4;stroke-width:0.246944;stroke-linecap:round;stroke-linejoin:miter;stroke-miterlimit:4;stroke-dasharray:none;stroke-opacity:1;marker-end:url(#marker20288565)"
       d="m 111.28632,34.391065 2.07937,-3.928476"
       id="path8993"
       sodipodi:nodetypes="cc" />
    <path
       style="fill:none;stroke:#1f77b4;stroke-width:0.246944;stroke-linecap:round;stroke-linejoin:miter;stroke-miterlimit:4;stroke-dasharray:none;stroke-opacity:1;marker-end:url(#marker20288911)"
       d="m 111.28632,34.391065 4.56346,0.710763"
       id="path9108"
       sodipodi:nodetypes="cc" />
    <path
       id="path9793"
       style="fill:none;stroke:#000000;stroke-width:0.105833;stroke-linecap:round;stroke-linejoin:round;stroke-miterlimit:4;stroke-dasharray:0.3175, 0.3175;stroke-dashoffset:0"
       d="m 125.88722,22.256142 c 11.26143,2.077699 20.63963,14.667279 20.60395,31.760143"
       sodipodi:nodetypes="cc" />
    <ellipse
       style="fill:#000000;fill-opacity:1;stroke:#000000;stroke-width:0.141111;stroke-linecap:round;stroke-linejoin:round;stroke-miterlimit:4;stroke-dasharray:none;stroke-dashoffset:0;stroke-opacity:1"
       id="path10106"
       cx="-136.98592"
       cy="28.359377"
       rx="0.7197082"
       ry="0.71991074"
       transform="scale(-1,1)" />
    <path
       id="path12019"
       style="fill:none;stroke:#000000;stroke-width:0.105833;stroke-linecap:round;stroke-linejoin:round;stroke-miterlimit:4;stroke-dasharray:0.3175, 0.3175;stroke-dashoffset:0"
       d="m 117.1811,57.074275 c 8.36319,1.134928 20.49804,0.767863 29.31007,-3.05799"
       sodipodi:nodetypes="cc" />
    <path
       style="fill:none;stroke:#000000;stroke-width:0.105833;stroke-linecap:butt;stroke-linejoin:miter;stroke-miterlimit:4;stroke-dasharray:0.3175, 0.3175;stroke-dashoffset:0;stroke-opacity:1"
       d="m 125.88723,49.024417 20.60394,4.991868"
       id="path13197" />
    <path
       style="fill:none;stroke:#000000;stroke-width:0.105833;stroke-linecap:butt;stroke-linejoin:miter;stroke-miterlimit:4;stroke-dasharray:0.3175, 0.3175;stroke-dashoffset:0;stroke-opacity:1"
       d="M 125.88723,49.024417 106.3298,56.983625"
       id="path18723"
       sodipodi:nodetypes="cc" />
    <g
       inkscape:label=""
       transform="matrix(0.371963,0,0,0.37206769,84.988122,18.088645)"
       id="g24377"
       style="fill:#d62728;stroke-width:0.792116">
      <g
         id="g5944"
         style="fill:#d62728;stroke-width:0.792116">
        <g
           style="fill:#d62728;fill-opacity:1;stroke-width:0.792116"
           id="g3223">
          <use
             xlink:href="#symbol5688"
             x="91.925003"
             y="81.962997"
             id="use2957"
             width="100%"
             height="100%"
             style="fill:#d62728;stroke-width:0.792116" />
        </g>
      </g>
    </g>
    <g
       inkscape:label=""
       transform="matrix(0.371963,0,0,0.37206769,96.229571,17.120521)"
       id="g24690"
       style="fill:#d62728;stroke-width:0.792116">
      <g
         id="g1785"
         style="fill:#d62728;stroke-width:0.792116">
        <g
           style="fill:#d62728;fill-opacity:1;stroke-width:0.792116"
           id="g9861">
          <use
             xlink:href="#symbol1131"
             x="91.925003"
             y="81.962997"
             id="use2040"
             width="100%"
             height="100%"
             style="fill:#d62728;stroke-width:0.792116" />
        </g>
        <g
           style="fill:#d62728;fill-opacity:1;stroke-width:0.792116"
           id="g1012">
          <use
             xlink:href="#symbol4410"
             x="97.861"
             y="78.348"
             id="use3957"
             width="100%"
             height="100%"
             style="fill:#d62728;stroke-width:0.792116" />
        </g>
      </g>
    </g>
    <g
       inkscape:label=""
       transform="matrix(0.371963,0,0,0.37206769,91.835807,24.624516)"
       id="g25043"
       style="fill:#ff7f0e;stroke-width:0.792116">
      <g
         id="g9134"
         style="fill:#ff7f0e;stroke-width:0.792116">
        <g
           style="fill:#ff7f0e;fill-opacity:1;stroke-width:0.792116"
           id="g5910">
          <use
             xlink:href="#symbol3820"
             x="91.925003"
             y="81.962997"
             id="use6108"
             width="100%"
             height="100%"
             style="fill:#ff7f0e;stroke-width:0.792116" />
        </g>
        <g
           style="fill:#ff7f0e;fill-opacity:1;stroke-width:0.792116"
           id="g7295">
          <use
             xlink:href="#symbol6967"
             x="97.737"
             y="78.348"
             id="use8223"
             width="100%"
             height="100%"
             style="fill:#ff7f0e;stroke-width:0.792116" />
        </g>
      </g>
    </g>
    <g
       inkscape:label=""
       transform="matrix(0.371963,0,0,0.37206769,82.502926,24.707331)"
       id="g25426"
       style="fill:#ff7f0e;stroke-width:0.792116">
      <g
         id="g5922"
         style="fill:#ff7f0e;stroke-width:0.792116">
        <g
           style="fill:#ff7f0e;fill-opacity:1;stroke-width:0.792116"
           id="g1449">
          <use
             xlink:href="#symbol1935"
             x="91.925003"
             y="81.962997"
             id="use8323"
             width="100%"
             height="100%"
             style="fill:#ff7f0e;stroke-width:0.792116" />
        </g>
      </g>
    </g>
    <g
       inkscape:label=""
       transform="matrix(0.352459,0,0,0.3525582,80.872838,34.537673)"
       id="g26292"
       style="stroke-width:0.792116">
      <g
         id="g7674"
         style="stroke-width:0.792116">
        <g
           style="fill:#000000;fill-opacity:1;stroke-width:0.792116"
           id="g4344">
          <use
             xlink:href="#symbol3015"
             x="91.925003"
             y="81.962997"
             id="use1534"
             width="100%"
             height="100%"
             style="stroke-width:0.792116" />
        </g>
      </g>
    </g>
    <g
       inkscape:label=""
       transform="matrix(0.352459,0,0,0.3525582,124.65494,23.642976)"
       id="g26715"
       style="stroke-width:0.792116">
      <g
         id="g5957"
         style="stroke-width:0.792116">
        <g
           style="fill:#000000;fill-opacity:1;stroke-width:0.792116"
           id="g6722">
          <use
             xlink:href="#symbol1200"
             x="91.925003"
             y="81.962997"
             id="use6250"
             width="100%"
             height="100%"
             style="stroke-width:0.792116" />
        </g>
      </g>
    </g>
    <g
       inkscape:label=""
       transform="matrix(0.352459,0,0,0.3525582,94.607898,-11.851317)"
       id="g27160"
       style="stroke-width:0.792116">
      <g
         id="g4674"
         style="stroke-width:0.792116">
        <g
           style="fill:#000000;fill-opacity:1;stroke-width:0.792116"
           id="g8991">
          <use
             xlink:href="#symbol9850"
             x="91.925003"
             y="81.962997"
             id="use2561"
             width="100%"
             height="100%"
             style="stroke-width:0.792116" />
        </g>
      </g>
    </g>
    <g
       inkscape:label=""
       transform="matrix(0.36353184,0,0,0.36363416,82.369746,7.5680625)"
       id="g27809"
       style="fill:#1f77b4;stroke:#1f77b4;stroke-width:0.792116">
      <g
         id="g1151"
         style="fill:#1f77b4;stroke:#1f77b4;stroke-width:0.792116">
        <g
           style="fill:#1f77b4;fill-opacity:1;stroke:#1f77b4;stroke-width:0.792116"
           id="g3055">
          <use
             xlink:href="#symbol8629"
             x="91.925003"
             y="81.962997"
             id="use8271"
             width="100%"
             height="100%"
             style="fill:#1f77b4;stroke:#1f77b4;stroke-width:0.792116" />
        </g>
      </g>
    </g>
    <g
       inkscape:label=""
       transform="matrix(0.36353184,0,0,0.36363416,78.083192,-0.49921697)"
       id="g28298"
       style="fill:#1f77b4;stroke:#1f77b4;stroke-width:0.792116">
      <g
         id="g8605"
         style="fill:#1f77b4;stroke:#1f77b4;stroke-width:0.792116">
        <g
           style="fill:#1f77b4;fill-opacity:1;stroke:#1f77b4;stroke-width:0.792116"
           id="g5524">
          <use
             xlink:href="#symbol3209"
             x="91.925003"
             y="81.962997"
             id="use1220"
             width="100%"
             height="100%"
             style="fill:#1f77b4;stroke:#1f77b4;stroke-width:0.792116" />
        </g>
      </g>
    </g>
    <g
       inkscape:label=""
       transform="matrix(0.36353184,0,0,0.36363416,73.153282,0.04745331)"
       id="g28809"
       style="fill:#1f77b4;stroke:#1f77b4;stroke-width:0.792116">
      <g
         id="g5076"
         style="fill:#1f77b4;stroke:#1f77b4;stroke-width:0.792116">
        <g
           style="fill:#1f77b4;fill-opacity:1;stroke:#1f77b4;stroke-width:0.792116"
           id="g4563">
          <use
             xlink:href="#symbol3546"
             x="91.925003"
             y="81.962997"
             id="use9244"
             width="100%"
             height="100%"
             style="fill:#1f77b4;stroke:#1f77b4;stroke-width:0.792116" />
        </g>
      </g>
    </g>
    <g
       inkscape:label=""
       transform="matrix(0.41452355,0,0,0.41464022,84.441843,8.4118885)"
       id="g35161"
       style="fill:#2ca02c;stroke:#2ca02c;stroke-width:0.792116">
      <g
         id="g53"
         style="fill:#2ca02c;stroke:#2ca02c;stroke-width:0.792116">
        <g
           style="fill:#2ca02c;fill-opacity:1;stroke:#2ca02c;stroke-width:0.792116"
           id="g5189">
          <use
             xlink:href="#symbol5562"
             x="91.925003"
             y="81.962997"
             id="use1374"
             width="100%"
             height="100%"
             style="fill:#2ca02c;stroke:#2ca02c;stroke-width:0.792116" />
        </g>
      </g>
    </g>
    <path
       id="ellipse7702"
       style="fill:none;stroke:#000000;stroke-width:0.141111;stroke-linecap:round;stroke-linejoin:round;stroke-miterlimit:4;stroke-dasharray:0.423333, 0.423333;stroke-dashoffset:0"
       d="m 154.63562,49.024415 c 0,-6.01461 -12.8711,-10.890415 -28.7484,-10.890411 -15.87729,0 -28.748382,4.875804 -28.748382,10.890411"
       sodipodi:nodetypes="csc" />
    <use
       xlink:href="#symbol6086"
       x="91.925003"
       y="81.962997"
       id="use607"
       width="100%"
       height="100%"
       style="fill:#000000;fill-opacity:1;stroke-width:1.65217"
       transform="matrix(0.45912239,0,0,0.45925161,72.118111,5.0352312)" />
    <use
       xlink:href="#symbol2597"
       x="91.925003"
       y="81.962997"
       id="use4150"
       width="100%"
       height="100%"
       style="fill:#000000;fill-opacity:1;stroke-width:1.65217"
       transform="matrix(0.45912239,0,0,0.45925161,89.115187,3.7520148)" />
    <g
       id="g1960"
       style="fill:#8c564b;stroke-width:0.792116"
       transform="matrix(1.2270249,-0.29625661,0.29617325,1.2273703,-136.65928,44.18273)">
      <g
         style="fill:#8c564b;fill-opacity:1;stroke-width:2.17784"
         id="g3456"
         transform="matrix(0.36371648,0,0,0.36371648,166.17221,7.884744)">
        <use
           xlink:href="#symbol4817"
           x="91.925003"
           y="81.962997"
           id="use4105"
           width="100%"
           height="100%"
           style="fill:#8c564b;stroke-width:2.17784" />
      </g>
      <g
         style="fill:#8c564b;fill-opacity:1;stroke-width:2.17784"
         id="g834"
         transform="matrix(0.36371648,0,0,0.36371648,165.64185,7.884744)">
        <use
           xlink:href="#symbol8794"
           x="100.504"
           y="81.962997"
           id="use7948"
           width="100%"
           height="100%"
           style="fill:#8c564b;stroke-width:2.17784" />
      </g>
      <g
         style="fill:#8c564b;fill-opacity:1;stroke-width:2.17784"
         id="g3051"
         transform="matrix(0.36371648,0,0,0.36371648,165.11388,7.884744)">
        <use
           xlink:href="#symbol1013"
           x="110.467"
           y="81.962997"
           id="use9372"
           width="100%"
           height="100%"
           style="fill:#8c564b;stroke-width:2.17784" />
      </g>
    </g>
    <g
       inkscape:label=""
       transform="matrix(0.4214156,0,0,0.4214156,98.410853,-7.1681743)"
       id="g4041"
       style="stroke-width:2.37295">
      <g
         id="g1093"
         style="stroke-width:2.37295">
        <g
           style="fill:#000000;fill-opacity:1;stroke-width:2.37295"
           id="g9273">
          <use
             xlink:href="#symbol5453"
             x="91.925003"
             y="81.962997"
             id="use8011"
             width="100%"
             height="100%"
             style="stroke-width:2.37295" />
        </g>
      </g>
    </g>
    <g
       inkscape:label=""
       transform="matrix(0.39108537,0,0,0.39108537,78.335683,0.09196964)"
       id="g16802"
       style="fill:#9467bd;stroke-width:2.55698">
      <g
         id="g9853"
         style="fill:#9467bd;stroke-width:2.55698">
        <g
           style="fill:#9467bd;fill-opacity:1;stroke-width:2.55698"
           id="g5984">
          <use
             xlink:href="#symbol8145"
             x="91.925003"
             y="81.962997"
             id="use9336"
             width="100%"
             height="100%"
             style="fill:#9467bd;stroke-width:2.55698" />
        </g>
      </g>
    </g>
    <g
       id="g61229"
       transform="translate(-9.2005684,0.80735986)">
      <path
         style="fill:none;stroke:#1f77b4;stroke-width:0.211667;stroke-linecap:butt;stroke-linejoin:miter;stroke-miterlimit:4;stroke-dasharray:none;stroke-opacity:1;marker-end:url(#marker20289267)"
         d="M 176.30469,29.049205 V 23.86078"
         id="path27508"
         sodipodi:nodetypes="cc" />
      <path
         style="fill:none;stroke:#d62728;stroke-width:0.141111;stroke-linecap:butt;stroke-linejoin:miter;stroke-miterlimit:4;stroke-dasharray:0.282222, 0.141111;stroke-dashoffset:0;stroke-opacity:1"
         d="m 187.49304,31.588191 0.51871,-2.541747"
         id="path44843"
         sodipodi:nodetypes="cc" />
      <path
         style="fill:#2ca02c;fill-opacity:0.7;stroke:none;stroke-width:0.264583px;stroke-linecap:butt;stroke-linejoin:miter;stroke-opacity:1"
         d="m 187.48157,35.931667 6e-5,5.987222 c -1.3969,0.234213 -2.82656,-0.659706 -3.20622,-1.525359 z"
         id="path51285"
         sodipodi:nodetypes="cccc" />
      <path
         style="fill:none;stroke:#8c564b;stroke-width:0.264583px;stroke-linecap:butt;stroke-linejoin:miter;stroke-opacity:1;marker-end:url(#marker20289707)"
         d="M 187.48157,35.931667 177.12368,29.564862"
         id="path29087"
         sodipodi:nodetypes="cc" />
      <path
         style="fill:#2ca02c;fill-opacity:0.7;stroke:none;stroke-width:0.264583px;stroke-linecap:butt;stroke-linejoin:miter;stroke-opacity:1"
         d="m 176.30469,41.178962 v 9.832349 l 5.68906,-7.661753 c -1.27484,-1.52753 -4.35779,-2.352932 -5.68906,-2.170596 z"
         id="path43374"
         sodipodi:nodetypes="cccc" />
      <path
         style="fill:none;stroke:#000000;stroke-width:0.246944;stroke-linecap:round;stroke-linejoin:miter;stroke-miterlimit:4;stroke-dasharray:none;stroke-opacity:1;marker-end:url(#marker2028839)"
         d="M 176.30469,51.011311 V 29.626266"
         id="path28620"
         sodipodi:nodetypes="cc" />
      <path
         style="fill:#9467bd;fill-opacity:0.7;stroke:none;stroke-width:0.264583px;stroke-linecap:butt;stroke-linejoin:miter;stroke-opacity:1"
         d="m 176.30469,29.049204 -0.37135,1.775972 c 0.8363,0.128413 4.67663,-0.164046 5.51732,-0.604505 z"
         id="path46846"
         sodipodi:nodetypes="cccc" />
      <path
         style="fill:none;stroke:#000000;stroke-width:0.246944;stroke-linecap:round;stroke-linejoin:miter;stroke-miterlimit:4;stroke-dasharray:none;stroke-opacity:1;marker-end:url(#marker20286770)"
         d="m 176.31218,51.003894 10.3667,-13.998055"
         id="path28622"
         sodipodi:nodetypes="cc" />
      <path
         style="fill:none;stroke:#d62728;stroke-width:0.141111;stroke-linecap:butt;stroke-linejoin:miter;stroke-miterlimit:4;stroke-dasharray:0.282222, 0.141111;stroke-dashoffset:0;stroke-opacity:1"
         d="M 187.49304,31.588191 H 175.80869"
         id="path45156" />
      <path
         style="fill:none;stroke:#1f77b4;stroke-width:0.211667;stroke-linecap:butt;stroke-linejoin:miter;stroke-miterlimit:4;stroke-dasharray:none;stroke-opacity:1;marker-end:url(#marker2028970)"
         d="m 176.30469,29.049205 -1.22363,5.980162"
         id="path27984"
         sodipodi:nodetypes="cc" />
      <path
         style="fill:none;stroke:#1f77b4;stroke-width:0.211667;stroke-linecap:butt;stroke-linejoin:miter;stroke-miterlimit:4;stroke-dasharray:none;stroke-opacity:1;marker-end:url(#marker20287691)"
         d="m 176.26011,29.068645 15.42802,-0.02412"
         id="path27510"
         sodipodi:nodetypes="cc" />
      <path
         style="fill:none;stroke:#7f7f7f;stroke-width:0.105833;stroke-linecap:butt;stroke-linejoin:miter;stroke-miterlimit:4;stroke-dasharray:0.211667, 0.105833;stroke-dashoffset:0;stroke-opacity:1"
         d="m 176.30469,29.049204 11.18835,2.538987 v 25.596915 l -11.18835,-6.173795"
         id="path44671"
         sodipodi:nodetypes="cccc" />
      <circle
         style="fill:#000000;fill-opacity:1;stroke:none;stroke-width:0.211667;stroke-linecap:round;stroke-linejoin:round;stroke-miterlimit:4;stroke-dasharray:none;stroke-dashoffset:0;stroke-opacity:1;paint-order:stroke fill markers"
         id="path28503"
         cx="187.48157"
         cy="35.931667"
         r="0.7937609" />
      <path
         style="fill:none;stroke:#7f7f7f;stroke-width:0.105833;stroke-linecap:butt;stroke-linejoin:miter;stroke-miterlimit:4;stroke-dasharray:0.211667, 0.105833;stroke-dashoffset:0;stroke-opacity:1"
         d="m 185.86609,56.292624 v -2.439122 l 1.62683,0.915939"
         id="path48476"
         sodipodi:nodetypes="ccc" />
      <g
         inkscape:label=""
         transform="matrix(0.36353184,0,0,0.36363416,139.2152,7.2468998)"
         id="g49709"
         style="fill:#1f77b4;stroke:#1f77b4;stroke-width:0.792116">
        <g
           id="g49707"
           style="fill:#1f77b4;stroke:#1f77b4;stroke-width:0.792116">
          <g
             style="fill:#1f77b4;fill-opacity:1;stroke:#1f77b4;stroke-width:0.792116"
             id="g49705">
            <use
               xlink:href="#symbol8629"
               x="91.925003"
               y="81.962997"
               id="use49703"
               width="100%"
               height="100%"
               style="fill:#1f77b4;stroke:#1f77b4;stroke-width:0.792116" />
          </g>
        </g>
      </g>
      <g
         inkscape:label=""
         transform="matrix(0.36353184,0,0,0.36363416,158.95795,-0.06743926)"
         id="g49717"
         style="fill:#1f77b4;stroke:#1f77b4;stroke-width:0.792116">
        <g
           id="g49715"
           style="fill:#1f77b4;stroke:#1f77b4;stroke-width:0.792116">
          <g
             style="fill:#1f77b4;fill-opacity:1;stroke:#1f77b4;stroke-width:0.792116"
             id="g49713">
            <use
               xlink:href="#symbol3209"
               x="91.925003"
               y="81.962997"
               id="use49711"
               width="100%"
               height="100%"
               style="fill:#1f77b4;stroke:#1f77b4;stroke-width:0.792116" />
          </g>
        </g>
      </g>
      <g
         inkscape:label=""
         transform="matrix(0.36353184,0,0,0.36363416,140.20862,-4.056663)"
         id="g49725"
         style="fill:#1f77b4;stroke:#1f77b4;stroke-width:0.792116">
        <g
           id="g49723"
           style="fill:#1f77b4;stroke:#1f77b4;stroke-width:0.792116">
          <g
             style="fill:#1f77b4;fill-opacity:1;stroke:#1f77b4;stroke-width:0.792116"
             id="g49721">
            <use
               xlink:href="#symbol3546"
               x="91.925003"
               y="81.962997"
               id="use49719"
               width="100%"
               height="100%"
               style="fill:#1f77b4;stroke:#1f77b4;stroke-width:0.792116" />
          </g>
        </g>
      </g>
      <g
         inkscape:label=""
         transform="matrix(0.39108537,0,0,0.39108537,141.80167,-3.7657049)"
         id="g49733"
         style="fill:#9467bd;stroke-width:2.55698">
        <g
           id="g49731"
           style="fill:#9467bd;stroke-width:2.55698">
          <g
             style="fill:#9467bd;fill-opacity:1;stroke-width:2.55698"
             id="g49729">
            <use
               xlink:href="#symbol8145"
               x="91.925003"
               y="81.962997"
               id="use49727"
               width="100%"
               height="100%"
               style="fill:#9467bd;stroke-width:2.55698"
               transform="translate(-1.2854815,13.56136)" />
          </g>
        </g>
      </g>
      <use
         xlink:href="#symbol2597"
         x="91.925003"
         y="81.962997"
         id="use50602"
         width="100%"
         height="100%"
         style="fill:#000000;fill-opacity:1;stroke-width:1.65217"
         transform="matrix(0.45912239,0,0,0.45925161,139.21142,8.6517887)" />
      <use
         xlink:href="#symbol6086"
         x="91.925003"
         y="81.962997"
         id="use50604"
         width="100%"
         height="100%"
         style="fill:#000000;fill-opacity:1;stroke-width:1.65217"
         transform="matrix(0.45912239,0,0,0.45925161,130.6402,4.2770445)" />
      <g
         inkscape:label=""
         transform="matrix(0.41452355,0,0,0.41464022,140.61627,6.4655393)"
         id="g50648"
         style="fill:#2ca02c;stroke:#2ca02c;stroke-width:0.792116">
        <g
           id="g50646"
           style="fill:#2ca02c;stroke:#2ca02c;stroke-width:0.792116">
          <g
             style="fill:#2ca02c;fill-opacity:1;stroke:#2ca02c;stroke-width:0.792116"
             id="g50644">
            <use
               xlink:href="#symbol5562"
               x="91.925003"
               y="81.962997"
               id="use50642"
               width="100%"
               height="100%"
               style="fill:#2ca02c;stroke:#2ca02c;stroke-width:0.792116" />
          </g>
        </g>
      </g>
      <g
         inkscape:label=""
         transform="matrix(0.4214156,0,0,0.4214156,150.70741,1.7766979)"
         id="g50951"
         style="stroke-width:2.37295">
        <g
           id="g50949"
           style="stroke-width:2.37295"
           transform="translate(-2.308818,1.6424618)">
          <g
             style="fill:#000000;fill-opacity:1;stroke-width:2.37295"
             id="g50947">
            <use
               xlink:href="#symbol5453"
               x="91.925003"
               y="81.962997"
               id="use50945"
               width="100%"
               height="100%"
               style="stroke-width:2.37295" />
          </g>
        </g>
      </g>
      <path
         style="fill:none;stroke:#d62728;stroke-width:0.141111;stroke-linecap:butt;stroke-linejoin:miter;stroke-miterlimit:4;stroke-dasharray:0.282222, 0.141111;stroke-dashoffset:0;stroke-opacity:1;marker-end:url(#marker2028)"
         d="m 187.49304,31.588191 -0.0115,3.186102"
         id="path53293"
         sodipodi:nodetypes="cc" />
      <g
         inkscape:label=""
         transform="matrix(0.29595819,0,0,0.29595819,160.67577,9.5699265)"
         id="g58131"
         style="fill:#d62728;stroke-width:3.37886">
        <g
           id="g9879"
           style="fill:#d62728;stroke-width:3.37886">
          <g
             style="fill:#d62728;fill-opacity:1;stroke-width:3.37886"
             id="g1371">
            <use
               xlink:href="#symbol869"
               x="91.925003"
               y="81.962997"
               id="use7846"
               width="100%"
               height="100%"
               style="fill:#d62728;stroke-width:3.37886" />
          </g>
          <g
             style="fill:#d62728;fill-opacity:1;stroke-width:3.37886"
             id="g5749">
            <use
               xlink:href="#symbol633"
               x="100.227"
               y="81.962997"
               id="use2483"
               width="100%"
               height="100%"
               style="fill:#d62728;stroke-width:3.37886" />
          </g>
        </g>
      </g>
      <g
         inkscape:label=""
         transform="matrix(0.29595819,0,0,0.29595819,143.98638,7.8415691)"
         id="g58918"
         style="fill:#d62728;stroke-width:3.37886">
        <g
           id="g2274"
           style="fill:#d62728;stroke-width:3.37886">
          <g
             style="fill:#d62728;fill-opacity:1;stroke-width:3.37886"
             id="g2412">
            <use
               xlink:href="#symbol9893"
               x="91.925003"
               y="81.962997"
               id="use6730"
               width="100%"
               height="100%"
               style="fill:#d62728;stroke-width:3.37886" />
          </g>
          <g
             style="fill:#d62728;fill-opacity:1;stroke-width:3.37886"
             id="g433">
            <use
               xlink:href="#symbol8655"
               x="100.227"
               y="81.962997"
               id="use7394"
               width="100%"
               height="100%"
               style="fill:#d62728;stroke-width:3.37886" />
          </g>
        </g>
      </g>
      <g
         inkscape:label=""
         transform="matrix(0.30107922,0,0,0.30107923,158.35575,3.4670415)"
         id="g59663"
         style="fill:#d62728;stroke-width:3.32138">
        <g
           id="g6594"
           style="fill:#d62728;stroke-width:3.32138">
          <g
             style="fill:#d62728;fill-opacity:1;stroke-width:3.32138"
             id="g4940">
            <use
               xlink:href="#symbol4289"
               x="91.925003"
               y="81.962997"
               id="use7939"
               width="100%"
               height="100%"
               style="fill:#d62728;stroke-width:3.32138" />
          </g>
          <g
             style="fill:#d62728;fill-opacity:1;stroke-width:3.32138"
             id="g131">
            <use
               xlink:href="#symbol953"
               x="100.227"
               y="81.962997"
               id="use4209"
               width="100%"
               height="100%"
               style="fill:#d62728;stroke-width:3.32138" />
          </g>
        </g>
      </g>
    </g>
    <path
       style="fill:none;stroke:#1f77b4;stroke-width:0.246946;stroke-linecap:butt;stroke-linejoin:miter;stroke-miterlimit:4;stroke-dasharray:none;stroke-opacity:1;marker-end:url(#marker202856645659)"
       d="m 111.28632,34.391065 -3.48838,-3.472564"
       id="path69699"
       sodipodi:nodetypes="cc" />
  </g>
</svg>
