<?xml version="1.0" encoding="UTF-8" standalone="no"?>
<!-- Created with Inkscape (http://www.inkscape.org/) -->

<svg
   id="svg2"
   version="1.1"
   inkscape:version="1.1 (c4e8f9ed74, 2021-05-24)"
   width="300"
   height="258.75"
   xml:space="preserve"
   sodipodi:docname="tesseroid-coord-sys.svg"
   inkscape:export-filename="tesseroid-coord-sys.png"
   inkscape:export-xdpi="800"
   inkscape:export-ydpi="800"
   xmlns:inkscape="http://www.inkscape.org/namespaces/inkscape"
   xmlns:sodipodi="http://sodipodi.sourceforge.net/DTD/sodipodi-0.dtd"
   xmlns:xlink="http://www.w3.org/1999/xlink"
   xmlns="http://www.w3.org/2000/svg"
   xmlns:svg="http://www.w3.org/2000/svg"
   xmlns:rdf="http://www.w3.org/1999/02/22-rdf-syntax-ns#"
   xmlns:cc="http://creativecommons.org/ns#"
   xmlns:dc="http://purl.org/dc/elements/1.1/"><metadata
     id="metadata8"><rdf:RDF><cc:Work
         rdf:about=""><dc:format>image/svg+xml</dc:format><dc:type
           rdf:resource="http://purl.org/dc/dcmitype/StillImage" /><dc:title /></cc:Work></rdf:RDF></metadata><defs
     id="defs6"><marker
   inkscape:stockid="Arrow1Mend"
   orient="auto"
   refY="0"
   refX="0"
   id="Arrow1Mend"
   style="overflow:visible"><path
     id="path4059"
     d="M 0,0 5,-5 -12.5,0 5,5 0,0 z"
     style="fill-rule:evenodd;stroke:#000000;stroke-width:1pt;marker-start:none"
     transform="matrix(-0.4,0,0,-0.4,-4,0)"
     inkscape:connector-curvature="0" /></marker><g
   id="g8152">
      <symbol
   overflow="visible"
   id="symbol5705">
        <path
   style="stroke:none;"
   d=""
   id="path2786" />
      </symbol>
      <symbol
   overflow="visible"
   id="symbol6658">
        <path
   style="stroke:none;"
   d="M 3.328125 -3.015625 C 3.390625 -3.265625 3.625 -4.1875 4.3125 -4.1875 C 4.359375 -4.1875 4.609375 -4.1875 4.8125 -4.0625 C 4.53125 -4 4.34375 -3.765625 4.34375 -3.515625 C 4.34375 -3.359375 4.453125 -3.171875 4.71875 -3.171875 C 4.9375 -3.171875 5.25 -3.34375 5.25 -3.75 C 5.25 -4.265625 4.671875 -4.40625 4.328125 -4.40625 C 3.75 -4.40625 3.40625 -3.875 3.28125 -3.65625 C 3.03125 -4.3125 2.5 -4.40625 2.203125 -4.40625 C 1.171875 -4.40625 0.59375 -3.125 0.59375 -2.875 C 0.59375 -2.765625 0.703125 -2.765625 0.71875 -2.765625 C 0.796875 -2.765625 0.828125 -2.796875 0.84375 -2.875 C 1.1875 -3.9375 1.84375 -4.1875 2.1875 -4.1875 C 2.375 -4.1875 2.71875 -4.09375 2.71875 -3.515625 C 2.71875 -3.203125 2.546875 -2.546875 2.1875 -1.140625 C 2.03125 -0.53125 1.671875 -0.109375 1.234375 -0.109375 C 1.171875 -0.109375 0.953125 -0.109375 0.734375 -0.234375 C 0.984375 -0.296875 1.203125 -0.5 1.203125 -0.78125 C 1.203125 -1.046875 0.984375 -1.125 0.84375 -1.125 C 0.53125 -1.125 0.296875 -0.875 0.296875 -0.546875 C 0.296875 -0.09375 0.78125 0.109375 1.21875 0.109375 C 1.890625 0.109375 2.25 -0.59375 2.265625 -0.640625 C 2.390625 -0.28125 2.75 0.109375 3.34375 0.109375 C 4.375 0.109375 4.9375 -1.171875 4.9375 -1.421875 C 4.9375 -1.53125 4.859375 -1.53125 4.828125 -1.53125 C 4.734375 -1.53125 4.71875 -1.484375 4.6875 -1.421875 C 4.359375 -0.34375 3.6875 -0.109375 3.375 -0.109375 C 2.984375 -0.109375 2.828125 -0.421875 2.828125 -0.765625 C 2.828125 -0.984375 2.875 -1.203125 2.984375 -1.640625 Z M 3.328125 -3.015625 "
   id="path7441" />
      </symbol>
    </g>
  <g
   id="g5491">
      <symbol
   overflow="visible"
   id="symbol3709">
        <path
   style="stroke:none;"
   d=""
   id="path5153" />
      </symbol>
      <symbol
   overflow="visible"
   id="symbol4951">
        <path
   style="stroke:none;"
   d="M 4.84375 -3.796875 C 4.890625 -3.9375 4.890625 -3.953125 4.890625 -4.03125 C 4.890625 -4.203125 4.75 -4.296875 4.59375 -4.296875 C 4.5 -4.296875 4.34375 -4.234375 4.25 -4.09375 C 4.234375 -4.03125 4.140625 -3.734375 4.109375 -3.546875 C 4.03125 -3.296875 3.96875 -3.015625 3.90625 -2.75 L 3.453125 -0.953125 C 3.421875 -0.8125 2.984375 -0.109375 2.328125 -0.109375 C 1.828125 -0.109375 1.71875 -0.546875 1.71875 -0.921875 C 1.71875 -1.375 1.890625 -2 2.21875 -2.875 C 2.375 -3.28125 2.421875 -3.390625 2.421875 -3.59375 C 2.421875 -4.03125 2.109375 -4.40625 1.609375 -4.40625 C 0.65625 -4.40625 0.296875 -2.953125 0.296875 -2.875 C 0.296875 -2.765625 0.390625 -2.765625 0.40625 -2.765625 C 0.515625 -2.765625 0.515625 -2.796875 0.5625 -2.953125 C 0.84375 -3.890625 1.234375 -4.1875 1.578125 -4.1875 C 1.65625 -4.1875 1.828125 -4.1875 1.828125 -3.875 C 1.828125 -3.625 1.71875 -3.359375 1.65625 -3.171875 C 1.25 -2.109375 1.078125 -1.546875 1.078125 -1.078125 C 1.078125 -0.1875 1.703125 0.109375 2.296875 0.109375 C 2.6875 0.109375 3.015625 -0.0625 3.296875 -0.34375 C 3.171875 0.171875 3.046875 0.671875 2.65625 1.203125 C 2.390625 1.53125 2.015625 1.828125 1.5625 1.828125 C 1.421875 1.828125 0.96875 1.796875 0.796875 1.40625 C 0.953125 1.40625 1.09375 1.40625 1.21875 1.28125 C 1.328125 1.203125 1.421875 1.0625 1.421875 0.875 C 1.421875 0.5625 1.15625 0.53125 1.0625 0.53125 C 0.828125 0.53125 0.5 0.6875 0.5 1.171875 C 0.5 1.671875 0.9375 2.046875 1.5625 2.046875 C 2.578125 2.046875 3.609375 1.140625 3.890625 0.015625 Z M 4.84375 -3.796875 "
   id="path5993" />
      </symbol>
    </g>
  <g
   id="g5657">
      <symbol
   overflow="visible"
   id="symbol2908">
        <path
   style="stroke:none;"
   d=""
   id="path3332" />
      </symbol>
      <symbol
   overflow="visible"
   id="symbol1466">
        <path
   style="stroke:none;"
   d="M 1.328125 -0.828125 C 1.859375 -1.40625 2.15625 -1.65625 2.515625 -1.96875 C 2.515625 -1.96875 3.125 -2.5 3.484375 -2.859375 C 4.4375 -3.78125 4.65625 -4.265625 4.65625 -4.3125 C 4.65625 -4.40625 4.5625 -4.40625 4.546875 -4.40625 C 4.46875 -4.40625 4.453125 -4.390625 4.390625 -4.296875 C 4.09375 -3.8125 3.890625 -3.65625 3.65625 -3.65625 C 3.40625 -3.65625 3.296875 -3.8125 3.140625 -3.984375 C 2.953125 -4.203125 2.78125 -4.40625 2.453125 -4.40625 C 1.703125 -4.40625 1.25 -3.484375 1.25 -3.265625 C 1.25 -3.21875 1.28125 -3.15625 1.359375 -3.15625 C 1.453125 -3.15625 1.46875 -3.203125 1.5 -3.265625 C 1.6875 -3.734375 2.265625 -3.734375 2.34375 -3.734375 C 2.546875 -3.734375 2.734375 -3.671875 2.96875 -3.59375 C 3.375 -3.4375 3.484375 -3.4375 3.734375 -3.4375 C 3.375 -3.015625 2.546875 -2.296875 2.359375 -2.140625 L 1.453125 -1.296875 C 0.78125 -0.625 0.421875 -0.0625 0.421875 0.015625 C 0.421875 0.109375 0.53125 0.109375 0.546875 0.109375 C 0.625 0.109375 0.640625 0.09375 0.703125 -0.015625 C 0.9375 -0.375 1.234375 -0.640625 1.5625 -0.640625 C 1.78125 -0.640625 1.890625 -0.546875 2.140625 -0.265625 C 2.296875 -0.046875 2.484375 0.109375 2.765625 0.109375 C 3.765625 0.109375 4.34375 -1.15625 4.34375 -1.421875 C 4.34375 -1.46875 4.296875 -1.53125 4.21875 -1.53125 C 4.125 -1.53125 4.109375 -1.46875 4.078125 -1.390625 C 3.84375 -0.75 3.203125 -0.5625 2.875 -0.5625 C 2.6875 -0.5625 2.5 -0.625 2.296875 -0.6875 C 1.953125 -0.8125 1.796875 -0.859375 1.59375 -0.859375 C 1.578125 -0.859375 1.421875 -0.859375 1.328125 -0.828125 Z M 1.328125 -0.828125 "
   id="path4855" />
      </symbol>
    </g>
  <g
   id="g2897">
      <symbol
   overflow="visible"
   id="symbol1182">
        <path
   style="stroke:none;"
   d=""
   id="path9917" />
      </symbol>
      <symbol
   overflow="visible"
   id="symbol4877">
        <path
   style="stroke:none;"
   d="M 4.828125 -4.09375 L 4 -6.078125 C 3.96875 -6.15625 3.953125 -6.203125 3.953125 -6.203125 C 3.953125 -6.265625 4.109375 -6.453125 4.53125 -6.5 C 4.640625 -6.515625 4.734375 -6.515625 4.734375 -6.6875 C 4.734375 -6.8125 4.609375 -6.8125 4.578125 -6.8125 C 4.171875 -6.8125 3.75 -6.78125 3.328125 -6.78125 C 3.078125 -6.78125 2.46875 -6.8125 2.21875 -6.8125 C 2.15625 -6.8125 2.03125 -6.8125 2.03125 -6.609375 C 2.03125 -6.5 2.140625 -6.5 2.265625 -6.5 C 2.859375 -6.5 2.921875 -6.40625 3.015625 -6.1875 L 4.1875 -3.40625 L 2.078125 -1.140625 L 1.953125 -1.03125 C 1.46875 -0.5 1 -0.34375 0.484375 -0.3125 C 0.359375 -0.296875 0.265625 -0.296875 0.265625 -0.109375 C 0.265625 -0.09375 0.265625 0 0.40625 0 C 0.703125 0 1.03125 -0.03125 1.328125 -0.03125 C 1.703125 -0.03125 2.09375 0 2.453125 0 C 2.515625 0 2.625 0 2.625 -0.203125 C 2.625 -0.296875 2.53125 -0.3125 2.515625 -0.3125 C 2.421875 -0.3125 2.109375 -0.34375 2.109375 -0.625 C 2.109375 -0.78125 2.265625 -0.9375 2.375 -1.0625 L 3.40625 -2.140625 L 4.296875 -3.125 L 5.296875 -0.734375 C 5.34375 -0.625 5.359375 -0.625 5.359375 -0.59375 C 5.359375 -0.515625 5.15625 -0.34375 4.78125 -0.3125 C 4.671875 -0.296875 4.578125 -0.296875 4.578125 -0.125 C 4.578125 0 4.6875 0 4.71875 0 C 5 0 5.703125 -0.03125 5.984375 -0.03125 C 6.234375 -0.03125 6.84375 0 7.09375 0 C 7.15625 0 7.28125 0 7.28125 -0.1875 C 7.28125 -0.3125 7.171875 -0.3125 7.09375 -0.3125 C 6.4375 -0.3125 6.40625 -0.34375 6.234375 -0.75 C 5.859375 -1.671875 5.1875 -3.234375 4.953125 -3.828125 C 5.625 -4.53125 6.671875 -5.71875 7 -5.984375 C 7.28125 -6.234375 7.671875 -6.46875 8.265625 -6.5 C 8.390625 -6.515625 8.484375 -6.515625 8.484375 -6.703125 C 8.484375 -6.703125 8.484375 -6.8125 8.359375 -6.8125 C 8.0625 -6.8125 7.71875 -6.78125 7.421875 -6.78125 C 7.046875 -6.78125 6.671875 -6.8125 6.3125 -6.8125 C 6.25 -6.8125 6.125 -6.8125 6.125 -6.609375 C 6.125 -6.546875 6.171875 -6.515625 6.234375 -6.5 C 6.328125 -6.484375 6.640625 -6.46875 6.640625 -6.1875 C 6.640625 -6.046875 6.53125 -5.921875 6.453125 -5.828125 Z M 4.828125 -4.09375 "
   id="path7232" />
      </symbol>
    </g>
  <g
   id="g9062">
      <symbol
   overflow="visible"
   id="symbol1881">
        <path
   style="stroke:none;"
   d=""
   id="path236" />
      </symbol>
      <symbol
   overflow="visible"
   id="symbol6325">
        <path
   style="stroke:none;"
   d="M 5.953125 -5.671875 L 6.09375 -5.8125 C 6.390625 -6.109375 6.71875 -6.453125 7.390625 -6.5 C 7.5 -6.515625 7.59375 -6.515625 7.59375 -6.6875 C 7.59375 -6.765625 7.546875 -6.8125 7.46875 -6.8125 C 7.203125 -6.8125 6.921875 -6.78125 6.65625 -6.78125 C 6.3125 -6.78125 5.96875 -6.8125 5.65625 -6.8125 C 5.59375 -6.8125 5.46875 -6.8125 5.46875 -6.625 C 5.46875 -6.515625 5.5625 -6.5 5.609375 -6.5 C 5.6875 -6.5 5.96875 -6.484375 5.96875 -6.265625 C 5.96875 -6.09375 5.734375 -5.84375 5.703125 -5.796875 L 3.390625 -3.125 L 2.296875 -6.09375 C 2.234375 -6.234375 2.234375 -6.25 2.234375 -6.265625 C 2.234375 -6.5 2.71875 -6.5 2.828125 -6.5 C 2.953125 -6.5 3.0625 -6.5 3.0625 -6.703125 C 3.0625 -6.8125 2.9375 -6.8125 2.90625 -6.8125 C 2.625 -6.8125 1.9375 -6.78125 1.65625 -6.78125 C 1.40625 -6.78125 0.78125 -6.8125 0.53125 -6.8125 C 0.484375 -6.8125 0.34375 -6.8125 0.34375 -6.609375 C 0.34375 -6.5 0.453125 -6.5 0.578125 -6.5 C 1.171875 -6.5 1.21875 -6.40625 1.3125 -6.15625 L 2.53125 -2.875 C 2.546875 -2.84375 2.578125 -2.734375 2.578125 -2.71875 C 2.578125 -2.6875 2.171875 -1.078125 2.125 -0.890625 C 2 -0.34375 1.984375 -0.3125 1.1875 -0.3125 C 1 -0.3125 0.921875 -0.3125 0.921875 -0.109375 C 0.921875 0 1.03125 0 1.0625 0 C 1.328125 0 2.03125 -0.03125 2.3125 -0.03125 C 2.59375 -0.03125 3.3125 0 3.59375 0 C 3.65625 0 3.78125 0 3.78125 -0.203125 C 3.78125 -0.3125 3.6875 -0.3125 3.5 -0.3125 C 3.484375 -0.3125 3.296875 -0.3125 3.125 -0.328125 C 2.90625 -0.34375 2.84375 -0.375 2.84375 -0.484375 C 2.84375 -0.5625 2.9375 -0.90625 2.984375 -1.109375 L 3.34375 -2.515625 C 3.390625 -2.71875 3.40625 -2.734375 3.484375 -2.828125 Z M 5.953125 -5.671875 "
   id="path1131" />
      </symbol>
    </g>
  <g
   id="g9992">
      <symbol
   overflow="visible"
   id="symbol1312">
        <path
   style="stroke:none;"
   d=""
   id="path6686" />
      </symbol>
      <symbol
   overflow="visible"
   id="symbol1908">
        <path
   style="stroke:none;"
   d="M 7.171875 -6.5625 C 7.1875 -6.609375 7.203125 -6.65625 7.203125 -6.71875 C 7.203125 -6.8125 7.15625 -6.8125 6.953125 -6.8125 L 2.75 -6.8125 C 2.515625 -6.8125 2.5 -6.796875 2.4375 -6.609375 L 1.890625 -4.8125 C 1.875 -4.765625 1.859375 -4.6875 1.859375 -4.671875 C 1.859375 -4.671875 1.859375 -4.5625 1.984375 -4.5625 C 2.078125 -4.5625 2.09375 -4.640625 2.109375 -4.671875 C 2.5 -5.84375 3.015625 -6.5 4.5625 -6.5 L 6.1875 -6.5 L 0.625 -0.265625 C 0.625 -0.265625 0.578125 -0.125 0.578125 -0.09375 C 0.578125 0 0.640625 0 0.828125 0 L 5.15625 0 C 5.40625 0 5.40625 -0.015625 5.46875 -0.203125 L 6.1875 -2.40625 C 6.1875 -2.4375 6.21875 -2.515625 6.21875 -2.546875 C 6.21875 -2.609375 6.1875 -2.65625 6.09375 -2.65625 C 6 -2.65625 5.984375 -2.625 5.921875 -2.40625 C 5.484375 -1.0625 5 -0.34375 3.3125 -0.34375 L 1.609375 -0.34375 Z M 7.171875 -6.5625 "
   id="path116" />
      </symbol>
    </g>
  <g
   id="g3868">
      <symbol
   overflow="visible"
   id="symbol1">
        <path
   style="stroke:none;"
   d=""
   id="path2601" />
      </symbol>
      <symbol
   overflow="visible"
   id="symbol9655">
        <path
   style="stroke:none;"
   d="M 3.5625 -2.90625 C 3.96875 -1.859375 4.453125 -0.34375 4.609375 -0.109375 C 4.765625 0.109375 4.859375 0.109375 5.140625 0.109375 L 5.359375 0.109375 C 5.453125 0.09375 5.46875 0.046875 5.46875 0.015625 C 5.46875 -0.015625 5.4375 -0.046875 5.40625 -0.078125 C 5.3125 -0.1875 5.25 -0.34375 5.1875 -0.53125 L 3.15625 -6.203125 C 2.9375 -6.78125 2.40625 -6.921875 1.9375 -6.921875 C 1.890625 -6.921875 1.75 -6.921875 1.75 -6.8125 C 1.75 -6.734375 1.828125 -6.703125 1.84375 -6.703125 C 2.171875 -6.65625 2.25 -6.59375 2.5 -5.90625 L 3.453125 -3.203125 L 0.703125 -0.46875 C 0.59375 -0.34375 0.53125 -0.296875 0.53125 -0.15625 C 0.53125 0.015625 0.671875 0.125 0.828125 0.125 C 0.984375 0.125 1.078125 0.015625 1.15625 -0.078125 Z M 3.5625 -2.90625 "
   id="path1086" />
      </symbol>
    </g>
  <g
   id="g3007">
      <symbol
   overflow="visible"
   id="symbol777">
        <path
   style="stroke:none;"
   d=""
   id="path2543" />
      </symbol>
      <symbol
   overflow="visible"
   id="symbol9913">
        <path
   style="stroke:none;"
   d="M 4.359375 -6.671875 C 4.359375 -6.703125 4.390625 -6.8125 4.390625 -6.8125 C 4.390625 -6.828125 4.390625 -6.921875 4.265625 -6.921875 C 4.171875 -6.921875 4.15625 -6.890625 4.109375 -6.71875 L 3.53125 -4.421875 C 1.953125 -4.359375 0.484375 -3.046875 0.484375 -1.6875 C 0.484375 -0.734375 1.1875 0.046875 2.40625 0.125 C 2.328125 0.421875 2.25 0.75 2.171875 1.0625 C 2.046875 1.53125 1.953125 1.90625 1.953125 1.9375 C 1.953125 2.03125 2.03125 2.046875 2.078125 2.046875 C 2.125 2.046875 2.140625 2.03125 2.171875 2 C 2.1875 1.984375 2.25 1.75 2.28125 1.609375 L 2.65625 0.125 C 4.265625 0.0625 5.71875 -1.28125 5.71875 -2.609375 C 5.71875 -3.40625 5.1875 -4.3125 3.796875 -4.421875 Z M 2.453125 -0.09375 C 1.859375 -0.125 1.140625 -0.484375 1.140625 -1.46875 C 1.140625 -2.671875 2 -4.0625 3.484375 -4.203125 Z M 3.734375 -4.203125 C 4.5 -4.15625 5.0625 -3.703125 5.0625 -2.828125 C 5.0625 -1.640625 4.203125 -0.21875 2.71875 -0.09375 Z M 3.734375 -4.203125 "
   id="path8797" />
      </symbol>
    </g>
  <g
   id="g7631">
      <symbol
   overflow="visible"
   id="symbol7502">
        <path
   style="stroke:none;"
   d=""
   id="path9659" />
      </symbol>
      <symbol
   overflow="visible"
   id="symbol6420">
        <path
   style="stroke:none;"
   d="M 2.578125 -6.8125 C 2.578125 -6.8125 2.578125 -6.921875 2.4375 -6.921875 C 2.21875 -6.921875 1.484375 -6.84375 1.21875 -6.8125 C 1.140625 -6.8125 1.03125 -6.796875 1.03125 -6.609375 C 1.03125 -6.5 1.140625 -6.5 1.28125 -6.5 C 1.765625 -6.5 1.78125 -6.40625 1.78125 -6.328125 L 1.75 -6.125 L 0.484375 -1.140625 C 0.453125 -1.03125 0.4375 -0.96875 0.4375 -0.8125 C 0.4375 -0.234375 0.875 0.109375 1.34375 0.109375 C 1.671875 0.109375 1.921875 -0.09375 2.09375 -0.453125 C 2.265625 -0.828125 2.390625 -1.40625 2.390625 -1.421875 C 2.390625 -1.53125 2.296875 -1.53125 2.265625 -1.53125 C 2.171875 -1.53125 2.15625 -1.484375 2.140625 -1.34375 C 1.96875 -0.703125 1.78125 -0.109375 1.375 -0.109375 C 1.078125 -0.109375 1.078125 -0.421875 1.078125 -0.5625 C 1.078125 -0.8125 1.09375 -0.859375 1.140625 -1.046875 Z M 2.578125 -6.8125 "
   id="path9041" />
      </symbol>
    </g>
  <g
   id="g609">
      <symbol
   overflow="visible"
   id="symbol4110">
        <path
   style="stroke:none;"
   d=""
   id="path4731" />
      </symbol>
      <symbol
   overflow="visible"
   id="symbol6035">
        <path
   style="stroke:none;"
   d="M 2.1875 -3.28125 C 2.1875 -3.46875 2.203125 -3.484375 2.34375 -3.625 C 2.734375 -4.03125 3.265625 -4.09375 3.484375 -4.09375 C 4.140625 -4.09375 4.703125 -3.484375 4.703125 -2.21875 C 4.703125 -0.8125 4 -0.296875 3.359375 -0.296875 C 3.21875 -0.296875 2.75 -0.296875 2.296875 -0.84375 C 2.1875 -0.96875 2.1875 -0.984375 2.1875 -1.171875 Z M 2.1875 -0.390625 C 2.625 -0.046875 3.0625 0.0625 3.46875 0.0625 C 4.96875 0.0625 5.984375 -0.84375 5.984375 -2.21875 C 5.984375 -3.546875 5.078125 -4.484375 3.640625 -4.484375 C 2.890625 -4.484375 2.359375 -4.171875 2.140625 -4 L 2.140625 -4.484375 L 0.375 -4.40625 L 0.375 -3.9375 C 0.984375 -3.9375 1.0625 -3.9375 1.0625 -3.5625 L 1.0625 1.46875 L 0.375 1.46875 L 0.375 1.9375 C 0.640625 1.921875 1.25 1.90625 1.625 1.90625 C 2.015625 1.90625 2.609375 1.921875 2.875 1.9375 L 2.875 1.46875 L 2.1875 1.46875 Z M 2.1875 -0.390625 "
   id="path4359" />
      </symbol>
    </g>
  <g
   id="g2142">
      <symbol
   overflow="visible"
   id="symbol9458">
        <path
   style="stroke:none;"
   d=""
   id="path4897" />
      </symbol>
      <symbol
   overflow="visible"
   id="symbol280">
        <path
   style="stroke:none;"
   d="M 4.234375 -1.421875 C 4.234375 -1.234375 4.234375 -1.203125 4.078125 -1 C 3.671875 -0.40625 3.171875 -0.296875 2.875 -0.296875 C 2.25 -0.296875 1.65625 -0.875 1.65625 -2.203125 C 1.65625 -3.625 2.390625 -4.09375 2.984375 -4.09375 C 3.75 -4.09375 4.234375 -3.296875 4.234375 -2.796875 Z M 4.359375 -3.703125 C 4.015625 -4.1875 3.453125 -4.484375 2.859375 -4.484375 C 1.40625 -4.484375 0.375 -3.59375 0.375 -2.21875 C 0.375 -0.8125 1.390625 0.0625 2.765625 0.0625 C 3.265625 0.0625 3.703125 -0.078125 4.171875 -0.484375 L 4.171875 1.46875 L 3.484375 1.46875 L 3.484375 1.9375 C 3.765625 1.921875 4.359375 1.90625 4.734375 1.90625 C 5.125 1.90625 5.71875 1.921875 5.984375 1.9375 L 5.984375 1.46875 L 5.296875 1.46875 L 5.296875 -4.484375 L 4.890625 -4.484375 Z M 4.359375 -3.703125 "
   id="path1310" />
      </symbol>
    </g>
  </defs><sodipodi:namedview
     pagecolor="#ffffff"
     bordercolor="#666666"
     borderopacity="1"
     objecttolerance="10"
     gridtolerance="10"
     guidetolerance="10"
     inkscape:pageopacity="1"
     inkscape:pageshadow="2"
     inkscape:window-width="1920"
     inkscape:window-height="1027"
     id="namedview4"
     showgrid="false"
     inkscape:zoom="2.4383102"
     inkscape:cx="140.87625"
     inkscape:cy="122.62591"
     inkscape:window-x="0"
     inkscape:window-y="25"
     inkscape:window-maximized="1"
     inkscape:current-layer="g10"
     units="pc"
     inkscape:pagecheckerboard="0"
     inkscape:snap-global="false" /><g
     id="g10"
     inkscape:groupmode="layer"
     inkscape:label="tesseroid_coordsys"
     transform="matrix(1.25 0 0 -1.25 0 258.75)"><path
       d="m 101.05408,21.594543 c 10.00649,-4.61788 33.25972,-7.079942 49.26917,-1.88029"
       style="fill:none;stroke:#000000;stroke-width:0.96806979;stroke-linecap:butt;stroke-linejoin:miter;stroke-miterlimit:4;stroke-opacity:1;stroke-dasharray:none"
       id="path84"
       inkscape:connector-curvature="0" /><path
       d="m 146.63963,18.518071 -1.24307,-2.439325 5.84636,3.93372 -7.04292,-0.250401 2.43963,-1.243994 z"
       style="fill:#000000;fill-opacity:1;fill-rule:evenodd;stroke:#000000;stroke-width:0.48403484;stroke-linecap:butt;stroke-linejoin:miter;stroke-miterlimit:4;stroke-opacity:1;stroke-dasharray:none"
       id="path88"
       inkscape:connector-curvature="0" /><path
       d="m 141.44324,26.867136 30.59026,57.22161"
       style="fill:none;stroke:#000000;stroke-width:0.96807;stroke-linecap:butt;stroke-linejoin:miter;stroke-miterlimit:4;stroke-dasharray:none;stroke-opacity:1"
       id="path92"
       inkscape:connector-curvature="0" /><path
       d="m 169.75463,79.826228 1.00031,-3.264264 1.8479,8.592118 -6.12351,-6.324787 z"
       style="fill:#000000;fill-opacity:1;fill-rule:evenodd;stroke:#000000;stroke-width:0.484035;stroke-linecap:butt;stroke-linejoin:miter;stroke-miterlimit:4;stroke-dasharray:none;stroke-opacity:1"
       id="path96"
       inkscape:connector-curvature="0" /><path
       d="m 154.38449,19.557873 c 4.01097,11.086261 1.69133,20.121889 -1.12724,26.328706"
       style="fill:none;stroke:#000000;stroke-width:0.96806979;stroke-linecap:butt;stroke-linejoin:miter;stroke-miterlimit:4;stroke-opacity:1;stroke-dasharray:none"
       id="path100"
       inkscape:connector-curvature="0" /><path
       d="m 154.85768,42.359635 2.56335,-0.959104 -4.56371,5.366106 1.0399,-6.969844 0.96046,2.562842 z"
       style="fill:#000000;fill-opacity:1;fill-rule:evenodd;stroke:#000000;stroke-width:0.48403543;stroke-linecap:butt;stroke-linejoin:miter;stroke-miterlimit:4;stroke-opacity:1;stroke-dasharray:none"
       id="path104"
       inkscape:connector-curvature="0" /><path
       d="m 26.859909,12.929387 0,2.141854 0.09495,2.232146 0.09029,2.2368 0.09495,2.140923 0.09494,2.233077 0.185237,2.232145 0.185236,2.141855 0.185237,2.235869 0.280181,2.138131 0.280182,2.2368 0.280182,2.232145 0.275527,2.141855 0.375127,2.232145 0.370473,2.141855 0.465418,2.235869 0.465419,2.138131 0.465418,2.141854 0.465418,2.235869 0.560363,2.138131 0.55571,2.141855 0.560363,2.141854 0.560364,2.141855 0.650654,2.140923 0.650655,2.04784 0.7456,2.140924 0.7456,2.138131 0.650654,2.050633 0.835891,2.04784 0.7456,2.140923 0.835891,2.04784 0.840546,2.046909 0.930836,1.955688 0.835891,2.04784 0.930836,1.951963 0.930837,2.050633 1.025781,1.952895 0.930837,1.956618 1.021127,1.951963 1.120727,1.861673 1.021128,1.956618 1.116073,1.861673 1.120727,1.861668 1.116072,1.86168 1.116073,1.86167 1.211018,1.76673 1.211018,1.77138 1.206364,1.76673 1.305964,1.77045 1.211018,1.76766 1.301309,1.67643 1.301309,1.67551 1.305964,1.67271 1.396254,1.58521 1.396255,1.67272 1.301309,1.58521 1.396255,1.48748 1.491199,1.58149 1.396255,1.4912 1.486546,1.49027 1.491199,1.48747 1.4912,1.39626 1.486546,1.4912 1.4912,1.30131 1.581491,1.39625 1.581491,1.30504 1.4912,1.30224 1.581491,1.3013 1.676436,1.21102 1.581491,1.21102 1.581491,1.21102 1.676436,1.11607 1.676436,1.21102 1.676437,1.02113 1.581491,1.11979 1.766727,1.02206 1.67643,1.02578 1.67644,0.93084 1.76673,0.93084 1.67643,0.93083 1.76673,0.83589 1.67644,0.83962 1.77138,0.83682 1.76673,0.83589 1.76672,0.7456 1.77139,0.65066 1.76672,0.7456 1.77138,0.65065 1.86168,0.56036 1.76672,0.55944 1.76673,0.55664 1.86167,0.56036 1.77139,0.46542 1.86167,0.46542 1.76673,0.37047 1.86167,0.3742 1.77138,0.3714 1.86167,0.28018 1.76673,0.27925 1.86167,0.27646 M 57.297327,7.439314 l 0,2.2321456 0.09495,2.1418544 0,2.232146 0.09494,2.236799 0.09029,2.140924 0.09495,2.233077 0.185237,2.232145 0.09494,2.141855 0.185237,2.235869 0.280181,2.233076 0.185237,2.232146 0.185236,2.141854 0.280182,2.235869 0.280182,2.233076 0.370473,2.141855 0.280181,2.232145 0.370473,2.235869 0.375127,2.138131 0.370473,2.2368 0.370473,2.140924 0.465418,2.138131 0.465418,2.2368 0.465418,2.140923 0.465419,2.138132 0.465418,2.141854 0.560363,2.141854 0.560364,2.141855 0.555709,2.046909 0.560364,2.141855 0.650654,2.046909 0.560364,2.141854 0.650654,2.046909 0.650655,2.046909 0.7456,2.04691 0.650654,2.050632 0.7456,1.952895 0.7456,2.046909 0.740946,1.956618 0.7456,1.955687 0.7456,1.952895 0.835891,1.956618 0.840545,1.951964 0.835891,1.861672 0.840545,1.861672 0.835892,1.95662 0.930836,1.76673 0.835891,1.86167 0.930836,1.77138 0.930837,1.86167 0.930836,1.76673 1.025782,1.67644 0.930836,1.76672 1.025782,1.67644 1.021127,1.67644 1.025782,1.67643 1.021127,1.58149 1.025782,1.67644 1.025782,1.58149 1.116072,1.49027 1.021128,1.58242 1.120727,1.48655 1.116073,1.4912 1.116073,1.49027 1.116072,1.39625 1.211018,1.39626 1.116073,1.39625 1.116077,1.30224 1.21102,1.30131 1.21101,1.30596 1.21102,1.30131 1.11608,1.21102 1.3013,1.21102 1.21102,1.21009 1.21102,1.117 1.21102,1.11607 1.30131,1.11608 1.21102,1.02578 1.30131,1.02112 1.21101,1.02579 1.30597,0.93083 1.30131,0.93084 1.21101,0.83589 1.30131,0.93084 1.30597,0.84054 1.30131,0.74467 1.30131,0.83682 1.30596,0.65066 1.30131,0.7456 1.39625,0.65065 1.30597,0.65066 1.30131,0.56036 1.3013,0.55943 1.39626,0.55664 1.30596,0.46542 1.30131,0.46542 1.39626,0.46542 1.30596,0.37419 1.30131,0.37141 1.39625,0.37047 M 96.021982,3.901205 l 0,6.609869 0.09495,2.138131 0,2.2368 0.09029,2.232146 0.09494,2.235868 0.09029,2.138132 0.09495,2.236799 0.09495,2.232146 0.09029,2.235869 0.185237,2.233076 0.09494,2.232146 0.185236,2.141854 0.185237,2.235869 0.18989,2.233077 0.185237,2.232145 0.185236,2.141855 0.185237,2.235869 0.185236,2.233076 0.280182,2.141855 0.185236,2.232145 0.280182,2.141855 0.280182,2.141854 0.280182,2.140924 0.280181,2.233076 0.275527,2.141855 0.28018,2.140923 0.37513,2.138131 0.27553,2.050633 0.37512,2.138131 0.37048,2.050633 0.28018,2.138131 0.37047,2.050632 0.37513,2.04784 0.46542,2.046909 0.37047,2.046909 0.37513,2.04691 0.46541,1.956618 0.37048,1.955687 0.46542,2.04784 0.46541,1.951964 0.37048,1.861672 0.46541,1.956618 0.46542,1.955688 0.56037,1.861675 0.46541,1.86167 0.46542,1.86167 0.56037,1.76766 0.46541,1.86167 0.55571,1.76673 0.46542,1.77138 0.56037,1.67551 0.5557,1.76766 0.56037,1.67643 0.56036,1.67551 0.55571,1.67271 0.56036,1.58522 0.55571,1.67271 0.65531,1.58521 0.55571,1.48748 0.56037,1.58149 0.65065,1.4912 0.56036,1.49027 0.65066,1.39625 0.65065,1.48748 0.65066,1.39625 0.56036,1.30504 0.65066,1.39625 0.65065,1.30224 0.65065,1.30131 0.65531,1.21102 0.65066,1.21102 0.65065,1.21102 0.7456,1.21008 0.65066,1.11701 0.65065,1.11607 0.65066,1.02485 0.7456,1.117 0.65065,1.02113 0.7456,0.93084 0.65066,0.93083 0.7456,0.93084 0.65065,0.93084 0.7456,0.84054 0.65065,0.83589 0.7456,0.7456 0.7456,0.7456 0.65066,0.74467 0.7456,0.65159 0.7456,0.65065 0.65065,0.65066 0.7456,0.56036 0.7456,0.55571 0.74095,0.56036 0.65531,0.46542 0.74094,0.46542 0.7456,0.46542 0.7456,0.37047 m -2.51232,-162.241985 0,8.748931 0.0903,2.232146 0,28.855927 0.0949,2.141854 0,13.126654 0.095,2.232146 0,8.562764 0.0903,2.050632 0,8.377527 0.0949,2.04784 0,6.140728 0.0903,1.956618 0,5.8652 0.0949,1.951964 0,5.679964 0.095,1.86167 0,3.72335 0.0903,1.76672 0,5.30856 0.0949,1.67272 0,3.35287 0.0903,1.67644 0,3.16298 0.0949,1.58149 0,3.07269 0.0949,1.4912 0,1.48655 0.0903,1.4912 0,2.7925 0.0949,1.30131 0,2.70222 0.0903,1.21009 0,1.30224 0.095,1.21102 0,2.32709 0.0949,1.11607 0,2.14186 0.0903,1.02112 0,1.02578 0.095,0.93084 0,1.86167 0.0903,0.93084 0,0.83589 0.095,0.7456 0,0.83962 0.0949,0.74187 0,1.39626 0.0903,0.65437 0,0.55664 0.095,0.56037 0,1.11607 0.0903,0.46542 0,0.37047 0.0949,0.46542 m 40.9568,-161.2199267 0,2.2358689 -0.0949,2.1381311 0,4.3777237 -0.0903,2.233076 0,2.232146 -0.0949,2.2368 -0.0903,2.232145 -0.095,2.141855 -0.0949,2.232145 -0.0903,2.2368 -0.095,2.232146 -0.18523,2.235868 -0.095,2.233077 -0.18524,2.141854 -0.0903,2.232146 -0.18989,2.235869 -0.18523,2.233076 -0.18524,2.141855 -0.18524,2.232145 -0.28018,2.141855 -0.18523,2.232145 -0.18524,2.141855 -0.28018,2.235869 -0.28018,2.138131 -0.18524,2.141854 -0.28018,2.141855 -0.28018,2.141854 -0.28019,2.140924 -0.27552,2.138131 -0.37513,2.050633 -0.28018,2.138131 -0.27553,2.050632 -0.37513,2.138131 -0.28018,2.050633 -0.37047,2.04784 -0.37047,2.046909 -0.37513,1.955687 -0.37047,2.04784 -0.37513,1.951964 -0.37047,1.956618 -0.46542,1.955687 -0.37048,1.952895 -0.37512,1.956618 -0.46542,1.861673 -0.37047,1.951966 -0.46542,1.86167 -0.46542,1.86167 -0.46542,1.77138 -0.46542,1.86168 -0.46541,1.76672 -0.46542,1.77046 -0.46542,1.76765 -0.46542,1.67644 -0.56036,1.67551 -0.46542,1.67271 -0.46542,1.67643 -0.55571,1.67644 -0.46542,1.58149 -0.56036,1.58149 -0.56036,1.58522 -0.55571,1.48747 -0.46542,1.4912 -0.56036,1.48655 -0.55571,1.4912 -0.56037,1.39625 -0.56036,1.39626 -0.65065,1.39625 -0.55571,1.30131 -0.56037,1.39626 -0.56036,1.21101 -0.65066,1.30504 -0.55571,1.20729 -0.56036,1.21102 -0.65065,1.21102 -0.56037,1.11607 -0.65065,1.11607 -0.56036,1.02579 -0.65066,1.11607 -0.65065,1.02578 -0.56037,0.93084 -0.65065,1.02112 -0.65066,0.84055 -0.65065,0.93084 -0.56036,0.83589 -0.65066,0.83961 -0.65065,0.83682 -0.65066,0.7456 -0.65531,0.74467 -0.65065,0.65159 -0.65066,0.65065 -0.65065,0.65066 -0.56036,0.56036 -0.65066,0.55571 -0.65065,0.56036 -0.65066,0.46542 -0.65531,0.46542 -0.65065,0.46542 -0.65066,0.37047 m 80.33211,-157.8670541 0,2.1409236 -0.0949,2.2330765 0,2.232146 -0.0903,2.141854 -0.095,2.235869 -0.0949,2.233076 -0.18523,2.141855 -0.0903,2.232145 -0.18989,2.235869 -0.18524,2.233077 -0.18524,2.141854 -0.28018,2.232146 -0.28018,2.235869 -0.18524,2.233076 -0.37047,2.141855 -0.28018,2.232145 -0.28018,2.141855 -0.37048,2.232145 -0.37512,2.141855 -0.37048,2.235869 -0.46541,2.138131 -0.37048,2.2368 -0.46541,2.140923 -0.46542,2.138131 -0.46542,2.141855 -0.56036,2.141854 -0.46542,2.141855 -0.56037,2.046909 -0.55571,2.141854 -0.56036,2.140924 -0.65065,2.04784 -0.56037,2.046909 -0.65065,2.046909 -0.65066,2.046909 -0.65065,2.050633 -0.65066,2.04784 -0.7456,1.951964 -0.65065,2.050632 -0.7456,1.952895 -0.7456,1.956618 -0.83589,1.951964 -0.7456,1.956618 -0.7456,1.861673 -0.83589,1.861674 -0.84055,1.86167 -0.83589,1.86167 -0.84054,1.86168 -0.93084,1.86167 -0.83589,1.76673 -0.93084,1.77138 -0.93083,1.76673 -0.93084,1.67643 -0.93084,1.67644 -0.93083,1.76673 -1.02578,1.58149 -0.93084,1.67643 -1.02113,1.58149 -1.02578,1.58522 -1.02113,1.58242 -1.02578,1.58149 -1.02578,1.49027 -1.02113,1.48748 -1.11607,1.4912 -1.02578,1.39625 -1.11608,1.39626 -1.11607,1.39625 -1.12072,1.39625 -1.11608,1.30131 -1.11607,1.30504 -1.11607,1.30224 -1.11608,1.21101 -1.21101,1.21009 -1.11608,1.2073 -1.21102,1.11979 -1.21101,1.11701 -1.11608,1.11607 -1.21101,1.02485 -1.21102,1.02206 -1.21102,1.02578 -1.20636,0.93084 -1.21102,0.93083 -1.21102,0.93084 -1.30131,0.83589 -1.21102,0.83961 -1.21102,0.83683 -1.30131,0.7456 -1.21101,0.74467 -1.21102,0.74187 -1.30131,0.65438 -1.21102,0.65159 -1.30596,0.65065 -1.30131,0.55943 -1.21102,0.55664 -1.30131,0.46542 -1.30596,0.46542 -1.20637,0.46542 -1.30596,0.37419 -1.30131,0.37141 -1.21102,0.37047 M 26.859909,12.929387 l 1.305964,-0.280182 1.301309,-0.370473 1.396254,-0.280181 1.30131,-0.280182 1.396254,-0.370473 1.4912,-0.280182 1.396255,-0.280182 1.491199,-0.276458 L 39.4262,10.231823 41.007691,9.9516414 42.593836,9.6714596 44.175327,9.3912779 45.756818,9.1148195 47.433254,8.8355686 49.014745,8.6494013 50.691182,8.3701504 52.457909,8.0899687 54.134345,7.9047322 55.901073,7.6245505 57.672454,7.439314 59.439182,7.1591323 61.300854,6.9738959 63.072236,6.6937141 64.933909,6.5084777 66.795582,6.3223104 68.747545,6.1333506 70.609218,5.9481142 72.565836,5.7628778 74.5178,5.5776413 76.474418,5.391474 78.431036,5.2025143 80.383,5.0172778 82.429909,4.8320414 84.386527,4.646805 86.433436,4.55186 88.480345,4.3666236 90.6222,4.2716786 l 2.046909,-0.1852364 2.051563,-0.091222 2.137201,-0.1889598 2.141854,-0.090291 2.046913,-0.094945 2.14185,-0.091222 2.14186,-0.1889598 2.14185,-0.090291 2.23215,-0.094945 2.14185,0 2.14185,-0.091222 2.23215,-0.094014 2.14185,-0.094945 2.23215,0 2.14185,-0.090291 2.2368,-0.094945 4.4643,0 2.14185,-0.091222 20.01298,0 2.2368,0.091222 4.374,0 2.23215,0.094945 2.2368,0.090291 2.1372,0 2.2368,0.094945 2.14185,0.094014 2.23215,0.091222 2.14185,0 2.14186,0.094945 2.1372,0.090291 2.14185,0.1889598 2.14185,0.091222 2.14186,0.094945 2.14185,0.090291 2.04691,0.1889598 2.14186,0.091222 2.04691,0.1852364 2.04691,0.094945 2.0469,0.1852364 2.04691,0.094945 2.05157,0.1852364 1.95196,0.1852364 2.04691,0.1852365 1.95662,0.1889597 1.95662,0.1861673 1.95196,0.1852365 1.86167,0.1852364 1.95662,0.1852364 1.86167,0.1889598 1.86168,0.1861673 1.86167,0.1852364 1.86167,0.2801818 M 32.444927,56.213278 l 1.305964,-0.280182 1.206364,-0.276459 1.305963,-0.27925 1.301309,-0.280182 1.305964,-0.280182 1.396254,-0.280182 1.396255,-0.276458 1.396254,-0.279251 1.396255,-0.280182 1.486546,-0.280181 1.491199,-0.280182 1.486546,-0.276459 1.4912,-0.188959 1.581491,-0.276459 1.581491,-0.279251 1.586145,-0.186167 1.671782,-0.279251 1.586145,-0.186167 1.671782,-0.279251 1.676437,-0.186167 1.676436,-0.279251 1.766727,-0.186167 1.771382,-0.18896 1.676436,-0.185237 1.861673,-0.185236 1.766727,-0.185237 1.766728,-0.186167 1.861673,-0.18896 1.861672,-0.185236 1.861673,-0.185237 1.861673,-0.185236 1.861672,-0.186167 1.956618,-0.09401 1.956618,-0.185236 1.861673,-0.186167 1.951964,-0.09401 1.956618,-0.185236 2.046909,-0.09495 1.956618,-0.09122 1.951964,-0.188959 2.046913,-0.09029 2.05156,-0.09495 1.95196,-0.09122 2.04691,-0.09401 2.05157,-0.09495 2.04691,-0.09029 2.0469,-0.09495 2.14186,-0.09122 2.04691,-0.09401 2.04691,0 2.14185,-0.09495 2.04691,0 2.14186,-0.09029 2.0469,0 2.14186,-0.09495 4.18876,0 2.14186,-0.09122 10.51938,0 2.1372,0.09122 4.18876,0 2.14186,0.09495 2.14185,0 2.04691,0.09029 2.14185,0 2.04691,0.09495 2.04691,0 2.14186,0.09401 2.04691,0.09122 2.05156,0.09495 2.04691,0.09029 2.04691,0.09495 2.04691,0.09401 2.04691,0.09122 1.95661,0.09495 2.04691,0.09029 1.95662,0.188959 2.04691,0.09122 1.95662,0.09495 1.95196,0.185236 1.95662,0.09401 1.95196,0.186167 1.86168,0.185236 1.95662,0.09401 1.86167,0.186167 1.95662,0.185236 1.86167,0.185237 1.76673,0.185236 1.86167,0.18896 1.86167,0.186167 1.76673,0.185237 1.77138,0.185236 1.76673,0.185237 1.77138,0.18896 m -169.226981,46.167621 1.021127,-0.280181 1.025782,-0.276459 1.116073,-0.279251 1.116073,-0.186167 1.120727,-0.279251 1.116072,-0.186167 1.211019,-0.279251 1.206363,-0.186167 1.211019,-0.279251 1.211018,-0.186168 1.301309,-0.27925 1.305963,-0.186168 1.30131,-0.18896 1.305963,-0.276458 1.301309,-0.18896 1.396255,-0.185236 1.396254,-0.185237 1.396255,-0.185236 1.396254,-0.186167 1.396255,-0.18896 1.4912,-0.185237 1.396254,-0.185236 1.486546,-0.185236 1.4912,-0.186168 1.581491,-0.188959 1.4912,-0.185237 1.581491,-0.09122 1.486545,-0.18896 1.586145,-0.185236 1.581491,-0.09122 1.581491,-0.18896 1.676437,-0.09029 1.581491,-0.186167 1.676436,-0.09401 1.581491,-0.09494 1.676436,-0.185236 1.676436,-0.09122 1.67178,-0.09401 1.67644,-0.09494 1.77138,-0.09029 1.67178,-0.186168 1.67644,-0.09401 1.77138,0 1.76673,-0.09494 1.67643,-0.09029 1.76673,-0.09495 1.77138,-0.09122 1.76673,0 1.76673,-0.09401 1.77138,-0.09495 1.76673,0 1.77138,-0.09029 3.53345,0 1.86168,-0.09494 7.17116,0 1.76673,-0.09122 1.76672,0 1.86168,0.09122 7.17116,0 1.76673,0.09494 3.53811,0 1.76672,0.09029 1.86168,0 1.77138,0.09495 1.76673,0.09401 1.67643,0 1.76673,0.09122 1.77138,0.09495 1.76673,0.09029 1.67643,0.09494 1.76673,0 1.67644,0.09401 1.76673,0.186168 1.67643,0.09029 1.67644,0.09494 1.67643,0.09401 1.67644,0.09122 1.67178,0.185236 1.67644,0.09494 1.58149,0.09401 1.67644,0.186167 1.58149,0.09029 1.58614,0.18896 1.58149,0.09122 1.58149,0.185236 1.5815,0.18896 1.4912,0.09122 1.58149,0.185237 1.4912,0.188959 1.48654,0.186168 1.4912,0.185236 m -132.458943,38.444469 0.7456,-0.18616 0.835891,-0.18896 0.7456,-0.18524 0.835891,-0.18524 0.840545,-0.18523 0.835891,-0.18617 0.840546,-0.18896 0.835891,-0.18524 0.930836,-0.0912 0.835891,-0.18896 0.930836,-0.18523 0.930837,-0.18524 0.930836,-0.0949 1.025782,-0.18523 0.930836,-0.18524 1.025782,-0.0949 1.021127,-0.18524 0.930837,-0.0912 1.025781,-0.18896 1.116073,-0.0903 1.025782,-0.18617 1.021127,-0.094 1.116073,-0.18523 1.120727,-0.0949 1.021128,-0.0912 1.116072,-0.094 1.120727,-0.18524 1.206368,-0.0949 1.12072,-0.0912 1.11608,-0.094 1.21101,-0.095 1.11608,-0.0903 1.21102,-0.18617 1.20636,-0.094 1.21102,-0.0949 1.11607,0 1.21102,-0.0903 1.30596,-0.0949 1.20637,-0.0912 1.21101,-0.094 1.21102,-0.0949 1.30131,0 1.21102,-0.0903 1.30596,-0.0949 1.20637,0 1.30596,-0.0912 1.30131,0 1.21102,-0.094 1.30131,0 1.30596,-0.0949 1.30131,0 1.30596,-0.0903 3.90858,0 1.30131,-0.0949 11.7304,0 1.30131,0.0949 3.90858,0 1.21102,0.0903 1.30597,0 1.3013,0.0949 1.30131,0 1.30597,0.094 1.21102,0 1.3013,0.0912 1.30131,0 1.21102,0.0949 1.30597,0.0903 1.20636,0 1.21102,0.0949 1.30596,0.094 1.20637,0.0912 1.21101,0.0949 1.21102,0.0903 1.21102,0 1.21102,0.0949 1.11607,0.094 1.21102,0.18617 1.20636,0.0903 1.12073,0.095 1.20636,0.094 1.12073,0.0912 1.11607,0.0949 1.11608,0.18524 1.11607,0.094 1.11607,0.0912 1.02578,0.0949 1.11608,0.18523 m -82.6592,26.99426 0.37512,-0.095 0.37048,-0.0903 0.46541,-0.0949 0.37513,-0.0912 0.46542,-0.094 0.46542,-0.0949 0.46542,-0.0903 0.46541,-0.0949 0.46542,-0.0912 0.46542,-0.094 0.46542,-0.0949 0.46542,-0.0903 0.46541,-0.0949 0.55571,-0.0912 0.46542,0 0.56037,-0.094 0.55571,-0.0949 0.46541,-0.0903 0.56037,-0.095 0.56036,0 0.55571,-0.0912 0.56036,-0.094 0.55571,-0.095 0.56037,0 0.56036,-0.0903 0.65065,-0.095 0.55571,0 0.56037,-0.0912 0.65065,-0.094 0.56037,0 0.65065,-0.095 0.65065,0 0.56037,-0.0903 0.65065,-0.0949 0.65066,0 0.56036,-0.0912 1.30131,0 0.65065,-0.094 0.65531,0 0.65066,-0.095 1.30131,0 0.65065,-0.0903 1.39626,0 0.6553,-0.0949 2.04691,0 0.65066,-0.0912 4.09382,0 0.65531,-0.094 3.44316,0 0.65065,0.094 4.18877,0 0.65065,0.0912 2.04691,0 0.65531,0.0949 1.30131,0 0.65065,0.0903 1.30597,0 0.65065,0.095 0.65066,0 0.65065,0.094 1.30596,0 0.65066,0.0912 0.55571,0 0.65531,0.0949 0.65065,0.0903 0.55571,0 0.65531,0.095 0.65065,0 0.55571,0.094 0.56037,0.0912 0.65065,0 0.56037,0.095 0.55571,0.0903 0.56036,0 0.56036,0.095"
       style="fill:none;stroke:#000000;stroke-width:0.46541819;stroke-linecap:butt;stroke-linejoin:miter;stroke-miterlimit:10;stroke-opacity:1;stroke-dasharray:0.93083636, 1.39625454;stroke-dashoffset:0"
       id="path108"
       inkscape:connector-curvature="0" /><path
       d="M 14.759036,14.510878 3.9641272,10.136878 15.504636,8.5553868 M 141.63296,26.891932 3.9641272,10.136878"
       style="fill:none;stroke:#000000;stroke-width:1.39625454;stroke-linecap:butt;stroke-linejoin:miter;stroke-miterlimit:10;stroke-opacity:1;stroke-dasharray:none"
       id="path112"
       inkscape:connector-curvature="0" /><path
       d="M 14.759036,14.510878 3.9641272,10.136878 15.504636,8.5553868"
       style="fill:none;stroke:#000000;stroke-width:1.39625454;stroke-linecap:butt;stroke-linejoin:miter;stroke-miterlimit:10;stroke-opacity:1;stroke-dasharray:none"
       id="path2024"
       inkscape:connector-curvature="0" /><path
       d="m 226.33907,2.7851322 11.63546,0.1852365 -10.2392,5.5850181 M 141.63296,26.891932 237.97453,2.9703687"
       style="fill:none;stroke:#000000;stroke-width:1.39625454;stroke-linecap:butt;stroke-linejoin:miter;stroke-miterlimit:10;stroke-opacity:1;stroke-dasharray:none"
       id="path120"
       inkscape:connector-curvature="0" /><path
       d="m 226.33907,2.7851322 11.63546,0.1852365 -10.2392,5.5850181"
       style="fill:none;stroke:#000000;stroke-width:1.39625454;stroke-linecap:butt;stroke-linejoin:miter;stroke-miterlimit:10;stroke-opacity:1;stroke-dasharray:none"
       id="path124"
       inkscape:connector-curvature="0" /><path
       d="m 144.61071,181.13059 -2.97775,11.26498 -2.97774,-11.26498 m 2.97774,-154.238658 0,165.503638"
       style="fill:none;stroke:#000000;stroke-width:1.39625454;stroke-linecap:butt;stroke-linejoin:miter;stroke-miterlimit:10;stroke-opacity:1;stroke-dasharray:none"
       id="path128"
       inkscape:connector-curvature="0" /><path
       d="m 144.61071,181.13059 -2.97775,11.26498 -2.97774,-11.26498"
       style="fill:none;stroke:#000000;stroke-width:1.39625454;stroke-linecap:butt;stroke-linejoin:miter;stroke-miterlimit:10;stroke-opacity:1;stroke-dasharray:none"
       id="path132"
       inkscape:connector-curvature="0" /><path
       inkscape:connector-curvature="0"
       id="path134"
       style="fill:#000000;fill-opacity:1;fill-rule:nonzero;stroke:none"
       d="m 177.70287,89.166742 c 0,1.618724 -1.31248,2.931203 -2.93027,2.931203 -1.62245,0 -2.93493,-1.312479 -2.93493,-2.931203 0,-1.621517 1.31248,-2.933997 2.93493,-2.933997 1.61779,0 2.93027,1.31248 2.93027,2.933997" /><path
       d="M 174.7726,89.166746 V 8.0899687 L 141.63296,26.891932"
       style="fill:none;stroke:#000000;stroke-width:0.8;stroke-linecap:butt;stroke-linejoin:miter;stroke-miterlimit:10;stroke-dasharray:2.4, 2.4;stroke-dashoffset:0;stroke-opacity:1"
       id="path138"
       inkscape:connector-curvature="0"
       sodipodi:nodetypes="ccc" /><path
       d="m 172.44551,116.43746 -4.93437,10.2392 -0.7456,-11.35527 m 8.00706,-26.154644 -7.26146,37.509914"
       style="fill:none;stroke:#000000;stroke-width:1.39625454;stroke-linecap:butt;stroke-linejoin:miter;stroke-miterlimit:10;stroke-opacity:1;stroke-dasharray:none"
       id="path142"
       inkscape:connector-curvature="0" /><path
       d="m 172.44551,116.43746 -4.93437,10.2392 -0.7456,-11.35527"
       style="fill:none;stroke:#000000;stroke-width:1.39625454;stroke-linecap:butt;stroke-linejoin:miter;stroke-miterlimit:10;stroke-opacity:1;stroke-dasharray:none"
       id="path146"
       inkscape:connector-curvature="0" /><path
       d="m 203.81376,87.676477 11.07509,3.628401 -11.45021,2.422036 m -28.66604,-4.560168 40.11625,2.138132"
       style="fill:none;stroke:#000000;stroke-width:1.39625454;stroke-linecap:butt;stroke-linejoin:miter;stroke-miterlimit:10;stroke-opacity:1;stroke-dasharray:none"
       id="path150"
       inkscape:connector-curvature="0" /><path
       d="m 203.81376,87.676477 11.07509,3.628401 -11.45021,2.422036"
       style="fill:none;stroke:#000000;stroke-width:1.39625454;stroke-linecap:butt;stroke-linejoin:miter;stroke-miterlimit:10;stroke-opacity:1;stroke-dasharray:none"
       id="path154"
       inkscape:connector-curvature="0" /><path
       d="m 186.12787,105.82779 1.86167,8.19229 -5.67996,-6.14538 m -7.53698,-18.707954 13.21694,24.853334"
       style="fill:none;stroke:#000000;stroke-width:1.39625454;stroke-linecap:butt;stroke-linejoin:miter;stroke-miterlimit:10;stroke-opacity:1;stroke-dasharray:none"
       id="path158"
       inkscape:connector-curvature="0" /><path
       d="m 186.12787,105.82779 1.86167,8.19229 -5.67996,-6.14538"
       style="fill:none;stroke:#000000;stroke-width:1.39625454;stroke-linecap:butt;stroke-linejoin:miter;stroke-miterlimit:10;stroke-opacity:1;stroke-dasharray:none"
       id="path162"
       inkscape:connector-curvature="0" /><path
       inkscape:connector-curvature="0"
       id="path164"
       style="fill:#000000;fill-opacity:1;fill-rule:nonzero;stroke:none"
       d="m 95.654383,120.33016 c 0,1.6178 -1.316203,2.93121 -2.933997,2.93121 -1.617793,0 -2.931203,-1.31341 -2.931203,-2.93121 0,-1.61779 1.31341,-2.93399 2.931203,-2.93399 1.617794,0 2.933997,1.3162 2.933997,2.93399" /><path
       d="M 92.962749,120.59545 175.52472,88.508645"
       style="fill:none;stroke:#000000;stroke-width:0.80000001;stroke-linecap:butt;stroke-linejoin:miter;stroke-miterlimit:10;stroke-opacity:1;stroke-dasharray:2.4, 2.4;stroke-dashoffset:8"
       id="path168"
       inkscape:connector-curvature="0"
       sodipodi:nodetypes="cc" /><path
       d="m 92.018454,127.05179 0.280182,0 0.185237,-0.0949 0.465418,0 0.280181,-0.0912 0.465419,0 0.185236,-0.094 0.7456,0 0.185236,-0.0949 0.560364,0 0.185236,-0.0903 0.465419,0 0.280181,-0.0949 0.7456,0 0.185237,-0.0912 0.465418,0 0.280182,-0.094 0.740945,0 0.280182,-0.0949 0.465418,0 0.185237,-0.0903 0.745598,0 0.28018,-0.0949 0.7456,0 0.28019,-0.0912 0.74094,0 0.28018,-0.094 0.7456,0 0.28018,-0.095 0.7456,0 0.27553,-0.0903 0.7456,0 0.28018,-0.0949 0.7456,0 0.28019,-0.0912 1.02112,0 0.28018,-0.094 1.02579,0 0.27552,-0.0949 0.84055,0 0.28018,-0.0903 1.02113,0 0.28018,-0.0949 1.30131,0 0.28018,-0.0912 1.11607,0 0.28019,-0.094 0.28018,0 M 79.6374,152.08942 92.018454,127.05179 m -18.616727,-34.816076 0.185237,0.465418 0.18989,0.375127 0.185237,0.465418 0.185236,0.370473 0.09494,0.465418 0.185237,0.465419 0.185236,0.374196 0.185237,0.465418 0.185236,0.371404 0.189891,0.465418 0.185236,0.370473 0.185237,0.465418 0.185236,0.375127 0.185237,0.465418 0.18989,0.370473 0.185237,0.465418 0.185236,0.374196 0.185236,0.465419 0.185237,0.371405 0.18989,0.37047 0.185237,0.46542 0.185236,0.37513 0.185237,0.46541 0.185236,0.37048 0.189891,0.46542 0.185236,0.37419 0.185237,0.37141 0.280181,0.46541 0.185237,0.37048 0.185236,0.37512 0.185237,0.46542 0.18989,0.37047 0.185237,0.3742 0.185236,0.46542 0.185237,0.3714 0.280181,0.37048 0.185237,0.37512 0.185236,0.46542 0.189891,0.37047 0.185236,0.3742 0.185237,0.3714 0.280182,0.46542 0.185236,0.37047 0.185236,0.37513 0.185237,0.37047 0.280182,0.3742 0.185236,0.3714 0.189891,0.46542 0.185236,0.37048 0.280182,0.37512 0.185236,0.37048 0.185237,0.37419 0.185236,0.37141 0.280182,0.37047 0.185236,0.37513 0.185237,0.37047 0.280181,0.37419 0.185237,0.37141 0.189891,0.37047 0.275527,0.37513 0.189891,0.37047 0.185236,0.3742 0.280182,0.3714 0.185236,0.37047 0.280182,0.37513 0.185237,0.37047 0.185236,0.3742 0.280182,0.3714 0.185236,0.37048 0.280182,0.37512 0.185236,0.37048 0.185237,0.37419 0.280181,0.27646 0.185237,0.37513 0.280182,0.37047 0.185236,0.3742 0.280182,0.3714 0.185236,0.37047 0.280182,0.28019 0.185236,0.37419 0.280182,0.37141 0.185237,0.37047 0.280181,0.28018 0.185237,0.3742 0.280182,0.3714 0.185236,0.28018 0.280182,0.37047 0.185236,0.3742 0.280182,0.27646 0.185236,0.37513 0.280182,0.37047"
       style="fill:none;stroke:#2ca02c;stroke-width:1.6;stroke-linecap:butt;stroke-linejoin:miter;stroke-miterlimit:10;stroke-opacity:1;stroke-dasharray:3.2, 3.2;stroke-dashoffset:0"
       id="path176"
       inkscape:connector-curvature="0" /><g
       style="font-size:12px;font-style:normal;font-variant:normal;font-weight:normal;font-stretch:normal;line-height:125%;letter-spacing:0px;word-spacing:0px;fill:#000000;fill-opacity:1;stroke:none;font-family:Arial;-inkscape-font-specification:Sans"
       id="flowRoot3223" /><g
       style="font-size:9px;font-style:normal;font-variant:normal;font-weight:normal;font-stretch:normal;line-height:125%;letter-spacing:0px;word-spacing:0px;fill:#000000;fill-opacity:1;stroke:none;font-family:sans;-inkscape-font-specification:sans"
       id="flowRoot3040" /><g
       inkscape:label=""
       transform="matrix(1.04,0,0,-1.04,114.12023,181.55799)"
       id="g1003"
       style="stroke-width:0.769231"><g
   id="g4628"
   style="stroke-width:0.769231">
    <g
   style="fill:#000000;fill-opacity:1;stroke-width:0.769231"
   id="g5014">
      <use
   xlink:href="#symbol6658"
   x="91.925003"
   y="81.962997"
   id="use9900"
   width="100%"
   height="100%"
   style="stroke-width:0.591716"
   transform="matrix(1.3,0,0,1.3,-28.409532,-23.944368)" />
    </g>
  </g>
</g><g
       inkscape:label=""
       transform="matrix(1.04,0,0,-1.04,75.132342,214.59715)"
       id="g1226"
       style="stroke-width:0.769231"><g
   id="g9504"
   style="stroke-width:0.769231">
    <g
   style="fill:#000000;fill-opacity:1;stroke-width:0.769231"
   id="g5960">
      <use
   xlink:href="#symbol4951"
   x="91.925003"
   y="81.962997"
   id="use1497"
   width="100%"
   height="100%"
   style="stroke-width:0.591716"
   transform="matrix(1.3,0,0,1.3,-28.355626,-24.234993)" />
    </g>
  </g>
</g><g
       inkscape:label=""
       transform="matrix(1.04,0,0,-1.04,93.952407,195.7956)"
       id="g1415"
       style="stroke-width:0.769231"><g
   id="g2667"
   style="stroke-width:0.769231">
    <g
   style="fill:#000000;fill-opacity:1;stroke-width:0.769231"
   id="g7465">
      <use
   xlink:href="#symbol1466"
   x="91.925003"
   y="81.962997"
   id="use5200"
   width="100%"
   height="100%"
   style="stroke-width:0.591716"
   transform="matrix(1.3,0,0,1.3,-28.33922,-23.944368)" />
    </g>
  </g>
</g><g
       inkscape:label=""
       transform="matrix(1.04,0,0,-1.04,-88.01216,105.86833)"
       id="g1622"
       style="stroke-width:0.769231"><g
   id="g47"
   style="stroke-width:0.769231">
    <g
   style="fill:#000000;fill-opacity:1;stroke-width:0.769231"
   id="g226">
      <use
   xlink:href="#symbol4877"
   x="91.925003"
   y="81.962997"
   id="use4145"
   width="100%"
   height="100%"
   style="stroke-width:0.591716"
   transform="matrix(1.3,0,0,1.3,-28.890001,-23.567024)" />
    </g>
  </g>
</g><g
       inkscape:label=""
       transform="matrix(1.04,0,0,-1.04,129.26073,99.306405)"
       id="g1847"
       style="stroke-width:0.769231"><g
   id="g4138"
   style="stroke-width:0.769231">
    <g
   style="fill:#000000;fill-opacity:1;stroke-width:0.769231"
   id="g1629">
      <use
   xlink:href="#symbol6325"
   x="91.925003"
   y="81.962997"
   id="use8181"
   width="100%"
   height="100%"
   style="stroke-width:0.591716"
   transform="matrix(1.3,0,0,1.3,-28.768126,-23.567024)" />
    </g>
  </g>
</g><g
       inkscape:label=""
       transform="matrix(1.04,0,0,-1.04,52.714715,271.40631)"
       id="g2091"
       style="stroke-width:0.769231"><g
   id="g4240"
   style="stroke-width:0.769231">
    <g
   style="fill:#000000;fill-opacity:1;stroke-width:0.769231"
   id="g805">
      <use
   xlink:href="#symbol1908"
   x="91.925003"
   y="81.962997"
   id="use1489"
   width="100%"
   height="100%"
   style="stroke-width:0.591716"
   transform="matrix(1.3,0,0,1.3,-28.744688,-23.567024)" />
    </g>
  </g>
</g><g
       inkscape:label=""
       transform="matrix(1.04,0,0,-1.04,33.110047,91.178017)"
       id="g2353"
       style="stroke-width:0.769231"><g
   id="g7138"
   style="stroke-width:0.769231">
    <g
   style="fill:#000000;fill-opacity:1;stroke-width:0.769231"
   id="g6517">
      <use
   xlink:href="#symbol9655"
   x="91.925003"
   y="81.962997"
   id="use7185"
   width="100%"
   height="100%"
   style="stroke-width:0.591716"
   transform="matrix(1.3,0,0,1.3,-28.477501,-23.569368)" />
    </g>
  </g>
</g><g
       inkscape:label=""
       transform="matrix(1.04,0,0,-1.04,63.939997,117.37085)"
       id="g2633"
       style="stroke-width:0.769231"><g
   id="g4187"
   style="stroke-width:0.769231">
    <g
   style="fill:#000000;fill-opacity:1;stroke-width:0.769231"
   id="g1012">
      <use
   xlink:href="#symbol9913"
   x="91.925003"
   y="81.962997"
   id="use2003"
   width="100%"
   height="100%"
   style="stroke-width:0.591716"
   transform="matrix(1.3,0,0,1.3,-28.50797,-23.857649)" />
    </g>
  </g>
</g><g
       inkscape:label=""
       transform="matrix(1.04,0,0,-1.04,29.542957,179.96758)"
       id="g2930"
       style="stroke-width:0.769231"><g
   id="g2997"
   style="stroke-width:0.769231">
    <g
   style="fill:#000000;fill-opacity:1;stroke-width:0.769231"
   id="g6319">
      <use
   xlink:href="#symbol6420"
   x="91.925003"
   y="81.962997"
   id="use4582"
   width="100%"
   height="100%"
   style="stroke-width:0.591716"
   transform="matrix(1.3,0,0,1.3,-28.029845,-23.567024)" />
    </g>
  </g>
</g><path
       d="M 141.44324,26.867136 95.934553,115.41046"
       style="fill:none;stroke:#000000;stroke-width:0.96807;stroke-linecap:butt;stroke-linejoin:miter;stroke-miterlimit:4;stroke-dasharray:none;stroke-opacity:1"
       id="path4921"
       inkscape:connector-curvature="0"
       sodipodi:nodetypes="cc" /><g
       inkscape:label=""
       transform="matrix(1.04,0,0,-1.04,57.812238,149.96908)"
       id="g3245"
       style="stroke-width:0.769231"><g
   id="g4263"
   style="stroke-width:0.769231">
    <g
   style="fill:#000000;fill-opacity:1;stroke-width:0.769231"
   id="g3159">
      <use
   xlink:href="#symbol6035"
   x="91.925003"
   y="81.962997"
   id="use4202"
   width="100%"
   height="100%"
   style="stroke-width:0.591716"
   transform="matrix(1.3,0,0,1.3,-28.531407,-24.206868)" />
    </g>
  </g>
</g><g
       inkscape:label=""
       transform="matrix(1.04,0,0,-1.04,11.619191,155.12403)"
       id="g3578"
       style="stroke-width:0.769231"><g
   id="g8483"
   style="stroke-width:0.769231">
    <g
   style="fill:#000000;fill-opacity:1;stroke-width:0.769231"
   id="g4632">
      <use
   xlink:href="#symbol280"
   x="91.925003"
   y="81.962997"
   id="use9392"
   width="100%"
   height="100%"
   style="stroke-width:0.591716"
   transform="matrix(1.3,0,0,1.3,-28.531407,-24.206868)" />
    </g>
  </g>
</g><path
       d="m 97.627209,111.80567 3.265251,-0.99706 -6.08791,6.3385 1.816623,-8.61395 z"
       style="fill:#000000;fill-opacity:1;fill-rule:evenodd;stroke:#000000;stroke-width:0.484035;stroke-linecap:butt;stroke-linejoin:miter;stroke-miterlimit:4;stroke-dasharray:none;stroke-opacity:1"
       id="path5098"
       inkscape:connector-curvature="0"
       inkscape:transform-center-x="-0.64109278"
       inkscape:transform-center-y="-0.56447193" /><path
       d="m 56.366491,108.6203 0.189891,0.46541 0.275527,0.55944 0.189891,0.55664 0.185236,0.56036 0.280182,0.46542 0.185236,0.55571 0.185237,0.56036 0.280182,0.46542 0.185236,0.55943 0.280182,0.55664 0.185236,0.46542 0.280182,0.56036 0.185236,0.55571 0.280182,0.46542 0.185237,0.56036 0.185236,0.46542 0.280182,0.55944 0.280181,0.55664 0.185237,0.46541 0.280182,0.56037 0.185236,0.46542 0.280182,0.5557 0.185236,0.46542 0.280182,0.56037 0.185236,0.46541 0.280182,0.55944 0.280182,0.46542 0.185236,0.55664 0.280182,0.46541 0.185237,0.46542 0.280181,0.56037 0.275528,0.46541 0.18989,0.55571 0.275528,0.46542 0.280182,0.46542 0.280181,0.56036 0.185237,0.46542 0.280182,0.46542 0.280181,0.55943 0.185237,0.46542 0.280182,0.46542 0.280181,0.46542 0.275528,0.55664 0.189891,0.46541 0.275527,0.46542 0.280182,0.46542 0.280182,0.56036 0.280181,0.46542 0.280182,0.46542 0.185236,0.46542 0.280182,0.46542 0.275528,0.46542 0.280182,0.46541 0.280181,0.55571 0.280182,0.46542 0.280182,0.46542 0.275527,0.46542 0.189891,0.46542 0.275528,0.46541 0.280181,0.46542 0.280182,0.46542 0.280182,0.46542 0.280182,0.46542 0.275527,0.46541 0.280182,0.46542 0.280182,0.46542 0.280181,0.37513 0.280182,0.46542 0.275528,0.46541 0.280181,0.46542 0.280182,0.46542 0.280182,0.46542 0.280182,0.46542 0.275527,0.37047 0.280182,0.46542 0.280182,0.46542 0.280181,0.46541 0.370473,0.3742 0.280182,0.46542 0.280182,0.46542 0.280181,0.46542 0.275528,0.3714 0.280182,0.46542 0.280182,0.46542 0.280181,0.37047 0.370473,0.46542 0.280182,0.37512 0.280182,0.46542 0.280181,0.46542 0.275528,0.37047 0.375127,0.46542 m -0.375127,-0.46542 0.280182,0 0.375127,-0.0912 0.275527,0 0.280182,-0.094 0.560364,0 0.280181,-0.095 0.55571,0 0.375127,-0.0903 0.275527,0 0.280182,-0.095 0.560363,0 0.280182,-0.0912 0.370473,0 0.280182,-0.094 0.555709,0 0.375127,-0.095 0.555709,0 0.280182,-0.0903 0.650655,0 0.280182,-0.0949 0.650654,0 0.280182,-0.0912 0.280182,0 0.370473,-0.094 0.560363,0 0.370473,-0.095 0.560363,0 0.370473,-0.0903 0.560364,0 0.370473,-0.0949 0.930836,0 0.280182,-0.0912 0.650654,0 0.280182,-0.094 0.650655,0 0.375127,-0.0949 0.650654,0 0.280182,-0.0903 1.021128,0 0.280181,-0.095 0.650655,0 0.280182,-0.0912 1.025781,0 0.280182,-0.094 0.740946,0 0.28018,-0.0949 1.02578,0 0.28019,-0.0903 1.02112,0 0.37513,-0.095 0.93084,0 0.37047,-0.0912 1.02578,0 0.27553,-0.094 1.39625,0 0.28018,-0.095 1.02579,0 m -12.941422,-44.49119 0.189891,0.55664 0.09029,0.46542 0.09494,0.56037 0.09029,0.55571 0.189891,0.56036 0.09029,0.55943 0.09494,0.55664 0.185237,0.46542 0.09495,0.56036 0.09029,0.55571 0.09495,0.56037 0.185237,0.46541 0.09495,0.55944 0.09029,0.55664 0.185237,0.56036 0.09494,0.46542 0.09495,0.55571 0.185237,0.56036 0.09029,0.46542 0.189891,0.55943 0.09029,0.55664 0.09495,0.46542 0.185236,0.56036 0.09495,0.46542 0.185236,0.55571 0.09029,0.56037 0.09495,0.46541 0.185236,0.55944 0.09495,0.46541 0.185237,0.55664 0.09494,0.46542 0.09029,0.56037 0.185237,0.46541 0.09495,0.55571 0.185236,0.46542 0.09495,0.56037 0.18524,0.46541 0.0949,0.55944 0.18524,0.46541 0.0903,0.46542 0.18989,0.55664 0.0903,0.46542 0.18524,0.56036 0.0949,0.46542 0.18524,0.46542 0.0949,0.55571 0.18524,0.46542 0.0949,0.46542 0.18523,0.46541 0.0903,0.56037 0.18989,0.46542 0.0903,0.46541 0.18524,0.46542 0.18989,0.55944 0.0903,0.46541 0.18524,0.46542 0.0949,0.46542 0.18524,0.46542 0.0949,0.55664 0.18523,0.46542 0.18524,0.46541 0.0949,0.46542 0.18524,0.46542 0.0949,0.46542 0.18523,0.46542 0.18524,0.46542 0.0949,0.46541 0.18524,0.46542 0.0903,0.46542 0.18989,0.46542 0.18524,0.46542 0.0903,0.46541 0.18989,0.46542 0.18524,0.46542 0.0903,0.46542 0.18989,0.46542 0.18524,0.46542 0.0903,0.46541 0.18989,0.46542 0.18523,0.3742 0.0903,0.46542 0.1899,0.46541 0.18523,0.46542 0.0903,0.46542 0.18989,0.3714 0.18524,0.46542 0.18524,0.46542 0.0949,0.37047 0.18524,0.46542 0.18523,0.46542 0.0949,0.46542 m -51.851312,-41.32727 0.375127,-0.0949 0.370473,-0.0903 0.465418,0 0.375127,-0.0949 0.370473,0 0.465418,-0.0912 0.370473,0 0.375127,-0.094 0.465418,0 0.370473,-0.095 0.375127,0 0.465418,-0.0903 0.370473,0 0.370473,-0.0949 0.465418,0 0.375127,-0.0912 0.465419,0 0.370472,-0.094 0.375127,-0.0949 0.465419,0 0.370472,-0.0903 0.465419,0 0.370473,-0.0949 0.840545,0 0.465418,-0.0912 0.370473,0 0.465418,-0.094 0.375127,0 0.465418,-0.0949 0.465418,0 0.370473,-0.0903 0.465418,0 0.370473,-0.0949 0.465419,0 0.375127,-0.0912 0.465418,0 0.465418,-0.094 0.370473,0 0.465418,-0.0949 0.840545,0 0.465418,-0.0903 0.465419,0 0.370472,-0.0949 0.465419,0 0.465418,-0.0912 0.835891,0 0.465418,-0.094 0.465418,0 0.375127,-0.0949 0.930837,0 0.465418,-0.0903 0.370473,0 0.465418,-0.0949 0.930836,0 0.465418,-0.0912 0.375127,0 0.465419,-0.094 0.930836,0 0.465418,-0.0949 0.465418,0 0.370473,-0.0903 0.930837,0 0.465418,-0.0949 0.930836,0 0.465418,-0.0912 0.930837,0 0.465418,-0.094 0.835891,0 0.465418,-0.0949 0.930836,0 0.465419,-0.0903 0.930836,0 0.465418,-0.0949 0.930837,0 0.465418,-0.0912 0.930836,0 0.465418,-0.094 m 8.752657,-15.544036 0.0903,0.465418 0.0949,0.370473 0.0949,0.465418 0.0903,0.465418 0.0949,0.374196 0.0903,0.465419 0.18989,0.465418 0.0903,0.371403 0.0949,0.465419 0.0903,0.370472 0.0949,0.465419 0.0949,0.465418 0.0903,0.375127 0.095,0.465418 0.0903,0.370473 0.0949,0.465418 0.0949,0.465418 0.0903,0.374197 0.0949,0.465418 0.0903,0.371403 0.1899,0.465419 0.0903,0.370472 0.0949,0.465419 0.0903,0.375127 0.0949,0.465416 0.0949,0.37047 0.0903,0.3742 0.0949,0.46542 0.0903,0.3714 0.18989,0.46542 0.0903,0.37047 0.0949,0.46542 0.0903,0.37513 0.0949,0.37047 0.0949,0.46542 0.18524,0.3742 0.0903,0.3714 0.0949,0.46542 0.095,0.37047 0.0903,0.37513 0.0949,0.46542 0.18524,0.37047 0.0949,0.3742 0.0903,0.46541 0.0949,0.37141 0.0903,0.37047 0.18989,0.37513 0.0903,0.46542 0.0949,0.37047 0.0903,0.37419 0.18989,0.37141 0.0903,0.46542 0.0949,0.37047 0.0903,0.37513 0.18989,0.37047 0.0903,0.3742 0.0949,0.3714 0.0903,0.46542 0.18989,0.37047 0.0903,0.37513 0.0949,0.37047 0.0903,0.3742 0.18989,0.3714 0.0903,0.37047 0.0949,0.37513 0.18524,0.37047 0.0949,0.3742 0.0903,0.3714 0.0949,0.37048 0.18524,0.37512 0.0949,0.37048 0.0903,0.37419 0.18524,0.37141 0.0949,0.37047 0.0949,0.37513 0.18524,0.37047 0.0903,0.37419 0.0949,0.37141 0.18524,0.37047 0.0949,0.28018 0.0903,0.3742 0.18989,0.3714 0.0903,0.37048 0.18524,0.37512 0.0949,0.37048 0.095,0.28018 0.18523,0.37047 0.0903,0.37513 0.0949,0.37047 0.18524,0.28018 0.0949,0.37047 m -41.517166,-33.044686 0.280182,0 0.370473,-0.09029 0.280182,0 0.375127,-0.09495 0.275527,0 0.375127,-0.09122 0.650655,0 0.280182,-0.09401 0.280181,0 0.370473,-0.09494 0.280182,0 0.370473,-0.09029 0.650654,0 0.280182,-0.09495 0.375127,0 0.370473,-0.09122 0.650655,0 0.280181,-0.09401 0.370473,0 0.280182,-0.09494 0.7456,0 0.280182,-0.09029 0.370473,0 0.280181,-0.09494 0.7456,0 0.280182,-0.09122 0.740946,0 0.280181,-0.09401 0.375128,0 0.370472,-0.09495 0.650655,0 0.375127,-0.09029 0.650655,0 0.370473,-0.09494 0.650654,0 0.375127,-0.09122 0.7456,0 0.275528,-0.09401 0.375127,0 0.370473,-0.09495 1.025781,0 0.370473,-0.09029 0.7456,0 0.370473,-0.09494 0.655309,0 0.370473,-0.09122 0.7456,0 0.370472,-0.09401 0.7456,0 0.280182,-0.09494 1.116073,0 0.370473,-0.09029 0.7456,0 0.375127,-0.09494 1.116073,0 0.370472,-0.09122 0.65066,0 0.37513,-0.09401 1.11607,0 0.37047,-0.09494 1.12073,0 0.37047,-0.09029 1.11607,0 M 56.366491,108.6203 73.401727,92.235714 m 34.721123,57.246436 6.7011,-24.57222 M 95.461618,104.99096 104.67969,89.352914"
       style="fill:none;stroke:#2ca02c;stroke-width:1.6;stroke-linecap:butt;stroke-linejoin:miter;stroke-miterlimit:10;stroke-opacity:1;stroke-dasharray:none"
       id="path172"
       inkscape:connector-curvature="0" /></g></svg>
