<?xml version="1.0" encoding="UTF-8" standalone="no"?>
<!-- Created with Inkscape (http://www.inkscape.org/) -->

<svg
   width="112.80592mm"
   height="39.675148mm"
   viewBox="0 0 112.80592 39.675148"
   version="1.1"
   id="svg3483"
   sodipodi:docname="equivalent-sources-out-of-memory-1.svg"
   inkscape:version="1.1.1 (3bf5ae0d25, 2021-09-20, custom)"
   xmlns:inkscape="http://www.inkscape.org/namespaces/inkscape"
   xmlns:sodipodi="http://sodipodi.sourceforge.net/DTD/sodipodi-0.dtd"
   xmlns="http://www.w3.org/2000/svg"
   xmlns:svg="http://www.w3.org/2000/svg">
  <sodipodi:namedview
     id="namedview3485"
     pagecolor="#ffffff"
     bordercolor="#666666"
     borderopacity="1.0"
     inkscape:pageshadow="2"
     inkscape:pageopacity="0.0"
     inkscape:pagecheckerboard="0"
     inkscape:document-units="mm"
     showgrid="false"
     inkscape:zoom="0.684102"
     inkscape:cx="-107.44012"
     inkscape:cy="-141.06084"
     inkscape:window-width="1920"
     inkscape:window-height="1027"
     inkscape:window-x="0"
     inkscape:window-y="25"
     inkscape:window-maximized="1"
     inkscape:current-layer="layer1" />
  <defs
     id="defs3480">
    <rect
       x="121.66698"
       y="17.233942"
       width="328.4335"
       height="111.52599"
       id="rect3000" />
  </defs>
  <g
     inkscape:label="Layer 1"
     inkscape:groupmode="layer"
     id="layer1"
     transform="translate(-96.201059,-96.940133)">
    <text
       xml:space="preserve"
       id="text2998"
       style="font-style:normal;font-weight:normal;font-size:6.35px;line-height:1.25;font-family:sans-serif;white-space:pre;shape-inside:url(#rect3000);fill:#222222;fill-opacity:1;stroke:none"
       x="128.42845"
       y="0"
       transform="translate(-14.48253,83.676086)"><tspan
         x="121.66602"
         y="22.852637"
         id="tspan24820"><tspan
           style="font-family:palatino;-inkscape-font-specification:palatino"
           id="tspan24818">200 000 datos</tspan></tspan></text>
    <text
       xml:space="preserve"
       style="font-style:normal;font-weight:normal;font-size:6.35px;line-height:1.25;font-family:sans-serif;fill:#222222;fill-opacity:1;stroke:none;stroke-width:0.264583"
       x="107.18349"
       y="116.93077"
       id="text3004"><tspan
         sodipodi:role="line"
         id="tspan3002"
         x="107.18349"
         y="116.93077"
         style="font-style:normal;font-variant:normal;font-weight:normal;font-stretch:normal;font-size:6.35px;font-family:palatino;-inkscape-font-specification:palatino;fill:#222222;fill-opacity:1;stroke-width:0.264583">200 000 fuentes</tspan></text>
    <text
       xml:space="preserve"
       style="font-style:normal;font-weight:normal;font-size:7.05556px;line-height:1.25;font-family:sans-serif;fill:#222222;fill-opacity:1;stroke:none;stroke-width:0.264583"
       x="107.16867"
       y="132.26303"
       id="text3008"><tspan
         sodipodi:role="line"
         id="tspan3006"
         x="107.16867"
         y="132.26303"
         style="font-style:normal;font-variant:normal;font-weight:normal;font-stretch:normal;font-size:7.05556px;font-family:palatino;-inkscape-font-specification:palatino;fill:#222222;fill-opacity:1;stroke-width:0.264583">300 GB RAM</tspan></text>
    <path
       style="fill:#222222;fill-opacity:1;stroke:#222222;stroke-width:0.380537;stroke-linecap:butt;stroke-linejoin:miter;stroke-miterlimit:4;stroke-dasharray:none;stroke-opacity:1"
       d="M 96.201059,122.45829 H 163.13975"
       id="path3034"
       sodipodi:nodetypes="cc" />
    <g
       id="g24115"
       transform="matrix(1.0098483,0,0,0.59726943,3.1518331,43.003145)">
      <path
         style="fill:none;stroke:#000000;stroke-width:0.264583px;stroke-linecap:butt;stroke-linejoin:miter;stroke-opacity:1"
         d="m 96.307284,111.37198 -3.893883,6.7444"
         id="path23940" />
      <path
         style="fill:none;stroke:#000000;stroke-width:0.264583px;stroke-linecap:butt;stroke-linejoin:miter;stroke-opacity:1"
         d="m 92.413401,111.37198 3.893883,6.7444"
         id="path24102" />
    </g>
    <g
       id="g4957"
       transform="translate(164.18544,-86.681536)">
      <path
         id="path4302"
         style="fill-rule:nonzero;stroke-width:0.486128"
         d="m 16.464057,199.3278 c -0.259722,0.004 -0.469244,0.2111 -0.473488,0.46819 v 0.52658 c 0.0049,0.22114 0.16142,0.41079 0.379525,0.45889 0.612827,0.17104 1.036107,0.72465 1.035708,1.35495 -3.89e-4,0.63029 -0.424233,1.18313 -1.03728,1.35341 -0.218155,0.0478 -0.375404,0.23724 -0.380559,0.45837 l -0.0031,5.20537 c 0.0039,0.2571 0.213254,0.4647 0.472962,0.4687 l 0.473488,0.004 -10e-4,1.865 c -4.8e-4,0.12439 0.04902,0.24376 0.137812,0.33176 0.08878,0.088 0.209497,0.13725 0.335148,0.13694 l 1.88976,-0.002 0.0021,-0.004 2.359595,0.001 0.0016,0.004 1.889758,0.005 v -5.2e-4 c 0.259717,-0.004 0.469244,-0.2111 0.473488,-0.46819 l -0.0021,-1.8681 3.309691,0.002 0.0021,1.86862 c -0.0011,0.12367 0.04792,0.24271 0.136252,0.33021 0.08828,0.0875 0.208641,0.13584 0.333578,0.13488 l 1.889763,0.005 v 5.1e-4 l 2.363245,0.001 v 5.1e-4 l 2.363246,0.001 2.363244,0.001 v 5.2e-4 l 2.362727,0.001 v 5.2e-4 l 2.363245,0.001 v -5.2e-4 l 1.889762,-0.002 v -5.1e-4 c 0.124936,0.001 0.245177,-0.0475 0.333579,-0.13488 0.08839,-0.0874 0.137743,-0.20602 0.136775,-0.32969 l 0.0031,-1.87069 h 0.0016 0.469832 v 0.002 c 0.125652,4.5e-4 0.246239,-0.049 0.335142,-0.13695 0.08889,-0.0879 0.138658,-0.20686 0.138339,-0.33125 l 0.0031,-5.20536 c -0.0042,-0.21906 -0.157465,-0.40799 -0.37273,-0.45889 -0.615501,-0.16678 -1.042092,-0.72015 -1.042502,-1.35185 -4.15e-4,-0.6317 0.425653,-1.18585 1.040933,-1.35341 0.215445,-0.0522 0.37004,-0.23851 0.380041,-0.45785 l -0.0031,-0.5302 c 0.0011,-0.12367 -0.04792,-0.24271 -0.136251,-0.33021 -0.08828,-0.0875 -0.208121,-0.13584 -0.333057,-0.13488 z m 6.285285,15.12724 c -0.857673,0.31377 -1.677855,0.77504 -2.274504,1.4764 -0.596643,0.70137 -0.895383,1.66119 -0.708919,2.54713 -0.316963,-0.35069 -0.484667,-0.83048 -0.447381,-1.29191 -0.428858,0.53525 -0.727184,1.16283 -0.857699,1.82728 -0.130524,0.66446 -0.05586,1.36599 0.205156,1.97507 0.261045,0.57218 0.671448,1.05165 1.081655,1.51308 0.471922,0.40751 1.020815,0.63892 1.606294,0.73846 0.172442,0.0451 0.342347,0.0611 0.508464,0.0522 0.345516,0.014 0.698876,-0.008 1.055026,-0.0708 0.65258,-0.22148 1.249058,-0.62723 1.62196,-1.19941 0.316965,-0.47988 0.466245,-1.07063 0.540826,-1.64279 0.05592,-0.51682 0.07445,-1.05209 -0.01882,-1.5689 -0.09324,-0.5168 -0.279864,-0.92306 -0.615479,-1.32912 0.09327,0.35069 0.03717,0.72004 -0.07467,1.07074 -0.111872,0.35066 -0.297848,0.66447 -0.465657,0.97823 -0.01868,-0.60908 -0.317304,-1.16284 -0.634269,-1.69809 -0.316965,-0.53525 -0.671099,-1.05217 -0.838907,-1.64279 -0.167807,-0.59064 -0.111964,-1.29181 0.316876,-1.73478 z m 8.598935,0 c -0.857673,0.31377 -1.67838,0.77504 -2.275022,1.4764 -0.596646,0.70137 -0.894858,1.66119 -0.708401,2.54713 -0.316961,-0.35069 -0.484668,-0.83048 -0.447383,-1.29191 -0.428851,0.53525 -0.727177,1.16283 -0.857699,1.82728 -0.130523,0.66446 -0.05586,1.36599 0.205159,1.97507 0.261044,0.57218 0.67093,1.05165 1.081132,1.51308 0.47208,0.40765 1.021118,0.63949 1.606817,0.73898 0.172288,0.045 0.342498,0.0606 0.50846,0.0517 0.345355,0.014 0.69854,-0.008 1.05451,-0.0708 0.65258,-0.22148 1.249055,-0.62723 1.621959,-1.19941 0.316962,-0.47988 0.466241,-1.07063 0.540825,-1.64279 0.05592,-0.51682 0.07445,-1.05209 -0.01882,-1.5689 -0.09326,-0.5168 -0.279343,-0.92306 -0.614957,-1.32912 0.09327,0.35069 0.03719,0.72004 -0.07467,1.07074 -0.111874,0.35066 -0.298368,0.66447 -0.466175,0.97823 -0.01868,-0.60908 -0.316786,-1.16284 -0.633749,-1.69809 -0.316967,-0.53525 -0.671622,-1.05217 -0.83943,-1.64279 -0.167806,-0.59064 -0.111441,-1.29181 0.317396,-1.73478 z m 8.682985,0 c -0.857674,0.31377 -1.678381,0.77504 -2.275023,1.4764 -0.596643,0.70137 -0.89486,1.66119 -0.7084,2.54713 -0.316962,-0.35069 -0.484669,-0.83048 -0.447382,-1.29191 -0.428855,0.53525 -0.727179,1.16283 -0.8577,1.82728 -0.130524,0.66446 -0.05586,1.36599 0.205159,1.97507 0.261046,0.57218 0.670927,1.05165 1.081129,1.51308 0.472022,0.4076 1.021207,0.63896 1.606821,0.73846 0.172331,0.045 0.342449,0.0611 0.508461,0.0522 0.345429,0.014 0.698456,-0.008 1.054506,-0.0708 0.652581,-0.22148 1.249581,-0.62723 1.622483,-1.19941 0.316963,-0.47988 0.465721,-1.07063 0.540302,-1.64279 0.05592,-0.51682 0.07496,-1.05209 -0.01831,-1.5689 -0.09326,-0.5168 -0.279863,-0.92306 -0.615477,-1.32912 0.09324,0.35069 0.03717,0.72004 -0.07467,1.07074 -0.111873,0.35066 -0.298369,0.66447 -0.466175,0.97823 -0.01868,-0.60908 -0.316785,-1.16284 -0.633751,-1.69809 -0.316965,-0.53525 -0.671101,-1.05217 -0.838907,-1.64279 -0.167809,-0.59064 -0.111965,-1.29181 0.316875,-1.73478 z"
         sodipodi:nodetypes="ccccsccccccscccccccccccsccccccccccccccscccccscccscccscccsccscccccccscscsssccsccscccccccscscsssccsccscccccccscscsssc" />
      <g
         id="g4300"
         transform="translate(-0.60330504,-1.828322)">
        <g
           id="037---RAM"
           fill-rule="nonzero"
           style="fill:none"
           transform="matrix(0.34179418,0.34221568,-0.34221568,0.34179418,11.695794,153.90324)">
          <g
             id="g3075"
             transform="translate(76.141834,19.054736)">
            <path
               id="Shape"
               d="m 37.9,40.91 -2.74,2.73 c -0.179291,0.182324 -0.42429,0.285012 -0.68,0.285012 -0.25571,0 -0.500709,-0.102688 -0.68,-0.285012 l -2.74,-2.73 3.42,-8.41 z"
               fill="#f0c419" />
            <path
               id="path2909"
               d="M 41.32,37.49 37.9,40.91 34.48,37.49 37.9,30 Z"
               fill="#f3d55b" />
            <path
               id="path2911"
               d="m 44.74,34.07 -3.42,3.42 -3.42,-3.42 3.017,-7.153 z"
               fill="#f0c419" />
            <path
               id="path2913"
               d="m 48.16,30.65 -3.42,3.42 -3.42,-3.42 2.93,-6.499 z"
               fill="#f3d55b" />
            <path
               id="path2915"
               d="m 51.58,27.23 -3.42,3.42 -3.42,-3.42 2.552,-7.105 z"
               fill="#f0c419" />
            <path
               id="path2917"
               d="m 55,23.81 -3.42,3.42 -3.42,-3.42 3.42,-6.352 z"
               fill="#f3d55b" />
            <path
               id="path2919"
               d="M 57.73,21.07 55,23.81 51.58,20.39 53.2963,15.2662 57.73,19.71 c 0.182324,0.179291 0.285012,0.42429 0.285012,0.68 0,0.25571 -0.102688,0.500709 -0.285012,0.68 z"
               fill="#f0c419" />
            <path
               id="path2921"
               d="m 22.85,55.95 -2.73,2.74 c -0.181276,0.182421 -0.427826,0.285001 -0.685,0.285001 -0.257173,0 -0.503724,-0.10258 -0.685,-0.285001 l -2.73,-2.73 4.5633,-8.835 z"
               fill="#f3d55b" />
            <path
               id="path2923"
               d="m 29.01,49.8 -2.74,2.73 -8.145,-2.655 8.145,-4.175 2.74,2.73 c 0.37,0.381721 0.37,0.988279 0,1.37 z"
               fill="#f3d55b" />
            <g
               fill="#f0c419"
               id="g2934">
              <path
                 id="Rectangle-path"
                 d="m 20.437,50.124 h 4.837 v 4.823 h -4.837 z"
                 transform="matrix(0.707,-0.707,0.707,0.707,-30.454,31.548)" />
              <path
                 id="path2928"
                 d="M 16.02,55.96 16.01,55.95" />
              <path
                 id="path2930"
                 d="M 19.44,52.54 19.43,52.53" />
              <path
                 id="path2932"
                 d="M 22.86,49.12 22.85,49.11" />
            </g>
            <g
               id="g3053">
              <path
                 id="path2925"
                 d="m 55.68,16.29 -0.68,0.68 -3.42,3.42 -3.42,3.42 -6.84,6.84 -3.42,3.42 -3.42,3.42 -3.42,3.42 -4.79,4.79 -3.41,3.42 -6.84,6.84 -0.69,0.68 c -0.381721,0.37 -0.988279,0.37 -1.37,0 L 6.35,49.03 C 6.0340026,48.69941 5.9844695,48.195823 6.23,47.81 6.8675476,46.673447 6.6713846,45.251558 5.7499132,44.330087 4.8284419,43.408615 3.4065527,43.212452 2.27,43.85 1.8841773,44.095531 1.3805904,44.045997 1.05,43.73 L 0.28,42.96 c -0.37000024,-0.381721 -0.37000024,-0.988279 0,-1.37 L 40.64,1.24 c 0.179291,-0.1823244 0.42429,-0.28501196 0.68,-0.28501196 0.25571,0 0.500709,0.10268756 0.68,0.28501196 l 0.78,0.77 c 0.306402,0.3349331 0.355272,0.8317875 0.12,1.22 -0.644765,1.1358142 -0.450727,2.5624913 0.473965,3.4848478 C 44.298656,7.6372043 45.72582,7.827635 46.86,7.18 47.245868,6.9426964 47.743347,6.9961445 48.07,7.31 l 7.61,7.61 c 0.182421,0.181276 0.285001,0.427827 0.285001,0.685 0,0.257174 -0.10258,0.503724 -0.285001,0.685 z"
                 fill="#4c8056" />
              <rect
                 id="rect2936"
                 fill="#393f4a"
                 height="11.607"
                 rx="1"
                 transform="matrix(0.707,-0.707,0.707,0.707,-25.262,22.879)"
                 width="8.7049999"
                 x="10.634"
                 y="36.130001" />
              <rect
                 id="rect2938"
                 fill="#393f4a"
                 height="11.607"
                 rx="1"
                 transform="matrix(0.707,-0.707,0.707,0.707,-16.37,26.562)"
                 width="8.7049999"
                 x="19.525999"
                 y="27.239" />
              <rect
                 id="rect2940"
                 fill="#393f4a"
                 height="11.607"
                 rx="1"
                 transform="matrix(0.707,-0.707,0.707,0.707,-7.479,30.245)"
                 width="8.7049999"
                 x="28.417"
                 y="18.347" />
              <rect
                 id="rect2942"
                 fill="#393f4a"
                 height="11.607"
                 rx="1"
                 transform="matrix(0.707,-0.707,0.707,0.707,1.412,33.928)"
                 width="8.7049999"
                 x="37.307999"
                 y="9.4560003" />
            </g>
          </g>
        </g>
        <g
           id="g3287"
           transform="matrix(0.81216941,0,0,0.81216941,-68.49194,5.1387176)">
          <g
             id="g3135"
             transform="matrix(0.02130535,0,0,0.02130535,106.3521,259.51992)">
            <path
               style="fill:#f3705a"
               d="M 140.367,465.067 C 116.9,438.4 93.434,410.667 78.5,377.6 63.567,342.4 59.3,301.867 66.767,263.467 c 7.467,-38.4 24.533,-74.667 49.067,-105.6 -2.133,26.667 7.467,54.4 25.6,74.667 -10.667,-51.2 6.4,-106.667 40.533,-147.2 C 216.1,44.801 263.034,18.133 312.1,0 c -24.533,25.6 -27.733,66.133 -18.133,100.267 9.6,34.133 29.867,64 48,94.933 18.133,30.933 35.2,62.933 36.267,98.133 9.6,-18.133 20.267,-36.267 26.667,-56.533 6.4,-20.267 9.6,-41.6 4.267,-61.867 19.2,23.467 29.867,46.933 35.2,76.8 5.333,29.867 4.267,60.8 1.067,90.667 -4.267,33.067 -12.8,67.2 -30.933,94.933 -21.333,33.067 -55.467,56.533 -92.8,69.333 C 255.567,518.4 190.5,508.8 140.367,465.067 Z"
               id="path3077" />
            <path
               style="fill:#ffd15c"
               d="M 221.434,504.533 C 308.9,538.667 395.3,435.2 347.3,355.2 c 0,-1.067 -1.067,-1.067 -1.067,-2.133 4.267,43.733 -6.4,75.733 -26.667,93.867 10.667,-25.6 3.2,-55.467 -9.6,-81.067 -12.8,-24.533 -30.933,-46.933 -44.8,-70.4 -13.867,-24.533 -24.533,-52.267 -18.133,-80 -25.6,19.2 -43.733,48 -51.2,78.933 -7.467,30.933 -3.2,65.067 10.667,93.867 -16,-11.733 -27.733,-30.933 -28.8,-51.2 -17.067,20.267 -27.733,46.933 -26.667,73.6 0.001,41.6 33.067,78.933 70.401,93.866 z"
               id="path3079" />
            <g
               id="g3081" />
            <g
               id="g3083" />
            <g
               id="g3085" />
            <g
               id="g3087" />
            <g
               id="g3089" />
            <g
               id="g3091" />
            <g
               id="g3093" />
            <g
               id="g3095" />
            <g
               id="g3097" />
            <g
               id="g3099" />
            <g
               id="g3101" />
            <g
               id="g3103" />
            <g
               id="g3105" />
            <g
               id="g3107" />
            <g
               id="g3109" />
          </g>
          <g
             id="g3195"
             transform="matrix(0.02130535,0,0,0.02130535,116.83248,259.51992)">
            <path
               style="fill:#f3705a"
               d="M 140.367,465.067 C 116.9,438.4 93.434,410.667 78.5,377.6 63.567,342.4 59.3,301.867 66.767,263.467 c 7.467,-38.4 24.533,-74.667 49.067,-105.6 -2.133,26.667 7.467,54.4 25.6,74.667 -10.667,-51.2 6.4,-106.667 40.533,-147.2 C 216.1,44.801 263.034,18.133 312.1,0 c -24.533,25.6 -27.733,66.133 -18.133,100.267 9.6,34.133 29.867,64 48,94.933 18.133,30.933 35.2,62.933 36.267,98.133 9.6,-18.133 20.267,-36.267 26.667,-56.533 6.4,-20.267 9.6,-41.6 4.267,-61.867 19.2,23.467 29.867,46.933 35.2,76.8 5.333,29.867 4.267,60.8 1.067,90.667 -4.267,33.067 -12.8,67.2 -30.933,94.933 -21.333,33.067 -55.467,56.533 -92.8,69.333 C 255.567,518.4 190.5,508.8 140.367,465.067 Z"
               id="path3161" />
            <path
               style="fill:#ffd15c"
               d="M 221.434,504.533 C 308.9,538.667 395.3,435.2 347.3,355.2 c 0,-1.067 -1.067,-1.067 -1.067,-2.133 4.267,43.733 -6.4,75.733 -26.667,93.867 10.667,-25.6 3.2,-55.467 -9.6,-81.067 -12.8,-24.533 -30.933,-46.933 -44.8,-70.4 -13.867,-24.533 -24.533,-52.267 -18.133,-80 -25.6,19.2 -43.733,48 -51.2,78.933 -7.467,30.933 -3.2,65.067 10.667,93.867 -16,-11.733 -27.733,-30.933 -28.8,-51.2 -17.067,20.267 -27.733,46.933 -26.667,73.6 0.001,41.6 33.067,78.933 70.401,93.866 z"
               id="path3163" />
            <g
               id="g3165" />
            <g
               id="g3167" />
            <g
               id="g3169" />
            <g
               id="g3171" />
            <g
               id="g3173" />
            <g
               id="g3175" />
            <g
               id="g3177" />
            <g
               id="g3179" />
            <g
               id="g3181" />
            <g
               id="g3183" />
            <g
               id="g3185" />
            <g
               id="g3187" />
            <g
               id="g3189" />
            <g
               id="g3191" />
            <g
               id="g3193" />
          </g>
          <g
             id="g3231"
             transform="matrix(0.02130535,0,0,0.02130535,127.41582,259.51992)">
            <path
               style="fill:#f3705a"
               d="M 140.367,465.067 C 116.9,438.4 93.434,410.667 78.5,377.6 63.567,342.4 59.3,301.867 66.767,263.467 c 7.467,-38.4 24.533,-74.667 49.067,-105.6 -2.133,26.667 7.467,54.4 25.6,74.667 -10.667,-51.2 6.4,-106.667 40.533,-147.2 C 216.1,44.801 263.034,18.133 312.1,0 c -24.533,25.6 -27.733,66.133 -18.133,100.267 9.6,34.133 29.867,64 48,94.933 18.133,30.933 35.2,62.933 36.267,98.133 9.6,-18.133 20.267,-36.267 26.667,-56.533 6.4,-20.267 9.6,-41.6 4.267,-61.867 19.2,23.467 29.867,46.933 35.2,76.8 5.333,29.867 4.267,60.8 1.067,90.667 -4.267,33.067 -12.8,67.2 -30.933,94.933 -21.333,33.067 -55.467,56.533 -92.8,69.333 C 255.567,518.4 190.5,508.8 140.367,465.067 Z"
               id="path3197" />
            <path
               style="fill:#ffd15c"
               d="M 221.434,504.533 C 308.9,538.667 395.3,435.2 347.3,355.2 c 0,-1.067 -1.067,-1.067 -1.067,-2.133 4.267,43.733 -6.4,75.733 -26.667,93.867 10.667,-25.6 3.2,-55.467 -9.6,-81.067 -12.8,-24.533 -30.933,-46.933 -44.8,-70.4 -13.867,-24.533 -24.533,-52.267 -18.133,-80 -25.6,19.2 -43.733,48 -51.2,78.933 -7.467,30.933 -3.2,65.067 10.667,93.867 -16,-11.733 -27.733,-30.933 -28.8,-51.2 -17.067,20.267 -27.733,46.933 -26.667,73.6 0.001,41.6 33.067,78.933 70.401,93.866 z"
               id="path3199" />
            <g
               id="g3201" />
            <g
               id="g3203" />
            <g
               id="g3205" />
            <g
               id="g3207" />
            <g
               id="g3209" />
            <g
               id="g3211" />
            <g
               id="g3213" />
            <g
               id="g3215" />
            <g
               id="g3217" />
            <g
               id="g3219" />
            <g
               id="g3221" />
            <g
               id="g3223" />
            <g
               id="g3225" />
            <g
               id="g3227" />
            <g
               id="g3229" />
          </g>
        </g>
        <g
           id="g18111"
           transform="matrix(0.66836888,0,0,0.55226241,-83.211052,71.280601)"
           style="fill:#9b9b9b;fill-opacity:1;stroke:none">
          <path
             style="fill:#828282;fill-opacity:1;stroke:none;stroke-width:0.0904348px;stroke-linecap:butt;stroke-linejoin:miter;stroke-opacity:1"
             d="m 161.17766,232.20667 c -1.23867,-2.15681 -1.81354,-3.82255 -0.96821,-5.38402 1.04819,-1.93617 1.82193,-2.45923 1.99631,-5.20863 0.17193,-2.71067 -0.56263,-3.23834 -1.39387,-5.46534 -0.95949,-2.57061 -1.15421,-3.16683 -0.87575,-5.37829 0.50879,2.98609 0.89265,2.88372 2.04341,4.73604 1.2288,1.97794 2.01875,3.44977 1.92563,6.23003 -0.0646,1.92864 -0.82366,3.7462 -2.02189,5.41322 -1.00971,1.40474 -2.03855,2.4187 -0.70563,5.05699 z"
             id="path3146"
             sodipodi:nodetypes="cssscsssc" />
          <path
             style="fill:#828282;fill-opacity:1;stroke:none;stroke-width:0.0904348px;stroke-linecap:butt;stroke-linejoin:miter;stroke-opacity:1"
             d="m 169.82926,228.16661 c -1.23867,-2.15681 -1.81354,-3.82255 -0.96821,-5.38402 1.04819,-1.93617 1.82193,-2.45923 1.99631,-5.20863 0.17193,-2.71067 -0.56263,-3.23834 -1.39387,-5.46534 -0.95949,-2.57061 -1.15421,-3.16683 -0.87575,-5.37829 0.50879,2.98609 0.89265,2.88372 2.04341,4.73604 1.2288,1.97794 2.01875,3.44977 1.92563,6.23003 -0.0646,1.92864 -0.82366,3.7462 -2.02189,5.41322 -1.00971,1.40474 -2.03855,2.4187 -0.70563,5.05699 z"
             id="path3157"
             sodipodi:nodetypes="cssscsssc" />
          <path
             style="fill:#828282;fill-opacity:1;stroke:none;stroke-width:0.0904348px;stroke-linecap:butt;stroke-linejoin:miter;stroke-opacity:1"
             d="m 178.80041,232.30502 c -1.23867,-2.15681 -1.81354,-3.82255 -0.96821,-5.38402 1.04819,-1.93617 1.82193,-2.45923 1.99631,-5.20863 0.17193,-2.71067 -0.56263,-3.23834 -1.39387,-5.46534 -0.95949,-2.57061 -1.15421,-3.16683 -0.87575,-5.37829 0.50879,2.98609 0.89265,2.88372 2.04341,4.73604 1.2288,1.97794 2.01875,3.44977 1.92563,6.23003 -0.0646,1.92864 -0.82366,3.7462 -2.02189,5.41322 -1.00971,1.40474 -2.03855,2.4187 -0.70563,5.05699 z"
             id="path3159"
             sodipodi:nodetypes="cssscsssc" />
        </g>
      </g>
    </g>
  </g>
</svg>
