<?xml version="1.0" encoding="UTF-8" standalone="no"?>
<!-- Created with Inkscape (http://www.inkscape.org/) -->

<svg
   width="262.74655mm"
   height="109.83975mm"
   viewBox="0 0 262.74655 109.83975"
   version="1.1"
   id="svg2419"
   inkscape:version="1.1.1 (3bf5ae0d25, 2021-09-20, custom)"
   sodipodi:docname="surveys-cartoon.svg"
   xmlns:inkscape="http://www.inkscape.org/namespaces/inkscape"
   xmlns:sodipodi="http://sodipodi.sourceforge.net/DTD/sodipodi-0.dtd"
   xmlns="http://www.w3.org/2000/svg"
   xmlns:svg="http://www.w3.org/2000/svg">
  <sodipodi:namedview
     id="namedview2421"
     pagecolor="#ffffff"
     bordercolor="#666666"
     borderopacity="1.0"
     inkscape:pageshadow="2"
     inkscape:pageopacity="0.0"
     inkscape:pagecheckerboard="0"
     inkscape:document-units="mm"
     showgrid="false"
     inkscape:zoom="0.342051"
     inkscape:cx="939.91831"
     inkscape:cy="124.25048"
     inkscape:window-width="1920"
     inkscape:window-height="1027"
     inkscape:window-x="0"
     inkscape:window-y="25"
     inkscape:window-maximized="1"
     inkscape:current-layer="layer1" />
  <defs
     id="defs2416" />
  <g
     inkscape:label="Layer 1"
     inkscape:groupmode="layer"
     id="layer1"
     transform="translate(5.0252,-69.787311)">
    <path
       style="fill:#222222;fill-opacity:1;stroke:none;stroke-width:0.493058;stroke-linecap:butt;stroke-linejoin:miter;stroke-miterlimit:4;stroke-dasharray:none;stroke-opacity:1"
       d="m -5.0252,170.3676 c 0,0 2.20985,-2.57816 3.8304,-2.87281 1.62057,-0.29464 2.43085,0.22099 3.02013,0.22099 0.58931,0 5.08268,-0.14732 6.33492,-0.44197 1.25226,-0.29465 4.19873,-0.88395 6.62956,-2.43084 2.43085,-1.5469 3.75675,-2.65183 5.37731,-3.16746 1.62057,-0.51563 5.30365,-1.25226 6.70322,-1.98886 1.39958,-0.73663 8.76575,-7.36619 9.20772,-8.02915 0.44197,-0.66295 1.76789,-2.20985 3.90407,-2.72548 2.1362,-0.51564 3.02015,-0.81028 3.31479,-1.25226 0.29464,-0.44196 0.21771,-1.06055 0.47815,-1.24286 0.26043,-0.1823 1.35425,-0.41669 1.64073,-0.41669 0.28647,0 1.3282,-0.026 1.84908,-0.44274 0.52087,-0.41669 1.23706,-1.01569 1.47144,-1.08079 0.23439,-0.0651 2.30484,-0.27346 2.73455,-0.57296 0.42973,-0.2995 0.93757,-1.31519 1.47145,-1.47145 0.5339,-0.15626 2.26578,0.27345 2.68247,-0.15626 0.41671,-0.42972 0.876,-1.66936 1.57579,-1.87194 0.69978,-0.20257 1.7863,0.40515 2.61499,0.36831 0.82869,-0.0368 1.09603,-0.52776 1.61689,-0.76214 0.52087,-0.2344 4.63573,-0.67714 5.18263,-0.80735 0.54691,-0.13022 4.06278,-0.0521 4.42737,-0.18231 0.36462,-0.13021 1.74492,-1.11986 2.50018,-1.32821 0.75525,-0.20835 4.68779,-0.10417 6.17227,-0.31252 1.48448,-0.20835 5.05241,-0.93756 5.59932,-1.32821 0.54692,-0.39065 0.70317,-0.93756 1.27614,-1.19799 0.57294,-0.26044 10.70383,-2.10952 10.70383,-2.10952 0,0 1.11986,-0.98964 1.84906,-1.27613 0.72922,-0.28648 3.62003,-1.01569 4.37529,-1.43238 0.75526,-0.41669 1.84908,-1.25008 2.60434,-1.5626 0.75525,-0.31252 3.35959,-1.30217 4.47946,-2.396 1.11986,-1.09382 2.18764,-2.73455 2.91686,-2.99498 0.72921,-0.26044 3.1252,-0.39065 4.4534,-1.30218 1.32823,-0.91151 2.16161,0.65109 2.96896,1.06778 0.80733,0.4167 2.34389,0.62505 3.22937,1.22405 0.88547,0.59899 2.18764,1.82303 2.70851,2.60433 0.52086,0.78131 2.10951,1.3803 2.63037,1.53656 0.52087,0.15626 1.45845,0.85944 1.69283,1.17195 0.23439,0.31252 0.96359,1.0157 1.51051,1.11987 0.5469,0.10418 2.18764,0.88548 2.96895,1.82304 0,0 0.33856,0.70317 1.09382,0.70317 0.75525,0 2.60434,1.01569 2.60434,1.01569 0,0 3.85441,2.89082 5.00033,2.96895 1.1459,0.0781 1.0938,-0.26044 1.64073,-0.0521 0.5469,0.20835 2.57829,1.87513 2.99498,2.1616 0.41669,0.28649 2.76059,1.64074 3.48981,1.66678 0.72922,0.026 0.67712,-0.33857 1.04174,0 0.3646,0.33857 0.98964,1.01569 1.19799,1.45844 0.20836,0.44273 1.58865,3.04707 1.90118,3.33354 0.31251,0.28648 2.34389,2.36995 2.78663,2.65643 0.44273,0.28648 3.5419,2.3439 4.19298,2.65642 0.65108,0.31253 2.39599,1.11988 2.83873,1.58865 0.44273,0.46878 2.31786,2.10951 2.83871,2.47412 0.52088,0.36461 2.13557,1.69282 2.55227,2.03138 0.41668,0.33857 2.65643,1.797 3.22938,2.05744 0.57294,0.26043 0.83338,0.57295 1.19798,2.00533 0.36461,1.43239 1.64074,1.74491 2.13557,2.05743 0.49482,0.31253 1.90116,1.17196 2.3439,2.63038 v 0 c 0,0 1.04694,-0.16667 1.66677,0.0156 0.61984,0.18231 1.42198,1.0209 2.18764,1.16675 0.76569,0.14584 1.75012,-0.25523 2.47933,-0.14585 0.72922,0.10939 2.44286,1.6772 3.75545,1.82304 1.31259,0.14584 3.68254,0.51045 4.66698,0.58337 0.98444,0.0729 4.30236,0 4.77635,-0.14585 0.47399,-0.14584 1.60427,-0.29168 1.96888,-0.21876 0.36461,0.0729 2.18765,1.27613 2.80747,1.45843 0.61984,0.1823 1.96889,0.14584 2.47933,0.0365 0.51046,-0.10938 1.38552,-0.43753 1.71366,-0.1823 0.32815,0.25523 1.02091,0.91151 1.31259,1.02089 0.29167,0.10939 3.28147,1.3126 4.04713,1.34905 0.76569,0.0365 3.5367,-1.67719 4.15653,-1.93242 0.61984,-0.25522 2.2241,-0.43752 3.53669,0.0365 1.31258,0.47399 2.62518,1.38551 2.88039,1.56782 0.25524,0.18231 3.53669,1.34904 4.48467,1.31258 0.94798,-0.0365 2.18765,0.10938 2.98979,0.40108 0.80213,0.29169 3.35437,0.76566 5.10449,0.76566 1.75011,0 4.19298,0.76569 5.06804,0.76569 0.87506,0 5.72433,-0.76569 7.03691,-1.09383 1.31259,-0.32815 7.83907,-1.27612 7.83907,-1.27612 v 0 6.55814 H -5.0252 Z"
       id="path826"
       inkscape:connector-curvature="0"
       sodipodi:nodetypes="ccsccsccssssccscccsccssscccccscsccscccccscccscccsccccccsscccsccscsccscccccccsssccccc"
       inkscape:export-xdpi="95.999969"
       inkscape:export-ydpi="95.999969" />
    <path
       style="fill:#e4564a;fill-opacity:1;stroke:none;stroke-width:0.0365588px;stroke-linecap:butt;stroke-linejoin:miter;stroke-opacity:1"
       d="m 238.70479,174.81781 -4.2799,-6.72088 h 8.55982 z"
       id="path842"
       inkscape:connector-curvature="0"
       sodipodi:nodetypes="cccc"
       inkscape:export-xdpi="95.999969"
       inkscape:export-ydpi="95.999969" />
    <path
       style="fill:#e4564a;fill-opacity:1;stroke:none;stroke-width:0.0365588px;stroke-linecap:butt;stroke-linejoin:miter;stroke-opacity:1"
       d="m 205.7443,170.18623 -4.27991,-6.72087 h 8.55983 z"
       id="path846"
       inkscape:connector-curvature="0"
       sodipodi:nodetypes="cccc"
       inkscape:export-xdpi="95.999969"
       inkscape:export-ydpi="95.999969" />
    <path
       sodipodi:nodetypes="cccc"
       inkscape:connector-curvature="0"
       id="path848"
       d="m 173.0755,157.90004 -4.27991,-6.72087 h 8.55983 z"
       style="fill:#e4564a;fill-opacity:1;stroke:none;stroke-width:0.0365588px;stroke-linecap:butt;stroke-linejoin:miter;stroke-opacity:1"
       inkscape:export-xdpi="95.999969"
       inkscape:export-ydpi="95.999969" />
    <path
       sodipodi:nodetypes="cccc"
       inkscape:connector-curvature="0"
       id="path852"
       d="m 151.72483,140.80633 -4.27992,-6.72088 h 8.55982 z"
       style="fill:#e4564a;fill-opacity:1;stroke:none;stroke-width:0.0365588px;stroke-linecap:butt;stroke-linejoin:miter;stroke-opacity:1"
       inkscape:export-xdpi="95.999969"
       inkscape:export-ydpi="95.999969" />
    <path
       style="fill:#e4564a;fill-opacity:1;stroke:none;stroke-width:0.0365588px;stroke-linecap:butt;stroke-linejoin:miter;stroke-opacity:1"
       d="m 118.76434,121.26338 -4.27992,-6.72087 h 8.55984 z"
       id="path854"
       inkscape:connector-curvature="0"
       sodipodi:nodetypes="cccc"
       inkscape:export-xdpi="95.999969"
       inkscape:export-ydpi="95.999969" />
    <path
       sodipodi:nodetypes="cccc"
       inkscape:connector-curvature="0"
       id="path856"
       d="m 105.93016,128.67635 -4.2799,-6.72088 h 8.55982 z"
       style="fill:#e4564a;fill-opacity:1;stroke:none;stroke-width:0.0365588px;stroke-linecap:butt;stroke-linejoin:miter;stroke-opacity:1"
       inkscape:export-xdpi="95.999969"
       inkscape:export-ydpi="95.999969" />
    <path
       sodipodi:nodetypes="cccc"
       inkscape:connector-curvature="0"
       id="path860"
       d="m 82.59531,137.2707 -4.27992,-6.72087 h 8.55983 z"
       style="fill:#e4564a;fill-opacity:1;stroke:none;stroke-width:0.0365588px;stroke-linecap:butt;stroke-linejoin:miter;stroke-opacity:1"
       inkscape:export-xdpi="95.999969"
       inkscape:export-ydpi="95.999969" />
    <path
       style="fill:#e4564a;fill-opacity:1;stroke:none;stroke-width:0.0365588px;stroke-linecap:butt;stroke-linejoin:miter;stroke-opacity:1"
       d="m 52.55168,142.52105 -4.27992,-6.72088 h 8.55983 z"
       id="path862"
       inkscape:connector-curvature="0"
       sodipodi:nodetypes="cccc"
       inkscape:export-xdpi="95.999969"
       inkscape:export-ydpi="95.999969" />
    <path
       style="fill:#e4564a;fill-opacity:1;stroke:none;stroke-width:0.0365588px;stroke-linecap:butt;stroke-linejoin:miter;stroke-opacity:1"
       d="m 30.96693,156.64278 -4.27991,-6.72087 h 8.55982 z"
       id="path866"
       inkscape:connector-curvature="0"
       sodipodi:nodetypes="cccc"
       inkscape:export-xdpi="95.999969"
       inkscape:export-ydpi="95.999969" />
    <path
       sodipodi:nodetypes="cccc"
       inkscape:connector-curvature="0"
       id="path868"
       d="m 7.0487,167.38511 -4.27991,-6.72087 h 8.55982 z"
       style="fill:#e4564a;fill-opacity:1;stroke:none;stroke-width:0.0365588px;stroke-linecap:butt;stroke-linejoin:miter;stroke-opacity:1"
       inkscape:export-xdpi="95.999969"
       inkscape:export-ydpi="95.999969" />
    <circle
       style="vector-effect:none;fill:#61afef;fill-opacity:1;stroke:none;stroke-width:0.493058;stroke-linecap:butt;stroke-linejoin:miter;stroke-miterlimit:4;stroke-dasharray:none;stroke-dashoffset:0;stroke-opacity:1;paint-order:fill markers stroke"
       id="path870"
       cx="247.40677"
       cy="80.516762"
       r="2.4793284"
       inkscape:export-xdpi="95.999969"
       inkscape:export-ydpi="95.999969" />
    <circle
       cy="80.516762"
       cx="230.31723"
       id="circle872"
       style="vector-effect:none;fill:#61afef;fill-opacity:1;stroke:none;stroke-width:0.493058;stroke-linecap:butt;stroke-linejoin:miter;stroke-miterlimit:4;stroke-dasharray:none;stroke-dashoffset:0;stroke-opacity:1;paint-order:fill markers stroke"
       r="2.4793284"
       inkscape:export-xdpi="95.999969"
       inkscape:export-ydpi="95.999969" />
    <circle
       style="vector-effect:none;fill:#61afef;fill-opacity:1;stroke:none;stroke-width:0.493058;stroke-linecap:butt;stroke-linejoin:miter;stroke-miterlimit:4;stroke-dasharray:none;stroke-dashoffset:0;stroke-opacity:1;paint-order:fill markers stroke"
       id="circle874"
       cx="213.22768"
       cy="80.516762"
       r="2.4793284"
       inkscape:export-xdpi="95.999969"
       inkscape:export-ydpi="95.999969" />
    <circle
       cy="80.516762"
       cx="196.13814"
       id="circle876"
       style="vector-effect:none;fill:#61afef;fill-opacity:1;stroke:none;stroke-width:0.493058;stroke-linecap:butt;stroke-linejoin:miter;stroke-miterlimit:4;stroke-dasharray:none;stroke-dashoffset:0;stroke-opacity:1;paint-order:fill markers stroke"
       r="2.4793284"
       inkscape:export-xdpi="95.999969"
       inkscape:export-ydpi="95.999969" />
    <circle
       style="vector-effect:none;fill:#61afef;fill-opacity:1;stroke:none;stroke-width:0.493058;stroke-linecap:butt;stroke-linejoin:miter;stroke-miterlimit:4;stroke-dasharray:none;stroke-dashoffset:0;stroke-opacity:1;paint-order:fill markers stroke"
       id="circle878"
       cx="179.04861"
       cy="76.185432"
       r="2.4793284"
       inkscape:export-xdpi="95.999969"
       inkscape:export-ydpi="95.999969" />
    <circle
       cy="80.723"
       cx="161.95908"
       id="circle880"
       style="vector-effect:none;fill:#61afef;fill-opacity:1;stroke:none;stroke-width:0.493058;stroke-linecap:butt;stroke-linejoin:miter;stroke-miterlimit:4;stroke-dasharray:none;stroke-dashoffset:0;stroke-opacity:1;paint-order:fill markers stroke"
       r="2.4793284"
       inkscape:export-xdpi="95.999969"
       inkscape:export-ydpi="95.999969" />
    <circle
       style="vector-effect:none;fill:#61afef;fill-opacity:1;stroke:none;stroke-width:0.493058;stroke-linecap:butt;stroke-linejoin:miter;stroke-miterlimit:4;stroke-dasharray:none;stroke-dashoffset:0;stroke-opacity:1;paint-order:fill markers stroke"
       id="circle886"
       cx="144.86955"
       cy="82.579277"
       r="2.4793284"
       inkscape:export-xdpi="95.999969"
       inkscape:export-ydpi="95.999969" />
    <circle
       cy="82.579277"
       cx="127.77998"
       id="circle888"
       style="vector-effect:none;fill:#61afef;fill-opacity:1;stroke:none;stroke-width:0.493058;stroke-linecap:butt;stroke-linejoin:miter;stroke-miterlimit:4;stroke-dasharray:none;stroke-dashoffset:0;stroke-opacity:1;paint-order:fill markers stroke"
       r="2.4793284"
       inkscape:export-xdpi="95.999969"
       inkscape:export-ydpi="95.999969" />
    <circle
       cy="78.454216"
       cx="110.69048"
       id="circle896"
       style="vector-effect:none;fill:#61afef;fill-opacity:1;stroke:none;stroke-width:0.493058;stroke-linecap:butt;stroke-linejoin:miter;stroke-miterlimit:4;stroke-dasharray:none;stroke-dashoffset:0;stroke-opacity:1;paint-order:fill markers stroke"
       r="2.4793284"
       inkscape:export-xdpi="95.999969"
       inkscape:export-ydpi="95.999969" />
    <circle
       style="vector-effect:none;fill:#61afef;fill-opacity:1;stroke:none;stroke-width:0.493058;stroke-linecap:butt;stroke-linejoin:miter;stroke-miterlimit:4;stroke-dasharray:none;stroke-dashoffset:0;stroke-opacity:1;paint-order:fill markers stroke"
       id="circle898"
       cx="93.600922"
       cy="82.579277"
       r="2.4793284"
       inkscape:export-xdpi="95.999969"
       inkscape:export-ydpi="95.999969" />
    <circle
       cy="78.454216"
       cx="76.511353"
       id="circle900"
       style="vector-effect:none;fill:#61afef;fill-opacity:1;stroke:none;stroke-width:0.493058;stroke-linecap:butt;stroke-linejoin:miter;stroke-miterlimit:4;stroke-dasharray:none;stroke-dashoffset:0;stroke-opacity:1;paint-order:fill markers stroke"
       r="2.4793284"
       inkscape:export-xdpi="95.999969"
       inkscape:export-ydpi="95.999969" />
    <circle
       style="vector-effect:none;fill:#61afef;fill-opacity:1;stroke:none;stroke-width:0.493058;stroke-linecap:butt;stroke-linejoin:miter;stroke-miterlimit:4;stroke-dasharray:none;stroke-dashoffset:0;stroke-opacity:1;paint-order:fill markers stroke"
       id="circle902"
       cx="59.421844"
       cy="76.391701"
       r="2.4793284"
       inkscape:export-xdpi="95.999969"
       inkscape:export-ydpi="95.999969" />
    <circle
       cy="72.26664"
       cx="42.332275"
       id="circle904"
       style="vector-effect:none;fill:#61afef;fill-opacity:1;stroke:none;stroke-width:0.493058;stroke-linecap:butt;stroke-linejoin:miter;stroke-miterlimit:4;stroke-dasharray:none;stroke-dashoffset:0;stroke-opacity:1;paint-order:fill markers stroke"
       r="2.4793284"
       inkscape:export-xdpi="95.999969"
       inkscape:export-ydpi="95.999969" />
    <circle
       style="vector-effect:none;fill:#61afef;fill-opacity:1;stroke:none;stroke-width:0.493058;stroke-linecap:butt;stroke-linejoin:miter;stroke-miterlimit:4;stroke-dasharray:none;stroke-dashoffset:0;stroke-opacity:1;paint-order:fill markers stroke"
       id="circle906"
       cx="25.242737"
       cy="82.78553"
       r="2.4793284"
       inkscape:export-xdpi="95.999969"
       inkscape:export-ydpi="95.999969" />
    <g
       transform="matrix(0.01001242,0,0,-0.01001242,-4.97176,87.96932)"
       id="g4"
       style="fill:#61afef;fill-opacity:1;stroke:none"
       inkscape:export-xdpi="95.999969"
       inkscape:export-ydpi="95.999969">
      <path
         style="fill:#61afef;fill-opacity:1;stroke:none"
         inkscape:connector-curvature="0"
         d="m 924,642 q 0,-13 8.5,-22.5 8.5,-9.5 24.5,-9.5 13,0 26,6.5 13,6.5 23.5,17.5 10.5,11 17,25 6.5,14 6.5,30 0,38 -39,38 -14,0 -26,-8 -12,-8 -21,-20.5 Q 935,686 929.5,671 924,656 924,642 Z m -30,62 q 0,20 -14.5,28.5 -14.5,8.5 -30.5,8.5 -24,0 -47,-29 -22,-28 -22,-53 0,-40 45,-40 28,0 48,33 10,17 15.5,30 5.5,13 5.5,22 z m 1379,115 q 0,-34 -44,-66 76,-129 76,-179 0,-48 -46,-48 -33,0 -86,36.5 Q 2120,599 2058,664 1969,626 1866,593.5 1763,561 1643,533 1801,78 1801,-95 q 0,-178 -137,-178 -128,0 -298,197 -171,198 -325,527 L 870,445 Q 710,440 579,459.5 448,479 355,516 q -93,37 -143,87 -50,50 -47,106 2,36 23.5,71 21.5,35 59.5,65 20,15 44,28.5 24,13.5 52,27.5 55,27 65,27 14,-97 111,-180 99,-84 141,-84 18,0 48,32 30,30 30,46 0,14 -8.5,24 -8.5,10 -32.5,24 -35,20 -65,46 -30,26 -53,57.5 -23,31.5 -38,67.5 -15,36 -19,75 124,77 295,77 -9,54 -13,106 -4,52 -4,105 0,96 15.5,172.5 15.5,76.5 47.5,134.5 63,117 168,117 47,0 101,-44 54,-44 111,-132 57,-88 116.5,-220 59.5,-132 117.5,-309 144,-26 277.5,-52.5 Q 1889,964 2014,937 q 11,12 31,31.5 20,19.5 50,47.5 60,55 105.5,77.5 45.5,22.5 83.5,22.5 52,0 52,-44 0,-26 -23.5,-75.5 Q 2289,947 2243,872 q 30,-27 30,-53 z"
         id="path2" />
    </g>
  </g>
</svg>
