<?xml version="1.0" encoding="UTF-8" standalone="no"?>
<!-- Created with Inkscape (http://www.inkscape.org/) -->

<svg
   width="115.55373mm"
   height="59.558849mm"
   viewBox="0 0 115.55373 59.558849"
   version="1.1"
   id="svg1205"
   inkscape:version="1.1.1 (3bf5ae0d25, 2021-09-20, custom)"
   sodipodi:docname="tesseroid-computation-point.svg"
   xmlns:inkscape="http://www.inkscape.org/namespaces/inkscape"
   xmlns:sodipodi="http://sodipodi.sourceforge.net/DTD/sodipodi-0.dtd"
   xmlns:xlink="http://www.w3.org/1999/xlink"
   xmlns="http://www.w3.org/2000/svg"
   xmlns:svg="http://www.w3.org/2000/svg">
  <sodipodi:namedview
     id="namedview1207"
     pagecolor="#ffffff"
     bordercolor="#666666"
     borderopacity="1.0"
     inkscape:pageshadow="2"
     inkscape:pageopacity="0.0"
     inkscape:pagecheckerboard="0"
     inkscape:document-units="mm"
     showgrid="false"
     inkscape:zoom="2.736408"
     inkscape:cx="-7.6742942"
     inkscape:cy="172.30618"
     inkscape:window-width="1920"
     inkscape:window-height="1055"
     inkscape:window-x="0"
     inkscape:window-y="25"
     inkscape:window-maximized="1"
     inkscape:current-layer="layer1" />
  <defs
     id="defs1202">
    <rect
       x="-103.24063"
       y="-39.336273"
       width="114.85317"
       height="51.328217"
       id="rect2738" />
    <g
       id="g4763">
      <symbol
         overflow="visible"
         id="symbol785">
        <path
           style="stroke:none;"
           d=""
           id="path7682" />
      </symbol>
      <symbol
         overflow="visible"
         id="symbol8842">
        <path
           style="stroke:none;"
           d="M 2.578125 -6.8125 C 2.578125 -6.8125 2.578125 -6.921875 2.4375 -6.921875 C 2.21875 -6.921875 1.484375 -6.84375 1.21875 -6.8125 C 1.140625 -6.8125 1.03125 -6.796875 1.03125 -6.609375 C 1.03125 -6.5 1.140625 -6.5 1.28125 -6.5 C 1.765625 -6.5 1.78125 -6.40625 1.78125 -6.328125 L 1.75 -6.125 L 0.484375 -1.140625 C 0.453125 -1.03125 0.4375 -0.96875 0.4375 -0.8125 C 0.4375 -0.234375 0.875 0.109375 1.34375 0.109375 C 1.671875 0.109375 1.921875 -0.09375 2.09375 -0.453125 C 2.265625 -0.828125 2.390625 -1.40625 2.390625 -1.421875 C 2.390625 -1.53125 2.296875 -1.53125 2.265625 -1.53125 C 2.171875 -1.53125 2.15625 -1.484375 2.140625 -1.34375 C 1.96875 -0.703125 1.78125 -0.109375 1.375 -0.109375 C 1.078125 -0.109375 1.078125 -0.421875 1.078125 -0.5625 C 1.078125 -0.8125 1.09375 -0.859375 1.140625 -1.046875 Z M 2.578125 -6.8125 "
           id="path4836" />
      </symbol>
    </g>
  </defs>
  <g
     inkscape:label="Layer 1"
     inkscape:groupmode="layer"
     id="layer1"
     transform="translate(-0.485567,-72.5023)">
    <g
       id="g1300">
      <g
         id="g1140"
         transform="translate(-54.736572,-34.920002)">
        <path
           sodipodi:nodetypes="ccccccc"
           inkscape:connector-curvature="0"
           id="path4567"
           d="m 164.16235,110.30775 6.09359,14.09999 c -6.86922,9.52051 -14.14793,38.32764 -14.94358,42.02722 -5.78158,0.30431 -38.17934,-2.21789 -43.02305,-3.49487 L 95.484247,152.08383 c 4.857273,1.44866 44.439813,4.34598 51.299643,4.13294 l 8.51341,10.21065"
           style="fill:none;stroke:#000000;stroke-width:1.03988;stroke-linecap:butt;stroke-linejoin:round;stroke-miterlimit:4;stroke-dasharray:none;stroke-opacity:1" />
        <path
           sodipodi:nodetypes="cccc"
           inkscape:connector-curvature="0"
           id="path4569"
           d="m 146.7839,156.21677 c 1.81447,-9.81292 11.32535,-36.78461 17.37845,-45.90902 -5.62421,0.0852 -25.81478,-1.25768 -29.30861,-2.36547 -17.89523,11.50407 -32.97835,31.61489 -39.369493,44.14155"
           style="fill:none;stroke:#000000;stroke-width:1.03988;stroke-linecap:butt;stroke-linejoin:round;stroke-miterlimit:4;stroke-dasharray:none;stroke-opacity:1" />
      </g>
      <path
         style="fill:none;stroke:#50a14f;stroke-width:0.5;stroke-linecap:butt;stroke-linejoin:miter;stroke-miterlimit:4;stroke-dasharray:1.5, 1.5;stroke-dashoffset:0;stroke-opacity:1"
         d="m 10.040142,86.102988 69.304876,10.05563"
         id="path10558"
         sodipodi:nodetypes="cc" />
      <circle
         style="fill:#000000;stroke:#000000;stroke-width:0.0499999;stroke-linejoin:round"
         id="path10443"
         cx="10.073959"
         cy="86.136803"
         r="2.4750001" />
    </g>
    <g
       aria-label="Punto de
cómputo"
       transform="matrix(0.26458333,0,0,0.26458333,23.044867,100.88589)"
       id="text2736"
       style="font-size:18px;line-height:1.05;white-space:pre;shape-inside:url(#rect2738)">
      <path
         d="m -77.826497,-36.766157 c 0.63,-0.162 1.152,-0.216 1.764,-0.216 1.962,0 2.988,0.9 2.988,2.61 0,1.62 -1.098,2.754 -2.664,2.754 -0.396,0 -0.666,-0.036 -1.116,-0.18 l 0.18,0.648 c 0.432,0.09 0.684,0.108 1.044,0.108 2.466,0 4.356,-1.674 4.356,-3.834 0,-1.728 -1.404,-2.79 -3.69,-2.79 -0.108,0 -0.27,0 -0.504,0.018 -0.9,0.018 -1.998,0.036 -2.556,0.036 -0.558,0 -1.494,-0.018 -3.276,-0.054 v 0.54 l 0.81,0.054 c 0.828,0.072 0.936,0.252 0.954,1.62 v 8.082 c -0.018,1.44 -0.09,1.584 -0.918,1.62 l -0.864,0.054 v 0.54 c 1.062,-0.036 1.692,-0.054 2.628,-0.054 0.936,0 1.584,0.018 2.646,0.054 v -0.54 l -0.864,-0.054 c -0.828,-0.036 -0.9,-0.162 -0.918,-1.62 z"
         style="font-family:palatino;-inkscape-font-specification:palatino;text-align:center;text-anchor:middle"
         id="path38594" />
      <path
         d="m -61.788495,-33.580157 -0.162,-0.072 c -0.882,0.378 -1.872,0.63 -2.808,0.738 v 0.504 h 0.666 c 0.738,0.018 0.774,0.09 0.792,1.314 v 2.934 c 0,0.396 -0.252,0.9 -0.666,1.314 -0.504,0.504 -1.08,0.756 -1.782,0.756 -0.63,0 -1.134,-0.198 -1.422,-0.54 -0.252,-0.288 -0.378,-0.846 -0.378,-1.638 v -5.31 l -0.162,-0.072 c -0.882,0.378 -1.872,0.63 -2.808,0.738 v 0.504 h 0.666 c 0.738,0.018 0.774,0.09 0.792,1.314 v 3.024 c 0,1.26 0.108,1.818 0.432,2.268 0.396,0.54 1.08,0.81 2.106,0.81 0.828,0 1.512,-0.252 2.016,-0.702 l 1.206,-1.116 c 0,0.54 -0.018,0.864 -0.072,1.656 0.918,-0.036 1.206,-0.054 1.494,-0.054 0.27,0 0.594,0.018 1.494,0.054 v -0.54 l -0.738,-0.054 c -0.63,-0.054 -0.666,-0.126 -0.666,-1.296 z"
         style="font-family:palatino;-inkscape-font-specification:palatino;text-align:center;text-anchor:middle"
         id="path38596" />
      <path
         d="m -52.608483,-25.156157 c 0.828,-0.036 1.116,-0.054 1.422,-0.054 0.27,0 0.594,0.018 1.494,0.054 v -0.54 l -0.738,-0.054 c -0.63,-0.054 -0.648,-0.126 -0.666,-1.296 v -3.474 c 0,-2.106 -0.99,-3.132 -3.006,-3.132 -0.666,0 -1.044,0.108 -1.422,0.45 l -1.368,1.188 v -1.566 l -0.162,-0.072 c -0.882,0.378 -1.872,0.63 -2.808,0.738 v 0.504 h 0.666 c 0.738,0.018 0.774,0.09 0.792,1.314 v 4.05 c 0,1.17 -0.054,1.242 -0.666,1.296 l -0.81,0.054 v 0.54 c 1.152,-0.036 1.656,-0.054 2.232,-0.054 0.576,0 1.08,0.018 2.232,0.054 v -0.54 l -0.81,-0.054 c -0.63,-0.054 -0.666,-0.126 -0.666,-1.296 v -3.816 c 0,-0.81 1.188,-1.692 2.286,-1.692 1.206,0 1.998,0.9 1.998,2.286 z"
         style="font-family:palatino;-inkscape-font-specification:palatino;text-align:center;text-anchor:middle"
         id="path38598" />
      <path
         d="m -47.74847,-32.086157 v 5.184 c 0,1.332 0.594,1.908 1.98,1.908 0.414,0 0.846,-0.09 0.954,-0.216 l 0.864,-0.954 -0.234,-0.306 c -0.468,0.27 -0.702,0.342 -1.062,0.342 -0.702,0 -0.99,-0.36 -0.99,-1.242 v -4.716 h 2.304 l 0.162,-0.972 -2.466,0.108 v -0.684 c 0,-0.738 0.054,-1.512 0.198,-2.556 l -0.216,-0.198 c -0.45,0.27 -0.972,0.504 -1.53,0.684 0.054,0.504 0.072,0.864 0.072,1.422 v 1.26 l -1.404,0.63 v 0.378 z"
         style="font-family:palatino;-inkscape-font-specification:palatino;text-align:center;text-anchor:middle"
         id="path38600" />
      <path
         d="m -38.838451,-33.652157 c -2.628,0 -4.446,1.854 -4.446,4.536 0,2.538 1.584,4.266 3.924,4.266 2.772,0 4.752,-1.926 4.752,-4.626 0,-2.448 -1.764,-4.176 -4.23,-4.176 z m -0.324,0.594 c 1.674,0 2.88,1.8 2.88,4.248 0,2.088 -0.9,3.366 -2.376,3.366 -1.764,0 -2.952,-1.728 -2.952,-4.284 0,-2.16 0.864,-3.33 2.448,-3.33 z"
         style="font-family:palatino;-inkscape-font-specification:palatino;text-align:center;text-anchor:middle"
         id="path38602" />
      <path
         d="m -22.116459,-33.076157 c -1.008,-0.45 -1.512,-0.576 -2.142,-0.576 -0.486,0 -0.918,0.108 -1.368,0.342 l -1.584,0.828 c -1.044,0.54 -1.692,1.854 -1.692,3.384 0,1.44 0.486,2.628 1.35,3.348 0.63,0.522 1.476,0.756 2.646,0.756 0.378,0 0.774,-0.072 0.864,-0.144 l 1.998,-1.674 -0.09,1.656 c 0.81,-0.036 1.134,-0.054 1.386,-0.054 0.144,0 0.414,0 0.774,0.018 0.126,0.018 0.468,0.018 0.864,0.036 v -0.54 l -0.828,-0.054 c -0.63,-0.072 -0.648,-0.108 -0.666,-1.296 v -11.088 l -0.162,-0.144 c -0.792,0.306 -1.386,0.45 -2.808,0.666 v 0.504 h 1.008 c 0.324,0 0.45,0.198 0.45,0.738 z m 0,3.888 c 0,1.17 -0.036,1.35 -0.27,1.764 -0.504,0.846 -1.386,1.404 -2.232,1.404 -1.584,0 -2.718,-1.53 -2.718,-3.69 0,-1.944 0.972,-3.096 2.592,-3.096 0.684,0 1.404,0.234 2.034,0.666 0.36,0.252 0.594,0.486 0.594,0.63 z"
         style="font-family:palatino;-inkscape-font-specification:palatino;text-align:center;text-anchor:middle"
         id="path38604" />
      <path
         d="m -10.668458,-26.470157 -0.234,-0.18 c -1.134,0.684 -1.566,0.846 -2.34,0.846 -1.17,0 -2.142,-0.522 -2.646,-1.404 -0.342,-0.576 -0.468,-1.098 -0.504,-2.142 h 2.628 c 1.296,0 2.124,-0.072 3.258,-0.252 0.018,-0.252 0.036,-0.414 0.036,-0.63 0,-2.07 -1.332,-3.42 -3.366,-3.42 -0.648,0 -1.422,0.234 -2.16,0.666 -1.476,0.864 -2.07,1.962 -2.07,3.852 0,1.116 0.27,2.088 0.756,2.772 0.72,0.954 1.908,1.512 3.276,1.512 0.684,0 1.332,-0.144 2.07,-0.468 0.468,-0.198 0.864,-0.432 0.936,-0.54 z m -1.404,-3.546 c -0.918,0.036 -1.35,0.054 -2.016,0.054 -0.846,0 -1.296,-0.018 -2.268,-0.108 0,-0.846 0.072,-1.242 0.306,-1.728 0.378,-0.774 1.134,-1.26 1.998,-1.26 0.612,0 1.08,0.234 1.404,0.72 0.396,0.594 0.522,1.116 0.576,2.322 z"
         style="font-family:palatino;-inkscape-font-specification:palatino;text-align:center;text-anchor:middle"
         id="path38606" />
      <path
         d="m -73.758475,-11.300377 c 0,-0.828 0.09,-1.566 0.252,-2.214 -0.72,-0.432 -1.35,-0.63 -2.088,-0.63 -0.882,0 -1.872,0.342 -2.952,1.026 -1.26,0.792 -1.926,2.034 -1.926,3.6360004 0,2.43 1.692,4.14 4.122,4.14 0.936,0 2.286,-0.342 2.466,-0.612 l 0.378,-0.576 -0.18,-0.27 c -0.684,0.36 -1.242,0.522 -1.89,0.522 -1.998,0 -3.312,-1.548 -3.312,-3.9240004 0,-1.926 0.9,-3.006 2.52,-3.006 0.81,0 1.656,0.342 1.98,0.81 l 0.126,1.098 z"
         style="font-family:palatino;-inkscape-font-specification:palatino;text-align:center;text-anchor:middle"
         id="path38608" />
      <path
         d="m -68.16048,-14.144377 c -2.628,0 -4.446,1.854 -4.446,4.5360004 0,2.538 1.584,4.266 3.924,4.266 2.772,0 4.752,-1.926 4.752,-4.626 0,-2.4480004 -1.764,-4.1760004 -4.23,-4.1760004 z m -0.324,0.594 c 1.674,0 2.88,1.8 2.88,4.2480004 0,2.088 -0.9,3.366 -2.376,3.366 -1.764,0 -2.952,-1.728 -2.952,-4.2840004 0,-2.16 0.864,-3.33 2.448,-3.33 z m -1.476,-1.26 h 0.72 l 2.592,-1.62 c 0.594,-0.378 0.72,-0.522 0.72,-0.846 0,-0.342 -0.252,-0.612 -0.558,-0.612 -0.252,0 -0.594,0.198 -0.99,0.594 z"
         style="font-family:palatino;-inkscape-font-specification:palatino;text-align:center;text-anchor:middle"
         id="path38610" />
      <path
         d="m -63.066488,-6.1883766 v 0.54 c 1.26,-0.036 1.764,-0.054 2.286,-0.054 0.558,0 1.044,0.018 2.142,0.054 v -0.54 l -0.756,-0.054 c -0.63,-0.054 -0.666,-0.126 -0.666,-1.296 v -3.8160004 c 0,-0.81 1.188,-1.692 2.268,-1.692 0.972,0 1.638,0.918 1.638,2.286 v 3.2220004 c 0,1.17 -0.054,1.242 -0.666,1.296 l -0.828,0.054 v 0.54 c 1.26,-0.036 1.782,-0.054 2.25,-0.054 0.468,0 0.972,0.018 2.25,0.054 v -0.54 l -0.828,-0.054 c -0.63,-0.072 -0.648,-0.108 -0.666,-1.296 v -3.8160004 c 0,-0.81 1.188,-1.692 2.268,-1.692 0.972,0 1.638,0.918 1.638,2.286 v 5.1120004 c 0.81,-0.036 1.116,-0.054 1.422,-0.054 0.27,0 0.612,0.018 1.602,0.054 v -0.54 l -0.846,-0.054 c -0.63,-0.072 -0.648,-0.108 -0.666,-1.296 v -3.7080004 c 0,-1.782 -1.044,-2.898 -2.7,-2.898 -0.648,0 -1.152,0.144 -1.476,0.45 l -1.368,1.224 c -0.576,-1.206 -1.296,-1.674 -2.556,-1.674 -0.666,0 -1.17,0.144 -1.494,0.45 l -1.242,1.152 v -1.53 l -0.162,-0.072 c -0.882,0.378 -1.872,0.63 -2.808,0.738 v 0.504 h 0.666 c 0.738,0.018 0.774,0.09 0.792,1.314 v 4.0500004 c -0.018,1.17 -0.036,1.242 -0.666,1.296 z"
         style="font-family:palatino;-inkscape-font-specification:palatino;text-align:center;text-anchor:middle"
         id="path38612" />
      <path
         d="m -47.694497,-1.1843766 v 0.54 c 1.242,-0.036 1.764,-0.054 2.25,-0.054 0.486,0 1.008,0.018 2.25,0.054 v -0.54 l -0.828,-0.054 c -0.63,-0.072 -0.648,-0.108 -0.666,-1.296 v -3.402 c 0.558,0.324 1.116,0.45 1.926,0.45 0.54,0 0.99,-0.108 1.278,-0.288 l 2.052,-1.332 c 0.72,-0.468 1.566,-2.322 1.566,-3.4740004 0,-1.998 -1.656,-3.564 -3.744,-3.564 -0.666,0 -1.314,0.18 -1.602,0.45 l -1.476,1.35 v -1.728 l -0.162,-0.072 c -0.882,0.378 -1.872,0.63 -2.808,0.738 v 0.504 h 0.666 c 0.738,0.018 0.774,0.09 0.792,1.314 v 9.0540004 c -0.018,1.188 -0.036,1.224 -0.666,1.296 z m 3.006,-10.0260004 c 0,-0.252 0.09,-0.45 0.324,-0.756 0.522,-0.666 1.278,-1.008 2.16,-1.008 1.692,0 2.772,1.188 2.772,3.0600004 0,2.016 -1.206,3.51 -2.826,3.51 -0.99,0 -1.728,-0.324 -2.43,-1.062 z"
         style="font-family:palatino;-inkscape-font-specification:palatino;text-align:center;text-anchor:middle"
         id="path38614" />
      <path
         d="m -27.9665,-14.072377 -0.162,-0.072 c -0.882,0.378 -1.872,0.63 -2.808,0.738 v 0.504 h 0.666 c 0.738,0.018 0.774,0.09 0.792,1.314 v 2.9340004 c 0,0.396 -0.252,0.9 -0.666,1.314 -0.504,0.504 -1.08,0.756 -1.782,0.756 -0.63,0 -1.134,-0.198 -1.422,-0.54 -0.252,-0.288 -0.378,-0.846 -0.378,-1.638 v -5.3100004 l -0.162,-0.072 c -0.882,0.378 -1.872,0.63 -2.808,0.738 v 0.504 h 0.666 c 0.738,0.018 0.774,0.09 0.792,1.314 v 3.0240004 c 0,1.26 0.108,1.818 0.432,2.268 0.396,0.54 1.08,0.81 2.106,0.81 0.828,0 1.512,-0.252 2.016,-0.702 l 1.206,-1.116 c 0,0.54 -0.018,0.864 -0.072,1.656 0.918,-0.036 1.206,-0.054 1.494,-0.054 0.27,0 0.594,0.018 1.494,0.054 v -0.54 l -0.738,-0.054 c -0.63,-0.054 -0.666,-0.126 -0.666,-1.296 z"
         style="font-family:palatino;-inkscape-font-specification:palatino;text-align:center;text-anchor:middle"
         id="path38616" />
      <path
         d="m -24.402489,-12.578377 v 5.1840004 c 0,1.332 0.594,1.908 1.98,1.908 0.414,0 0.846,-0.09 0.954,-0.216 l 0.864,-0.954 -0.234,-0.306 c -0.468,0.27 -0.702,0.342 -1.062,0.342 -0.702,0 -0.99,-0.36 -0.99,-1.242 v -4.7160004 h 2.304 l 0.162,-0.972 -2.466,0.108 v -0.684 c 0,-0.738 0.054,-1.512 0.198,-2.556 l -0.216,-0.198 c -0.45,0.27 -0.972,0.504 -1.53,0.684 0.054,0.504 0.072,0.864 0.072,1.422 v 1.26 l -1.404,0.63 v 0.378 z"
         style="font-family:palatino;-inkscape-font-specification:palatino;text-align:center;text-anchor:middle"
         id="path38618" />
      <path
         d="m -15.492469,-14.144377 c -2.628,0 -4.446,1.854 -4.446,4.5360004 0,2.538 1.584,4.266 3.924,4.266 2.772,0 4.752,-1.926 4.752,-4.626 0,-2.4480004 -1.764,-4.1760004 -4.23,-4.1760004 z m -0.324,0.594 c 1.674,0 2.88,1.8 2.88,4.2480004 0,2.088 -0.9,3.366 -2.376,3.366 -1.764,0 -2.952,-1.728 -2.952,-4.2840004 0,-2.16 0.864,-3.33 2.448,-3.33 z"
         style="font-family:palatino;-inkscape-font-specification:palatino;text-align:center;text-anchor:middle"
         id="path38620" />
    </g>
    <g
       inkscape:label=""
       transform="matrix(0.80428572,0,0,0.80428572,-33.382153,22.924801)"
       id="g28922"
       style="fill:#50a14f;fill-opacity:1;stroke-width:1.24334">
      <g
         id="g794"
         style="fill:#50a14f;fill-opacity:1;stroke-width:1.24334">
        <g
           style="fill:#50a14f;fill-opacity:1;stroke-width:1.24334"
           id="g6198">
          <use
             xlink:href="#symbol8842"
             x="91.925003"
             y="81.962997"
             id="use5284"
             width="100%"
             height="100%"
             style="fill:#50a14f;fill-opacity:1;stroke-width:1.24334" />
        </g>
      </g>
    </g>
  </g>
</svg>
