<?xml version="1.0" encoding="UTF-8" standalone="no"?>
<!-- Created with Inkscape (http://www.inkscape.org/) -->

<svg
   width="703.86719"
   height="672.48328"
   id="svg3290"
   version="1.1"
   inkscape:version="1.1.1 (3bf5ae0d25, 2021-09-20, custom)"
   sodipodi:docname="open-source.svg"
   inkscape:export-filename="/home/rafael/workspace/logo-osi/5/png/logo396x412.png"
   inkscape:export-xdpi="52.737835"
   inkscape:export-ydpi="52.737835"
   xmlns:inkscape="http://www.inkscape.org/namespaces/inkscape"
   xmlns:sodipodi="http://sodipodi.sourceforge.net/DTD/sodipodi-0.dtd"
   xmlns="http://www.w3.org/2000/svg"
   xmlns:svg="http://www.w3.org/2000/svg"
   xmlns:rdf="http://www.w3.org/1999/02/22-rdf-syntax-ns#"
   xmlns:cc="http://creativecommons.org/ns#"
   xmlns:dc="http://purl.org/dc/elements/1.1/">
  <defs
     id="defs3292">
    <rect
       x="33.666512"
       y="750.25311"
       width="747.54041"
       height="200.74863"
       id="rect5048" />
  </defs>
  <sodipodi:namedview
     id="base"
     pagecolor="#ffffff"
     bordercolor="#666666"
     borderopacity="1.0"
     inkscape:pageopacity="0.0"
     inkscape:pageshadow="2"
     inkscape:zoom="0.7"
     inkscape:cx="227.14286"
     inkscape:cy="413.57143"
     inkscape:document-units="px"
     inkscape:current-layer="g3879"
     showgrid="false"
     inkscape:window-width="1920"
     inkscape:window-height="1027"
     inkscape:window-x="0"
     inkscape:window-y="25"
     inkscape:window-maximized="1"
     showguides="true"
     inkscape:guide-bbox="true"
     inkscape:pagecheckerboard="0">
    <sodipodi:guide
       orientation="1,0"
       position="340.46233,-56.481996"
       id="guide3004" />
  </sodipodi:namedview>
  <metadata
     id="metadata3295">
    <rdf:RDF>
      <cc:Work
         rdf:about="">
        <dc:format>image/svg+xml</dc:format>
        <dc:type
           rdf:resource="http://purl.org/dc/dcmitype/StillImage" />
      </cc:Work>
    </rdf:RDF>
  </metadata>
  <g
     inkscape:label="Layer 1"
     inkscape:groupmode="layer"
     id="layer1"
     transform="translate(-49.45656,-108.23442)">
    <g
       style="display:inline"
       id="g3879"
       transform="matrix(3.1607572,0,0,3.1607572,1289.8039,2829.9529)"
       inkscape:export-filename="/home/paulormm/usp/softwarelivre/OSI/OSI_member_card_model_final-300dpi.png"
       inkscape:export-xdpi="300.05554"
       inkscape:export-ydpi="300.05554">
      <path
         inkscape:export-ydpi="48.18"
         inkscape:export-xdpi="48.18"
         inkscape:export-filename="/home/rafael/workspace/logo-osi/3/png/logo396x412.png"
         id="path3773"
         d="m -287.05192,-768.95371 m 11.01179,28.68474 a 30.724865,30.724865 0 1 0 -22.02358,0 l -20.69627,53.92828 a 88.487611,88.487611 0 1 1 63.41612,0 z"
         inkscape:connector-curvature="0"
         style="text-anchor:middle;fill:#3fa652;stroke:#21552a;stroke-width:7.37397;stroke-linejoin:round" />
      <g
         id="g3797"
         transform="translate(-21.225811,-1.0146812)"
         inkscape:export-filename="/home/rafael/workspace/logo-osi/3/png/logo396x412.png"
         inkscape:export-xdpi="48.18"
         inkscape:export-ydpi="48.18">
        <ellipse
           transform="matrix(0.33912491,0,0,0.33852655,-402.53969,-908.3754)"
           id="path3015"
           style="fill:none;stroke:#000000;stroke-width:6.66514;stroke-miterlimit:4;stroke-dasharray:none;stroke-opacity:1"
           cx="645.71429"
           cy="646.64789"
           rx="23.571428"
           ry="23.571411" />
        <text
           id="text3793"
           y="-685.33014"
           x="-188.29698"
           style="font-style:normal;font-variant:normal;font-weight:bold;font-stretch:normal;line-height:0%;font-family:OpenSymbol;-inkscape-font-specification:'OpenSymbol Bold';letter-spacing:0px;word-spacing:0px;fill:#000000;fill-opacity:1;stroke:none"
           xml:space="preserve"><tspan
             y="-685.33014"
             x="-188.29698"
             id="tspan3795"
             sodipodi:role="line"
             style="font-size:12.6552px;line-height:1.25">R</tspan></text>
      </g>
      <g
         aria-label="open-source code"
         transform="matrix(0.31637989,0,0,0.31637989,-404.46872,-913.36057)"
         id="text5046"
         style="font-size:80px;line-height:1.25;white-space:pre;shape-inside:url(#rect5048)">
        <path
           d="m 58.158203,782.32422 q -5.78125,0 -9.140625,4.53125 -3.359375,4.49219 -3.359375,12.34375 0,7.85156 3.320313,12.38281 3.359375,4.49219 9.179687,4.49219 5.742188,0 9.101563,-4.53125 3.359375,-4.53125 3.359375,-12.34375 0,-7.77344 -3.359375,-12.30469 -3.359375,-4.57031 -9.101563,-4.57031 z m 0,-6.09375 q 9.375,0 14.726563,6.09375 5.351562,6.09375 5.351562,16.875 0,10.74219 -5.351562,16.875 -5.351563,6.09375 -14.726563,6.09375 -9.414062,0 -14.765625,-6.09375 -5.3125,-6.13281 -5.3125,-16.875 0,-10.78125 5.3125,-16.875 5.351563,-6.09375 14.765625,-6.09375 z"
           style="text-align:justify"
           id="path13698" />
        <path
           d="m 97.103516,814.47266 v 23.20312 h -7.226563 v -60.39062 h 7.226563 v 6.64062 q 2.265625,-3.90625 5.703124,-5.78125 3.47656,-1.91406 8.28125,-1.91406 7.96875,0 12.92969,6.32812 5,6.32813 5,16.64063 0,10.3125 -5,16.64062 -4.96094,6.32813 -12.92969,6.32813 -4.80469,0 -8.28125,-1.875 -3.437499,-1.91406 -5.703124,-5.82031 z m 24.453124,-15.27344 q 0,-7.92969 -3.28125,-12.42188 -3.24219,-4.53125 -8.94531,-4.53125 -5.70313,0 -8.98438,4.53125 -3.242184,4.49219 -3.242184,12.42188 0,7.92969 3.242184,12.46094 3.28125,4.49218 8.98438,4.49218 5.70312,0 8.94531,-4.49218 3.28125,-4.53125 3.28125,-12.46094 z"
           style="text-align:justify"
           id="path13700" />
        <path
           d="m 178.35352,797.36328 v 3.51563 h -33.04688 q 0.46875,7.42187 4.45313,11.32812 4.02343,3.86719 11.17187,3.86719 4.14063,0 8.00781,-1.01563 3.90625,-1.01562 7.73438,-3.04687 v 6.79687 q -3.86719,1.64063 -7.92969,2.5 -4.0625,0.85938 -8.24219,0.85938 -10.46875,0 -16.60156,-6.09375 -6.09375,-6.09375 -6.09375,-16.48438 0,-10.74218 5.78125,-17.03125 5.82031,-6.32812 15.66406,-6.32812 8.82813,0 13.94532,5.70312 5.15625,5.66407 5.15625,15.42969 z m -7.1875,-2.10937 q -0.0781,-5.89844 -3.32032,-9.41407 -3.20312,-3.51562 -8.51562,-3.51562 -6.01563,0 -9.64844,3.39844 -3.59375,3.39843 -4.14062,9.57031 z"
           style="text-align:justify"
           id="path13702" />
        <path
           d="m 226.51758,794.62891 v 26.40625 h -7.1875 v -26.17188 q 0,-6.21094 -2.42188,-9.29687 -2.42187,-3.08594 -7.26562,-3.08594 -5.82031,0 -9.17969,3.71094 -3.35937,3.71093 -3.35937,10.11718 v 24.72657 h -7.22657 v -43.75 h 7.22657 v 6.79687 q 2.57812,-3.94531 6.05468,-5.89844 3.51563,-1.95312 8.08594,-1.95312 7.53906,0 11.40625,4.6875 3.86719,4.64844 3.86719,13.71094 z"
           style="text-align:justify"
           id="path13704" />
        <path
           d="m 237.2207,795.91797 h 21.05469 v 6.40625 H 237.2207 Z"
           style="text-align:justify"
           id="path13706" />
        <path
           d="m 297.61133,778.57422 v 6.79687 q -3.04688,-1.5625 -6.32813,-2.34375 -3.28125,-0.78125 -6.79687,-0.78125 -5.35156,0 -8.04688,1.64063 -2.65625,1.64062 -2.65625,4.92187 0,2.5 1.91407,3.94532 1.91406,1.40625 7.69531,2.69531 l 2.46094,0.54687 q 7.65625,1.64063 10.85937,4.64844 3.24219,2.96875 3.24219,8.32031 0,6.09375 -4.84375,9.64844 -4.80469,3.55469 -13.24219,3.55469 -3.51562,0 -7.34375,-0.70313 -3.78906,-0.66406 -8.00781,-2.03125 v -7.42187 q 3.98437,2.07031 7.85156,3.125 3.86719,1.01562 7.65625,1.01562 5.07813,0 7.8125,-1.71875 2.73438,-1.75781 2.73438,-4.92187 0,-2.92969 -1.99219,-4.49219 -1.95313,-1.5625 -8.63281,-3.00781 l -2.5,-0.58594 q -6.67969,-1.40625 -9.64844,-4.29687 -2.96875,-2.92969 -2.96875,-8.00782 0,-6.17187 4.375,-9.53125 4.375,-3.35937 12.42187,-3.35937 3.98438,0 7.5,0.58594 3.51563,0.58593 6.48438,1.75781 z"
           style="text-align:justify"
           id="path13708" />
        <path
           d="m 328.35352,782.32422 q -5.78125,0 -9.14063,4.53125 -3.35937,4.49219 -3.35937,12.34375 0,7.85156 3.32031,12.38281 3.35937,4.49219 9.17969,4.49219 5.74218,0 9.10156,-4.53125 3.35937,-4.53125 3.35937,-12.34375 0,-7.77344 -3.35937,-12.30469 -3.35938,-4.57031 -9.10156,-4.57031 z m 0,-6.09375 q 9.375,0 14.72656,6.09375 5.35156,6.09375 5.35156,16.875 0,10.74219 -5.35156,16.875 -5.35156,6.09375 -14.72656,6.09375 -9.41407,0 -14.76563,-6.09375 -5.3125,-6.13281 -5.3125,-16.875 0,-10.78125 5.3125,-16.875 5.35156,-6.09375 14.76563,-6.09375 z"
           style="text-align:justify"
           id="path13710" />
        <path
           d="m 359.60352,803.76953 v -26.48437 h 7.1875 v 26.21093 q 0,6.21094 2.42187,9.33594 2.42188,3.08594 7.26563,3.08594 5.82031,0 9.17968,-3.71094 3.39844,-3.71094 3.39844,-10.11719 v -24.80468 h 7.1875 v 43.75 h -7.1875 v -6.71875 q -2.61719,3.98437 -6.09375,5.9375 -3.4375,1.91406 -8.00781,1.91406 -7.53906,0 -11.44531,-4.6875 -3.90625,-4.6875 -3.90625,-13.71094 z m 18.08593,-27.53906 z"
           style="text-align:justify"
           id="path13712" />
        <path
           d="m 436.40039,784.00391 q -1.21094,-0.70313 -2.65625,-1.01563 -1.40625,-0.35156 -3.125,-0.35156 -6.09375,0 -9.375,3.98437 -3.24219,3.94532 -3.24219,11.36719 v 23.04688 h -7.22656 v -43.75 h 7.22656 v 6.79687 q 2.26563,-3.98437 5.89844,-5.89844 3.63281,-1.95312 8.82813,-1.95312 0.74218,0 1.64062,0.11719 0.89844,0.0781 1.99219,0.27343 z"
           style="text-align:justify"
           id="path13714" />
        <path
           d="m 473.66602,778.96484 v 6.71875 q -3.04688,-1.67968 -6.13282,-2.5 -3.04687,-0.85937 -6.17187,-0.85937 -6.99219,0 -10.85938,4.45312 -3.86718,4.41407 -3.86718,12.42188 0,8.00781 3.86718,12.46094 3.86719,4.41406 10.85938,4.41406 3.125,0 6.17187,-0.82031 3.08594,-0.85938 6.13282,-2.53907 v 6.64063 q -3.00782,1.40625 -6.25,2.10937 -3.20313,0.70313 -6.83594,0.70313 -9.88281,0 -15.70313,-6.21094 -5.82031,-6.21094 -5.82031,-16.75781 0,-10.70313 5.85938,-16.83594 5.89843,-6.13281 16.13281,-6.13281 3.32031,0 6.48437,0.70312 3.16407,0.66407 6.13282,2.03125 z"
           style="text-align:justify"
           id="path13716" />
        <path
           d="m 523.58789,797.36328 v 3.51563 h -33.04687 q 0.46875,7.42187 4.45312,11.32812 4.02344,3.86719 11.17188,3.86719 4.14062,0 8.00781,-1.01563 3.90625,-1.01562 7.73437,-3.04687 v 6.79687 q -3.86718,1.64063 -7.92968,2.5 -4.0625,0.85938 -8.24219,0.85938 -10.46875,0 -16.60156,-6.09375 -6.09375,-6.09375 -6.09375,-16.48438 0,-10.74218 5.78125,-17.03125 5.82031,-6.32812 15.66406,-6.32812 8.82812,0 13.94531,5.70312 5.15625,5.66407 5.15625,15.42969 z m -7.1875,-2.10937 q -0.0781,-5.89844 -3.32031,-9.41407 -3.20313,-3.51562 -8.51563,-3.51562 -6.01562,0 -9.64843,3.39844 -3.59375,3.39843 -4.14063,9.57031 z"
           style="text-align:justify"
           id="path13718" />
        <path
           d="m 592.29883,778.96484 v 6.71875 q -3.04688,-1.67968 -6.13281,-2.5 -3.04688,-0.85937 -6.17188,-0.85937 -6.99219,0 -10.85937,4.45312 -3.86719,4.41407 -3.86719,12.42188 0,8.00781 3.86719,12.46094 3.86718,4.41406 10.85937,4.41406 3.125,0 6.17188,-0.82031 3.08593,-0.85938 6.13281,-2.53907 v 6.64063 q -3.00781,1.40625 -6.25,2.10937 -3.20313,0.70313 -6.83594,0.70313 -9.88281,0 -15.70312,-6.21094 -5.82032,-6.21094 -5.82032,-16.75781 0,-10.70313 5.85938,-16.83594 5.89844,-6.13281 16.13281,-6.13281 3.32031,0 6.48438,0.70312 3.16406,0.66407 6.13281,2.03125 z"
           style="text-align:justify"
           id="path13720" />
        <path
           d="m 621.75195,782.32422 q -5.78125,0 -9.14062,4.53125 -3.35938,4.49219 -3.35938,12.34375 0,7.85156 3.32032,12.38281 3.35937,4.49219 9.17968,4.49219 5.74219,0 9.10157,-4.53125 3.35937,-4.53125 3.35937,-12.34375 0,-7.77344 -3.35937,-12.30469 -3.35938,-4.57031 -9.10157,-4.57031 z m 0,-6.09375 q 9.375,0 14.72657,6.09375 5.35156,6.09375 5.35156,16.875 0,10.74219 -5.35156,16.875 -5.35157,6.09375 -14.72657,6.09375 -9.41406,0 -14.76562,-6.09375 -5.3125,-6.13281 -5.3125,-16.875 0,-10.78125 5.3125,-16.875 5.35156,-6.09375 14.76562,-6.09375 z"
           style="text-align:justify"
           id="path13722" />
        <path
           d="m 682.5332,783.92578 v -23.67187 h 7.1875 v 60.78125 h -7.1875 v -6.5625 q -2.26562,3.90625 -5.74218,5.82031 -3.4375,1.875 -8.28125,1.875 -7.92969,0 -12.92969,-6.32813 -4.96094,-6.32812 -4.96094,-16.64062 0,-10.3125 4.96094,-16.64063 5,-6.32812 12.92969,-6.32812 4.84375,0 8.28125,1.91406 3.47656,1.875 5.74218,5.78125 z m -24.49218,15.27344 q 0,7.92969 3.24218,12.46094 3.28125,4.49218 8.98438,4.49218 5.70312,0 8.98437,-4.49218 3.28125,-4.53125 3.28125,-12.46094 0,-7.92969 -3.28125,-12.42188 -3.28125,-4.53125 -8.98437,-4.53125 -5.70313,0 -8.98438,4.53125 -3.24218,4.49219 -3.24218,12.42188 z"
           style="text-align:justify"
           id="path13724" />
        <path
           d="m 741.94727,797.36328 v 3.51563 h -33.04688 q 0.46875,7.42187 4.45313,11.32812 4.02343,3.86719 11.17187,3.86719 4.14063,0 8.00781,-1.01563 3.90625,-1.01562 7.73438,-3.04687 v 6.79687 q -3.86719,1.64063 -7.92969,2.5 -4.0625,0.85938 -8.24219,0.85938 -10.46875,0 -16.60156,-6.09375 -6.09375,-6.09375 -6.09375,-16.48438 0,-10.74218 5.78125,-17.03125 5.82031,-6.32812 15.66406,-6.32812 8.82813,0 13.94532,5.70312 5.15625,5.66407 5.15625,15.42969 z m -7.1875,-2.10937 q -0.0781,-5.89844 -3.32032,-9.41407 -3.20312,-3.51562 -8.51562,-3.51562 -6.01563,0 -9.64844,3.39844 -3.59375,3.39843 -4.14062,9.57031 z"
           style="text-align:justify"
           id="path13726" />
      </g>
    </g>
  </g>
</svg>
