<?xml version="1.0" encoding="UTF-8" standalone="no"?>
<svg
   inkscape:version="1.1.1 (3bf5ae0d25, 2021-09-20, custom)"
   sodipodi:docname="conicet.svg"
   xml:space="preserve"
   enable-background="new 0 0 980 696"
   viewBox="0 0 976.01599 526.79974"
   height="526.79974"
   width="976.01599"
   y="0px"
   x="0px"
   id="Capa_1"
   version="1.1"
   xmlns:inkscape="http://www.inkscape.org/namespaces/inkscape"
   xmlns:sodipodi="http://sodipodi.sourceforge.net/DTD/sodipodi-0.dtd"
   xmlns:xlink="http://www.w3.org/1999/xlink"
   xmlns="http://www.w3.org/2000/svg"
   xmlns:svg="http://www.w3.org/2000/svg"
   xmlns:rdf="http://www.w3.org/1999/02/22-rdf-syntax-ns#"
   xmlns:cc="http://creativecommons.org/ns#"
   xmlns:dc="http://purl.org/dc/elements/1.1/"><metadata
   id="metadata39"><rdf:RDF><cc:Work
       rdf:about=""><dc:format>image/svg+xml</dc:format><dc:type
         rdf:resource="http://purl.org/dc/dcmitype/StillImage" /></cc:Work></rdf:RDF></metadata><defs
   id="defs37">
	<defs
   id="defs3">
		<rect
   id="SVGID_1_"
   x="3.984"
   y="3.0220001"
   width="976.01599"
   height="692.97803" />
	</defs>
	<clipPath
   id="SVGID_2_">
		<use
   height="100%"
   width="100%"
   y="0"
   x="0"
   style="overflow:visible"
   xlink:href="#SVGID_1_"
   overflow="visible"
   id="use5" />
	</clipPath>
	
	
	
	
	
	
</defs><sodipodi:namedview
   inkscape:document-rotation="0"
   inkscape:current-layer="Capa_1"
   inkscape:window-maximized="1"
   inkscape:window-y="25"
   inkscape:window-x="0"
   inkscape:cy="491.10363"
   inkscape:cx="-255.4573"
   inkscape:zoom="0.47953219"
   fit-margin-bottom="0"
   fit-margin-right="0"
   fit-margin-left="0"
   fit-margin-top="0"
   showgrid="false"
   id="namedview35"
   inkscape:window-height="1055"
   inkscape:window-width="1920"
   inkscape:pageshadow="2"
   inkscape:pageopacity="0"
   guidetolerance="10"
   gridtolerance="10"
   objecttolerance="10"
   borderopacity="1"
   bordercolor="#666666"
   pagecolor="#ffffff"
   inkscape:pagecheckerboard="0" />






<g
   style="fill:#222222;fill-opacity:1"
   id="g874"><path
     style="fill:#222222;fill-opacity:1"
     inkscape:connector-curvature="0"
     id="path8"
     d="m 931.027,108.552 v -2.965 h -1.245 c -2.81,0 -5.129,-0.207 -6.947,-0.625 -1.819,-0.414 -3.229,-1.172 -4.216,-2.263 -0.99,-1.09 -1.663,-2.547 -2.025,-4.37 -0.37,-1.819 -0.551,-4.082 -0.551,-6.792 v -79.77 h 8.43 c 4.999,0 8.926,0.34 11.783,1.017 2.865,0.677 5.025,1.741 6.481,3.198 0.836,0.832 1.534,1.668 2.112,2.5 0.568,0.832 1.111,1.819 1.633,2.965 0.521,1.146 0.987,2.551 1.409,4.215 0.414,1.668 0.88,3.698 1.405,6.089 h 3.745 l -0.935,-26.54 h -88.045 l -0.936,26.54 h 3.745 c 1.142,-4.995 2.185,-8.589 3.12,-10.774 0.935,-2.185 2.133,-3.9 3.59,-5.15 1.768,-1.457 4.008,-2.496 6.715,-3.125 2.707,-0.621 6.499,-0.935 11.396,-0.935 h 8.43 v 78.05 2.655 c 0,2.603 -0.186,4.659 -0.548,6.167 -0.366,1.513 -1.038,2.707 -2.029,3.59 -0.991,0.888 -2.336,1.56 -4.056,2.03 -1.72,0.47 -3.978,0.862 -6.792,1.168 l -1.25,0.159 v 2.965 h 45.581 z M 816.141,82.172 h -4.369 c -0.836,1.771 -1.564,3.254 -2.189,4.448 -0.621,1.198 -1.198,2.211 -1.716,3.047 -0.525,0.832 -1.043,1.586 -1.56,2.263 -0.526,0.676 -1.095,1.375 -1.716,2.103 -1.775,2.086 -3.904,3.75 -6.404,5 -1.456,0.728 -2.913,1.327 -4.37,1.792 -1.461,0.47 -3.072,0.836 -4.844,1.09 -1.768,0.268 -3.818,0.448 -6.164,0.547 -2.335,0.108 -5.067,0.16 -8.196,0.16 -6.552,0 -11.214,-0.104 -13.973,-0.314 -2.759,-0.207 -4.499,-0.672 -5.224,-1.405 -0.525,-0.517 -0.836,-1.013 -0.939,-1.482 -0.103,-0.469 -0.155,-1.586 -0.155,-3.357 V 57.352 l 24.04,0.311 c 3.125,0 5.697,0.186 7.728,0.547 2.03,0.366 3.668,1.013 4.917,1.948 1.25,0.939 2.207,2.292 2.889,4.06 0.676,1.771 1.172,4.116 1.482,7.025 l 0.154,1.25 h 3.595 V 36.277 h -3.595 l -0.154,1.25 c -0.311,2.806 -0.807,5.098 -1.482,6.866 -0.682,1.771 -1.664,3.15 -2.966,4.137 -1.306,0.991 -2.965,1.668 -4.995,2.03 -2.029,0.366 -4.555,0.547 -7.572,0.547 h -24.04 v -34.66 c 0,-2.181 0.336,-3.611 1.018,-4.288 0.672,-0.677 2.051,-1.013 4.133,-1.013 h 21.075 c 4.267,0 7.753,0.181 10.459,0.543 2.707,0.366 4.922,1.095 6.638,2.185 1.716,1.09 3.043,2.603 3.982,4.525 0.931,1.931 1.715,4.452 2.336,7.572 l 0.314,1.564 h 3.9 L 807.712,5.21 h -82.895 v 2.969 l 1.095,0.151 c 2.599,0.314 4.706,0.729 6.322,1.25 1.612,0.521 2.884,1.275 3.823,2.263 0.939,0.991 1.561,2.318 1.875,3.982 0.314,1.663 0.469,3.801 0.469,6.4 v 69.31 c 0,2.711 -0.181,4.866 -0.551,6.478 -0.362,1.616 -1.014,2.918 -1.948,3.9 -0.936,0.996 -2.211,1.75 -3.827,2.267 -1.611,0.521 -3.668,0.939 -6.163,1.246 l -1.095,0.159 v 2.965 h 84.295 z M 673.461,38.147 672.056,3.022 h -3.279 c -1.349,3.439 -3.694,5.159 -7.021,5.159 -0.526,0 -1.146,-0.107 -1.879,-0.314 -0.725,-0.207 -1.664,-0.47 -2.802,-0.78 l -4.064,-1.095 c -3.017,-0.832 -6.167,-1.535 -9.442,-2.108 -3.28,-0.569 -6.426,-0.862 -9.447,-0.862 -7.805,0 -14.959,1.357 -21.463,4.064 -6.508,2.702 -12.098,6.452 -16.782,11.24 -4.681,4.788 -8.327,10.533 -10.926,17.244 -2.603,6.714 -3.904,14.028 -3.904,21.937 0,8.012 1.245,15.3 3.745,21.855 2.5,6.555 6.012,12.153 10.542,16.782 4.525,4.629 9.99,8.223 16.386,10.766 6.404,2.552 13.507,3.827 21.308,3.827 11.137,0 21.179,-2.857 30.134,-8.585 1.35,-0.939 2.552,-1.767 3.59,-2.496 1.039,-0.728 2.026,-1.508 2.966,-2.344 0.935,-0.832 1.845,-1.741 2.732,-2.732 0.884,-0.987 1.896,-2.211 3.038,-3.668 l -2.806,-2.81 c -1.461,1.357 -2.711,2.525 -3.745,3.512 -1.043,0.991 -2.029,1.849 -2.965,2.573 -0.939,0.733 -1.879,1.41 -2.811,2.03 -0.939,0.629 -2.034,1.25 -3.283,1.875 -7.077,3.849 -14.465,5.78 -22.166,5.78 -5.93,0 -11.287,-1.069 -16.08,-3.207 -4.783,-2.129 -8.844,-5.228 -12.171,-9.284 -3.335,-4.06 -5.878,-9.003 -7.649,-14.834 -1.771,-5.823 -2.65,-12.382 -2.65,-19.666 0,-8.119 0.879,-15.088 2.65,-20.915 1.771,-5.831 4.529,-10.822 8.274,-14.99 3.327,-3.745 7.228,-6.633 11.71,-8.663 4.469,-2.03 9.258,-3.047 14.36,-3.047 5.409,0 10.399,1.125 14.98,3.361 4.581,2.236 8.435,5.435 11.555,9.598 0.832,1.146 1.564,2.211 2.186,3.198 0.625,0.996 1.193,2.086 1.715,3.28 0.521,1.198 1.043,2.551 1.561,4.06 0.525,1.508 1.095,3.306 1.72,5.383 h 3.588 z m -188.104,70.405 h 46.362 v -2.965 h -1.249 c -2.914,0 -5.284,-0.207 -7.104,-0.625 -1.818,-0.414 -3.249,-1.172 -4.292,-2.263 -1.043,-1.091 -1.741,-2.547 -2.104,-4.37 -0.37,-1.819 -0.552,-4.082 -0.552,-6.792 v -69.31 c 0,-2.707 0.182,-4.969 0.552,-6.792 0.362,-1.818 1.061,-3.275 2.104,-4.37 1.043,-1.095 2.474,-1.845 4.292,-2.263 1.819,-0.414 4.189,-0.621 7.104,-0.621 h 1.249 V 5.212 h -46.362 v 2.969 h 1.25 c 2.911,0 5.277,0.207 7.1,0.621 1.823,0.418 3.25,1.146 4.293,2.186 1.039,1.038 1.716,2.474 2.034,4.292 0.311,1.823 0.466,4.138 0.466,6.948 v 69.31 c 0,2.81 -0.186,5.129 -0.548,6.947 -0.366,1.823 -1.043,3.25 -2.029,4.293 -0.991,1.043 -2.393,1.771 -4.216,2.185 -1.822,0.418 -4.188,0.625 -7.1,0.625 h -1.25 z M 438.062,5.212 h -36.688 v 2.969 l 1.407,0.151 c 2.806,0.314 5.071,0.811 6.788,1.482 1.715,0.681 3.097,1.746 4.14,3.203 1.037,1.461 1.739,3.409 2.105,5.857 0.366,2.443 0.547,5.538 0.547,9.283 v 52.14 h -0.315 L 356.262,5.212 h -26.695 v 2.969 c 1.77,0 2.991,0.052 3.67,0.151 0.677,0.108 1.427,0.263 2.261,0.47 1.25,0.418 2.523,1.168 3.827,2.263 1.301,1.095 2.831,2.681 4.607,4.763 l 0.776,0.935 v 68.845 c 0,3.853 -0.181,6.969 -0.543,9.361 -0.366,2.4 -1.067,4.323 -2.11,5.779 -1.041,1.461 -2.444,2.526 -4.213,3.198 -1.771,0.681 -4.062,1.176 -6.868,1.482 l -1.407,0.159 v 2.965 h 36.688 v -2.965 c -3.228,-0.207 -5.65,-0.573 -7.26,-1.094 -1.616,-0.521 -2.888,-1.349 -3.827,-2.496 -1.25,-1.457 -2.157,-3.461 -2.732,-6.012 -0.573,-2.547 -0.855,-6.012 -0.855,-10.378 V 24.722 h 0.308 l 68.687,85.55 h 2.653 V 28.157 c 0,-8.219 1.095,-13.524 3.279,-15.92 1.041,-1.146 2.265,-2 3.668,-2.573 1.407,-0.578 3.566,-1.018 6.478,-1.332 l 1.409,-0.151 V 5.212 Z M 250.036,106.759 c 6.191,-2.655 11.522,-6.374 16.002,-11.162 4.469,-4.789 7.956,-10.486 10.453,-17.093 2.498,-6.611 3.748,-13.817 3.748,-21.623 0,-7.805 -1.25,-15.011 -3.748,-21.618 -2.498,-6.611 -6.006,-12.309 -10.533,-17.097 -4.529,-4.784 -9.912,-8.503 -16.157,-11.162 -6.245,-2.65 -13.113,-3.982 -20.605,-3.982 -7.495,0 -14.36,1.332 -20.605,3.982 -6.245,2.659 -11.63,6.378 -16.157,11.162 -4.528,4.788 -8.04,10.46 -10.54,17.015 -2.498,6.56 -3.746,13.792 -3.746,21.7 0,8.017 1.248,15.326 3.746,21.933 2.5,6.611 6.033,12.279 10.615,17.016 4.582,4.736 10.018,8.404 16.315,11.007 6.294,2.599 13.293,3.9 20.995,3.9 7.285,0 14.023,-1.327 20.217,-3.978 m -34.658,-4.999 c -4.109,-2.237 -7.596,-5.409 -10.46,-9.521 -2.86,-4.112 -5.07,-9.081 -6.633,-14.908 -1.562,-5.827 -2.34,-12.386 -2.34,-19.67 0,-5.935 0.569,-11.757 1.718,-17.48 1.142,-5.728 2.704,-10.563 4.683,-14.52 1.457,-2.914 3.486,-5.672 6.085,-8.271 5.829,-5.832 12.751,-8.745 20.765,-8.745 5.097,0 9.678,1.117 13.738,3.354 4.056,2.241 7.542,5.443 10.456,9.606 2.914,4.159 5.154,9.18 6.712,15.059 1.563,5.878 2.345,12.464 2.345,19.751 0,7.594 -0.756,14.386 -2.265,20.373 -1.51,5.982 -3.693,11.081 -6.557,15.295 -2.862,4.215 -6.346,7.439 -10.456,9.676 -4.114,2.241 -8.771,3.361 -13.973,3.361 -5.103,0.002 -9.706,-1.119 -13.818,-3.36 M 123.357,38.147 121.952,3.022 h -3.278 c -1.355,3.439 -3.693,5.159 -7.027,5.159 -0.52,0 -1.146,-0.107 -1.871,-0.314 -0.732,-0.207 -1.668,-0.47 -2.812,-0.78 l -4.06,-1.095 C 99.885,5.16 96.739,4.457 93.462,3.884 90.182,3.315 87.036,3.022 84.017,3.022 c -7.803,0 -14.961,1.357 -21.463,4.064 -6.503,2.702 -12.1,6.452 -16.782,11.24 -4.682,4.788 -8.328,10.534 -10.927,17.244 -2.603,6.714 -3.9,14.028 -3.9,21.937 0,8.012 1.248,15.3 3.746,21.855 2.5,6.555 6.012,12.153 10.535,16.782 4.527,4.629 9.992,8.223 16.39,10.766 6.404,2.552 13.505,3.827 21.312,3.827 11.134,0 21.174,-2.857 30.125,-8.585 1.354,-0.939 2.549,-1.767 3.592,-2.496 1.037,-0.728 2.03,-1.508 2.965,-2.344 0.935,-0.832 1.845,-1.741 2.732,-2.732 0.881,-0.987 1.896,-2.211 3.045,-3.668 l -2.813,-2.81 c -1.457,1.357 -2.704,2.525 -3.747,3.512 -1.041,0.991 -2.03,1.849 -2.965,2.573 -0.935,0.733 -1.871,1.41 -2.81,2.03 -0.938,0.629 -2.025,1.25 -3.275,1.875 -7.079,3.849 -14.466,5.78 -22.167,5.78 -5.932,0 -11.294,-1.069 -16.078,-3.207 -4.788,-2.129 -8.848,-5.228 -12.175,-9.284 -3.333,-4.06 -5.883,-9.003 -7.654,-14.834 -1.769,-5.823 -2.65,-12.382 -2.65,-19.666 0,-8.119 0.881,-15.088 2.65,-20.915 1.771,-5.831 4.53,-10.822 8.275,-14.99 3.329,-3.745 7.234,-6.633 11.71,-8.663 4.474,-2.03 9.257,-3.047 14.36,-3.047 5.411,0 10.406,1.125 14.987,3.361 4.577,2.237 8.43,5.435 11.55,9.598 0.834,1.146 1.563,2.211 2.188,3.198 0.623,0.996 1.191,2.086 1.717,3.28 0.517,1.198 1.037,2.551 1.558,4.06 0.521,1.508 1.095,3.306 1.718,5.383 h 3.591 z"
     clip-path="url(#SVGID_2_)"
     transform="translate(-3.984,-3.0220001)" /><path
     style="fill:#222222;fill-opacity:1"
     inkscape:connector-curvature="0"
     id="path12"
     d="m 3.984,326.31 c 0,0 42.717,-141.392 256.377,-117.83 0,0 73.053,4.715 238.797,130.397 0,0 135.634,87.98 189.309,104.474 17.579,5.404 110.762,41.633 173.599,22.777 0,0 -15.709,72.271 -202.664,62.846 0,0 -140.604,-14.141 -248.221,-92.691 C 303.563,357.733 251.125,326.918 224.226,312.17 224.227,312.169 78.122,222.62 3.984,326.31"
     clip-path="url(#SVGID_2_)"
     transform="translate(-3.984,-3.0220001)" /><path
     style="fill:#222222;fill-opacity:1"
     inkscape:connector-curvature="0"
     id="path14"
     d="m 41.988,324.965 c 0,0 -17.282,109.188 128.827,148.46 0,0 105.256,24.354 185.382,-34.561 l 29.936,3.646 c 0,0 2.549,2.029 0.996,3.426 -41.144,36.918 -122.052,84.834 -228.096,75.409 0,0 -114.688,-3.143 -146.896,-96.015 0,0.001 -17.341,-79.941 29.851,-100.365"
     clip-path="url(#SVGID_2_)"
     transform="translate(-3.984,-3.0220001)" /><path
     sodipodi:nodetypes="ccccccc"
     style="fill:#222222;fill-opacity:1"
     inkscape:connector-curvature="0"
     id="path16"
     d="m 488.163,321.595 23.568,3.142 c 0,0 83.265,-76.978 216.8,-49.485 0,0 147.68,30.634 197.165,86.407 L 980,283.888 c 0,0 -64.518,-69.858 -222.403,-91.092 -24.04633,-2.53379 -139.034,-18.877 -269.434,128.799"
     clip-path="url(#SVGID_2_)"
     transform="translate(-3.984,-3.0220001)" /><path
     style="fill:#222222;fill-opacity:1"
     inkscape:connector-curvature="0"
     id="path18"
     d="m 650.748,416.841 c 0,0 63.281,38.004 110.392,39.443 l 120.675,-14.313 -102.923,-0.784 99.276,-52.765 -108.853,31.793 75.408,-76.038 -89.14,54.136 46.133,-86.881 -67.962,65.509 20.575,-83.464 -38.599,79.977 -5.681,-97.035 -21.109,99.147 -28.574,-93.605 4.384,88.153 c -4.59,-4.185 -62.178,-74.202 -62.178,-74.202 l 38.974,87.64 -80.235,-48.821 z"
     clip-path="url(#SVGID_2_)"
     transform="translate(-3.984,-3.0220001)" /><g
     style="fill:#222222;fill-opacity:1"
     id="g22"
     transform="translate(-3.984,-3.0220001)">
</g><g
     style="fill:#222222;fill-opacity:1"
     id="g24"
     transform="translate(-3.984,-3.0220001)">
</g><g
     style="fill:#222222;fill-opacity:1"
     id="g26"
     transform="translate(-3.984,-3.0220001)">
</g><g
     style="fill:#222222;fill-opacity:1"
     id="g28"
     transform="translate(-3.984,-3.0220001)">
</g><g
     style="fill:#222222;fill-opacity:1"
     id="g30"
     transform="translate(-3.984,-3.0220001)">
</g><g
     style="fill:#222222;fill-opacity:1"
     id="g32"
     transform="translate(-3.984,-3.0220001)">
</g></g>
</svg>
