<?xml version="1.0" encoding="UTF-8" standalone="no"?>
<svg
   sodipodi:docname="igsv.svg"
   inkscape:version="1.1.1 (3bf5ae0d25, 2021-09-20, custom)"
   id="svg961"
   version="1.1"
   viewBox="0 0 29.56741 30.187901"
   height="30.187901mm"
   width="29.56741mm"
   xmlns:inkscape="http://www.inkscape.org/namespaces/inkscape"
   xmlns:sodipodi="http://sodipodi.sourceforge.net/DTD/sodipodi-0.dtd"
   xmlns="http://www.w3.org/2000/svg"
   xmlns:svg="http://www.w3.org/2000/svg"
   xmlns:rdf="http://www.w3.org/1999/02/22-rdf-syntax-ns#"
   xmlns:cc="http://creativecommons.org/ns#"
   xmlns:dc="http://purl.org/dc/elements/1.1/">
  <defs
     id="defs955" />
  <sodipodi:namedview
     inkscape:document-rotation="0"
     inkscape:window-maximized="1"
     inkscape:window-y="25"
     inkscape:window-x="0"
     inkscape:window-height="1055"
     inkscape:window-width="1920"
     fit-margin-bottom="0"
     fit-margin-right="0"
     fit-margin-left="0"
     fit-margin-top="0"
     showgrid="false"
     inkscape:current-layer="layer1"
     inkscape:document-units="mm"
     inkscape:cy="7.8286822"
     inkscape:cx="-104.29825"
     inkscape:zoom="1.979899"
     inkscape:pageshadow="2"
     inkscape:pageopacity="0"
     borderopacity="1.0"
     bordercolor="#666666"
     pagecolor="#ffffff"
     id="base"
     inkscape:pagecheckerboard="0" />
  <metadata
     id="metadata958">
    <rdf:RDF>
      <cc:Work
         rdf:about="">
        <dc:format>image/svg+xml</dc:format>
        <dc:type
           rdf:resource="http://purl.org/dc/dcmitype/StillImage" />
      </cc:Work>
    </rdf:RDF>
  </metadata>
  <g
     transform="translate(-106.16867,-120.88819)"
     id="layer1"
     inkscape:groupmode="layer"
     inkscape:label="Capa 1">
    <path
       inkscape:connector-curvature="0"
       id="path60"
       style="fill:#222222;fill-opacity:1;fill-rule:evenodd;stroke:none;stroke-width:0.352778"
       d="m 108.28168,134.6249 c -0.47622,-0.4674 -1.34631,-0.81269 -2.0356,-0.79202 v 5.82313 l 7.73649,3.5e-4 -5.70089,-5.0315 z m 9.20478,1.18939 c 0.3925,0.34791 1.06613,0.64318 1.86591,0.65042 1.13041,0.0102 1.44791,-0.72083 2.49559,-0.72083 1.04761,0 1.6795,1.01021 3.1152,1.01032 l 4.14871,-0.006 c 2.35951,7e-5 3.5736,1.78678 3.7181,2.90759 l -13.0961,1.1e-4 c -1.60948,0 -3.2403,-0.37352 -4.4879,-1.46883 l -6.9996,-6.14517 c -0.20331,-0.1785 -0.8152,-0.75681 -2.00029,-0.78461 v -4.40009 c 0.64361,0.004 1.2464,0.0952 2.0241,0.78458 z" />
    <path
       inkscape:connector-curvature="0"
       id="path62"
       style="fill:#222222;fill-opacity:1;fill-rule:evenodd;stroke:none;stroke-width:0.352778"
       d="m 121.16428,150.49888 c 0.0711,-0.24988 0.1422,-0.51608 0.2093,-0.7946 0.0671,-0.28039 0.13,-0.5751 0.19099,-0.88399 h 0.16062 c 0.10767,0.47149 0.31697,0.83728 0.62788,1.09739 0.31101,0.2601 0.69511,0.3902 1.15231,0.3902 0.4125,0 0.7438,-0.11179 0.99169,-0.33729 0.24801,-0.22359 0.37201,-0.52229 0.37201,-0.89418 0,-0.27034 -0.0793,-0.50201 -0.23781,-0.69713 -0.1585,-0.19508 -0.5467,-0.45917 -1.16251,-0.79258 -0.94488,-0.50391 -1.55868,-0.93882 -1.84107,-1.30673 -0.28463,-0.36579 -0.4269,-0.82299 -0.4269,-1.36557 0,-0.73981 0.26218,-1.33731 0.78648,-1.79652 0.52441,-0.4573 1.2174,-0.687 2.0791,-0.687 0.37592,0 0.72541,0.0468 1.0445,0.1403 0.31909,0.0934 0.62191,0.2357 0.9084,0.43082 -0.0833,0.2378 -0.1585,0.4694 -0.2256,0.69299 -0.069,0.2256 -0.12798,0.439 -0.17878,0.64619 h -0.13212 c -0.12188,-0.36171 -0.33119,-0.64619 -0.62181,-0.85348 -0.2927,-0.2093 -0.63009,-0.31302 -1.01617,-0.31302 -0.35772,0 -0.64421,0.0976 -0.86371,0.29471 -0.21741,0.1972 -0.3272,0.4553 -0.3272,0.77629 0,0.2703 0.0813,0.50003 0.24391,0.69102 0.1626,0.19099 0.5243,0.43078 1.08317,0.7214 0.124,0.0671 0.30282,0.15659 0.5365,0.26828 0.65032,0.3211 1.06691,0.57313 1.2458,0.75601 0.21742,0.2256 0.38002,0.47349 0.48373,0.74379 0.10559,0.2703 0.1584,0.57111 0.1584,0.90431 0,0.8272 -0.27841,1.48971 -0.83323,1.99171 -0.55678,0.5019 -1.29857,0.75389 -2.22729,0.75389 -0.4898,0 -0.9125,-0.0468 -1.27018,-0.1422 -0.3556,-0.0956 -0.6604,-0.2419 -0.91041,-0.43501" />
    <path
       inkscape:connector-curvature="0"
       id="path64"
       style="fill:#222222;fill-opacity:1;fill-rule:evenodd;stroke:none;stroke-width:0.352778"
       d="m 118.11709,150.48671 c -0.61242,0.19307 -1.18823,0.33937 -1.7272,0.43497 -0.53912,0.0955 -1.05992,0.1422 -1.56051,0.1422 -1.23212,0 -2.20031,-0.3841 -2.90252,-1.15231 -0.70407,-0.76817 -1.05618,-1.81878 -1.05618,-3.152 0,-1.34528 0.38329,-2.40407 1.1497,-3.17429 0.76641,-0.77019 1.82439,-1.1544 3.17398,-1.1544 0.56282,0 1.07622,0.061 1.54393,0.185 0.4675,0.12192 0.89108,0.30882 1.2706,0.5588 -0.0935,0.27443 -0.1669,0.53051 -0.22373,0.76832 -0.055,0.2377 -0.0953,0.46527 -0.12097,0.6787 h -0.0844 c -0.23639,-0.49589 -0.55178,-0.86779 -0.94428,-1.11573 -0.39052,-0.24789 -0.85813,-0.37189 -1.39901,-0.37189 -0.83241,0 -1.47602,0.31291 -1.92892,0.94093 -0.45289,0.62596 -0.68029,1.5222 -0.68029,2.68456 0,1.15842 0.22369,2.0465 0.67112,2.66633 0.44739,0.6199 1.091,0.9288 1.92708,0.9288 0.24392,0 0.47121,-0.0224 0.6803,-0.0691 0.20902,-0.0448 0.407,-0.11589 0.59221,-0.21139 0.011,-0.18902 0.0202,-0.378 0.0257,-0.56293 0.005,-0.18288 0.007,-0.37189 0.007,-0.56088 0,-0.33739 -0.007,-0.65641 -0.022,-0.9531 -0.0146,-0.29869 -0.0348,-0.5812 -0.0641,-0.8515 0.13928,0.0162 0.2824,0.0264 0.42898,0.0345 0.14862,0.008 0.30441,0.0122 0.47311,0.0122 0.15032,0 0.2897,-0.004 0.41991,-0.0122 0.1283,-0.008 0.25298,-0.0183 0.37027,-0.0345 -0.0146,0.28251 -0.0238,0.57919 -0.0311,0.88999 -0.007,0.31101 -0.011,0.65042 -0.011,1.0142 0,0.3901 0.002,0.6828 0.005,0.88191 0.004,0.19922 0.009,0.38421 0.0165,0.55482" />
    <path
       inkscape:connector-curvature="0"
       id="path66"
       style="fill:#222222;fill-opacity:1;fill-rule:evenodd;stroke:none;stroke-width:0.352778"
       d="m 106.16868,150.91558 c 0.0427,-0.53651 0.0752,-1.11369 0.0976,-1.73348 0.0224,-0.61793 0.0325,-1.42671 0.0325,-2.42253 0,-0.96527 -0.0101,-1.77408 -0.0325,-2.42647 -0.0224,-0.65232 -0.0549,-1.23561 -0.0976,-1.7477 0.1748,0.0244 0.3496,0.0427 0.52638,0.0569 0.17681,0.0142 0.35363,0.0203 0.53241,0.0203 0.1789,0 0.35571,-0.006 0.52839,-0.0203 0.17481,-0.0142 0.34753,-0.0325 0.5182,-0.0569 -0.0467,0.52028 -0.0812,1.10758 -0.10358,1.76188 -0.0223,0.65652 -0.0325,1.45919 -0.0325,2.41229 0,1.03643 0.0102,1.86151 0.0325,2.47333 0.0224,0.61369 0.0549,1.17457 0.0975,1.68268 -0.19512,-0.0203 -0.37793,-0.0346 -0.55072,-0.0447 -0.17268,-0.0102 -0.33528,-0.0143 -0.4898,-0.0143 -0.16249,0 -0.32921,0.004 -0.50189,0.0143 -0.17269,0.0101 -0.35772,0.0244 -0.5569,0.0447" />
    <path
       inkscape:connector-curvature="0"
       id="path68"
       style="fill:#222222;fill-opacity:1;fill-rule:evenodd;stroke:none;stroke-width:0.352778"
       d="m 131.31796,150.90947 c -0.3211,-0.91249 -0.7662,-2.10139 -1.33928,-3.56658 -0.57101,-1.4653 -1.2071,-3.0504 -1.91019,-4.75749 0.1584,0.0163 0.32297,0.0264 0.4917,0.0345 0.1687,0.008 0.34957,0.0122 0.54469,0.0122 0.18898,0 0.36978,-0.004 0.53848,-0.0122 0.1687,-0.008 0.32932,-0.0182 0.48571,-0.0345 0.25812,0.74179 0.56299,1.60348 0.91859,2.58498 0.3556,0.97952 0.77633,2.12781 1.26002,3.44061 0.38809,-0.8962 0.7722,-1.84729 1.14818,-2.85119 0.37801,-1.0039 0.74991,-2.0628 1.11983,-3.1744 0.0914,0.0163 0.18288,0.0264 0.27428,0.0345 0.0894,0.008 0.18902,0.0122 0.29669,0.0122 0.11183,0 0.21551,-0.004 0.31302,-0.0122 0.0976,-0.008 0.18898,-0.0182 0.2764,-0.0345 -0.62389,1.36359 -1.21729,2.74147 -1.7823,4.12948 -0.56501,1.388 -1.10349,2.7862 -1.61149,4.19459 -0.0895,-0.0183 -0.17893,-0.0305 -0.2642,-0.0407 -0.0854,-0.008 -0.16672,-0.0122 -0.248,-0.0122 -0.0752,0 -0.15452,0.004 -0.23982,0.0143 -0.0853,0.0101 -0.17681,0.0223 -0.27231,0.0386" />
    <path
       inkscape:connector-curvature="0"
       id="path70"
       style="fill:#222222;fill-opacity:1;fill-rule:evenodd;stroke:none;stroke-width:0.352778"
       d="m 121.87389,129.7016 c -0.82261,-0.007 -1.72611,0.26917 -2.5007,1.0026 -0.81591,0.77248 -2.08502,1.36599 -3.22361,1.45178 l 2.98651,2.5163 c 1.34817,-0.27129 1.48999,-1.2167 2.72069,-1.22471 1.23059,-0.008 1.75221,1.20753 3.75641,1.22633 h 3.9266 c 2.77569,-0.0247 5.24538,2.49199 5.3177,4.982 l 0.0717,0.001 v -7.47935 h -6.23281 c -1.7103,-0.15971 -3.17538,-0.6525 -4.64259,-1.7084 -0.6877,-0.49498 -1.3572,-0.76098 -2.17988,-0.76768 z m 0,-8.81341 c 1.02898,0.0329 2.08128,0.2388 3.10469,1.03421 l 3.4115,2.65169 c 2.43749,1.89459 4.77439,1.78629 5.29248,1.78629 h 1.24661 v 3.32422 h -4.23831 c -0.7983,0 -2.6803,-0.32829 -3.91269,-1.0427 -0.95289,-0.55242 -1.67531,-1.01452 -2.54649,-1.52912 -0.52779,-0.31178 -1.22562,-0.7088 -2.35779,-0.7239 -1.13221,0.0151 -1.84161,0.38982 -2.35783,0.7239 -1.99559,1.2918 -3.32778,2.4541 -6.2896,2.58431 l -3.97637,-3.33671 h 0.74789 c 0.51798,0 2.9222,0.1084 5.35968,-1.78629 l 3.4115,-2.65169 c 1.02352,-0.79541 2.07571,-1.00129 3.10473,-1.03421" />
    <path
       inkscape:connector-curvature="0"
       id="path72"
       style="fill:#222222;fill-opacity:1;fill-rule:evenodd;stroke:none;stroke-width:0.352778"
       d="m 109.08167,150.87279 h 1.22499 v -1.38921 h -1.22499 z" />
    <path
       inkscape:connector-curvature="0"
       id="path74"
       style="fill:#222222;fill-opacity:1;fill-rule:evenodd;stroke:none;stroke-width:0.352778"
       d="m 118.89997,150.87279 h 1.22502 v -1.38921 h -1.22502 z" />
    <path
       inkscape:connector-curvature="0"
       id="path76"
       style="fill:#222222;fill-opacity:1;fill-rule:evenodd;stroke:none;stroke-width:0.352778"
       d="m 127.01658,150.87279 h 1.22498 v -1.38921 h -1.22498 z" />
    <path
       inkscape:connector-curvature="0"
       id="path78"
       style="fill:#222222;fill-opacity:1;fill-rule:evenodd;stroke:none;stroke-width:0.352778"
       d="m 133.73287,150.87279 h 1.22502 v -1.38921 h -1.22502 z" />
  </g>
</svg>
