<?xml version="1.0" encoding="UTF-8" standalone="no"?>
<!-- Created with Inkscape (http://www.inkscape.org/) -->

<svg
   width="69.999718mm"
   height="70.00222mm"
   viewBox="0 0 69.999718 70.00222"
   version="1.1"
   id="svg868"
   inkscape:version="1.1.1 (3bf5ae0d25, 2021-09-20, custom)"
   sodipodi:docname="unsj.svg"
   xmlns:inkscape="http://www.inkscape.org/namespaces/inkscape"
   xmlns:sodipodi="http://sodipodi.sourceforge.net/DTD/sodipodi-0.dtd"
   xmlns="http://www.w3.org/2000/svg"
   xmlns:svg="http://www.w3.org/2000/svg">
  <sodipodi:namedview
     id="namedview870"
     pagecolor="#ffffff"
     bordercolor="#666666"
     borderopacity="1.0"
     inkscape:pageshadow="2"
     inkscape:pageopacity="0"
     inkscape:pagecheckerboard="0"
     inkscape:document-units="mm"
     showgrid="false"
     inkscape:zoom="1.368204"
     inkscape:cx="-124.61592"
     inkscape:cy="145.0807"
     inkscape:window-width="1920"
     inkscape:window-height="1055"
     inkscape:window-x="0"
     inkscape:window-y="25"
     inkscape:window-maximized="1"
     inkscape:current-layer="layer1" />
  <defs
     id="defs865">
    <clipPath
       clipPathUnits="userSpaceOnUse"
       id="clipPath20">
      <path
         d="M 222.284,224.639 H 420.709 V 423.071 H 222.284 Z"
         id="path18" />
    </clipPath>
  </defs>
  <g
     inkscape:label="Layer 1"
     inkscape:groupmode="layer"
     id="layer1"
     transform="translate(-31.729423,-96.269606)">
    <path
       d="m 68.957496,111.49066 c 0.04833,0.0557 0.137583,0.37818 0.131586,0.47978 -0.06421,0.0568 -0.357717,0.13688 -0.482953,0.13053 -0.06914,-0.10901 -0.133702,-0.32597 -0.131586,-0.48084 0.09066,-0.0533 0.319617,-0.1397 0.482953,-0.12947"
       style="fill:#222222;fill-opacity:1;fill-rule:nonzero;stroke:none;stroke-width:0.352778"
       id="path24" />
    <path
       d="m 75.072546,120.79168 c 0.05644,0.0512 0.17145,0.36301 0.174272,0.46849 -0.05362,0.061 -0.337608,0.16898 -0.468489,0.17251 -0.07585,-0.10019 -0.159808,-0.31186 -0.172155,-0.46567 0.08608,-0.061 0.304447,-0.16863 0.466372,-0.17533"
       style="fill:#222222;fill-opacity:1;fill-rule:nonzero;stroke:none;stroke-width:0.352778"
       id="path28" />
    <path
       d="m 58.664676,120.67523 c 0.04974,0.0557 0.122061,0.38453 0.110772,0.48472 -0.06103,0.0543 -0.363361,0.12312 -0.485422,0.11147 -0.06421,-0.11147 -0.118886,-0.3309 -0.110067,-0.48718 0.09137,-0.0494 0.324203,-0.12453 0.484717,-0.10901"
       style="fill:#222222;fill-opacity:1;fill-rule:nonzero;stroke:none;stroke-width:0.352778"
       id="path32" />
    <path
       d="m 74.118988,118.22286 c 0.0889,0.44168 0.393347,0.52952 0.606778,0.48719 0.521053,-0.10125 0.383822,-0.85408 0.764822,-0.92781 0.107597,-0.0215 0.186267,-0.002 0.258586,0.0444 0.0074,0.0191 0.03246,0.066 0.04868,0.13476 0.02893,0.15981 -0.03069,0.30586 -0.172861,0.43145 0.100542,0.0519 0.172861,0.0797 0.286103,0.0737 0.0441,-0.127 0.04939,-0.27164 0.02046,-0.42016 -0.07303,-0.36301 -0.330553,-0.4699 -0.534458,-0.42757 -0.496711,0.0963 -0.290336,0.83362 -0.794456,0.93134 -0.07514,0.0141 -0.179211,10e-4 -0.25153,-0.0318 -0.02399,-0.024 -0.06879,-0.0977 -0.08749,-0.18415 -0.0441,-0.23601 0.04621,-0.40852 0.239183,-0.5454 l -0.0021,-0.007 c -0.109714,-0.0138 -0.226131,-0.0215 -0.348898,0.008 -0.03422,0.0977 -0.05997,0.28293 -0.03281,0.43286"
       style="fill:#222222;fill-opacity:1;fill-rule:nonzero;stroke:none;stroke-width:0.352778"
       id="path36" />
    <path
       d="m 73.795138,116.77834 c -0.01658,-0.0406 -0.0035,-0.0885 0.05292,-0.11289 l 0.599369,-0.2413 c 0.0099,-0.005 0.0187,-10e-4 0.02011,0.006 l 0.148873,0.36936 c 0.03493,0.084 0.09031,0.17639 0.201083,0.15628 -0.03457,-0.0635 -0.07232,-0.1397 -0.106892,-0.22331 l -0.137583,-0.33902 c -0.0021,-0.009 -0.0078,-0.0205 0.0088,-0.0254 l 0.487187,-0.19685 c 0.0702,-0.0289 0.118533,-0.0381 0.143227,-0.0381 0,0 0.02152,0.0356 0.04763,0.1016 0.155575,0.38453 0.09631,0.49107 -0.06138,0.6283 v 10e-4 c 0.140053,-0.0116 0.302683,-0.0688 0.375003,-0.10054 l -0.385939,-0.9592 c -0.01023,0.0455 -0.02963,0.0938 -0.101953,0.12559 l -1.346905,0.5468 c -0.08361,0.0346 -0.131939,0.009 -0.171098,-0.0138 l 0.401109,0.98108 c 0.101952,-0.0102 0.292805,-0.0621 0.435327,-0.12206 v -0.004 c -0.233538,0.009 -0.404988,-0.0444 -0.555977,-0.41134 z"
       style="fill:#222222;fill-opacity:1;fill-rule:nonzero;stroke:none;stroke-width:0.352778"
       id="path40" />
    <path
       d="m 73.211291,115.8976 c 0.0028,-0.0684 0.02505,-0.10689 0.08361,-0.14358 l 1.181453,-0.73978 c 0.03175,-0.0219 0.06138,-0.0409 0.09878,-0.0483 l 0.107244,0.16757 c 0.124178,0.20038 0.07091,0.30198 -0.06597,0.49636 0.02117,-0.008 0.04057,-0.0205 0.07585,-0.0434 0.05574,-0.0353 0.245886,-0.1711 0.282928,-0.22084 -0.02328,-0.006 -0.04269,-0.0166 -0.1651,-0.20673 l -0.443795,-0.70308 c -0.112536,-0.18415 -0.112536,-0.20955 -0.104775,-0.23248 -0.06279,0.0127 -0.270933,0.12559 -0.327377,0.15734 -0.03493,0.0254 -0.05433,0.0356 -0.07303,0.0522 h 0.0035 c 0.233539,-0.042 0.351367,-0.0459 0.472017,0.15204 l 0.110772,0.17392 c -0.02399,0.0303 -0.05433,0.0498 -0.08678,0.0699 l -1.181453,0.74013 c -0.05785,0.0381 -0.104069,0.0406 -0.164747,0.0152 z"
       style="fill:#222222;fill-opacity:1;fill-rule:nonzero;stroke:none;stroke-width:0.352778"
       id="path44" />
    <path
       d="m 73.333352,113.95799 c -0.172156,0.15981 -0.384528,0.16369 -0.574675,-0.0444 -0.0508,-0.0508 -0.06209,-0.0596 -0.04833,-0.0723 l 0.432153,-0.40358 c 0.09384,-0.09 0.134409,-0.10301 0.134409,-0.10301 0.01799,0.0194 0.03916,0.0434 0.0695,0.0688 0.203905,0.2159 0.13088,0.42016 -0.01305,0.55457 m 0.130175,-0.56621 -0.327731,-0.35172 c 0.0067,0.0536 0,0.1016 -0.05539,0.15381 l -1.062214,1.00013 c -0.05115,0.0483 -0.10548,0.0522 -0.156633,0.0434 l 0.252942,0.26917 c -0.0074,-0.055 -0.0028,-0.10548 0.05292,-0.1524 l 0.448734,-0.42792 c 0.01094,-0.0102 0.02117,-0.0127 0.03034,-0.005 l 0.06385,0.0702 c 0.06632,0.0709 0.05397,0.14464 0.01587,0.29175 l -0.160513,0.50659 c -0.03034,0.0773 -0.03493,0.11782 -0.05433,0.13582 l 0.231422,0.24729 c -0.02258,-0.10512 -0.02681,-0.17145 0.01588,-0.30832 l 0.198614,-0.69956 c 0.133703,0.0586 0.378178,0.127 0.587728,-0.0695 0.193675,-0.18168 0.185914,-0.42404 -0.08149,-0.70344"
       style="fill:#222222;fill-opacity:1;fill-rule:nonzero;stroke:none;stroke-width:0.352778"
       id="path48" />
    <path
       d="m 71.604035,113.19387 c -0.05856,-0.0406 -0.163336,-0.10795 -0.250119,-0.17004 -0.09596,-0.0674 -0.168981,-0.12453 -0.211667,-0.15875 l 0.02681,-0.0201 0.676628,-0.51541 z m 0.511881,-1.05092 -0.2032,-0.066 c -0.0028,0.0254 -0.01588,0.0649 -0.0374,0.0938 -0.01376,0.0176 -0.03563,0.0434 -0.06174,0.0635 l -0.732719,0.54187 -0.459317,0.30974 c -0.09031,0.0596 -0.150283,0.0624 -0.226836,0.0444 l 0.257175,0.18274 c -0.01129,-0.024 0,-0.0455 0.01305,-0.0621 0.01658,-0.0166 0.04269,-0.0459 0.07761,-0.0723 l 0.317147,-0.25012 c 0.03422,0.0191 0.121355,0.0723 0.245886,0.15981 0.125942,0.0903 0.2286,0.17392 0.271639,0.20849 l -0.106186,0.39335 c -0.02011,0.0787 -0.07302,0.12312 -0.108303,0.13335 l 0.295628,0.2092 c -0.03845,-0.085 -0.02893,-0.12947 0.0095,-0.26776 z"
       style="fill:#222222;fill-opacity:1;fill-rule:nonzero;stroke:none;stroke-width:0.352778"
       id="path52" />
    <path
       d="m 66.127795,112.34862 c 0.448381,-0.0395 0.565856,-0.33267 0.547511,-0.5521 -0.04833,-0.52811 -0.809625,-0.47096 -0.84208,-0.85936 -0.0081,-0.10407 0.01834,-0.18415 0.06914,-0.24871 0.02152,-0.008 0.07232,-0.0282 0.1397,-0.0342 0.166158,-0.0127 0.303036,0.0607 0.410633,0.21555 0.06703,-0.0928 0.09631,-0.15981 0.10795,-0.27552 -0.122061,-0.0568 -0.265289,-0.0759 -0.418394,-0.0632 -0.3683,0.0318 -0.497417,0.27658 -0.483658,0.48472 0.04586,0.50376 0.802216,0.37817 0.845255,0.88723 0.0046,0.0787 -0.01623,0.18027 -0.05821,0.25118 -0.02822,0.018 -0.10795,0.0547 -0.194028,0.0635 -0.238831,0.0205 -0.40005,-0.0886 -0.515408,-0.29563 h -0.0078 c -0.02399,0.10795 -0.04586,0.22578 -0.02928,0.3489 0.09066,0.0459 0.277989,0.0903 0.428625,0.0776"
       style="fill:#222222;fill-opacity:1;fill-rule:nonzero;stroke:none;stroke-width:0.352778"
       id="path56" />
    <path
       d="m 64.496551,111.93728 c -0.110067,0.0303 -0.204258,0.0508 -0.255764,0.0649 v -0.037 l 0.0374,-0.85161 0.511175,0.73872 c -0.06985,0.0215 -0.185914,0.0571 -0.292806,0.085 m 0.974372,0.41134 c -0.09207,-0.024 -0.12065,-0.0596 -0.198966,-0.1778 l -0.963789,-1.38218 -0.18027,0.11677 c 0.01658,0.0141 0.03704,0.0508 0.04833,0.085 0.006,0.0229 0.01129,0.0557 0.006,0.09 l -0.04868,0.91017 -0.05256,0.54857 c -0.01482,0.10901 -0.05221,0.15734 -0.1143,0.20426 l 0.305858,-0.0787 c -0.02611,-0.009 -0.03175,-0.0318 -0.03845,-0.0547 -0.0074,-0.019 -0.0074,-0.0596 -0.0074,-0.1016 l 0.01305,-0.40746 c 0.03281,-0.0113 0.129469,-0.0455 0.280105,-0.085 0.148167,-0.0381 0.277636,-0.0646 0.3302,-0.0762 l 0.236361,0.33408 c 0.04692,0.066 0.04904,0.13335 0.03281,0.16616 z"
       style="fill:#222222;fill-opacity:1;fill-rule:nonzero;stroke:none;stroke-width:0.352778"
       id="path60" />
    <path
       d="m 63.408937,113.02387 0.335492,-0.15628 c -0.06703,-0.0127 -0.101953,-0.0392 -0.131939,-0.10407 l -0.616656,-1.30986 c -0.03069,-0.0646 -0.02752,-0.10901 0.0049,-0.16616 l -0.338314,0.15628 c 0.06914,0.0113 0.106186,0.0367 0.134761,0.10266 l 0.617361,1.30986 c 0.02928,0.0646 0.02928,0.10901 -0.0056,0.16757"
       style="fill:#222222;fill-opacity:1;fill-rule:nonzero;stroke:none;stroke-width:0.352778"
       id="path64" />
    <path
       d="m 63.048927,113.17613 c -0.02646,-0.0889 -0.124531,-0.27164 -0.201083,-0.38594 l -0.0056,0.001 c 0.101953,0.30833 0.04057,0.44274 -0.142169,0.56974 -0.348897,0.23636 -0.732367,0.0762 -0.987072,-0.29563 -0.156281,-0.22719 -0.212725,-0.46567 -0.19685,-0.68545 0.03245,-0.0572 0.102305,-0.14464 0.206375,-0.21837 0.115358,-0.0787 0.288219,-0.13828 0.494594,-0.0723 0.02081,-0.085 0.02646,-0.19685 -0.02117,-0.29562 -0.12065,0.024 -0.293158,0.0811 -0.430389,0.17392 -0.421216,0.28927 -0.503413,0.83255 -0.171097,1.31868 0.276578,0.40746 0.713317,0.50412 1.108075,0.23107 0.177095,-0.11818 0.26282,-0.22331 0.346428,-0.34149"
       style="fill:#222222;fill-opacity:1;fill-rule:nonzero;stroke:none;stroke-width:0.352778"
       id="path68" />
    <path
       d="m 61.154123,113.67379 0.286456,0.29316 -0.08749,-0.0152 -1.729317,-0.15487 0.12065,0.10266 0.990953,1.03963 c 0.05715,0.0557 0.0695,0.1076 0.05433,0.18803 l 0.227188,-0.22754 c -0.08502,0.0254 -0.13088,0.002 -0.189088,-0.0494 l -0.48507,-0.46954 -0.327378,-0.33126 0.06491,0.0124 1.709562,0.14111 -1.116189,-1.17652 c -0.05609,-0.0547 -0.0702,-0.10548 -0.05433,-0.18803 l -0.230717,0.2286 c 0.0889,-0.0229 0.137231,-0.004 0.190147,0.0522 z"
       style="fill:#222222;fill-opacity:1;fill-rule:nonzero;stroke:none;stroke-width:0.352778"
       id="path72" />
    <path
       d="m 60.112017,115.93549 c -0.0254,0.0356 -0.07232,0.0561 -0.12065,0.0219 l -0.544689,-0.34431 c -0.01376,-0.006 -0.01658,-0.0138 -0.0099,-0.0191 l 0.210609,-0.34008 c 0.04868,-0.0748 0.09384,-0.17392 0.01129,-0.25505 -0.02893,0.0684 -0.07232,0.14358 -0.117828,0.21942 l -0.195792,0.30868 c -0.0039,0.007 -0.01199,0.0166 -0.02399,0.007 l -0.446264,-0.27905 c -0.06421,-0.042 -0.101952,-0.0762 -0.114652,-0.0938 0,0 0.01764,-0.0385 0.05574,-0.0991 0.220134,-0.35031 0.343959,-0.36548 0.544689,-0.31362 l 0.0032,-0.005 c -0.09102,-0.10795 -0.233539,-0.20567 -0.303741,-0.24765 l -0.549981,0.87453 c 0.04233,-0.0162 0.09419,-0.0303 0.15875,0.0141 l 1.23437,0.77435 c 0.07549,0.0469 0.08079,0.0988 0.08361,0.14323 l 0.565503,-0.89606 c -0.0702,-0.0762 -0.22225,-0.20179 -0.354189,-0.28328 l -0.0032,0.004 c 0.14358,0.18168 0.202494,0.35419 -0.012,0.69074 z"
       style="fill:#222222;fill-opacity:1;fill-rule:nonzero;stroke:none;stroke-width:0.352778"
       id="path76" />
    <path
       d="m 59.647232,117.04878 0.129469,-0.34643 c -0.05327,0.0378 -0.09948,0.0441 -0.166158,0.0176 l -1.353255,-0.51258 c -0.06703,-0.0243 -0.09631,-0.0586 -0.112184,-0.12312 l -0.131586,0.34607 c 0.05539,-0.0377 0.1016,-0.0455 0.166511,-0.0201 l 1.355725,0.51259 c 0.06385,0.0268 0.09384,0.0586 0.111478,0.12594"
       style="fill:#222222;fill-opacity:1;fill-rule:nonzero;stroke:none;stroke-width:0.352778"
       id="path80" />
    <path
       d="m 59.489823,117.51335 c -0.07479,-0.0469 -0.273756,-0.11571 -0.409928,-0.14605 v 0.004 c 0.283986,0.15593 0.331964,0.29704 0.283986,0.51647 -0.08819,0.40887 -0.478014,0.55597 -0.920397,0.45967 -0.268817,-0.061 -0.473075,-0.19791 -0.612422,-0.36689 -0.01588,-0.0635 -0.0254,-0.17392 0,-0.29704 0.03175,-0.1397 0.115358,-0.30092 0.308328,-0.39617 -0.04057,-0.0759 -0.112889,-0.1584 -0.212725,-0.19932 -0.07479,0.10195 -0.160514,0.25894 -0.195086,0.42157 -0.112537,0.5013 0.198261,0.95074 0.776111,1.07879 0.482247,0.10548 0.864305,-0.1217 0.968375,-0.58878 0.04586,-0.20955 0.03775,-0.34537 0.01376,-0.48613"
       style="fill:#222222;fill-opacity:1;fill-rule:nonzero;stroke:none;stroke-width:0.352778"
       id="path84" />
    <path
       d="m 75.0076,124.66571 c 0.239183,-0.38735 0.0702,-0.6537 -0.115711,-0.77047 -0.451203,-0.28045 -0.859014,0.36795 -1.188508,0.16369 -0.09102,-0.0557 -0.140759,-0.12418 -0.158398,-0.20426 0.0021,-0.0215 0.01764,-0.0737 0.05292,-0.13335 0.08961,-0.13934 0.228953,-0.20567 0.420511,-0.20178 -0.03739,-0.10654 -0.07267,-0.17498 -0.15875,-0.24871 -0.119239,0.0646 -0.221192,0.16616 -0.301625,0.29704 -0.192969,0.31326 -0.07444,0.56585 0.101953,0.67662 0.42933,0.26529 0.780697,-0.41627 1.21673,-0.14852 0.06703,0.043 0.133703,0.12136 0.166159,0.19509 0,0.0356 -0.01799,0.12065 -0.06421,0.19297 -0.126647,0.20461 -0.309386,0.27058 -0.547158,0.23883 l -0.0025,0.004 c 0.07161,0.0903 0.152753,0.17251 0.263173,0.23495 0.09066,-0.0444 0.236361,-0.16898 0.315383,-0.29598"
       style="fill:#222222;fill-opacity:1;fill-rule:nonzero;stroke:none;stroke-width:0.352778"
       id="path88" />
    <path
       d="m 73.79161,125.98588 c -0.02893,0.0342 -0.07655,0.043 -0.124178,0 l -0.462844,-0.44556 c -0.01094,-0.009 -0.01094,-0.018 -0.0042,-0.0229 l 0.276931,-0.29033 c 0.06209,-0.0639 0.124178,-0.1524 0.05997,-0.24554 -0.04339,0.0571 -0.09913,0.12594 -0.161219,0.18944 l -0.252236,0.26282 c -0.0053,0.009 -0.01376,0.0152 -0.02399,0.002 l -0.382411,-0.36301 c -0.05503,-0.0533 -0.08185,-0.0942 -0.09313,-0.11818 0,0 0.02434,-0.0332 0.07514,-0.0822 0.287514,-0.29986 0.407811,-0.28858 0.598664,-0.20073 l 0.0028,-0.002 c -0.0702,-0.12312 -0.18803,-0.24906 -0.247297,-0.30339 l -0.717197,0.74753 c 0.04551,-0.006 0.09631,-0.0102 0.153458,0.043 l 1.052336,1.00789 c 0.06456,0.0632 0.05927,0.1143 0.05292,0.15981 l 0.7366,-0.76518 c -0.0508,-0.0914 -0.174272,-0.24377 -0.289278,-0.35172 l -0.0035,0.005 c 0.09984,0.20779 0.119945,0.38806 -0.150989,0.67416 z"
       style="fill:#222222;fill-opacity:1;fill-rule:nonzero;stroke:none;stroke-width:0.352778"
       id="path92" />
    <path
       d="m 72.361802,127.21435 c -0.165453,0.12947 -0.250119,0.13194 -0.379589,-0.0293 l -0.718608,-0.90382 c -0.07303,-0.0924 -0.07867,-0.11677 -0.07867,-0.11677 0,0 0.02963,-0.0339 0.08608,-0.0783 0.425097,-0.33902 0.867481,-0.25153 1.165225,0.12559 0.279753,0.34783 0.255764,0.7373 -0.07444,1.00259 m 0.192264,-1.22626 c -0.324556,-0.4071 -0.807508,-0.40322 -1.276703,-0.0289 l -0.395464,0.31714 c 0.04339,-0.004 0.09631,0.003 0.148167,0.0624 l 0.907344,1.13841 c 0.05362,0.0699 0.0448,0.11924 0.03387,0.16369 l 0.430036,-0.34008 c 0.443442,-0.35701 0.486128,-0.895 0.152753,-1.31269"
       style="fill:#222222;fill-opacity:1;fill-rule:nonzero;stroke:none;stroke-width:0.352778"
       id="path96" />
    <path
       d="m 70.484319,127.74627 c -0.09843,0.0519 -0.184856,0.0914 -0.23495,0.1143 l -0.0085,-0.0332 -0.140405,-0.83996 0.655814,0.61559 c -0.06526,0.0318 -0.175684,0.0949 -0.271992,0.14323 m 0.806803,0.067 -1.230489,-1.15217 -0.150989,0.1524 c 0.0194,0.0113 0.04621,0.043 0.06562,0.0744 0.01094,0.0205 0.02117,0.0511 0.02399,0.0854 l 0.138994,0.901 0.06421,0.54857 c 0.01164,0.10795 -0.01235,0.16369 -0.06668,0.22331 l 0.284338,-0.14253 c -0.02963,-0.005 -0.03986,-0.024 -0.05009,-0.043 -0.0078,-0.0173 -0.0194,-0.0607 -0.02822,-0.1016 l -0.07655,-0.39722 c 0.03422,-0.0212 0.12065,-0.0723 0.258939,-0.14182 0.137936,-0.0698 0.255764,-0.12347 0.309386,-0.14605 l 0.29845,0.27799 c 0.05856,0.0557 0.07585,0.12065 0.0695,0.15734 l 0.322439,-0.16369 c -0.09419,-0.005 -0.132292,-0.0342 -0.232833,-0.13229"
       style="fill:#222222;fill-opacity:1;fill-rule:nonzero;stroke:none;stroke-width:0.352778"
       id="path100" />
    <path
       d="m 68.754296,128.94826 c -0.204611,0.0459 -0.281869,0.009 -0.328789,-0.1905 l -0.252236,-1.12571 c -0.02328,-0.11783 -0.01517,-0.1397 -0.01517,-0.1397 0,0 0.03669,-0.018 0.106186,-0.0356 0.529872,-0.11677 0.891469,0.1524 0.996244,0.62088 0.09913,0.43674 -0.09102,0.77541 -0.506236,0.87066 m 0.709436,-1.01671 c -0.113594,-0.51011 -0.555272,-0.71578 -1.13665,-0.58243 l -0.494947,0.11007 c 0.04092,0.018 0.08819,0.0434 0.108303,0.12065 l 0.318911,1.42028 c 0.01658,0.0878 -0.01094,0.13123 -0.04057,0.16263 l 0.531989,-0.1203 c 0.558095,-0.12594 0.830086,-0.58914 0.712964,-1.1109"
       style="fill:#222222;fill-opacity:1;fill-rule:nonzero;stroke:none;stroke-width:0.352778"
       id="path104" />
    <path
       d="m 67.020041,129.27073 0.369711,-0.0254 c -0.05927,-0.037 -0.08326,-0.0737 -0.0889,-0.14464 l -0.09878,-1.44462 c -0.0085,-0.0709 0.01058,-0.11183 0.06174,-0.15487 l -0.367241,0.0268 c 0.05821,0.0353 0.0822,0.0748 0.08537,0.14217 l 0.104069,1.44568 c 0.0063,0.0713 -0.01094,0.11289 -0.06597,0.15487"
       style="fill:#222222;fill-opacity:1;fill-rule:nonzero;stroke:none;stroke-width:0.352778"
       id="path108" />
    <path
       d="m 66.007216,128.44047 -0.05327,0.40887 -0.04269,-0.0797 -0.940505,-1.46261 -0.0063,0.1598 -0.212725,1.41958 c -0.0095,0.0808 -0.04127,0.1203 -0.113595,0.15699 l 0.31997,0.0444 c -0.07232,-0.0557 -0.08643,-0.10407 -0.0762,-0.18274 l 0.07373,-0.66887 0.05891,-0.46461 0.02858,0.061 0.940153,1.43793 0.2413,-1.6055 c 0.0078,-0.0801 0.04092,-0.12311 0.115006,-0.15628 l -0.32385,-0.0444 c 0.07197,0.0561 0.08819,0.10407 0.07973,0.1831 z"
       style="fill:#222222;fill-opacity:1;fill-rule:nonzero;stroke:none;stroke-width:0.352778"
       id="path112" />
    <path
       d="m 63.521226,128.03051 c -0.106892,-0.0444 -0.198261,-0.0801 -0.243769,-0.10548 l 0.02152,-0.0265 0.536928,-0.66252 -0.03034,0.89994 c -0.0702,-0.0265 -0.187325,-0.0663 -0.284339,-0.10548 m 0.19685,0.77188 0.339019,0.13582 c -0.05715,-0.0751 -0.06103,-0.12171 -0.05503,-0.26282 l 0.05151,-1.68169 -0.215195,-0.0166 c 0.0053,0.0254 0,0.0645 -0.01129,0.10018 -0.01023,0.0194 -0.02611,0.0494 -0.04586,0.0737 l -0.587728,0.70061 -0.367947,0.4124 c -0.07232,0.079 -0.13335,0.0952 -0.207786,0.0977 l 0.28575,0.11571 c -0.0092,-0.0205 -0.0032,-0.0459 0,-0.0649 0.01094,-0.0205 0.03598,-0.0533 0.05997,-0.0861 l 0.249414,-0.32103 c 0.03775,0.0127 0.134409,0.0416 0.279047,0.0988 0.14217,0.0572 0.259998,0.11289 0.312209,0.13723 l -0.01129,0.40746 c 0,0.0808 -0.04092,0.13582 -0.07479,0.15346"
       style="fill:#222222;fill-opacity:1;fill-rule:nonzero;stroke:none;stroke-width:0.352778"
       id="path116" />
    <path
       d="m 60.832354,127.19922 c -0.01094,-0.0381 -0.0046,-0.0811 0.03986,-0.14464 l 0.45085,-0.58279 0.195792,-0.23213 0.01693,-0.0279 -0.191558,1.31233 1.119716,-0.70062 -0.02258,0.0367 -0.468841,0.90276 c -0.0381,0.0748 -0.09313,0.11536 -0.14217,0.10618 l 0.297039,0.20074 c -0.01446,-0.0519 -0.02399,-0.10266 0.0254,-0.19297 l 0.732367,-1.42911 h -0.0056 l -1.2827,0.80116 0.219781,-1.51553 -0.496358,0.59125 -0.561623,0.641 c -0.03845,0.0459 -0.09631,0.085 -0.159102,0.079 z"
       style="fill:#222222;fill-opacity:1;fill-rule:nonzero;stroke:none;stroke-width:0.352778"
       id="path120" />
    <path
       d="m 59.574913,126.11157 c 0.276578,0.30445 0.633589,0.26635 0.956381,-0.0229 0.442383,-0.39723 0.499533,-0.44944 0.684741,-0.59161 0.05609,-0.0444 0.09666,-0.0582 0.160514,-0.0444 l -0.196497,-0.21802 c 0.0056,0.067 -0.0127,0.10266 -0.06103,0.15593 -0.160514,0.17251 -0.222602,0.22966 -0.687211,0.64347 -0.225425,0.20567 -0.514703,0.25012 -0.735541,0.006 -0.220134,-0.24624 -0.138995,-0.47731 0.07549,-0.66887 l 0.735542,-0.66357 c 0.05256,-0.0483 0.09984,-0.0575 0.166158,-0.0423 l -0.252589,-0.27798 c 0.01094,0.0677 -0.0056,0.11077 -0.05927,0.15769 l -0.735541,0.65863 c -0.3302,0.29845 -0.3302,0.5902 -0.05115,0.9077"
       style="fill:#222222;fill-opacity:1;fill-rule:nonzero;stroke:none;stroke-width:0.352778"
       id="path124" />
    <path
       d="m 58.011155,123.7214 0.185208,0.32244 c 0.006,-0.066 0.02928,-0.10407 0.09031,-0.13864 l 0.588081,-0.33761 c 0.158044,0.23495 0.295275,0.47625 0.415925,0.73025 l -0.590197,0.3362 c -0.05856,0.0332 -0.10795,0.0356 -0.166511,0.006 l 0.183091,0.32174 c 0.0078,-0.0649 0.02963,-0.10301 0.09384,-0.13723 l 1.258359,-0.7172 c 0.06315,-0.0356 0.104775,-0.0356 0.167216,-0.006 l -0.183091,-0.32385 c -0.0081,0.0674 -0.03175,0.10548 -0.09208,0.1397 l -0.577145,0.32738 c -0.151694,-0.23495 -0.288925,-0.47449 -0.414514,-0.72849 l 0.573617,-0.32773 c 0.06244,-0.0353 0.107244,-0.0353 0.168628,-0.006 l -0.182034,-0.32244 c -0.0046,0.066 -0.0321,0.10513 -0.09066,0.13829 l -1.259063,0.7172 c -0.06491,0.0367 -0.107245,0.0367 -0.168981,0.006"
       style="fill:#222222;fill-opacity:1;fill-rule:nonzero;stroke:none;stroke-width:0.352778"
       id="path128" />
    <path
       d="m 70.874138,122.21211 -2.190397,-0.41522 0.456141,2.18369 -1.68663,-1.45591 -0.693914,2.11843 -0.736247,-2.10467 -1.660878,1.48766 0.415572,-2.19216 -2.18193,0.4572 1.452033,-1.68733 -2.115961,-0.69392 2.104672,-0.73624 -1.486605,-1.66018 2.187575,0.41628 -0.456495,-2.18193 1.690864,1.45309 0.692503,-2.11702 0.735894,2.10573 1.659114,-1.48872 -0.416278,2.19075 2.185459,-0.45685 -1.456973,1.68805 2.117373,0.69567 -2.102203,0.73484 z m -4.225572,-9.11331 c -3.727803,0.0328 -6.73735,3.10092 -6.703131,6.82978 0.03563,3.72286 3.103387,6.73488 6.832953,6.70101 3.722511,-0.0384 6.734175,-3.10726 6.698897,-6.83154 -0.03704,-3.72921 -3.10515,-6.73594 -6.828719,-6.69925"
       style="fill:#222222;fill-opacity:1;fill-rule:evenodd;stroke:none;stroke-width:0.352778"
       id="path132" />
    <path
       id="path4976"
       style="fill:#222222;fill-opacity:1;fill-rule:evenodd;stroke:none;stroke-width:1.33333"
       d="M 132.27734,0 C 59.229485,0 0,59.226495 0,132.28906 c 0,73.06798 59.229485,132.28711 132.27734,132.28711 73.04934,0 132.28907,-59.21913 132.28907,-132.28711 C 264.56641,59.226495 205.32668,0 132.27734,0 Z m 3.03125,6.4335938 c 2.64801,-0.026665 4.62798,1.0020504 5.94532,2.6367187 1.304,1.6119985 1.97952,3.7861665 1.99804,6.1035155 0.0213,2.466633 -0.87229,4.969408 -2.40429,6.802734 -1.44,1.732007 -3.45031,2.881747 -5.79297,2.908204 -2.55734,0.02797 -4.47774,-0.893092 -5.81641,-2.34375 -1.51066,-1.651994 -2.24225,-4.009264 -2.26758,-6.419922 -0.032,-2.525341 0.84973,-5.02694 2.40039,-6.8496096 1.448,-1.6959988 3.49084,-2.8167262 5.9375,-2.8378906 z m 14.30664,0.089844 8.42774,15.4843742 L 158.5,19.75 l 1.38672,-7.507812 c 0.0667,-0.278665 0.0676,-0.500403 0.0156,-0.677735 -0.06,-0.179981 -0.19503,-0.368792 -0.42968,-0.578125 l -1.59961,-1.4062499 6.96679,1.4531249 -1.74218,0.6875 c -0.28668,0.109342 -0.48805,0.230811 -0.60938,0.382813 -0.13599,0.142677 -0.21272,0.345797 -0.27539,0.61914 -1.3,5.525348 -2.52172,11.075241 -3.76172,16.615235 l -8.19726,-14.845703 -0.58203,2.800781 -1.16602,6.310547 c -0.0493,0.288 -0.0667,0.518407 0,0.705078 0.0546,0.17726 0.1833,0.354954 0.41797,0.564453 l 1.60547,1.40625 -6.96289,-1.449219 1.76562,-0.679687 c 0.27334,-0.108095 0.4748,-0.232729 0.60547,-0.388672 0.12401,-0.144 0.20385,-0.343714 0.25586,-0.621094 l 3.02539,-13.4082031 z m -26.42968,0.2011719 -1.3086,1.1542968 c -0.18266,0.150652 -0.2976,0.2908214 -0.34961,0.4375 -0.0587,0.1520126 -0.0695,0.3380099 -0.0469,0.5820313 l 1.40625,13.7910152 c 0.02,0.246803 0.0832,0.429258 0.17383,0.558594 0.072,0.12926 0.21993,0.243163 0.41992,0.353515 l 1.51758,0.875 -1.7461,0.175782 -5.26172,0.537109 1.31446,-1.160156 c 0.17733,-0.148158 0.29628,-0.287199 0.34961,-0.429688 0.048,-0.156094 0.0715,-0.342082 0.0488,-0.585937 L 118.28125,9.2207031 c -0.0174,-0.2453291 -0.0701,-0.4287366 -0.16211,-0.5527343 -0.076,-0.1306583 -0.22597,-0.2451344 -0.41797,-0.3691407 l -1.53125,-0.8632812 z m -13.41797,1.8789062 c 0.77022,-0.0066 1.49403,0.062523 2.08203,0.1523438 l 0.44531,0.066406 0.0215,0.4375 c 0.06,0.5559988 -0.02,1.0832223 -0.16016,1.5605463 -0.15201,0.582668 -0.4176,1.093672 -0.71094,1.513672 l -0.32422,0.484375 -0.47851,-0.347656 c -0.664,-0.505334 -1.34667,-0.794496 -2,-0.923828 -0.79733,-0.161348 -1.57128,-0.09173 -2.22461,0.07227 -0.472,0.122645 -0.91158,0.294594 -1.26758,0.474609 -0.39333,0.198652 -0.7285,0.419609 -0.95117,0.599609 -0.396,0.919998 -0.63652,1.923214 -0.72852,3.00586 -0.06,1.042658 0.0257,2.152855 0.32422,3.326172 l 0.008,0.02344 c 0.50934,1.972006 1.43436,3.569165 2.67969,4.5625 1.228,0.958677 2.77088,1.340766 4.54688,0.884766 0.91333,-0.229418 1.57252,-0.551384 2.00586,-1.136719 0.43466,-0.61731 0.68042,-1.551657 0.73242,-2.986328 l 0.01,-0.417969 0.97852,-0.253906 0.13476,0.550781 c 0.17333,0.672 0.33759,1.537186 0.4375,2.339844 0.0987,0.782664 0.16082,1.503945 0.13282,1.974609 l -0.0332,0.261719 -0.2207,0.154297 c -0.56667,0.412006 -1.16613,0.788307 -1.85547,1.126953 -0.69733,0.345449 -1.50244,0.660028 -2.53711,0.916016 l -0.0586,0.02344 c -2.36533,0.584013 -4.50643,0.270816 -6.20898,-0.80664 -1.70267,-1.069304 -2.97391,-2.870692 -3.61524,-5.277344 l -0.0195,-0.0625 c -0.73067,-2.861329 -0.44933,-5.506084 0.63867,-7.607422 v 0.0039 c 1.13067,-2.151999 3.07762,-3.7242427 5.62695,-4.378906 0.73734,-0.192 1.51382,-0.2805875 2.25782,-0.3085938 0.11166,-0.00416 0.222,-0.00687 0.33203,-0.00781 z m 24.48437,0.2421875 c -0.496,0.00533 -0.89334,0.034629 -1.27734,0.1132813 -0.33733,0.078652 -0.68479,0.1925355 -1.07813,0.3671875 -0.59333,0.7346678 -1.01182,1.5303418 -1.28515,2.4023438 -0.28532,0.941333 -0.40789,1.987388 -0.39844,3.191406 v 0.01172 c 0.0227,2.461341 0.63901,4.372168 1.65234,5.660156 0.98801,1.240025 2.35632,1.89793 3.95899,1.882812 h 0.01 c 0.47734,-0.0042 0.86167,-0.03259 1.23633,-0.11914 0.35734,-0.07181 0.70315,-0.187975 1.11914,-0.365235 0.62,-0.705335 1.0829,-1.446747 1.37891,-2.302734 0.31331,-0.907994 0.44531,-1.968962 0.44531,-3.292969 v -0.0078 c -0.044,-2.503998 -0.617,-4.427842 -1.625,-5.701172 -0.984,-1.2253349 -2.39938,-1.8636546 -4.13672,-1.8398436 z M 88.005859,14.029297 99.410156,26.183594 c 0.429332,0.465335 0.712994,0.766984 0.986324,0.958984 0.22,0.153071 0.45081,0.230729 0.79883,0.273438 l 2.0625,0.253906 -6.189451,2.642578 0.335938,-1.136719 c 0.01999,-0.09052 0.01927,-0.241152 -0.05273,-0.43164 -0.07332,-0.187918 -0.172604,-0.368547 -0.363281,-0.560547 l -2.435547,-2.576172 c -0.610665,0.225335 -1.59392,0.586769 -2.669922,1.050781 -1.002655,0.426671 -1.727441,0.776454 -2.162109,1.005859 l 0.425781,3.46875 c 0.03201,0.167849 0.05303,0.346495 0.0957,0.533204 0.01735,0.138708 0.0465,0.248875 0.05859,0.296875 0.01735,0.04271 0.04764,0.09086 0.07031,0.121093 l 1.630859,0.392578 -6.835937,2.921876 1.894531,-1.982422 c 0.206664,-0.225336 0.380032,-0.43635 0.470703,-0.681641 0.100044,-0.253342 0.153537,-0.564624 0.130859,-1.001953 l -0.261718,-5.246094 -0.765625,-8.716797 c -0.0053,-0.09865 -0.02716,-0.206985 -0.05664,-0.298828 -0.03065,-0.134551 -0.07359,-0.255811 -0.101563,-0.335937 -0.05733,-0.118678 -0.119836,-0.224188 -0.201171,-0.328125 -0.05998,-0.09071 -0.123575,-0.159156 -0.183594,-0.199219 l -0.589844,-0.41211 z m 84.849611,0.0918 3.31641,0.107422 c 0.0427,5.528012 -0.0214,11.152137 0.11328,16.660156 -0.005,0.648 -1.8e-4,1.060984 0.084,1.376953 0.0387,0.264 0.16148,0.480078 0.38281,0.748047 l 1.28907,1.511719 0.75976,-0.107422 c 0.15066,-0.0094 0.3228,-0.04695 0.4668,-0.119141 0.14532,-0.08134 0.28579,-0.235938 0.42578,-0.503906 l 6.54102,-12.302734 c 0.13334,-0.218571 0.16456,-0.410312 0.14453,-0.566407 -0.0107,-0.167886 -0.0848,-0.317505 -0.16211,-0.466797 l -0.75977,-1.55664 6.20899,3.308594 -1.72461,0.226562 c -0.16935,0.0189 -0.34322,0.05099 -0.47657,0.126953 -0.13999,0.0799 -0.27453,0.206947 -0.39453,0.425781 l -6.31054,11.865235 c -0.11468,0.186519 -0.1364,0.325431 -0.11524,0.408203 0.0413,0.08126 0.15523,0.172146 0.33789,0.273437 l 1.32813,0.705079 c 1.216,0.652112 2.17544,0.853925 3.02343,0.691406 0.83867,-0.163994 1.63386,-0.697142 2.50586,-1.507813 l 0.28125,-0.269531 0.94532,0.503906 -0.32618,0.509766 c -0.49733,0.762671 -1.05164,1.558369 -1.57031,2.234375 -0.49733,0.666671 -0.96207,1.243066 -1.27539,1.560547 l -0.29883,0.291015 -10.51562,-5.601562 0.83984,-0.121094 -6.1582,-2.197265 1.01367,-0.609376 c 0.08,-0.05329 0.17237,-0.167058 0.26172,-0.349609 0.0653,-0.181342 0.11328,-0.396542 0.11328,-0.666015 l -0.0332,-3.539063 c -0.58534,-0.248013 -1.54821,-0.638345 -2.68555,-1.041016 -1.01333,-0.369373 -1.79701,-0.600957 -2.26367,-0.734375 l -2.03125,2.830078 c -0.12,0.16252 -0.23249,0.323866 -0.3125,0.453126 -0.0813,0.120181 -0.12558,0.213474 -0.15234,0.265624 -0.0121,0.05329 -0.0273,0.10075 -0.0273,0.134766 l 0.91406,1.394531 -6.98242,-2.503906 2.7168,-0.164062 c 0.30533,-0.01852 0.57826,-0.05975 0.82226,-0.175782 0.24534,-0.111987 0.49683,-0.321318 0.77149,-0.642578 l 3.38867,-4.03125 5.34766,-6.910156 c 0.06,-0.08126 0.12324,-0.167796 0.16992,-0.255859 0.0627,-0.119811 0.11624,-0.238243 0.13476,-0.330078 0.0466,-0.11452 0.0773,-0.243661 0.0879,-0.369141 0.0212,-0.11074 0.0212,-0.210697 0,-0.273438 z m 0.20312,4.720703 -3.65234,4.875 0.4043,0.160156 c 0.35599,0.133493 0.77148,0.282293 1.27148,0.464844 0.63867,0.229342 1.38815,0.464818 2.02149,0.662109 z m -84.187496,0.691406 0.61914,6.054688 0.402344,-0.16211 c 0.396,-0.15617 0.82476,-0.333766 1.246094,-0.513672 0.657332,-0.275981 1.353591,-0.605395 1.933594,-0.882812 z m -11.566406,0.05859 -0.791016,1.708984 c -0.113348,0.275906 -0.175651,0.49457 -0.154297,0.697266 0.01209,0.194646 0.08306,0.398672 0.232422,0.638672 3.045332,4.64931 5.947659,9.764123 8.847656,14.550781 L 69.21875,32.222656 70.75,34.636719 l 3.5625,5.347656 c 0.162671,0.24 0.30366,0.407806 0.486328,0.507813 0.161348,0.09751 0.375826,0.131359 0.701172,0.111328 l 2.123047,-0.101563 -6,3.794922 0.78125,-1.716797 c 0.12,-0.263811 0.173498,-0.488648 0.160156,-0.695312 0,-0.197292 -0.0919,-0.399565 -0.226562,-0.628907 l -7.167969,-11.74414 -1.939453,-2.574219 16.808593,5.269531 -1.222656,-1.93164 -4.228515,-6.365235 c -0.154659,-0.238488 -0.286293,-0.412543 -0.460938,-0.505859 -0.172006,-0.0892 -0.395895,-0.13054 -0.726562,-0.109375 l -2.113282,0.101562 z m 54.972652,12.351562 c 55.42933,0 100.33789,44.928465 100.33789,100.345702 0,55.41865 -44.90856,100.34961 -100.33789,100.34961 -55.425216,0 -100.349606,-44.93096 -100.349606,-100.34961 0,-55.417237 44.92439,-100.345702 100.349606,-100.345702 z m 82.61914,7.316407 4.55664,4.757812 c 2.08401,2.164006 3.23995,4.472448 3.41993,6.703125 0.18,2.259969 -0.65766,4.442916 -2.59766,6.294922 -1.956,1.870677 -4.31088,2.823707 -6.68555,2.785156 -2.372,-0.03334 -4.75704,-1.069242 -6.73437,-3.142578 L 202,51.59375 l 1.72656,0.330078 c 0.15733,0.02268 0.31575,0.04977 0.48242,0.01953 0.14534,-0.03742 0.34118,-0.129324 0.5625,-0.339843 l 10.06836,-9.642578 c 0.17998,-0.171856 0.26218,-0.336786 0.30078,-0.490235 0.044,-0.158589 0.028,-0.330926 0,-0.484375 z m 2.04883,5.105468 c -0.08,0.09067 -0.25225,0.258251 -0.57226,0.574219 l -8.00782,7.65625 c -0.57867,0.552 -0.86227,0.984256 -0.84375,1.353516 0.0133,0.398664 0.3385,0.854415 0.92383,1.482422 1.28667,1.353335 2.79545,1.996906 4.30078,1.96289 1.536,-0.02933 3.09283,-0.749617 4.54883,-2.126953 1.54934,-1.492006 2.42721,-3.223838 2.50586,-5.007812 0.068,-1.789342 -0.67547,-3.658587 -2.35547,-5.419922 -0.20002,-0.206703 -0.36666,-0.365381 -0.5,-0.47461 z M 46.462891,46.242188 c 1.959312,-0.04096 3.871838,0.704575 5.583984,2.302734 l 0.002,0.002 c 2.000042,1.870359 3.098577,4.204762 3.171875,6.613281 0.05734,2.335975 -0.836201,4.739079 -2.769531,6.816406 l -4.779297,5.105469 0.05469,-0.398437 -3.310546,5.199218 L 44.046925,70.752 c -0.03466,-0.08126 -0.128975,-0.20176 -0.292969,-0.3125 -0.153331,-0.114898 -0.364476,-0.21624 -0.61914,-0.269531 l -3.470704,-0.757813 c -0.366653,0.513336 -0.951701,1.362994 -1.595703,2.375 -0.586665,0.926665 -0.987985,1.626694 -1.222656,2.054688 l 2.3125,2.626953 c 0.109342,0.125518 0.241959,0.266656 0.363281,0.390625 0.09332,0.105449 0.183099,0.178368 0.232422,0.197266 0.04135,0.03326 0.08501,0.0591 0.125,0.07422 l 1.558594,-0.58789 -3.992188,6.269531 0.441407,-2.710938 c 0.05344,-0.306656 0.07174,-0.577417 0.01172,-0.835937 -0.05067,-0.264 -0.194455,-0.540202 -0.453126,-0.900391 L 34.279348,74.18169 28.720754,67.42583 c -0.06531,-0.09071 -0.154562,-0.156326 -0.226562,-0.228515 -0.09199,-0.08655 -0.193363,-0.164323 -0.277344,-0.207032 -0.109304,-0.07181 -0.231132,-0.129417 -0.341797,-0.167968 -0.100006,-0.03477 -0.201007,-0.05664 -0.263672,-0.05664 l -0.722656,-0.0039 0.84375,-3.205078 c 4.75333,1.041335 11.932106,2.183079 16.273437,3.59375 0.628003,0.149669 1.028705,0.24414 1.359375,0.24414 0.264,0 0.498547,-0.06644 0.810547,-0.230469 l 1.583985,-0.824218 0.134765,-0.984375 c 0.01587,-0.153411 0.03061,-0.326452 0,-0.47461 -0.04399,-0.162633 -0.154563,-0.336355 -0.365234,-0.546875 l -10.1875,-9.511718 c -0.193331,-0.17726 -0.367619,-0.249061 -0.515625,-0.279297 -0.165324,-0.0325 -0.324932,-0.0047 -0.490234,0.0293 l -1.714844,0.341796 4.505859,-4.822265 c 2.037336,-2.186646 4.280189,-3.476684 6.492188,-3.783203 0.2815,-0.03783 0.563737,-0.06055 0.84375,-0.06641 z m -0.933594,3.164062 c -0.114635,-0.0019 -0.229084,4.26e-4 -0.34375,0.0059 -1.748001,0.07068 -3.510767,0.916332 -5.134766,2.652344 -0.170653,0.177298 -0.303398,0.349824 -0.414062,0.484375 0.110668,0.124006 0.290855,0.31211 0.576172,0.580078 l 8.105468,7.556641 c 0.577335,0.555817 1.023343,0.8055 1.388672,0.771484 0.396,-0.03334 0.84426,-0.383712 1.433594,-1.011719 1.266667,-1.35865 1.823555,-2.873758 1.712891,-4.371093 -0.114667,-1.530633 -0.91438,-3.074829 -2.373047,-4.4375 -1.521248,-1.41626 -3.231656,-2.20175 -4.951172,-2.230469 z m 182.751953,4.318359 7.10547,9.949219 -0.4668,0.330078 c -0.38,0.282709 -1.0334,0.710511 -1.80273,1.117188 -0.51467,0.283842 -1.08472,0.538569 -1.63672,0.726562 l -0.39844,0.123047 -0.49023,-0.669922 0.22656,-0.326172 c 0.508,-0.72 0.8494,-1.315156 0.80273,-2.035156 -0.0627,-0.781342 -0.52147,-1.785243 -1.60547,-3.310547 -0.15328,-0.210519 -0.27276,-0.378577 -0.38476,-0.503906 l -0.12305,0.06641 c -0.18134,0.096 -0.39486,0.222776 -0.63086,0.390625 l -3.77148,2.689453 1.8125,2.558594 c 0.25735,0.340158 0.50947,0.684656 0.74414,0.972656 0.24132,0.297449 0.4665,0.566211 0.70117,0.796875 l 0.53516,0.566407 -0.69922,0.330078 c -0.696,0.32126 -1.31817,0.227616 -1.82617,-0.08984 -0.44534,-0.264189 -0.7959,-0.682836 -1.08789,-1.076172 l -1.97461,-2.78125 -4.71875,3.371094 c -0.10402,0.05858 -0.14354,0.130619 -0.15821,0.193359 0,0.048 0.0254,0.112032 0.0547,0.167969 l 0.7832,1.083984 c 1.00267,1.444007 1.91326,2.177705 2.78125,2.484375 0.85067,0.293292 1.72351,0.177542 2.6875,-0.0957 l 0.375,-0.109375 0.57813,0.826172 -0.44531,0.318359 c -0.63334,0.446665 -1.36154,0.904103 -2.04688,1.273438 -0.70533,0.402671 -1.40306,0.728915 -1.90039,0.90625 l -0.39453,0.128906 -7.15234,-10.03125 1.65234,0.572266 c 0.144,0.05745 0.31379,0.105167 0.48047,0.0957 0.14532,-0.01512 0.35108,-0.07721 0.59375,-0.259766 l 11.36328,-8.083984 c 0.19601,-0.148157 0.31962,-0.29742 0.37695,-0.445313 0.052,-0.154577 0.0606,-0.316531 0.0606,-0.484374 z m -196.746094,13.892579 3.9375,4.652343 0.246094,-0.365234 c 0.219743,-0.344896 0.473975,-0.717555 0.736328,-1.125 0.379742,-0.594327 0.784476,-1.263312 1.101563,-1.824219 z m -5.365234,8.673828 c 1.108333,-0.0034 2.264506,0.244446 3.451172,0.759765 l 0.123047,0.05664 c 2.472,1.113335 4.236135,2.936331 5.105468,5.152344 0.82534,2.173304 0.784873,4.715963 -0.341797,7.30664 -0.963983,2.169336 -1.943919,4.335994 -2.919921,6.5 l -0.34375,-1.71289 c -0.03201,-0.158514 -0.07402,-0.321912 -0.166016,-0.451172 -0.08533,-0.134476 -0.250117,-0.272957 -0.523437,-0.398438 l -12.726563,-5.70703 c -0.220006,-0.101291 -0.405058,-0.116494 -0.566406,-0.09766 -0.152005,0.02419 -0.315977,0.09647 -0.445313,0.177734 L 15.314453,88.763672 18.005859,82.75 c 1.244002,-2.769335 2.961331,-4.721508 5,-5.714844 0.994666,-0.486444 2.05573,-0.740701 3.164063,-0.74414 z m -0.345703,3.439453 c -0.753198,-0.0034 -1.479823,0.119433 -2.160157,0.36914 -1.67732,0.598678 -3.13762,1.975002 -4.126953,4.181641 l -0.02148,0.03516 c -0.10269,0.240076 -0.191519,0.453973 -0.242187,0.607422 l 10.845703,4.878906 c 0.740001,0.332221 1.238749,0.434131 1.580078,0.275391 0.369331,-0.154658 0.669559,-0.628815 1.017578,-1.410156 v -0.0039 c 0.770664,-1.693326 0.807369,-3.310002 0.220703,-4.695312 -0.601334,-1.416 -1.859875,-2.605775 -3.671875,-3.425781 l -0.02148,-0.0078 c -1.160585,-0.52725 -2.319095,-0.799737 -3.419922,-0.804687 z m 218.216801,4.757812 c 0.69944,-0.01122 1.42373,0.135246 2.11718,0.484375 1.064,0.537336 2.02827,1.531995 2.71094,3.138672 0.30932,0.734665 0.52472,1.466908 0.63672,2.185547 0.12,0.706696 0.14485,1.400696 0.0527,2.082031 l -0.0625,0.38086 -0.36523,0.08984 c -0.57733,0.16252 -1.08504,0.213887 -1.5957,0.173829 -0.49467,-0.0378 -0.96149,-0.148913 -1.52149,-0.326172 l -0.75976,-0.240235 0.48632,-0.626953 c 0.48667,-0.649361 0.79016,-1.306018 0.91016,-1.943359 0.096,-0.629329 0.0277,-1.262289 -0.24023,-1.876953 -0.16933,-0.417336 -0.39587,-0.727922 -0.53321,-0.919922 -0.27598,-0.08126 -0.54893,-0.131928 -0.82226,-0.117188 -0.336,0.0038 -0.70315,0.08767 -1.11914,0.25586 -1.27601,0.54667 -1.53068,2.190696 -1.77735,3.970703 -0.35198,2.418633 -0.72644,5.052415 -3.53711,6.232422 -1.21866,0.513335 -2.84523,0.672281 -4.36523,-0.0957 -1.144,-0.576001 -2.23219,-1.678682 -3.02148,-3.554688 -0.27334,-0.666671 -0.4666,-1.435195 -0.5586,-2.173828 -0.13202,-0.854702 -0.13352,-1.682805 -0.043,-2.244141 l 0.043,-0.30664 0.27539,-0.126953 c 0.58667,-0.27326 1.18572,-0.456072 1.76172,-0.580079 0.58,-0.120189 1.14737,-0.191098 1.7207,-0.228515 l 0.39649,-0.0293 0.30664,0.751953 -0.23047,0.259766 c -0.716,0.772006 -1.18824,1.562906 -1.37891,2.378906 -0.17465,0.801335 -0.0935,1.664039 0.31446,2.609375 0.10934,0.288 0.27618,0.54082 0.4375,0.771484 0.16267,0.216189 0.31022,0.384369 0.43554,0.484375 0.284,0.05745 0.63046,0.05859 0.95313,0.03516 0.36533,-0.03401 0.74244,-0.120674 1.03711,-0.236328 v 0.002 c 1.96533,-0.829342 2.22047,-2.792266 2.48047,-4.740235 0.28932,-2.249348 0.59027,-4.494151 3.09961,-5.548828 0.54125,-0.227498 1.1387,-0.36119 1.75586,-0.371094 z m -230.308598,8.722657 0.595703,1.640624 c 0.08534,0.224126 0.16178,0.37904 0.287109,0.484376 0.12,0.110724 0.29135,0.181843 0.527344,0.257812 l 13.390625,3.613281 c 0.233348,0.06803 0.416077,0.09015 0.580078,0.05273 0.153336,-0.03855 0.307225,-0.130006 0.476563,-0.279297 l 1.363281,-1.091797 -0.458984,1.679687 -1.38086,5.103526 -0.621093,-1.64063 c -0.06799,-0.22148 -0.162081,-0.36921 -0.275391,-0.47461 -0.117317,-0.10546 -0.288759,-0.19312 -0.523438,-0.25586 L 14.308594,98.685547 c -0.225336,-0.06274 -0.428173,-0.08253 -0.576172,-0.0625 -0.173329,0.04271 -0.31506,0.133344 -0.484375,0.277344 L 11.875,100.01758 Z m 219.943358,4.74414 1.62695,2.201172 c 0.18267,0.24518 0.36494,0.44609 0.59961,0.58594 0.22134,0.144 0.53623,0.24862 0.96289,0.30078 l 5.22657,0.63867 8.70312,0.71484 c 0.0934,0.004 0.2078,0.004 0.31446,0 0.14397,-0.009 0.26446,-0.0436 0.34179,-0.0625 0.12533,-0.0227 0.25503,-0.0754 0.34571,-0.13281 0.11195,-0.0438 0.18611,-0.10182 0.24609,-0.14453 l 0.49805,-0.51953 1.71289,2.8457 c -2.16134,1.42934 -12.95416,8.12697 -13.91016,9.18164 -0.53066,0.35067 -0.86904,0.57679 -1.0957,0.80469 -0.19334,0.19332 -0.31674,0.414 -0.41407,0.75 l -0.38867,1.27539 0.63281,0.80274 c 0.18001,0.2386 0.35217,0.38919 0.52149,0.47461 0.19733,0.068 0.4083,0.0929 0.68164,0.0664 L 254,116.80273 l 3.19531,-0.54296 -12.42578,12.49414 2.28711,-0.19141 7.58203,-0.82031 c 0.29733,-0.02 0.49543,-0.0781 0.66211,-0.1836 0.16133,-0.10533 0.28827,-0.27746 0.4336,-0.58398 l 0.88281,-1.93555 0.60351,7.10938 -1.16406,-1.47852 c -0.17868,-0.23467 -0.35249,-0.39335 -0.53516,-0.47461 -0.16933,-0.0813 -0.38841,-0.1048 -0.67773,-0.082 -5.31733,0.0467 -11.557,0.77653 -16.98633,1.13672 l 11.88086,-12.08984 -2.85937,0.23632 -6.38086,0.69141 c -0.284,0.0374 -0.50451,0.0914 -0.67383,0.19531 -0.14935,0.10133 -0.28873,0.27173 -0.41406,0.57032 l -0.9043,1.92968 -0.57813,-6.99023 -1.24414,-5.23438 1.0625,0.51758 c 0.0733,0.0378 0.23604,0.0575 0.41602,0.0234 0.20267,-0.0389 0.4042,-0.11079 0.63086,-0.26953 l 2.94922,-1.95703 c -0.12,-0.62801 -0.31065,-1.66736 -0.58399,-2.80469 -0.25599,-1.07067 -0.47841,-1.84316 -0.62109,-2.3125 l -3.5,-0.16016 c -0.19067,0 -0.38407,-0.008 -0.52539,-0.008 -0.14532,0.008 -0.26371,0.008 -0.31836,0.0234 -0.0627,0.0189 -0.098,0.0294 -0.11914,0.0332 l -0.66992,1.54492 z m 8.94141,5.923832 0.0781,0.42773 c 0.10402,0.37867 0.19466,0.83055 0.30664,1.31055 0.164,0.68133 0.36706,1.43797 0.53907,2.05664 l 5.14453,-3.38672 z m -231.189456,0.85547 0.359375,0.10937 c 0.584002,0.18255 1.043172,0.41307 1.451172,0.70508 0.390667,0.288 0.748379,0.64308 1.123047,1.09375 l 0.517578,0.59961 -0.75,0.2832 c -0.764001,0.29329 -1.360872,0.68201 -1.796875,1.16602 -0.417331,0.46934 -0.687633,1.04959 -0.792969,1.71093 -0.06932,0.452 -0.04863,0.84107 -0.03125,1.06641 0.185349,0.21052 0.39086,0.39264 0.63086,0.52734 0.292006,0.18671 0.650931,0.31268 1.072266,0.38086 1.393313,0.21468 2.469431,-1.06168 3.634765,-2.42968 1.573334,-1.86535 3.291635,-3.8994 6.292969,-3.41407 1.321334,0.22148 2.768716,0.9348 3.636719,2.38282 0.681331,1.11333 1.011311,2.62909 0.695312,4.62109 -0.113348,0.71467 -0.365919,1.46657 -0.669922,2.14258 -0.355993,0.792 -0.783535,1.50159 -1.158203,1.93359 l -0.191406,0.23047 -0.308594,-0.0332 c -0.633332,-0.0775 -1.245401,-0.23645 -1.802734,-0.44727 -0.555999,-0.20145 -1.08293,-0.45574 -1.572266,-0.70508 l -0.355469,-0.18945 0.132813,-0.80859 0.341797,-0.0957 c 1.014667,-0.27326 1.828015,-0.68916 2.416015,-1.28515 0.582667,-0.58402 0.957523,-1.37183 1.13086,-2.39453 0.048,-0.29178 0.04782,-0.60895 0.0293,-0.87696 -0.02419,-0.27326 -0.07286,-0.49457 -0.103516,-0.64258 -0.225335,-0.19729 -0.505684,-0.37801 -0.791016,-0.52734 -0.333316,-0.17348 -0.691998,-0.29266 -1,-0.3418 -2.126664,-0.34922 -3.384382,1.18474 -4.623047,2.69141 -1.447984,1.75997 -2.879025,3.50284 -5.568359,3.07617 -1.237334,-0.20258 -2.466282,-0.90239 -3.238281,-2.15039 -0.6093373,-1.01733 -0.9120037,-2.36902 -0.638672,-4.0957 0.1226835,-0.78267 0.3364667,-1.52669 0.619141,-2.19336 0.276019,-0.67068 0.641073,-1.27083 1.066406,-1.79883 z m 14.791016,13.07226 -0.201172,5.81445 -0.566406,-0.0195 c -0.06133,-0.009 -0.234445,0.0854 -0.53711,0.24414 l -5.003906,2.53321 c -0.586666,0.35467 -1.022679,0.60539 -1.277344,0.88281 -0.198633,0.192 -0.314453,0.41739 -0.314453,0.71484 l -0.01953,0.50391 5.59961,0.19531 c 0.245307,0.0144 0.416546,-0.0337 0.560546,-0.10547 0.129336,-0.0722 0.252417,-0.19975 0.371094,-0.34375 l 1.06836,-1.41601 -0.253907,7.07617 -0.964843,-1.48242 c -0.111988,-0.14778 -0.2121,-0.29318 -0.357422,-0.36914 -0.117336,-0.096 -0.301809,-0.13332 -0.535157,-0.14844 L 9.8183594,131.38281 c -0.2653191,-0.004 -0.4376029,0.028 -0.5722656,0.10547 -0.1279749,0.076 -0.2479179,0.19559 -0.3652344,0.34375 l -1.078125,1.41211 0.2382812,-6.375 c 0.06,-1.9333 0.5050638,-3.37484 1.2890625,-4.35352 0.8613359,-1.05449 2.0483379,-1.54409 3.5136719,-1.49609 1.554667,0.0573 2.662363,0.68827 3.457031,1.48828 0.567999,0.58133 0.9621,1.23313 1.246094,1.81446 l 5.568359,-3.03321 c 0.566669,-0.30134 0.934757,-0.55738 1.21875,-0.83594 0.282667,-0.26382 0.51725,-0.57094 0.78125,-0.98828 z m -13.048828,6.71484 c -0.767861,-10e-4 -1.514217,0.1699 -2.074219,0.60743 -0.612,0.47463 -1.01503,1.26123 -1.068359,2.5039 v 0.47461 0.0215 c 0.193334,0.028 0.528789,0.0691 1.078125,0.0918 l 5.253906,0.18164 v -0.33398 c 0.04533,-1.15601 -0.243147,-2.03391 -0.757813,-2.61524 -0.511979,-0.57461 -1.27261,-0.88124 -2.224609,-0.92773 h -0.05273 c -0.05133,-0.002 -0.103106,-0.004 -0.154297,-0.004 z m 8.951172,11.83399 c 0.303093,-7e-4 0.607297,0.005 0.904297,0.0137 0.819998,0.034 1.59204,0.0918 2.109375,0.19727 l 0.416015,0.0859 1.025391,12.27344 -1.138672,-1.33203 c -0.09868,-0.12397 -0.220923,-0.23924 -0.351562,-0.32617 -0.145323,-0.068 -0.345481,-0.10522 -0.660157,-0.0859 l -13.888672,1.15625 c -0.253341,0.0265 -0.417539,0.0921 -0.5468746,0.19336 -0.1253292,0.0945 -0.2359654,0.22905 -0.3066406,0.37305 l -0.9023438,1.50195 -1.0039062,-12.17773 0.546875,-0.0469 c 0.4759993,-0.0533 1.2664386,-0.089 2.1210932,-0.041 0.597336,0.0302 1.229158,0.0889 1.785157,0.2129 l 0.414062,0.0957 0.06641,0.82812 -0.371094,0.16016 c -0.801336,0.35603 -1.374504,0.70108 -1.701172,1.34375 -0.354671,0.69997 -0.466343,1.79729 -0.31836,3.66797 0.02419,0.26419 0.05287,0.4762 0.07422,0.63086 l 0.142578,0.004 c 0.202659,0 0.44523,-8.8e-4 0.726563,-0.0156 l 4.630859,-0.39453 -0.257812,-3.11914 c -0.03591,-0.42131 -0.07733,-0.83333 -0.138672,-1.22266 -0.06002,-0.36926 -0.12169,-0.72458 -0.207031,-1.03125 l -0.169922,-0.77344 0.779297,0.0879 c 0.762667,0.0718 1.231438,0.4682 1.523437,0.99219 0.246652,0.46534 0.336754,0.99889 0.384766,1.49219 l 0.283203,3.39648 5.773437,-0.49023 c 0.122646,0 0.195673,-0.0327 0.234375,-0.0762 0.02419,-0.0522 0.04297,-0.10945 0.04297,-0.18164 l -0.121094,-1.33985 c -0.145322,-1.75597 -0.542051,-2.84892 -1.136718,-3.54492 -0.570667,-0.68534 -1.381705,-1.04016 -2.345704,-1.29883 l -0.386718,-0.10156 -0.07813,-1.00195 0.568359,-0.0488 c 0.470001,-0.0392 0.97336,-0.0555 1.478516,-0.0566 z m 213.619136,10.64062 1.09375,0.1875 0.0312,0.42188 c 0.0987,0.92935 0.41634,1.72713 1.01368,2.3418 0.62666,0.62267 1.56955,1.07792 2.96289,1.30859 l 12.23437,2.06836 c 0.23467,0.034 0.43484,0.0341 0.57617,-0.004 0.15334,-0.0465 0.29337,-0.15892 0.47071,-0.32031 l 1.22851,-1.24414 -1.13867,6.95117 -0.77148,-1.56836 c -0.10935,-0.21468 -0.22107,-0.36031 -0.34375,-0.45117 -0.12,-0.10016 -0.29415,-0.16054 -0.54883,-0.19531 l -12.26758,-2.03125 c -1.86667,-0.30539 -3.09327,-1.1516 -3.83594,-2.26758 -0.9,-1.35201 -1.05759,-3.07212 -0.79492,-4.63477 z M 9.4375,152.9082 l 1.037109,0.45118 c 0.646666,0.27835 1.296167,0.36916 1.9375,0.44921 5.793332,0.56002 11.902411,1.60743 17.705079,2.38477 l -14.863282,10.35742 c -0.201335,0.15345 -0.446672,0.35436 -0.638672,0.61719 -0.181341,0.25474 -0.30664,0.58644 -0.30664,1.03711 l -0.01563,2.26953 1.123047,0.82422 c 0.185348,0.13984 0.358772,0.21617 0.496093,0.24414 0.163994,0.0227 0.352805,-0.0151 0.578125,-0.0801 l 13.160157,-4.38477 c 0.23467,-0.0654 0.397148,-0.16087 0.507812,-0.27539 0.101329,-0.11187 0.187666,-0.27213 0.263672,-0.5 l 0.517578,-1.66406 0.546875,1.65821 1.673828,5.00781 -1.417968,-1.02149 c -0.187994,-0.144 -0.347807,-0.22171 -0.507813,-0.24023 -0.155981,-0.0227 -0.337614,-4e-4 -0.572266,0.0762 L 17.505859,174.5 c -0.225335,0.0839 -0.395625,0.17397 -0.515625,0.2832 -0.101329,0.10394 -0.173421,0.27221 -0.248046,0.48828 v 0.002 l -0.513672,1.67968 -1.957032,-5.83984 -2.132812,-7.08594 0.5625,-0.13476 c 0.238677,-0.0575 0.421747,-0.11966 0.59375,-0.19336 0.173329,-0.0748 0.333283,-0.17694 0.529297,-0.30469 l 9.191406,-6.16015 -4.677734,-0.54688 -5.033203,-0.50781 c -0.17333,-0.0189 -0.373258,-0.0346 -0.558594,-0.0195 -0.197329,0.003 -0.383344,0.0338 -0.472656,0.041 -0.166678,0.0491 -0.296486,0.14533 -0.396485,0.31445 -0.125329,0.21052 -0.202825,0.50196 -0.214844,0.86329 l -0.138671,4.10351 z m 229.91211,5.9336 c 0.88967,-0.0102 1.87379,0.16101 2.95312,0.51562 l 8.99805,2.96094 c 0.23199,0.076 0.40542,0.10209 0.58008,0.082 0.16135,-0.0227 0.30277,-0.10474 0.49609,-0.24609 l 1.41211,-1.03907 -2.20508,6.71289 -0.53515,-1.66406 c -0.0493,-0.22677 -0.14208,-0.39208 -0.2461,-0.49609 -0.10934,-0.11188 -0.28188,-0.20194 -0.50585,-0.2832 l -9.02149,-2.96289 c -1.19333,-0.38004 -2.29026,-0.49527 -3.18359,-0.16993 -0.87467,0.32391 -1.57101,1.076 -2.01368,2.39063 v 0.0215 c -0.42132,1.31467 -0.25939,2.43354 0.3086,3.32422 0.588,0.92266 1.60867,1.62124 2.88867,2.0332 2.78134,0.91601 4.37617,1.44158 5.57617,1.79493 1.172,0.36283 1.91501,0.55089 3.01367,0.82421 0.27334,0.0627 0.47282,0.0869 0.63282,0.0684 0.14532,-0.0227 0.31025,-0.0846 0.49023,-0.2207 l 1.4082,-1.03711 -1.97656,6.01953 -0.51758,-1.66797 c -0.068,-0.21996 -0.15506,-0.37018 -0.26172,-0.46875 -0.12531,-0.13077 -0.30677,-0.21625 -0.55078,-0.32812 -2.06799,-0.85202 -2.75715,-1.08285 -8.14648,-2.85352 l -0.10938,-0.043 c -2.09066,-0.71067 -3.67068,-1.82791 -4.55468,-3.28126 -0.87733,-1.44531 -1.07593,-3.18911 -0.41992,-5.17578 0.67999,-2.07998 1.69613,-3.49765 3.10546,-4.23632 0.70067,-0.37134 1.4951,-0.56404 2.38477,-0.57422 z m -6.45313,10.50781 -0.18359,2.72461 c -0.0186,0.32534 -4.6e-4,0.58535 0.0742,0.83594 0.0893,0.25734 0.25017,0.53534 0.54883,0.85546 l 3.58008,3.84961 6.19921,6.16407 c 0.0707,0.0813 0.16053,0.14901 0.22852,0.20117 0.12533,0.0839 0.23792,0.14554 0.30859,0.17578 0.11203,0.0601 0.23484,0.10062 0.35352,0.13086 0.12265,0.0227 0.21389,0.0311 0.2832,0.0273 l 0.71485,-0.0625 -0.53125,3.27735 c -4.248,-0.50003 -12.77373,-2.03036 -16.53907,-1.95703 -0.636,-0.0748 -1.05102,-0.12412 -1.375,-0.0977 -0.26533,0.0238 -0.48967,0.10979 -0.79101,0.30859 l -1.04688,0.6875 -0.0332,1.07813 c 0,0.29733 0.0428,0.53078 0.13477,0.71484 0.0933,0.17465 0.24526,0.32186 0.47461,0.48438 l 11.28515,7.84375 2.82813,1.58789 -17.52149,1.94922 1.90821,1.27539 6.44335,4.125 c 0.23201,0.16025 0.43526,0.2505 0.61524,0.26562 0.18533,0.0174 0.40979,-0.0435 0.70312,-0.1875 l 1.89844,-0.95117 -3.95703,5.91211 0.008,-1.88281 c 0,-0.29201 -0.0384,-0.52058 -0.12109,-0.70313 -0.10267,-0.16951 -0.25255,-0.32368 -0.47656,-0.48242 -4.596,-3.30535 -9.32608,-6.50262 -13.96875,-9.75195 l 16.85156,-1.9961 -2.37305,-1.58789 L 224,190.70703 c -0.244,-0.15345 -0.44604,-0.25832 -0.63672,-0.27344 -0.196,-0.0174 -0.40979,0.0335 -0.70312,0.18164 l -1.89649,0.94532 3.66992,-5.45508 2.62891,-5.19727 0.4668,1.08203 c 0.0493,0.0922 0.14619,0.20145 0.32617,0.30274 0.16133,0.0907 0.37699,0.16508 0.625,0.19531 l 3.53515,0.40234 c 0.30534,-0.552 0.82276,-1.46343 1.35743,-2.52343 0.51333,-0.98665 0.82558,-1.71551 1.01757,-2.15821 l -2.54882,-2.38086 c -0.15333,-0.12774 -0.29175,-0.25071 -0.42774,-0.35351 -0.11198,-0.0854 -0.20086,-0.16104 -0.23828,-0.1875 -0.0573,-0.0238 -0.10415,-0.0355 -0.13476,-0.0469 l -1.49024,0.74024 z m -197.511714,4.84766 -6.619141,15.60742 2.558594,-1.27149 5.693359,-2.97851 c 0.244006,-0.13985 0.445972,-0.27433 0.556641,-0.42774 0.110664,-0.15874 0.158371,-0.3761 0.179687,-0.69336 l 0.117188,-2.125 3.142578,6.36914 -1.611328,-0.96484 c -0.266684,-0.13984 -0.480309,-0.22241 -0.681641,-0.23828 -0.182664,-0.004 -0.396341,0.0553 -0.652344,0.17773 l -12.423828,5.89649 -2.759765,1.66601 7,-16.17773 -2.070313,1.02734 -6.771484,3.54102 c -0.238677,0.12548 -0.42192,0.2528 -0.53125,0.40625 -0.110665,0.16403 -0.183594,0.37519 -0.183594,0.69531 l -0.125,2.13086 -3.166016,-6.38477 1.628907,0.95508 c 0.261316,0.15345 0.472062,0.23904 0.664062,0.25 0.193323,0 0.416777,-0.0579 0.66211,-0.17773 5.091977,-2.49468 10.265909,-4.86321 15.392578,-7.2832 z m 200.517574,5.43554 -0.19336,0.39063 c -0.20666,0.34265 -0.40684,0.74073 -0.63086,1.1914 -0.31466,0.63066 -0.63735,1.33048 -0.91601,1.92383 l 6.11914,0.73047 z M 41.488281,192.4082 c 0.161204,-0.001 0.321344,0.002 0.480469,0.0137 1.735997,0.1279 3.29658,1.02682 4.53125,2.78124 1.24933,1.8 1.778291,3.46593 1.515625,5.03126 -0.255987,1.57176 -1.289583,2.99729 -3.15625,4.30664 l -7.759766,5.41601 c -0.206664,0.14287 -0.344019,0.27859 -0.416015,0.41602 -0.07332,0.144 -0.101993,0.32615 -0.111328,0.55273 l -0.02539,1.7461 -4.035156,-5.78907 1.65625,0.58008 c 0.220006,0.0854 0.393543,0.11561 0.546875,0.0918 0.158664,-0.0227 0.322002,-0.10153 0.527344,-0.24024 l 7.78125,-5.4375 c 1.089309,-0.75197 1.862989,-1.62991 2.097656,-2.61523 0.182664,-0.84801 -6.67e-4,-1.7951 -0.75,-2.8711 -0.770669,-1.08378 -1.715649,-1.63073 -2.708985,-1.74804 -1.134667,-0.13191 -2.365296,0.27495 -3.529297,1.07617 -2.386643,1.67467 -3.752629,2.6414 -4.779296,3.38672 -0.984,0.72401 -1.5846,1.20793 -2.447266,1.91992 -0.221329,0.17084 -0.362754,0.31984 -0.441406,0.45703 -0.07733,0.14136 -0.117188,0.30943 -0.117188,0.52539 l -0.01953,1.75196 -3.619141,-5.19532 1.642578,0.58203 c 0.213355,0.0786 0.38539,0.10383 0.525391,0.0801 0.174652,-0.0227 0.368215,-0.11324 0.601563,-0.25195 0.954667,-0.56134 1.571776,-0.94903 2.537109,-1.5957 1.054666,-0.69733 2.330954,-1.59258 4.626953,-3.19922 l 0.0098,-0.0117 c 1.628835,-1.1346 3.277633,-1.74544 4.835937,-1.75977 z m 109.078129,46.42383 c 0.83066,0 1.5976,0.17755 2.21093,0.52149 0.936,0.53865 1.50424,1.39338 1.65625,2.4707 0.10134,0.82001 -0.0353,1.58925 -0.41797,2.33594 -0.26509,0.48933 -0.62432,0.96663 -1.09765,1.44531 0.87733,0.096 1.6399,0.40675 2.22656,0.91211 0.76,0.66134 1.23931,1.6457 1.41797,2.92969 v 0.004 c 0.20133,1.60932 -0.32182,3.32999 -1.39648,4.61133 -1.048,1.23734 -2.55609,2.01239 -4.35743,2.25391 -0.54399,0.0642 -0.89307,0.0957 -1.20507,0.0957 -0.12533,0 -0.23494,-0.008 -0.34961,-0.0195 -0.41734,-0.0189 -0.80618,-0.0845 -1.32618,-0.22852 l -0.12109,-0.0547 -0.0684,-0.0977 c -0.19467,-0.32534 -0.33336,-0.69039 -0.41601,-1.0957 -0.0787,-0.27867 -0.12022,-0.56299 -0.15235,-0.78711 L 147.14648,254 c -0.0519,-0.456 -0.0678,-1.02682 -0.041,-1.60547 l 0.004,-1.01562 0.62304,0.78711 c 0.72134,0.912 1.38194,1.46968 2.08594,1.76562 0.59333,0.22942 1.18238,0.27846 2.01172,0.17188 0.88,-0.10916 1.27655,-0.32109 1.42187,-0.40235 0.15601,-0.29866 0.33064,-0.66927 0.44532,-1.14258 0.12268,-0.59334 0.14025,-1.25126 0.0566,-1.94726 -0.15067,-1.04402 -0.55154,-1.86378 -1.15821,-2.36914 -0.59466,-0.50283 -1.443,-0.71023 -2.375,-0.59571 l -0.0449,0.004 c -0.29867,0.037 -0.85173,0.10399 -1.42773,0.28125 l -1.96875,0.60156 1.92187,-1.41601 c 1.69733,-1.25333 3.16972,-2.33533 2.98438,-4.11133 l -0.0254,-0.0664 c -0.0707,-0.55733 -0.2945,-1.00024 -0.64649,-1.28711 -0.364,-0.33751 -0.92135,-0.45928 -1.55469,-0.36328 -0.572,0.068 -1.04914,0.21117 -1.50781,0.45117 -0.55733,0.29069 -1.0859,0.72998 -1.61523,1.33399 l -0.69922,0.80664 0.0879,-1.06055 c 0.0653,-0.73867 0.45609,-1.83366 1.35742,-2.68164 0.724,-0.69335 1.6593,-1.1169 2.7793,-1.27148 0.232,-0.0302 0.45041,-0.0352 0.70508,-0.0352 z m -34.00196,0.32031 -0.0723,0.31836 -2.22071,14.05078 c -0.0213,0.16933 0.15862,0.49819 0.75196,0.88086 0.58667,0.36401 1.36667,0.64796 2.13867,0.77344 l 1.50195,0.0352 -1.46289,0.67773 c -0.11467,0.0575 -0.19978,0.0993 -0.25976,0.14844 -0.0694,0.0518 -0.15169,0.13176 -0.26368,0.25195 l -0.12304,0.13477 -0.13086,-0.0156 c -1.844,-0.28134 -3.69063,-0.58145 -5.5293,-0.8789 l -3.91797,-0.61524 1.03516,-0.48437 c 0.16267,-0.0775 0.26394,-0.12489 0.33594,-0.17969 0.0786,-0.0571 0.153,-0.13233 0.26367,-0.25781 l 0.12305,-0.13867 0.17773,0.0234 c 0.10666,0.0151 0.21289,0.0195 0.35156,0.0195 0.51334,0 1.07981,-0.0964 1.50781,-0.25781 0.51468,-0.18278 0.73237,-0.40848 0.76563,-0.55664 l 1.60156,-10.25976 c 0.0867,-0.48401 -0.0894,-0.98164 -0.49609,-1.4043 -0.424,-0.47603 -1.11164,-0.8119 -1.93164,-0.94531 l -1.75196,-0.0332 v -0.46093 z m 56.09571,0.48243 c 0.49145,7.3e-4 1.09465,0.14568 1.64648,0.37304 0.812,0.33071 1.59288,0.84415 1.79688,1.35352 0.216,0.50797 0.0599,1.41917 -0.27344,2.22851 -0.32935,0.81067 -0.84356,1.57254 -1.35156,1.78321 -0.49467,0.20938 -1.42009,0.0509 -2.21875,-0.27149 -0.81067,-0.33071 -1.58212,-0.84488 -1.80079,-1.35156 -0.21067,-0.50797 -0.0466,-1.40613 0.27344,-2.2168 0.32799,-0.81464 0.8578,-1.58868 1.3418,-1.80468 0.16208,-0.0641 0.36255,-0.0943 0.58594,-0.0937 z m -46.4336,0.0137 c 0.11467,0 0.21899,-0.001 0.32032,0.004 1.78774,0.0987 3.19545,0.9066 4.07812,2.33594 v 0.004 c 0.72135,1.19867 1.0629,2.83019 0.96289,4.58593 -0.16533,2.89732 -1.09806,5.28194 -2.77539,7.08594 -2.3,2.47465 -5.32042,3.1328 -6.59375,3.13282 l -0.12305,-0.0117 c -0.29733,0 -0.61023,-0.063 -0.76758,-0.10157 -0.19307,-0.0427 -0.53558,-0.13819 -0.68359,-0.27539 L 120,255.94141 l 0.78711,-0.14844 c 1.99067,-0.42803 3.54758,-1.17043 4.76758,-2.25977 1.088,-0.94529 1.89374,-2.16 2.45508,-3.69336 -0.30934,0.16131 -0.61458,0.29715 -0.91993,0.39844 -0.54533,0.18142 -1.10273,0.27344 -1.66406,0.27344 -0.0813,0 -0.18061,-0.008 -0.2793,-0.0117 -1.33733,-0.0853 -2.63522,-0.71717 -3.47656,-1.70117 -0.81068,-0.95067 -1.18723,-2.19407 -1.11523,-3.69141 0.0933,-1.464 0.83761,-2.96363 1.98828,-4.01562 1.02267,-0.94534 2.29693,-1.44336 3.68359,-1.44336 z M 91.460938,239.793 c 0.194188,-0.002 0.36914,0.0222 0.509765,0.0762 0.512001,0.19616 1.067116,0.93446 1.425781,1.73047 0.364007,0.792 0.564766,1.69839 0.384766,2.20508 v 0.002 c -0.196006,0.51867 -0.934374,1.06436 -1.734375,1.42969 -0.793334,0.36397 -1.696891,0.56311 -2.212891,0.375 -0.495998,-0.18255 -1.049967,-0.93261 -1.417968,-1.72461 -0.36533,-0.79468 -0.566719,-1.70558 -0.386719,-2.21094 0.193323,-0.51866 0.944854,-1.06962 1.742187,-1.43359 0.562543,-0.26649 1.193123,-0.44286 1.689454,-0.44922 z m 53.261722,0.25781 v 0.0586 l 0.2207,0.0586 -0.19531,0.58789 h -0.13867 l -0.19336,0.46094 -0.19141,0.52539 c -0.25467,0.72933 -0.79086,2.2094 -1.49219,3.9414 l -0.87695,2.17969 c -1.17467,2.92267 -2.39432,5.94341 -2.84766,7.05274 -0.06,0.12661 -0.10586,0.24371 -0.14453,0.34765 -0.0413,0.10658 -0.0785,0.19779 -0.11719,0.28321 l -0.60351,1.41015 -3.92969,0.54688 0.25391,-0.25782 c 0.0107,-0.0106 1.0334,-1.04206 1.21875,-1.27148 0.17733,-0.23868 0.31783,-0.45531 0.45117,-0.69531 0.78133,-1.35999 1.78456,-3.30885 2.97656,-5.79688 1.396,-2.91598 2.61398,-5.70333 3.05664,-6.75 l -4.50976,0.17969 c -0.88534,0.052 -1.36935,0.16758 -1.77735,0.43555 -0.41466,0.26003 -0.78181,0.67214 -1.39648,1.38281 l -0.6875,0.77539 -0.0137,-0.90039 c -0.009,-0.41598 0.009,-1.35416 0.10937,-2.2168 0.0547,-0.65869 0.15751,-1.23918 0.29883,-1.67383 l 0.0625,-0.22265 0.17773,-0.0137 z m -19.35938,1.16211 c -0.0753,0 -0.14112,-0.001 -0.20312,0.002 -0.10398,0 -0.21031,0.0126 -0.34766,0.0391 -0.472,0.61999 -1.20753,1.61257 -1.29688,3.11523 -0.0573,1.18001 0.17231,2.13895 0.68165,2.84961 0.50666,0.70534 1.29092,1.13994 2.15625,1.18945 0.416,0.0121 0.83694,-0.02 1.23828,-0.10547 0.33333,-0.0813 0.63056,-0.19609 0.86523,-0.33593 l 0.0156,-0.0684 c 0.052,-0.33865 0.10862,-0.69192 0.14453,-1.58789 0.104,-1.54137 -0.13541,-2.82933 -0.69141,-3.72266 -0.504,-0.85867 -1.27597,-1.31824 -2.30664,-1.37305 -0.0953,-0.002 -0.18053,-0.002 -0.25586,-0.002 z"
       transform="matrix(0.26458333,0,0,0.26458333,31.729423,96.269606)" />
    <path
       d="m 64.488296,156.8569 h 4.482394 c 0.757061,-0.0667 1.509536,-0.16192 2.246842,-0.29563 h -8.979605 c 0.738716,0.13371 1.490838,0.22896 2.250369,0.29563"
       style="fill:#222222;fill-opacity:1;fill-rule:nonzero;stroke:none;stroke-width:0.352778"
       id="path256" />
    <path
       d="m 56.880149,154.98012 h 19.69523 c 0.271286,-0.1143 0.54222,-0.23495 0.807508,-0.35701 H 56.069818 c 0.268464,0.12206 0.539398,0.24271 0.810331,0.35701"
       style="fill:#222222;fill-opacity:1;fill-rule:nonzero;stroke:none;stroke-width:0.352778"
       id="path260" />
    <path
       d="m 53.262131,153.10651 h 26.931055 c 0.221192,-0.1397 0.436386,-0.27905 0.653344,-0.42298 H 52.60667 c 0.217664,0.14393 0.436033,0.28328 0.655461,0.42298"
       style="fill:#222222;fill-opacity:1;fill-rule:nonzero;stroke:none;stroke-width:0.352778"
       id="path264" />
    <path
       d="m 50.642474,151.22903 h 32.171922 c 0.192969,-0.1584 0.38735,-0.32103 0.576791,-0.48436 H 50.06533 c 0.1905,0.16333 0.380647,0.32596 0.577144,0.48436"
       style="fill:#222222;fill-opacity:1;fill-rule:nonzero;stroke:none;stroke-width:0.352778"
       id="path268" />
    <path
       d="m 48.586097,149.35084 h 36.284252 c 0.177094,-0.1778 0.351367,-0.36054 0.523875,-0.54434 H 48.06328 c 0.171098,0.1838 0.342548,0.36654 0.522817,0.54434"
       style="fill:#222222;fill-opacity:1;fill-rule:nonzero;stroke:none;stroke-width:0.352778"
       id="path272" />
    <path
       d="m 46.910756,147.47336 h 39.634582 c 0.16122,-0.19932 0.31997,-0.40252 0.475545,-0.60642 H 46.435917 c 0.153106,0.2039 0.314325,0.4071 0.474839,0.60642"
       style="fill:#222222;fill-opacity:1;fill-rule:nonzero;stroke:none;stroke-width:0.352778"
       id="path276" />
    <path
       d="m 45.534781,145.59835 h 42.387307 c 0.14852,-0.22331 0.293512,-0.44379 0.432506,-0.67098 H 45.098748 c 0.142169,0.22719 0.286808,0.44767 0.436033,0.67098"
       style="fill:#222222;fill-opacity:1;fill-rule:nonzero;stroke:none;stroke-width:0.352778"
       id="path280" />
    <path
       d="m 44.395485,143.72301 h 44.664488 c 0.131586,-0.24271 0.26035,-0.4893 0.384528,-0.73378 h -45.43566 c 0.125941,0.24448 0.252236,0.49107 0.386644,0.73378"
       style="fill:#222222;fill-opacity:1;fill-rule:nonzero;stroke:none;stroke-width:0.352778"
       id="path284" />
    <path
       d="m 43.464611,141.84655 h 46.529977 c 0.112889,-0.26247 0.229305,-0.52917 0.336197,-0.79587 H 43.127708 c 0.10795,0.2667 0.221545,0.5334 0.336903,0.79587"
       style="fill:#222222;fill-opacity:1;fill-rule:nonzero;stroke:none;stroke-width:0.352778"
       id="path288" />
    <path
       d="m 42.717392,139.97052 h 48.021874 c 0.09631,-0.2854 0.195086,-0.57256 0.28328,-0.85937 H 42.429878 c 0.08925,0.28681 0.190853,0.57397 0.287514,0.85937"
       style="fill:#222222;fill-opacity:1;fill-rule:nonzero;stroke:none;stroke-width:0.352778"
       id="path292" />
    <path
       d="m 42.138272,138.09374 h 49.180749 c 0.08255,-0.30621 0.159808,-0.61207 0.226483,-0.92075 H 41.907203 c 0.07302,0.30868 0.150283,0.61454 0.231069,0.92075"
       style="fill:#222222;fill-opacity:1;fill-rule:nonzero;stroke:none;stroke-width:0.352778"
       id="path296" />
    <path
       d="m 41.711058,136.21873 h 50.031649 c 0.06385,-0.32773 0.149578,-0.75777 0.197555,-1.08938 H 41.546664 c 0.04904,0.33161 0.101952,0.76165 0.164394,1.08938"
       style="fill:#222222;fill-opacity:1;fill-rule:nonzero;stroke:none;stroke-width:0.352778"
       id="path300" />
  </g>
</svg>
